<svg width="600" height="128" viewBox="0 0 600 128" fill="none" xmlns="http://www.w3.org/2000/svg">
<path d="M77.073 34.0425C77.073 43.6262 72.2891 51.8406 66.2651 55.0406C78.7032 61.1046 90.3614 72.4322 90.3614 84.4255V128H0V84.4255C0 72.4322 12.8627 61.8874 25.3009 55.8235C16.2648 51.8406 13.2884 42.3271 13.2884 34.0425C13.2884 15.2414 25.3009 0 45.1807 0C65.0605 0 77.073 15.2414 77.073 34.0425Z" fill="#386667"/>
<path d="M179.001 34.0425C179.001 43.6262 174.217 51.8406 168.193 55.0406C180.631 61.1046 192.289 72.4322 192.289 84.4255V128H101.928V84.4255C101.928 72.4322 114.79 61.8875 127.229 55.8235C118.192 51.8406 115.216 42.3271 115.216 34.0425C115.216 15.2414 127.229 0 147.108 0C166.988 0 179.001 15.2414 179.001 34.0425Z" fill="#A0CFD1"/>
<path d="M280.928 34.0425C280.928 43.6262 276.145 51.8406 270.121 55.0406C282.559 61.1046 294.217 72.4322 294.217 84.4255V128H203.855V84.4255C203.855 72.4322 216.718 61.8875 229.156 55.8235C220.12 51.8406 217.144 42.3271 217.144 34.0425C217.144 15.2414 229.156 0 249.036 0C268.916 0 280.928 15.2414 280.928 34.0425Z" fill="#A0CFD1"/>
<path d="M382.856 34.0425C382.856 43.6262 378.072 51.8406 372.048 55.0406C384.486 61.1046 396.145 72.4322 396.145 84.4255V128H305.783V84.4255C305.783 72.4322 318.646 61.8875 331.084 55.8235C322.048 51.8406 319.072 42.3271 319.072 34.0425C319.072 15.2414 331.084 0 350.964 0C370.844 0 382.856 15.2414 382.856 34.0425Z" fill="#A0CFD1"/>
<path d="M484.784 34.0425C484.784 43.6262 480 51.8406 473.976 55.0406C486.414 61.1046 498.072 72.4322 498.072 84.4255V128H407.711V84.4255C407.711 72.4322 420.574 61.8875 433.012 55.8235C423.976 51.8406 420.999 42.3271 420.999 34.0425C420.999 15.2414 433.012 0 452.892 0C472.771 0 484.784 15.2414 484.784 34.0425Z" fill="#A0CFD1"/>
<path d="M586.712 34.0425C586.712 43.6262 581.928 51.8406 575.904 55.0406C588.342 61.1046 600 72.4322 600 84.4255V128H509.639V84.4255C509.639 72.4322 522.501 61.8875 534.939 55.8235C525.903 51.8406 522.927 42.3271 522.927 34.0425C522.927 15.2414 534.939 0 554.819 0C574.699 0 586.712 15.2414 586.712 34.0425Z" fill="#A0CFD1"/>
<path d="M24.6025 93.181L17.2021 90.5707V88.1185L27.5557 92.0736V94.306L17.2021 98.2435V95.8002L24.6025 93.181ZM32.3105 91.6166C32.0059 91.6166 31.7422 91.6547 31.5195 91.7308C31.127 91.8715 30.8311 92.1322 30.6318 92.5131L28.3818 92.4076L29.2783 85.3676H36.3008V87.4945H31.0889L30.6318 90.2806C31.0186 90.0287 31.3203 89.8617 31.5371 89.7797C31.9004 89.6449 32.3428 89.5775 32.8643 89.5775C33.9189 89.5775 34.8389 89.932 35.624 90.641C36.4092 91.35 36.8018 92.3812 36.8018 93.7347C36.8018 94.9125 36.4238 95.9642 35.668 96.89C34.9121 97.8158 33.7812 98.2787 32.2754 98.2787C31.0625 98.2787 30.0664 97.9535 29.2871 97.3031C28.5078 96.6527 28.0742 95.7299 27.9863 94.5345H30.4824C30.582 95.0795 30.7725 95.5013 31.0537 95.8002C31.335 96.0931 31.7451 96.2396 32.2842 96.2396C32.9053 96.2396 33.377 96.0228 33.6992 95.5892C34.0273 95.1498 34.1914 94.599 34.1914 93.9369C34.1914 93.2865 34.0391 92.7386 33.7344 92.2933C33.4297 91.8422 32.9551 91.6166 32.3105 91.6166ZM42.4883 98.2611C40.8652 98.2611 39.7256 97.6927 39.0693 96.556C38.4189 95.4193 38.0938 93.7992 38.0938 91.6957C38.0938 89.5922 38.4189 87.9691 39.0693 86.8265C39.7256 85.684 40.8652 85.1127 42.4883 85.1127C44.1113 85.1127 45.251 85.684 45.9072 86.8265C46.5576 87.9691 46.8828 89.5922 46.8828 91.6957C46.8828 93.7992 46.5547 95.4193 45.8984 96.556C45.248 97.6927 44.1113 98.2611 42.4883 98.2611ZM43.9561 95.0531C44.1846 94.2797 44.2988 93.1605 44.2988 91.6957C44.2988 90.1605 44.1816 89.0238 43.9473 88.2855C43.7188 87.5472 43.2324 87.1781 42.4883 87.1781C41.7441 87.1781 41.252 87.5472 41.0117 88.2855C40.7715 89.0238 40.6514 90.1605 40.6514 91.6957C40.6514 93.1605 40.7715 94.2826 41.0117 95.0619C41.252 95.8353 41.7441 96.222 42.4883 96.222C43.2324 96.222 43.7217 95.8324 43.9561 95.0531ZM54.0986 91.0013C53.8877 90.5385 53.4746 90.307 52.8594 90.307C52.1445 90.307 51.6641 90.5385 51.418 91.0013C51.2832 91.265 51.2158 91.6576 51.2158 92.1791V97.9447H48.6758V88.3822H51.1104V89.7797C51.4209 89.2816 51.7139 88.9271 51.9893 88.7162C52.4756 88.3412 53.1055 88.1537 53.8789 88.1537C54.6113 88.1537 55.2031 88.3148 55.6543 88.6371C56.0176 88.9359 56.293 89.3197 56.4805 89.7885C56.8086 89.226 57.2158 88.8129 57.7021 88.5492C58.2178 88.2855 58.792 88.1537 59.4248 88.1537C59.8467 88.1537 60.2627 88.2357 60.6729 88.3998C61.083 88.5638 61.4551 88.851 61.7891 89.2611C62.0586 89.5951 62.2402 90.0052 62.334 90.4916C62.3926 90.8138 62.4219 91.2855 62.4219 91.9066L62.4043 97.9447H59.8379V91.8451C59.8379 91.4818 59.7793 91.183 59.6621 90.9486C59.4395 90.5033 59.0293 90.2806 58.4316 90.2806C57.7402 90.2806 57.2627 90.5677 56.999 91.142C56.8643 91.4467 56.7969 91.8129 56.7969 92.2406V97.9447H54.2744V92.2406C54.2744 91.6722 54.2158 91.2592 54.0986 91.0013ZM67.3086 88.3646V97.9447H64.7686V88.3646H67.3086ZM67.3086 84.9105V87.222H64.7686V84.9105H67.3086ZM69.7959 84.9896H72.3008V97.9447H69.7959V84.9896Z" fill="white"/>
<path d="M26.572 77.9807C26.44 78.0047 26.266 78.0467 26.05 78.1067C25.834 78.1667 25.594 78.1967 25.33 78.1967C24.79 78.1967 24.376 78.0647 24.088 77.8007C23.812 77.5247 23.674 77.0387 23.674 76.3427V69.5207H22.36V68.6207H23.674V66.0287H24.754V68.6207H26.5V69.5207H24.754V75.9107C24.754 76.1387 24.76 76.3367 24.772 76.5047C24.784 76.6727 24.82 76.8107 24.88 76.9187C24.94 77.0267 25.03 77.1047 25.15 77.1527C25.282 77.2007 25.462 77.2247 25.69 77.2247C25.834 77.2247 25.978 77.2127 26.122 77.1887C26.278 77.1647 26.428 77.1347 26.572 77.0987V77.9807ZM28.3058 77.9447V64.9847H29.3858V69.9167C29.8178 69.4607 30.2618 69.0887 30.7178 68.8007C31.1858 68.5127 31.7438 68.3687 32.3918 68.3687C32.9678 68.3687 33.5018 68.4707 33.9938 68.6747C34.4858 68.8667 34.8998 69.2087 35.2358 69.7007C35.4638 70.0367 35.5958 70.3847 35.6318 70.7447C35.6798 71.0927 35.7038 71.4587 35.7038 71.8427V77.9447H34.6238V71.8607C34.6238 71.0207 34.4378 70.3907 34.0658 69.9707C33.6938 69.5507 33.0758 69.3407 32.2118 69.3407C31.8758 69.3407 31.5698 69.3947 31.2938 69.5027C31.0178 69.5987 30.7658 69.7307 30.5378 69.8987C30.3218 70.0667 30.1358 70.2587 29.9798 70.4747C29.8238 70.6907 29.7038 70.9187 29.6198 71.1587C29.5118 71.4587 29.4458 71.7467 29.4218 72.0227C29.3978 72.2987 29.3858 72.5987 29.3858 72.9227V77.9447H28.3058ZM44.4097 73.0487C43.9537 73.2407 43.4917 73.3667 43.0237 73.4267C42.5557 73.4867 42.0877 73.5347 41.6197 73.5707C40.7917 73.6307 40.1437 73.8167 39.6757 74.1287C39.2197 74.4407 38.9917 74.9147 38.9917 75.5507C38.9917 75.8387 39.0457 76.0907 39.1537 76.3067C39.2737 76.5107 39.4237 76.6847 39.6037 76.8287C39.7957 76.9607 40.0117 77.0627 40.2517 77.1347C40.5037 77.1947 40.7557 77.2247 41.0077 77.2247C41.4397 77.2247 41.8597 77.1707 42.2677 77.0627C42.6757 76.9547 43.0357 76.7927 43.3477 76.5767C43.6717 76.3487 43.9297 76.0667 44.1217 75.7307C44.3137 75.3827 44.4097 74.9747 44.4097 74.5067V73.0487ZM42.5917 72.5087C42.7957 72.4847 43.0357 72.4487 43.3117 72.4007C43.5997 72.3527 43.8337 72.2867 44.0137 72.2027C44.1937 72.1187 44.3017 71.9807 44.3377 71.7887C44.3857 71.5847 44.4097 71.3987 44.4097 71.2307C44.4097 70.6787 44.2297 70.2287 43.8697 69.8807C43.5217 69.5207 42.9277 69.3407 42.0877 69.3407C41.7157 69.3407 41.3737 69.3767 41.0617 69.4487C40.7497 69.5087 40.4737 69.6227 40.2337 69.7907C40.0057 69.9467 39.8137 70.1627 39.6577 70.4387C39.5137 70.7027 39.4177 71.0387 39.3697 71.4467H38.2717C38.3077 70.8947 38.4337 70.4267 38.6497 70.0427C38.8657 69.6467 39.1417 69.3287 39.4777 69.0887C39.8257 68.8367 40.2217 68.6567 40.6657 68.5487C41.1217 68.4287 41.6017 68.3687 42.1057 68.3687C42.5737 68.3687 43.0117 68.4227 43.4197 68.5307C43.8397 68.6267 44.1997 68.7887 44.4997 69.0167C44.8117 69.2327 45.0517 69.5267 45.2197 69.8987C45.3997 70.2707 45.4897 70.7267 45.4897 71.2667V76.3427C45.4897 76.7627 45.5617 77.0327 45.7057 77.1527C45.8617 77.2607 46.1677 77.2307 46.6237 77.0627V77.9087C46.5397 77.9327 46.4137 77.9687 46.2457 78.0167C46.0897 78.0647 45.9337 78.0887 45.7777 78.0887C45.6097 78.0887 45.4477 78.0707 45.2917 78.0347C45.1117 78.0107 44.9677 77.9567 44.8597 77.8727C44.7517 77.7767 44.6617 77.6687 44.5897 77.5487C44.5297 77.4167 44.4877 77.2787 44.4637 77.1347C44.4397 76.9787 44.4277 76.8167 44.4277 76.6487C43.9717 77.1527 43.4497 77.5367 42.8617 77.8007C42.2737 78.0647 41.6377 78.1967 40.9537 78.1967C40.5457 78.1967 40.1497 78.1427 39.7657 78.0347C39.3937 77.9267 39.0637 77.7587 38.7757 77.5307C38.4877 77.3027 38.2597 77.0267 38.0917 76.7027C37.9237 76.3667 37.8397 75.9707 37.8397 75.5147C37.8397 73.9307 38.9257 72.9947 41.0977 72.7067L42.5917 72.5087ZM51.5857 77.9807C51.4537 78.0047 51.2797 78.0467 51.0637 78.1067C50.8477 78.1667 50.6077 78.1967 50.3437 78.1967C49.8037 78.1967 49.3897 78.0647 49.1017 77.8007C48.8257 77.5247 48.6877 77.0387 48.6877 76.3427V69.5207H47.3737V68.6207H48.6877V66.0287H49.7677V68.6207H51.5137V69.5207H49.7677V75.9107C49.7677 76.1387 49.7737 76.3367 49.7857 76.5047C49.7977 76.6727 49.8337 76.8107 49.8937 76.9187C49.9537 77.0267 50.0437 77.1047 50.1637 77.1527C50.2957 77.2007 50.4757 77.2247 50.7037 77.2247C50.8477 77.2247 50.9917 77.2127 51.1357 77.1887C51.2917 77.1647 51.4417 77.1347 51.5857 77.0987V77.9807ZM54.7774 67.1087C54.7774 67.6367 54.6514 68.0627 54.3994 68.3867C54.1594 68.6987 53.8474 68.9147 53.4634 69.0347V68.3687C53.6074 68.2727 53.7454 68.1407 53.8774 67.9727C54.0094 67.8047 54.0754 67.5407 54.0754 67.1807V66.5687H53.4634V64.9847H54.7774V67.1087ZM56.6037 75.0287C56.7717 75.8327 57.0717 76.4027 57.5037 76.7387C57.9477 77.0627 58.5777 77.2247 59.3937 77.2247C59.7897 77.2247 60.1317 77.1767 60.4197 77.0807C60.7077 76.9847 60.9417 76.8587 61.1217 76.7027C61.3137 76.5347 61.4577 76.3487 61.5537 76.1447C61.6497 75.9407 61.6977 75.7247 61.6977 75.4967C61.6977 75.0407 61.5477 74.7047 61.2477 74.4887C60.9597 74.2607 60.5937 74.0867 60.1497 73.9667C59.7057 73.8347 59.2257 73.7267 58.7097 73.6427C58.1937 73.5467 57.7137 73.4087 57.2697 73.2287C56.8257 73.0487 56.4537 72.7907 56.1537 72.4547C55.8657 72.1187 55.7217 71.6447 55.7217 71.0327C55.7217 70.2527 56.0037 69.6167 56.5677 69.1247C57.1437 68.6207 57.9537 68.3687 58.9977 68.3687C60.0057 68.3687 60.8217 68.5967 61.4457 69.0527C62.0817 69.4967 62.4657 70.2467 62.5977 71.3027H61.4997C61.4037 70.5827 61.1277 70.0787 60.6717 69.7907C60.2277 69.4907 59.6637 69.3407 58.9797 69.3407C58.2957 69.3407 57.7737 69.4907 57.4137 69.7907C57.0537 70.0787 56.8737 70.4627 56.8737 70.9427C56.8737 71.3627 57.0177 71.6867 57.3057 71.9147C57.6057 72.1307 57.9777 72.3107 58.4217 72.4547C58.8657 72.5867 59.3457 72.7067 59.8617 72.8147C60.3777 72.9227 60.8577 73.0787 61.3017 73.2827C61.7457 73.4747 62.1117 73.7387 62.3997 74.0747C62.6997 74.4107 62.8497 74.8787 62.8497 75.4787C62.8497 75.9227 62.7537 76.3187 62.5617 76.6667C62.3697 77.0027 62.1057 77.2847 61.7697 77.5127C61.4337 77.7407 61.0317 77.9087 60.5637 78.0167C60.1077 78.1367 59.6037 78.1967 59.0517 78.1967C58.4997 78.1967 58.0077 78.1127 57.5757 77.9447C57.1557 77.7887 56.7957 77.5667 56.4957 77.2787C56.1957 76.9907 55.9617 76.6547 55.7937 76.2707C55.6257 75.8867 55.5297 75.4727 55.5057 75.0287H56.6037Z" fill="white"/>
<path d="M16.502 111.374C16.502 111.902 16.574 112.406 16.718 112.886C16.862 113.354 17.066 113.768 17.33 114.128C17.606 114.476 17.936 114.758 18.32 114.974C18.716 115.178 19.16 115.28 19.652 115.28C20.204 115.28 20.684 115.172 21.092 114.956C21.512 114.728 21.854 114.422 22.118 114.038C22.382 113.654 22.574 113.21 22.694 112.706C22.814 112.19 22.862 111.638 22.838 111.05C22.838 110.462 22.754 109.946 22.586 109.502C22.43 109.046 22.208 108.662 21.92 108.35C21.632 108.038 21.296 107.804 20.912 107.648C20.528 107.48 20.108 107.396 19.652 107.396C19.148 107.396 18.698 107.498 18.302 107.702C17.906 107.906 17.576 108.188 17.312 108.548C17.048 108.896 16.844 109.316 16.7 109.808C16.568 110.288 16.502 110.81 16.502 111.374ZM16.502 119.672H15.422V106.676H16.502V108.314H16.538C16.694 108.014 16.892 107.744 17.132 107.504C17.384 107.264 17.654 107.066 17.942 106.91C18.242 106.754 18.548 106.634 18.86 106.55C19.172 106.466 19.478 106.424 19.778 106.424C20.534 106.424 21.176 106.55 21.704 106.802C22.232 107.054 22.664 107.402 23 107.846C23.348 108.278 23.6 108.794 23.756 109.394C23.912 109.994 23.99 110.636 23.99 111.32C23.99 111.968 23.906 112.592 23.738 113.192C23.57 113.792 23.312 114.32 22.964 114.776C22.628 115.22 22.196 115.58 21.668 115.856C21.152 116.12 20.54 116.252 19.832 116.252C19.172 116.252 18.536 116.108 17.924 115.82C17.324 115.52 16.85 115.082 16.502 114.506V119.672ZM33.0499 110.69C33.0499 110.234 32.9839 109.808 32.8519 109.412C32.7319 109.004 32.5459 108.656 32.2939 108.368C32.0539 108.068 31.7479 107.834 31.3759 107.666C31.0039 107.486 30.5779 107.396 30.0979 107.396C29.6179 107.396 29.1919 107.486 28.8199 107.666C28.4599 107.846 28.1479 108.086 27.8839 108.386C27.6319 108.686 27.4279 109.034 27.2719 109.43C27.1159 109.826 27.0139 110.246 26.9659 110.69H33.0499ZM26.9659 111.59C26.9659 112.094 27.0319 112.574 27.1639 113.03C27.2959 113.474 27.4879 113.864 27.7399 114.2C28.0039 114.524 28.3339 114.788 28.7299 114.992C29.1259 115.184 29.5819 115.28 30.0979 115.28C30.8059 115.28 31.4119 115.094 31.9159 114.722C32.4199 114.35 32.7559 113.822 32.9239 113.138H34.1299C33.9979 113.582 33.8239 113.996 33.6079 114.38C33.3919 114.752 33.1219 115.082 32.7979 115.37C32.4739 115.646 32.0899 115.862 31.6459 116.018C31.2019 116.174 30.6859 116.252 30.0979 116.252C29.3539 116.252 28.7119 116.126 28.1719 115.874C27.6319 115.622 27.1879 115.28 26.8399 114.848C26.4919 114.404 26.2339 113.888 26.0659 113.3C25.8979 112.7 25.8139 112.058 25.8139 111.374C25.8139 110.69 25.9099 110.048 26.1019 109.448C26.3059 108.848 26.5879 108.326 26.9479 107.882C27.3199 107.426 27.7699 107.072 28.2979 106.82C28.8259 106.556 29.4259 106.424 30.0979 106.424C31.3819 106.424 32.3899 106.868 33.1219 107.756C33.8539 108.632 34.2139 109.91 34.2019 111.59H26.9659ZM40.0099 116.252C39.4099 116.24 38.8459 116.132 38.3179 115.928C37.8019 115.724 37.3459 115.418 36.9499 115.01C36.5659 114.602 36.2599 114.092 36.0319 113.48C35.8039 112.868 35.6899 112.154 35.6899 111.338C35.6899 110.654 35.7799 110.018 35.9599 109.43C36.1399 108.83 36.4099 108.308 36.7699 107.864C37.1299 107.42 37.5799 107.072 38.1199 106.82C38.6599 106.556 39.2899 106.424 40.0099 106.424C40.7419 106.424 41.3779 106.556 41.9179 106.82C42.4579 107.072 42.9079 107.42 43.2679 107.864C43.6279 108.296 43.8919 108.812 44.0599 109.412C44.2399 110.012 44.3299 110.654 44.3299 111.338C44.3299 112.082 44.2279 112.754 44.0239 113.354C43.8199 113.954 43.5259 114.47 43.1419 114.902C42.7699 115.334 42.3139 115.67 41.7739 115.91C41.2459 116.138 40.6579 116.252 40.0099 116.252ZM43.1779 111.338C43.1779 110.786 43.1179 110.27 42.9979 109.79C42.8779 109.31 42.6919 108.896 42.4399 108.548C42.1879 108.188 41.8639 107.906 41.4679 107.702C41.0719 107.498 40.5859 107.396 40.0099 107.396C39.4459 107.396 38.9599 107.51 38.5519 107.738C38.1559 107.954 37.8319 108.248 37.5799 108.62C37.3279 108.98 37.1419 109.4 37.0219 109.88C36.9019 110.348 36.8419 110.834 36.8419 111.338C36.8419 111.914 36.9079 112.448 37.0399 112.94C37.1839 113.42 37.3879 113.834 37.6519 114.182C37.9159 114.53 38.2459 114.8 38.6419 114.992C39.0379 115.184 39.4939 115.28 40.0099 115.28C40.5739 115.28 41.0539 115.172 41.4499 114.956C41.8579 114.728 42.1879 114.428 42.4399 114.056C42.6919 113.684 42.8779 113.264 42.9979 112.796C43.1179 112.328 43.1779 111.842 43.1779 111.338ZM47.5098 111.374C47.5098 111.902 47.5818 112.406 47.7258 112.886C47.8698 113.354 48.0738 113.768 48.3378 114.128C48.6138 114.476 48.9438 114.758 49.3278 114.974C49.7238 115.178 50.1678 115.28 50.6598 115.28C51.2118 115.28 51.6918 115.172 52.0998 114.956C52.5198 114.728 52.8618 114.422 53.1258 114.038C53.3898 113.654 53.5818 113.21 53.7018 112.706C53.8218 112.19 53.8698 111.638 53.8458 111.05C53.8458 110.462 53.7618 109.946 53.5938 109.502C53.4378 109.046 53.2158 108.662 52.9278 108.35C52.6398 108.038 52.3038 107.804 51.9198 107.648C51.5358 107.48 51.1158 107.396 50.6598 107.396C50.1558 107.396 49.7058 107.498 49.3098 107.702C48.9138 107.906 48.5838 108.188 48.3198 108.548C48.0558 108.896 47.8518 109.316 47.7078 109.808C47.5758 110.288 47.5098 110.81 47.5098 111.374ZM47.5098 119.672H46.4298V106.676H47.5098V108.314H47.5458C47.7018 108.014 47.8998 107.744 48.1398 107.504C48.3918 107.264 48.6618 107.066 48.9498 106.91C49.2498 106.754 49.5558 106.634 49.8678 106.55C50.1798 106.466 50.4858 106.424 50.7858 106.424C51.5418 106.424 52.1838 106.55 52.7118 106.802C53.2398 107.054 53.6718 107.402 54.0078 107.846C54.3558 108.278 54.6078 108.794 54.7638 109.394C54.9198 109.994 54.9978 110.636 54.9978 111.32C54.9978 111.968 54.9138 112.592 54.7458 113.192C54.5778 113.792 54.3198 114.32 53.9718 114.776C53.6358 115.22 53.2038 115.58 52.6758 115.856C52.1598 116.12 51.5478 116.252 50.8398 116.252C50.1798 116.252 49.5438 116.108 48.9318 115.82C48.3318 115.52 47.8578 115.082 47.5098 114.506V119.672ZM57.4697 116V103.04H58.5497V116H57.4697ZM68.048 110.69C68.048 110.234 67.982 109.808 67.85 109.412C67.73 109.004 67.544 108.656 67.292 108.368C67.052 108.068 66.746 107.834 66.374 107.666C66.002 107.486 65.576 107.396 65.096 107.396C64.616 107.396 64.19 107.486 63.818 107.666C63.458 107.846 63.146 108.086 62.882 108.386C62.63 108.686 62.426 109.034 62.27 109.43C62.114 109.826 62.012 110.246 61.964 110.69H68.048ZM61.964 111.59C61.964 112.094 62.03 112.574 62.162 113.03C62.294 113.474 62.486 113.864 62.738 114.2C63.002 114.524 63.332 114.788 63.728 114.992C64.124 115.184 64.58 115.28 65.096 115.28C65.804 115.28 66.41 115.094 66.914 114.722C67.418 114.35 67.754 113.822 67.922 113.138H69.128C68.996 113.582 68.822 113.996 68.606 114.38C68.39 114.752 68.12 115.082 67.796 115.37C67.472 115.646 67.088 115.862 66.644 116.018C66.2 116.174 65.684 116.252 65.096 116.252C64.352 116.252 63.71 116.126 63.17 115.874C62.63 115.622 62.186 115.28 61.838 114.848C61.49 114.404 61.232 113.888 61.064 113.3C60.896 112.7 60.812 112.058 60.812 111.374C60.812 110.69 60.908 110.048 61.1 109.448C61.304 108.848 61.586 108.326 61.946 107.882C62.318 107.426 62.768 107.072 63.296 106.82C63.824 106.556 64.424 106.424 65.096 106.424C66.38 106.424 67.388 106.868 68.12 107.756C68.852 108.632 69.212 109.91 69.2 111.59H61.964ZM71.8399 116V114.416H73.1539V116H71.8399Z" fill="white"/>
</svg>
