<svg width="408" height="440" viewBox="0 0 408 440" fill="none" xmlns="http://www.w3.org/2000/svg">
<g filter="url(#filter0_d_183_5480)">
<rect x="4" width="400" height="432" rx="20" fill="#ECF5F6"/>
</g>
<path d="M106.495 109.776V110.976H118.495V109.776H106.495ZM118.015 109.776V110.976H130.015V109.776H118.015ZM129.535 109.776V110.976H141.535V109.776H129.535ZM148.647 95.592V108H152.055V100.8C152.055 100.192 152.143 99.704 152.319 99.336C152.495 98.952 152.703 98.664 152.943 98.472C153.199 98.264 153.455 98.128 153.711 98.064C153.983 97.984 154.199 97.944 154.359 97.944C154.903 97.944 155.311 98.04 155.583 98.232C155.871 98.408 156.071 98.648 156.183 98.952C156.311 99.256 156.383 99.592 156.399 99.96C156.415 100.312 156.423 100.672 156.423 101.04V108H159.831V101.088C159.831 100.704 159.855 100.328 159.903 99.96C159.967 99.576 160.079 99.24 160.239 98.952C160.415 98.648 160.647 98.408 160.935 98.232C161.239 98.04 161.631 97.944 162.111 97.944C162.591 97.944 162.967 98.024 163.239 98.184C163.527 98.344 163.743 98.56 163.887 98.832C164.031 99.104 164.119 99.424 164.151 99.792C164.183 100.16 164.199 100.552 164.199 100.968V108H167.607V99.696C167.607 98.896 167.495 98.216 167.271 97.656C167.047 97.08 166.735 96.616 166.335 96.264C165.935 95.912 165.455 95.656 164.895 95.496C164.335 95.336 163.727 95.256 163.071 95.256C162.207 95.256 161.455 95.464 160.815 95.88C160.191 96.296 159.695 96.776 159.327 97.32C158.991 96.552 158.495 96.016 157.839 95.712C157.199 95.408 156.487 95.256 155.703 95.256C154.887 95.256 154.159 95.432 153.519 95.784C152.895 96.136 152.359 96.632 151.911 97.272H151.863V95.592H148.647ZM178.173 100.464H172.629C172.645 100.224 172.693 99.952 172.773 99.648C172.869 99.344 173.021 99.056 173.229 98.784C173.453 98.512 173.741 98.288 174.093 98.112C174.461 97.92 174.917 97.824 175.461 97.824C176.293 97.824 176.909 98.048 177.309 98.496C177.725 98.944 178.013 99.6 178.173 100.464ZM172.629 102.624H181.581C181.645 101.664 181.565 100.744 181.341 99.864C181.117 98.984 180.749 98.2 180.237 97.512C179.741 96.824 179.101 96.28 178.317 95.88C177.533 95.464 176.613 95.256 175.557 95.256C174.613 95.256 173.749 95.424 172.965 95.76C172.197 96.096 171.533 96.56 170.973 97.152C170.413 97.728 169.981 98.416 169.677 99.216C169.373 100.016 169.221 100.88 169.221 101.808C169.221 102.768 169.365 103.648 169.653 104.448C169.957 105.248 170.381 105.936 170.925 106.512C171.469 107.088 172.133 107.536 172.917 107.856C173.701 108.16 174.581 108.312 175.557 108.312C176.965 108.312 178.165 107.992 179.157 107.352C180.149 106.712 180.885 105.648 181.365 104.16H178.365C178.253 104.544 177.949 104.912 177.453 105.264C176.957 105.6 176.365 105.768 175.677 105.768C174.717 105.768 173.981 105.52 173.469 105.024C172.957 104.528 172.677 103.728 172.629 102.624ZM187.442 95.592V91.872H184.034V95.592H181.97V97.872H184.034V105.192C184.034 105.816 184.138 106.32 184.346 106.704C184.554 107.088 184.834 107.384 185.186 107.592C185.554 107.8 185.97 107.936 186.434 108C186.914 108.08 187.418 108.12 187.946 108.12C188.282 108.12 188.626 108.112 188.978 108.096C189.33 108.08 189.65 108.048 189.938 108V105.36C189.778 105.392 189.61 105.416 189.434 105.432C189.258 105.448 189.074 105.456 188.882 105.456C188.306 105.456 187.922 105.36 187.73 105.168C187.538 104.976 187.442 104.592 187.442 104.016V97.872H189.938V95.592H187.442ZM191.08 95.592V108H194.488V102.408C194.488 101.848 194.544 101.328 194.656 100.848C194.768 100.368 194.952 99.952 195.208 99.6C195.48 99.232 195.832 98.944 196.264 98.736C196.696 98.528 197.224 98.424 197.848 98.424C198.056 98.424 198.272 98.44 198.496 98.472C198.72 98.488 198.912 98.512 199.072 98.544V95.376C198.8 95.296 198.552 95.256 198.328 95.256C197.896 95.256 197.48 95.32 197.08 95.448C196.68 95.576 196.304 95.76 195.952 96C195.6 96.224 195.288 96.504 195.016 96.84C194.744 97.16 194.528 97.512 194.368 97.896H194.32V95.592H191.08ZM203.432 93.672V90.864H200.024V93.672H203.432ZM200.024 95.592V108H203.432V95.592H200.024ZM214.083 99.96H217.419C217.371 99.16 217.179 98.472 216.843 97.896C216.507 97.304 216.067 96.816 215.523 96.432C214.995 96.032 214.387 95.736 213.699 95.544C213.027 95.352 212.323 95.256 211.587 95.256C210.579 95.256 209.683 95.424 208.899 95.76C208.115 96.096 207.451 96.568 206.907 97.176C206.363 97.768 205.947 98.48 205.659 99.312C205.387 100.128 205.251 101.016 205.251 101.976C205.251 102.904 205.403 103.76 205.707 104.544C206.011 105.312 206.435 105.976 206.979 106.536C207.523 107.096 208.179 107.536 208.947 107.856C209.731 108.16 210.587 108.312 211.515 108.312C213.163 108.312 214.515 107.88 215.571 107.016C216.627 106.152 217.267 104.896 217.491 103.248H214.203C214.091 104.016 213.811 104.632 213.363 105.096C212.931 105.544 212.307 105.768 211.491 105.768C210.963 105.768 210.515 105.648 210.147 105.408C209.779 105.168 209.483 104.864 209.259 104.496C209.051 104.112 208.899 103.688 208.803 103.224C208.707 102.76 208.659 102.304 208.659 101.856C208.659 101.392 208.707 100.928 208.803 100.464C208.899 99.984 209.059 99.552 209.283 99.168C209.523 98.768 209.827 98.448 210.195 98.208C210.563 97.952 211.019 97.824 211.563 97.824C213.019 97.824 213.859 98.536 214.083 99.96ZM229.456 95.592V91.872H226.048V95.592H223.984V97.872H226.048V105.192C226.048 105.816 226.152 106.32 226.36 106.704C226.568 107.088 226.848 107.384 227.2 107.592C227.568 107.8 227.984 107.936 228.448 108C228.928 108.08 229.432 108.12 229.96 108.12C230.296 108.12 230.64 108.112 230.992 108.096C231.344 108.08 231.664 108.048 231.952 108V105.36C231.792 105.392 231.624 105.416 231.448 105.432C231.272 105.448 231.088 105.456 230.896 105.456C230.32 105.456 229.936 105.36 229.744 105.168C229.552 104.976 229.456 104.592 229.456 104.016V97.872H231.952V95.592H229.456ZM236.118 101.808C236.118 101.312 236.166 100.824 236.262 100.344C236.358 99.864 236.518 99.44 236.742 99.072C236.982 98.704 237.294 98.408 237.678 98.184C238.062 97.944 238.542 97.824 239.118 97.824C239.694 97.824 240.174 97.944 240.558 98.184C240.958 98.408 241.27 98.704 241.494 99.072C241.734 99.44 241.902 99.864 241.998 100.344C242.094 100.824 242.142 101.312 242.142 101.808C242.142 102.304 242.094 102.792 241.998 103.272C241.902 103.736 241.734 104.16 241.494 104.544C241.27 104.912 240.958 105.208 240.558 105.432C240.174 105.656 239.694 105.768 239.118 105.768C238.542 105.768 238.062 105.656 237.678 105.432C237.294 105.208 236.982 104.912 236.742 104.544C236.518 104.16 236.358 103.736 236.262 103.272C236.166 102.792 236.118 102.304 236.118 101.808ZM232.71 101.808C232.71 102.8 232.862 103.696 233.166 104.496C233.47 105.296 233.902 105.984 234.462 106.56C235.022 107.12 235.694 107.552 236.478 107.856C237.262 108.16 238.142 108.312 239.118 108.312C240.094 108.312 240.974 108.16 241.758 107.856C242.558 107.552 243.238 107.12 243.798 106.56C244.358 105.984 244.79 105.296 245.094 104.496C245.398 103.696 245.55 102.8 245.55 101.808C245.55 100.816 245.398 99.92 245.094 99.12C244.79 98.304 244.358 97.616 243.798 97.056C243.238 96.48 242.558 96.04 241.758 95.736C240.974 95.416 240.094 95.256 239.118 95.256C238.142 95.256 237.262 95.416 236.478 95.736C235.694 96.04 235.022 96.48 234.462 97.056C233.902 97.616 233.47 98.304 233.166 99.12C232.862 99.92 232.71 100.816 232.71 101.808ZM247.286 95.592V108H250.694V101.496C250.694 100.232 250.902 99.328 251.318 98.784C251.734 98.224 252.406 97.944 253.334 97.944C254.15 97.944 254.718 98.2 255.038 98.712C255.358 99.208 255.518 99.968 255.518 100.992V108H258.926V100.368C258.926 99.6 258.854 98.904 258.71 98.28C258.582 97.64 258.35 97.104 258.014 96.672C257.678 96.224 257.214 95.88 256.622 95.64C256.046 95.384 255.302 95.256 254.39 95.256C253.67 95.256 252.966 95.424 252.278 95.76C251.59 96.08 251.03 96.6 250.598 97.32H250.526V95.592H247.286ZM263.672 103.968H260.432C260.464 104.8 260.648 105.496 260.984 106.056C261.336 106.6 261.776 107.04 262.304 107.376C262.848 107.712 263.464 107.952 264.152 108.096C264.84 108.24 265.544 108.312 266.264 108.312C266.968 108.312 267.656 108.24 268.328 108.096C269.016 107.968 269.624 107.736 270.152 107.4C270.68 107.064 271.104 106.624 271.424 106.08C271.76 105.52 271.928 104.832 271.928 104.016C271.928 103.44 271.816 102.96 271.592 102.576C271.368 102.176 271.072 101.848 270.704 101.592C270.336 101.32 269.912 101.104 269.432 100.944C268.968 100.784 268.488 100.648 267.992 100.536C267.512 100.424 267.04 100.32 266.576 100.224C266.112 100.128 265.696 100.024 265.328 99.912C264.976 99.784 264.688 99.624 264.464 99.432C264.24 99.24 264.128 98.992 264.128 98.688C264.128 98.432 264.192 98.232 264.32 98.088C264.448 97.928 264.6 97.808 264.776 97.728C264.968 97.648 265.176 97.6 265.4 97.584C265.624 97.552 265.832 97.536 266.024 97.536C266.632 97.536 267.16 97.656 267.608 97.896C268.056 98.12 268.304 98.56 268.352 99.216H271.592C271.528 98.448 271.328 97.816 270.992 97.32C270.672 96.808 270.264 96.4 269.768 96.096C269.272 95.792 268.704 95.576 268.064 95.448C267.44 95.32 266.792 95.256 266.12 95.256C265.448 95.256 264.792 95.32 264.152 95.448C263.512 95.56 262.936 95.768 262.424 96.072C261.912 96.36 261.496 96.76 261.176 97.272C260.872 97.784 260.72 98.44 260.72 99.24C260.72 99.784 260.832 100.248 261.056 100.632C261.28 101 261.576 101.312 261.944 101.568C262.312 101.808 262.728 102.008 263.192 102.168C263.672 102.312 264.16 102.44 264.656 102.552C265.872 102.808 266.816 103.064 267.488 103.32C268.176 103.576 268.52 103.96 268.52 104.472C268.52 104.776 268.448 105.032 268.304 105.24C268.16 105.432 267.976 105.592 267.752 105.72C267.544 105.832 267.304 105.92 267.032 105.984C266.776 106.032 266.528 106.056 266.288 106.056C265.952 106.056 265.624 106.016 265.304 105.936C265 105.856 264.728 105.736 264.488 105.576C264.248 105.4 264.048 105.184 263.888 104.928C263.744 104.656 263.672 104.336 263.672 103.968ZM282.666 101.808C282.666 101.312 282.714 100.824 282.81 100.344C282.906 99.864 283.066 99.44 283.29 99.072C283.53 98.704 283.842 98.408 284.226 98.184C284.61 97.944 285.09 97.824 285.666 97.824C286.242 97.824 286.722 97.944 287.106 98.184C287.506 98.408 287.818 98.704 288.042 99.072C288.282 99.44 288.45 99.864 288.546 100.344C288.642 100.824 288.69 101.312 288.69 101.808C288.69 102.304 288.642 102.792 288.546 103.272C288.45 103.736 288.282 104.16 288.042 104.544C287.818 104.912 287.506 105.208 287.106 105.432C286.722 105.656 286.242 105.768 285.666 105.768C285.09 105.768 284.61 105.656 284.226 105.432C283.842 105.208 283.53 104.912 283.29 104.544C283.066 104.16 282.906 103.736 282.81 103.272C282.714 102.792 282.666 102.304 282.666 101.808ZM279.258 101.808C279.258 102.8 279.41 103.696 279.714 104.496C280.018 105.296 280.45 105.984 281.01 106.56C281.57 107.12 282.242 107.552 283.026 107.856C283.81 108.16 284.69 108.312 285.666 108.312C286.642 108.312 287.522 108.16 288.306 107.856C289.106 107.552 289.786 107.12 290.346 106.56C290.906 105.984 291.338 105.296 291.642 104.496C291.946 103.696 292.098 102.8 292.098 101.808C292.098 100.816 291.946 99.92 291.642 99.12C291.338 98.304 290.906 97.616 290.346 97.056C289.786 96.48 289.106 96.04 288.306 95.736C287.522 95.416 286.642 95.256 285.666 95.256C284.69 95.256 283.81 95.416 283.026 95.736C282.242 96.04 281.57 96.48 281.01 97.056C280.45 97.616 280.018 98.304 279.714 99.12C279.41 99.92 279.258 100.816 279.258 101.808ZM294.578 97.872V108H297.986V97.872H300.338V95.592H297.986V94.848C297.986 94.336 298.082 93.976 298.274 93.768C298.482 93.544 298.818 93.432 299.282 93.432C299.714 93.432 300.13 93.456 300.53 93.504V90.96C300.242 90.944 299.946 90.928 299.642 90.912C299.338 90.88 299.034 90.864 298.73 90.864C297.338 90.864 296.298 91.216 295.61 91.92C294.922 92.624 294.578 93.528 294.578 94.632V95.592H292.538V97.872H294.578ZM78.523 125.624H82.171C82.059 124.632 81.787 123.752 81.355 122.984C80.923 122.216 80.371 121.576 79.699 121.064C79.043 120.536 78.291 120.136 77.443 119.864C76.611 119.592 75.723 119.456 74.779 119.456C73.467 119.456 72.283 119.688 71.227 120.152C70.187 120.616 69.307 121.256 68.587 122.072C67.867 122.888 67.315 123.848 66.931 124.952C66.547 126.04 66.355 127.224 66.355 128.504C66.355 129.752 66.547 130.92 66.931 132.008C67.315 133.08 67.867 134.016 68.587 134.816C69.307 135.616 70.187 136.248 71.227 136.712C72.283 137.16 73.467 137.384 74.779 137.384C75.835 137.384 76.803 137.224 77.683 136.904C78.563 136.584 79.331 136.12 79.987 135.512C80.643 134.904 81.171 134.168 81.571 133.304C81.971 132.44 82.219 131.472 82.315 130.4H78.667C78.523 131.552 78.123 132.48 77.467 133.184C76.827 133.888 75.931 134.24 74.779 134.24C73.931 134.24 73.211 134.08 72.619 133.76C72.027 133.424 71.547 132.984 71.179 132.44C70.811 131.896 70.539 131.288 70.363 130.616C70.203 129.928 70.123 129.224 70.123 128.504C70.123 127.752 70.203 127.024 70.363 126.32C70.539 125.616 70.811 124.992 71.179 124.448C71.547 123.888 72.027 123.448 72.619 123.128C73.211 122.792 73.931 122.624 74.779 122.624C75.243 122.624 75.683 122.704 76.099 122.864C76.531 123.008 76.915 123.216 77.251 123.488C77.587 123.76 77.867 124.08 78.091 124.448C78.315 124.8 78.459 125.192 78.523 125.624ZM87.432 128.504C87.432 127.752 87.512 127.024 87.672 126.32C87.848 125.616 88.12 124.992 88.488 124.448C88.856 123.888 89.336 123.448 89.928 123.128C90.52 122.792 91.24 122.624 92.088 122.624C92.936 122.624 93.656 122.792 94.248 123.128C94.84 123.448 95.32 123.888 95.688 124.448C96.056 124.992 96.32 125.616 96.48 126.32C96.656 127.024 96.744 127.752 96.744 128.504C96.744 129.224 96.656 129.928 96.48 130.616C96.32 131.288 96.056 131.896 95.688 132.44C95.32 132.984 94.84 133.424 94.248 133.76C93.656 134.08 92.936 134.24 92.088 134.24C91.24 134.24 90.52 134.08 89.928 133.76C89.336 133.424 88.856 132.984 88.488 132.44C88.12 131.896 87.848 131.288 87.672 130.616C87.512 129.928 87.432 129.224 87.432 128.504ZM83.664 128.504C83.664 129.752 83.856 130.92 84.24 132.008C84.624 133.08 85.176 134.016 85.896 134.816C86.616 135.616 87.496 136.248 88.536 136.712C89.592 137.16 90.776 137.384 92.088 137.384C93.416 137.384 94.6 137.16 95.64 136.712C96.68 136.248 97.56 135.616 98.28 134.816C99 134.016 99.552 133.08 99.936 132.008C100.32 130.92 100.512 129.752 100.512 128.504C100.512 127.224 100.32 126.04 99.936 124.952C99.552 123.848 99 122.888 98.28 122.072C97.56 121.256 96.68 120.616 95.64 120.152C94.6 119.688 93.416 119.456 92.088 119.456C90.776 119.456 89.592 119.688 88.536 120.152C87.496 120.616 86.616 121.256 85.896 122.072C85.176 122.888 84.624 123.848 84.24 124.952C83.856 126.04 83.664 127.224 83.664 128.504ZM109.448 141.056H101.744C101.744 140.464 101.792 139.944 101.888 139.496C101.984 139.048 102.128 138.648 102.32 138.296C102.512 137.944 102.76 137.632 103.064 137.36C103.368 137.088 103.736 136.816 104.168 136.544L105.896 135.464C106.36 135.192 106.672 134.928 106.832 134.672C107.008 134.4 107.096 134.088 107.096 133.736C107.096 133.416 106.984 133.136 106.76 132.896C106.552 132.656 106.248 132.536 105.848 132.536C105.288 132.536 104.896 132.704 104.672 133.04C104.464 133.376 104.344 133.816 104.312 134.36H101.912C101.912 133.288 102.248 132.408 102.92 131.72C103.608 131.032 104.592 130.688 105.872 130.688C107.056 130.688 107.96 130.968 108.584 131.528C109.208 132.072 109.52 132.808 109.52 133.736C109.52 134.456 109.32 135.056 108.92 135.536C108.536 136 107.976 136.456 107.24 136.904L105.608 137.912C105.288 138.104 105.032 138.312 104.84 138.536C104.648 138.76 104.536 138.96 104.504 139.136H109.448V141.056ZM125.671 129.464H120.127C120.143 129.224 120.191 128.952 120.271 128.648C120.367 128.344 120.519 128.056 120.727 127.784C120.951 127.512 121.239 127.288 121.591 127.112C121.959 126.92 122.415 126.824 122.959 126.824C123.791 126.824 124.407 127.048 124.807 127.496C125.223 127.944 125.511 128.6 125.671 129.464ZM120.127 131.624H129.079C129.143 130.664 129.063 129.744 128.839 128.864C128.615 127.984 128.247 127.2 127.735 126.512C127.239 125.824 126.599 125.28 125.815 124.88C125.031 124.464 124.111 124.256 123.055 124.256C122.111 124.256 121.247 124.424 120.463 124.76C119.695 125.096 119.031 125.56 118.471 126.152C117.911 126.728 117.479 127.416 117.175 128.216C116.871 129.016 116.719 129.88 116.719 130.808C116.719 131.768 116.863 132.648 117.151 133.448C117.455 134.248 117.879 134.936 118.423 135.512C118.967 136.088 119.631 136.536 120.415 136.856C121.199 137.16 122.079 137.312 123.055 137.312C124.463 137.312 125.663 136.992 126.655 136.352C127.647 135.712 128.383 134.648 128.863 133.16H125.863C125.751 133.544 125.447 133.912 124.951 134.264C124.455 134.6 123.863 134.768 123.175 134.768C122.215 134.768 121.479 134.52 120.967 134.024C120.455 133.528 120.175 132.728 120.127 131.624ZM133.5 130.808C133.5 130.296 133.548 129.808 133.644 129.344C133.756 128.864 133.932 128.44 134.172 128.072C134.412 127.688 134.724 127.384 135.108 127.16C135.492 126.936 135.964 126.824 136.524 126.824C137.052 126.824 137.5 126.944 137.868 127.184C138.252 127.424 138.556 127.736 138.78 128.12C139.004 128.504 139.164 128.936 139.26 129.416C139.372 129.896 139.428 130.376 139.428 130.856C139.428 131.368 139.372 131.864 139.26 132.344C139.164 132.808 138.996 133.224 138.756 133.592C138.532 133.944 138.228 134.232 137.844 134.456C137.476 134.664 137.012 134.768 136.452 134.768C135.892 134.768 135.42 134.656 135.036 134.432C134.668 134.208 134.364 133.912 134.124 133.544C133.9 133.16 133.74 132.736 133.644 132.272C133.548 131.792 133.5 131.304 133.5 130.808ZM142.716 141.344V124.592H139.476V126.176H139.428C139.044 125.488 138.508 125 137.82 124.712C137.148 124.408 136.428 124.256 135.66 124.256C134.716 124.256 133.892 124.44 133.188 124.808C132.5 125.176 131.924 125.672 131.46 126.296C130.996 126.904 130.652 127.608 130.428 128.408C130.204 129.208 130.092 130.032 130.092 130.88C130.092 132.08 130.26 133.096 130.596 133.928C130.932 134.744 131.356 135.408 131.868 135.92C132.38 136.416 132.94 136.776 133.548 137C134.172 137.208 134.772 137.312 135.348 137.312C136.116 137.312 136.86 137.168 137.58 136.88C138.3 136.592 138.86 136.112 139.26 135.44H139.308V141.344H142.716ZM156.452 137V124.592H153.044V131.096C153.044 132.36 152.836 133.272 152.42 133.832C152.004 134.376 151.332 134.648 150.404 134.648C149.588 134.648 149.02 134.4 148.7 133.904C148.38 133.392 148.22 132.624 148.22 131.6V124.592H144.812V132.224C144.812 132.992 144.876 133.696 145.004 134.336C145.148 134.96 145.388 135.496 145.724 135.944C146.06 136.376 146.516 136.712 147.092 136.952C147.684 137.192 148.436 137.312 149.348 137.312C150.068 137.312 150.772 137.152 151.46 136.832C152.148 136.512 152.708 135.992 153.14 135.272H153.212V137H156.452ZM162.063 122.672V119.864H158.655V122.672H162.063ZM158.655 124.592V137H162.063V124.592H158.655ZM171.13 137L175.33 124.592H171.946L169.33 133.064H169.282L166.666 124.592H163.09L167.338 137H171.13ZM176.111 128.408C176.159 127.608 176.359 126.944 176.711 126.416C177.063 125.888 177.511 125.464 178.055 125.144C178.599 124.824 179.207 124.6 179.879 124.472C180.567 124.328 181.255 124.256 181.943 124.256C182.567 124.256 183.199 124.304 183.839 124.4C184.479 124.48 185.063 124.648 185.591 124.904C186.119 125.16 186.551 125.52 186.887 125.984C187.223 126.432 187.391 127.032 187.391 127.784V134.24C187.391 134.8 187.423 135.336 187.487 135.848C187.551 136.36 187.663 136.744 187.823 137H184.367C184.303 136.808 184.247 136.616 184.199 136.424C184.167 136.216 184.143 136.008 184.127 135.8C183.583 136.36 182.943 136.752 182.207 136.976C181.471 137.2 180.719 137.312 179.951 137.312C179.359 137.312 178.807 137.24 178.295 137.096C177.783 136.952 177.335 136.728 176.951 136.424C176.567 136.12 176.263 135.736 176.039 135.272C175.831 134.808 175.727 134.256 175.727 133.616C175.727 132.912 175.847 132.336 176.087 131.888C176.343 131.424 176.663 131.056 177.047 130.784C177.447 130.512 177.895 130.312 178.391 130.184C178.903 130.04 179.415 129.928 179.927 129.848C180.439 129.768 180.943 129.704 181.439 129.656C181.935 129.608 182.375 129.536 182.759 129.44C183.143 129.344 183.447 129.208 183.671 129.032C183.895 128.84 183.999 128.568 183.983 128.216C183.983 127.848 183.919 127.56 183.791 127.352C183.679 127.128 183.519 126.96 183.311 126.848C183.119 126.72 182.887 126.64 182.615 126.608C182.359 126.56 182.079 126.536 181.775 126.536C181.103 126.536 180.575 126.68 180.191 126.968C179.807 127.256 179.583 127.736 179.519 128.408H176.111ZM183.983 130.928C183.839 131.056 183.655 131.16 183.431 131.24C183.223 131.304 182.991 131.36 182.735 131.408C182.495 131.456 182.239 131.496 181.967 131.528C181.695 131.56 181.423 131.6 181.151 131.648C180.895 131.696 180.639 131.76 180.383 131.84C180.143 131.92 179.927 132.032 179.735 132.176C179.559 132.304 179.415 132.472 179.303 132.68C179.191 132.888 179.135 133.152 179.135 133.472C179.135 133.776 179.191 134.032 179.303 134.24C179.415 134.448 179.567 134.616 179.759 134.744C179.951 134.856 180.175 134.936 180.431 134.984C180.687 135.032 180.951 135.056 181.223 135.056C181.895 135.056 182.415 134.944 182.783 134.72C183.151 134.496 183.423 134.232 183.599 133.928C183.775 133.608 183.879 133.288 183.911 132.968C183.959 132.648 183.983 132.392 183.983 132.2V130.928ZM189.652 119.864V137H193.06V119.864H189.652ZM203.616 129.464H198.072C198.088 129.224 198.136 128.952 198.216 128.648C198.312 128.344 198.464 128.056 198.672 127.784C198.896 127.512 199.184 127.288 199.536 127.112C199.904 126.92 200.36 126.824 200.904 126.824C201.736 126.824 202.352 127.048 202.752 127.496C203.168 127.944 203.456 128.6 203.616 129.464ZM198.072 131.624H207.024C207.088 130.664 207.008 129.744 206.784 128.864C206.56 127.984 206.192 127.2 205.68 126.512C205.184 125.824 204.544 125.28 203.76 124.88C202.976 124.464 202.056 124.256 201 124.256C200.056 124.256 199.192 124.424 198.408 124.76C197.64 125.096 196.976 125.56 196.416 126.152C195.856 126.728 195.424 127.416 195.12 128.216C194.816 129.016 194.664 129.88 194.664 130.808C194.664 131.768 194.808 132.648 195.096 133.448C195.4 134.248 195.824 134.936 196.368 135.512C196.912 136.088 197.576 136.536 198.36 136.856C199.144 137.16 200.024 137.312 201 137.312C202.408 137.312 203.608 136.992 204.6 136.352C205.592 135.712 206.328 134.648 206.808 133.16H203.808C203.696 133.544 203.392 133.912 202.896 134.264C202.4 134.6 201.808 134.768 201.12 134.768C200.16 134.768 199.424 134.52 198.912 134.024C198.4 133.528 198.12 132.728 198.072 131.624ZM208.565 124.592V137H211.973V130.496C211.973 129.232 212.181 128.328 212.597 127.784C213.013 127.224 213.685 126.944 214.613 126.944C215.429 126.944 215.997 127.2 216.317 127.712C216.637 128.208 216.797 128.968 216.797 129.992V137H220.205V129.368C220.205 128.6 220.133 127.904 219.989 127.28C219.861 126.64 219.629 126.104 219.293 125.672C218.957 125.224 218.493 124.88 217.901 124.64C217.325 124.384 216.581 124.256 215.669 124.256C214.949 124.256 214.245 124.424 213.557 124.76C212.869 125.08 212.309 125.6 211.877 126.32H211.805V124.592H208.565ZM226.631 124.592V120.872H223.223V124.592H221.159V126.872H223.223V134.192C223.223 134.816 223.327 135.32 223.535 135.704C223.743 136.088 224.023 136.384 224.375 136.592C224.743 136.8 225.159 136.936 225.623 137C226.103 137.08 226.607 137.12 227.135 137.12C227.471 137.12 227.815 137.112 228.167 137.096C228.519 137.08 228.839 137.048 229.127 137V134.36C228.967 134.392 228.799 134.416 228.623 134.432C228.447 134.448 228.263 134.456 228.071 134.456C227.495 134.456 227.111 134.36 226.919 134.168C226.727 133.976 226.631 133.592 226.631 133.016V126.872H229.127V124.592H226.631ZM242.445 119.456H239.589C239.061 120.224 238.597 121.064 238.197 121.976C237.813 122.888 237.485 123.832 237.213 124.808C236.957 125.784 236.757 126.768 236.613 127.76C236.485 128.736 236.421 129.672 236.421 130.568C236.421 132.456 236.693 134.312 237.237 136.136C237.797 137.96 238.581 139.696 239.589 141.344H242.421C241.509 139.6 240.845 137.808 240.429 135.968C240.029 134.128 239.829 132.248 239.829 130.328C239.829 128.44 240.037 126.584 240.453 124.76C240.869 122.92 241.533 121.152 242.445 119.456ZM243.45 119.864V137H246.978V124.976H247.026L251.226 137H254.13L258.33 124.856H258.378V137H261.906V119.864H256.602L252.81 131.648H252.762L248.754 119.864H243.45ZM268.536 123.032V137H272.304V123.032H277.44V119.864H263.4V123.032H268.536ZM290.36 125.624H294.008C293.896 124.632 293.624 123.752 293.192 122.984C292.76 122.216 292.208 121.576 291.536 121.064C290.88 120.536 290.128 120.136 289.28 119.864C288.448 119.592 287.56 119.456 286.616 119.456C285.304 119.456 284.12 119.688 283.064 120.152C282.024 120.616 281.144 121.256 280.424 122.072C279.704 122.888 279.152 123.848 278.768 124.952C278.384 126.04 278.192 127.224 278.192 128.504C278.192 129.752 278.384 130.92 278.768 132.008C279.152 133.08 279.704 134.016 280.424 134.816C281.144 135.616 282.024 136.248 283.064 136.712C284.12 137.16 285.304 137.384 286.616 137.384C287.672 137.384 288.64 137.224 289.52 136.904C290.4 136.584 291.168 136.12 291.824 135.512C292.48 134.904 293.008 134.168 293.408 133.304C293.808 132.44 294.056 131.472 294.152 130.4H290.504C290.36 131.552 289.96 132.48 289.304 133.184C288.664 133.888 287.768 134.24 286.616 134.24C285.768 134.24 285.048 134.08 284.456 133.76C283.864 133.424 283.384 132.984 283.016 132.44C282.648 131.896 282.376 131.288 282.2 130.616C282.04 129.928 281.96 129.224 281.96 128.504C281.96 127.752 282.04 127.024 282.2 126.32C282.376 125.616 282.648 124.992 283.016 124.448C283.384 123.888 283.864 123.448 284.456 123.128C285.048 122.792 285.768 122.624 286.616 122.624C287.08 122.624 287.52 122.704 287.936 122.864C288.368 123.008 288.752 123.216 289.088 123.488C289.424 123.76 289.704 124.08 289.928 124.448C290.152 124.8 290.296 125.192 290.36 125.624ZM299.269 128.504C299.269 127.752 299.349 127.024 299.509 126.32C299.685 125.616 299.957 124.992 300.325 124.448C300.693 123.888 301.173 123.448 301.765 123.128C302.357 122.792 303.077 122.624 303.925 122.624C304.773 122.624 305.493 122.792 306.085 123.128C306.677 123.448 307.157 123.888 307.525 124.448C307.893 124.992 308.157 125.616 308.317 126.32C308.493 127.024 308.581 127.752 308.581 128.504C308.581 129.224 308.493 129.928 308.317 130.616C308.157 131.288 307.893 131.896 307.525 132.44C307.157 132.984 306.677 133.424 306.085 133.76C305.493 134.08 304.773 134.24 303.925 134.24C303.077 134.24 302.357 134.08 301.765 133.76C301.173 133.424 300.693 132.984 300.325 132.44C299.957 131.896 299.685 131.288 299.509 130.616C299.349 129.928 299.269 129.224 299.269 128.504ZM295.501 128.504C295.501 129.752 295.693 130.92 296.077 132.008C296.461 133.08 297.013 134.016 297.733 134.816C298.453 135.616 299.333 136.248 300.373 136.712C301.429 137.16 302.613 137.384 303.925 137.384C305.253 137.384 306.437 137.16 307.477 136.712C308.517 136.248 309.397 135.616 310.117 134.816C310.837 134.016 311.389 133.08 311.773 132.008C312.157 130.92 312.349 129.752 312.349 128.504C312.349 127.224 312.157 126.04 311.773 124.952C311.389 123.848 310.837 122.888 310.117 122.072C309.397 121.256 308.517 120.616 307.477 120.152C306.437 119.688 305.253 119.456 303.925 119.456C302.613 119.456 301.429 119.688 300.373 120.152C299.333 120.616 298.453 121.256 297.733 122.072C297.013 122.888 296.461 123.848 296.077 124.952C295.693 126.04 295.501 127.224 295.501 128.504ZM321.284 141.056H313.58C313.58 140.464 313.628 139.944 313.724 139.496C313.82 139.048 313.964 138.648 314.156 138.296C314.348 137.944 314.596 137.632 314.9 137.36C315.204 137.088 315.572 136.816 316.004 136.544L317.732 135.464C318.196 135.192 318.508 134.928 318.668 134.672C318.844 134.4 318.932 134.088 318.932 133.736C318.932 133.416 318.82 133.136 318.596 132.896C318.388 132.656 318.084 132.536 317.684 132.536C317.124 132.536 316.732 132.704 316.508 133.04C316.3 133.376 316.18 133.816 316.148 134.36H313.748C313.748 133.288 314.084 132.408 314.756 131.72C315.444 131.032 316.428 130.688 317.708 130.688C318.892 130.688 319.796 130.968 320.42 131.528C321.044 132.072 321.356 132.808 321.356 133.736C321.356 134.456 321.156 135.056 320.756 135.536C320.372 136 319.812 136.456 319.076 136.904L317.444 137.912C317.124 138.104 316.868 138.312 316.676 138.536C316.484 138.76 316.372 138.96 316.34 139.136H321.284V141.056ZM331.308 129.464H325.764C325.78 129.224 325.828 128.952 325.908 128.648C326.004 128.344 326.156 128.056 326.364 127.784C326.588 127.512 326.876 127.288 327.228 127.112C327.596 126.92 328.052 126.824 328.596 126.824C329.428 126.824 330.044 127.048 330.444 127.496C330.86 127.944 331.148 128.6 331.308 129.464ZM325.764 131.624H334.716C334.78 130.664 334.7 129.744 334.476 128.864C334.252 127.984 333.884 127.2 333.372 126.512C332.876 125.824 332.236 125.28 331.452 124.88C330.668 124.464 329.748 124.256 328.692 124.256C327.748 124.256 326.884 124.424 326.1 124.76C325.332 125.096 324.668 125.56 324.108 126.152C323.548 126.728 323.116 127.416 322.812 128.216C322.508 129.016 322.356 129.88 322.356 130.808C322.356 131.768 322.5 132.648 322.788 133.448C323.092 134.248 323.516 134.936 324.06 135.512C324.604 136.088 325.268 136.536 326.052 136.856C326.836 137.16 327.716 137.312 328.692 137.312C330.1 137.312 331.3 136.992 332.292 136.352C333.284 135.712 334.02 134.648 334.5 133.16H331.5C331.388 133.544 331.084 133.912 330.588 134.264C330.092 134.6 329.5 134.768 328.812 134.768C327.852 134.768 327.116 134.52 326.604 134.024C326.092 133.528 325.812 132.728 325.764 131.624ZM334.817 141.344H337.649C338.177 140.592 338.641 139.76 339.041 138.848C339.441 137.936 339.769 137 340.025 136.04C340.297 135.064 340.497 134.088 340.625 133.112C340.753 132.12 340.817 131.176 340.817 130.28C340.817 128.392 340.537 126.528 339.977 124.688C339.433 122.848 338.657 121.104 337.649 119.456H334.841C335.721 121.2 336.369 123 336.785 124.856C337.201 126.712 337.409 128.6 337.409 130.52C337.409 132.408 337.193 134.264 336.761 136.088C336.345 137.896 335.697 139.648 334.817 141.344ZM63.4409 163.072C62.9129 163.072 62.4729 162.96 62.1209 162.736C61.7689 162.512 61.4809 162.224 61.2569 161.872C61.0489 161.52 60.8969 161.128 60.8009 160.696C60.7209 160.248 60.6809 159.8 60.6809 159.352C60.6809 158.888 60.7289 158.448 60.8249 158.032C60.9369 157.6 61.1049 157.224 61.3289 156.904C61.5689 156.568 61.8569 156.304 62.1929 156.112C62.5449 155.92 62.9609 155.824 63.4409 155.824C64.0009 155.824 64.4649 155.928 64.8329 156.136C65.2009 156.344 65.4969 156.624 65.7209 156.976C65.9449 157.328 66.1049 157.736 66.2009 158.2C66.2969 158.648 66.3449 159.128 66.3449 159.64C66.3449 160.088 66.2809 160.52 66.1529 160.936C66.0409 161.336 65.8649 161.696 65.6249 162.016C65.3849 162.336 65.0809 162.592 64.7129 162.784C64.3449 162.976 63.9209 163.072 63.4409 163.072ZM69.5849 165.208V153.592H66.3449V155.248H66.2969C65.8809 154.528 65.3609 154.016 64.7369 153.712C64.1289 153.408 63.4169 153.256 62.6009 153.256C61.7369 153.256 60.9689 153.424 60.2969 153.76C59.6409 154.096 59.0889 154.552 58.6409 155.128C58.1929 155.688 57.8489 156.344 57.6089 157.096C57.3849 157.832 57.2729 158.6 57.2729 159.4C57.2729 160.248 57.3689 161.056 57.5609 161.824C57.7689 162.576 58.0889 163.24 58.5209 163.816C58.9529 164.376 59.5049 164.824 60.1769 165.16C60.8489 165.48 61.6489 165.64 62.5769 165.64C63.3289 165.64 64.0409 165.488 64.7129 165.184C65.4009 164.864 65.9289 164.376 66.2969 163.72H66.3449V165.352C66.3609 166.232 66.1449 166.96 65.6969 167.536C65.2649 168.112 64.5689 168.4 63.6089 168.4C63.0009 168.4 62.4649 168.272 62.0009 168.016C61.5369 167.776 61.2249 167.336 61.0649 166.696H57.6809C57.7289 167.4 57.9209 168 58.2569 168.496C58.6089 169.008 59.0409 169.424 59.5529 169.744C60.0809 170.064 60.6569 170.296 61.2809 170.44C61.9209 170.6 62.5449 170.68 63.1529 170.68C64.5769 170.68 65.7129 170.488 66.5609 170.104C67.4089 169.72 68.0569 169.248 68.5049 168.688C68.9529 168.144 69.2409 167.552 69.3689 166.912C69.5129 166.272 69.5849 165.704 69.5849 165.208ZM71.8488 153.592V166H75.2568V160.408C75.2568 159.848 75.3128 159.328 75.4248 158.848C75.5368 158.368 75.7208 157.952 75.9768 157.6C76.2488 157.232 76.6008 156.944 77.0328 156.736C77.4648 156.528 77.9928 156.424 78.6168 156.424C78.8248 156.424 79.0408 156.44 79.2648 156.472C79.4888 156.488 79.6808 156.512 79.8408 156.544V153.376C79.5688 153.296 79.3208 153.256 79.0968 153.256C78.6648 153.256 78.2488 153.32 77.8488 153.448C77.4488 153.576 77.0728 153.76 76.7208 154C76.3688 154.224 76.0568 154.504 75.7848 154.84C75.5128 155.16 75.2968 155.512 75.1368 155.896H75.0888V153.592H71.8488ZM88.6271 158.464H83.0831C83.0991 158.224 83.1471 157.952 83.2271 157.648C83.3231 157.344 83.4751 157.056 83.6831 156.784C83.9071 156.512 84.1951 156.288 84.5471 156.112C84.9151 155.92 85.3711 155.824 85.9151 155.824C86.7471 155.824 87.3631 156.048 87.7631 156.496C88.1791 156.944 88.4671 157.6 88.6271 158.464ZM83.0831 160.624H92.0351C92.0991 159.664 92.0191 158.744 91.7951 157.864C91.5711 156.984 91.2031 156.2 90.6911 155.512C90.1951 154.824 89.5551 154.28 88.7711 153.88C87.9871 153.464 87.0671 153.256 86.0111 153.256C85.0671 153.256 84.2031 153.424 83.4191 153.76C82.6511 154.096 81.9871 154.56 81.4271 155.152C80.8671 155.728 80.4351 156.416 80.1311 157.216C79.8271 158.016 79.6751 158.88 79.6751 159.808C79.6751 160.768 79.8191 161.648 80.1071 162.448C80.4111 163.248 80.8351 163.936 81.3791 164.512C81.9231 165.088 82.5871 165.536 83.3711 165.856C84.1551 166.16 85.0351 166.312 86.0111 166.312C87.4191 166.312 88.6191 165.992 89.6111 165.352C90.6031 164.712 91.3391 163.648 91.8191 162.16H88.8191C88.7071 162.544 88.4031 162.912 87.9071 163.264C87.4111 163.6 86.8191 163.768 86.1311 163.768C85.1711 163.768 84.4351 163.52 83.9231 163.024C83.4111 162.528 83.1311 161.728 83.0831 160.624ZM101.928 158.464H96.3843C96.4003 158.224 96.4483 157.952 96.5283 157.648C96.6243 157.344 96.7763 157.056 96.9843 156.784C97.2083 156.512 97.4963 156.288 97.8483 156.112C98.2163 155.92 98.6723 155.824 99.2163 155.824C100.048 155.824 100.664 156.048 101.064 156.496C101.48 156.944 101.768 157.6 101.928 158.464ZM96.3843 160.624H105.336C105.4 159.664 105.32 158.744 105.096 157.864C104.872 156.984 104.504 156.2 103.992 155.512C103.496 154.824 102.856 154.28 102.072 153.88C101.288 153.464 100.368 153.256 99.3123 153.256C98.3683 153.256 97.5043 153.424 96.7203 153.76C95.9523 154.096 95.2883 154.56 94.7283 155.152C94.1683 155.728 93.7363 156.416 93.4323 157.216C93.1283 158.016 92.9763 158.88 92.9763 159.808C92.9763 160.768 93.1203 161.648 93.4083 162.448C93.7123 163.248 94.1363 163.936 94.6803 164.512C95.2243 165.088 95.8883 165.536 96.6723 165.856C97.4563 166.16 98.3363 166.312 99.3123 166.312C100.72 166.312 101.92 165.992 102.912 165.352C103.904 164.712 104.64 163.648 105.12 162.16H102.12C102.008 162.544 101.704 162.912 101.208 163.264C100.712 163.6 100.12 163.768 99.4323 163.768C98.4723 163.768 97.7363 163.52 97.2243 163.024C96.7123 162.528 96.4323 161.728 96.3843 160.624ZM106.878 153.592V166H110.286V159.496C110.286 158.232 110.494 157.328 110.91 156.784C111.326 156.224 111.998 155.944 112.926 155.944C113.742 155.944 114.31 156.2 114.63 156.712C114.95 157.208 115.11 157.968 115.11 158.992V166H118.518V158.368C118.518 157.6 118.446 156.904 118.302 156.28C118.174 155.64 117.942 155.104 117.606 154.672C117.27 154.224 116.806 153.88 116.214 153.64C115.638 153.384 114.894 153.256 113.982 153.256C113.262 153.256 112.558 153.424 111.87 153.76C111.182 154.08 110.622 154.6 110.19 155.32H110.118V153.592H106.878ZM120.624 148.864V166H124.032V159.496C124.032 158.232 124.24 157.328 124.656 156.784C125.072 156.224 125.744 155.944 126.672 155.944C127.488 155.944 128.056 156.2 128.376 156.712C128.696 157.208 128.856 157.968 128.856 158.992V166H132.264V158.368C132.264 157.6 132.192 156.904 132.048 156.28C131.92 155.64 131.688 155.104 131.352 154.672C131.016 154.224 130.552 153.88 129.96 153.64C129.384 153.384 128.64 153.256 127.728 153.256C127.088 153.256 126.432 153.424 125.76 153.76C125.088 154.08 124.536 154.6 124.104 155.32H124.032V148.864H120.624ZM137.395 159.808C137.395 159.312 137.443 158.824 137.539 158.344C137.635 157.864 137.795 157.44 138.019 157.072C138.259 156.704 138.571 156.408 138.955 156.184C139.339 155.944 139.819 155.824 140.395 155.824C140.971 155.824 141.451 155.944 141.835 156.184C142.235 156.408 142.547 156.704 142.771 157.072C143.011 157.44 143.179 157.864 143.275 158.344C143.371 158.824 143.419 159.312 143.419 159.808C143.419 160.304 143.371 160.792 143.275 161.272C143.179 161.736 143.011 162.16 142.771 162.544C142.547 162.912 142.235 163.208 141.835 163.432C141.451 163.656 140.971 163.768 140.395 163.768C139.819 163.768 139.339 163.656 138.955 163.432C138.571 163.208 138.259 162.912 138.019 162.544C137.795 162.16 137.635 161.736 137.539 161.272C137.443 160.792 137.395 160.304 137.395 159.808ZM133.987 159.808C133.987 160.8 134.139 161.696 134.443 162.496C134.747 163.296 135.179 163.984 135.739 164.56C136.299 165.12 136.971 165.552 137.755 165.856C138.539 166.16 139.419 166.312 140.395 166.312C141.371 166.312 142.251 166.16 143.035 165.856C143.835 165.552 144.515 165.12 145.075 164.56C145.635 163.984 146.067 163.296 146.371 162.496C146.675 161.696 146.827 160.8 146.827 159.808C146.827 158.816 146.675 157.92 146.371 157.12C146.067 156.304 145.635 155.616 145.075 155.056C144.515 154.48 143.835 154.04 143.035 153.736C142.251 153.416 141.371 153.256 140.395 153.256C139.419 153.256 138.539 153.416 137.755 153.736C136.971 154.04 136.299 154.48 135.739 155.056C135.179 155.616 134.747 156.304 134.443 157.12C134.139 157.92 133.987 158.816 133.987 159.808ZM160.203 166V153.592H156.795V160.096C156.795 161.36 156.587 162.272 156.171 162.832C155.755 163.376 155.083 163.648 154.155 163.648C153.339 163.648 152.771 163.4 152.451 162.904C152.131 162.392 151.971 161.624 151.971 160.6V153.592H148.563V161.224C148.563 161.992 148.627 162.696 148.755 163.336C148.899 163.96 149.139 164.496 149.475 164.944C149.811 165.376 150.267 165.712 150.843 165.952C151.435 166.192 152.187 166.312 153.099 166.312C153.819 166.312 154.523 166.152 155.211 165.832C155.899 165.512 156.459 164.992 156.891 164.272H156.963V166H160.203ZM164.949 161.968H161.709C161.741 162.8 161.925 163.496 162.261 164.056C162.613 164.6 163.053 165.04 163.581 165.376C164.125 165.712 164.741 165.952 165.429 166.096C166.117 166.24 166.821 166.312 167.541 166.312C168.245 166.312 168.933 166.24 169.605 166.096C170.293 165.968 170.901 165.736 171.429 165.4C171.957 165.064 172.381 164.624 172.701 164.08C173.037 163.52 173.205 162.832 173.205 162.016C173.205 161.44 173.093 160.96 172.869 160.576C172.645 160.176 172.349 159.848 171.981 159.592C171.613 159.32 171.189 159.104 170.709 158.944C170.245 158.784 169.765 158.648 169.269 158.536C168.789 158.424 168.317 158.32 167.853 158.224C167.389 158.128 166.973 158.024 166.605 157.912C166.253 157.784 165.965 157.624 165.741 157.432C165.517 157.24 165.405 156.992 165.405 156.688C165.405 156.432 165.469 156.232 165.597 156.088C165.725 155.928 165.877 155.808 166.053 155.728C166.245 155.648 166.453 155.6 166.677 155.584C166.901 155.552 167.109 155.536 167.301 155.536C167.909 155.536 168.437 155.656 168.885 155.896C169.333 156.12 169.581 156.56 169.629 157.216H172.869C172.805 156.448 172.605 155.816 172.269 155.32C171.949 154.808 171.541 154.4 171.045 154.096C170.549 153.792 169.981 153.576 169.341 153.448C168.717 153.32 168.069 153.256 167.397 153.256C166.725 153.256 166.069 153.32 165.429 153.448C164.789 153.56 164.213 153.768 163.701 154.072C163.189 154.36 162.773 154.76 162.453 155.272C162.149 155.784 161.997 156.44 161.997 157.24C161.997 157.784 162.109 158.248 162.333 158.632C162.557 159 162.853 159.312 163.221 159.568C163.589 159.808 164.005 160.008 164.469 160.168C164.949 160.312 165.437 160.44 165.933 160.552C167.149 160.808 168.093 161.064 168.765 161.32C169.453 161.576 169.797 161.96 169.797 162.472C169.797 162.776 169.725 163.032 169.581 163.24C169.437 163.432 169.253 163.592 169.029 163.72C168.821 163.832 168.581 163.92 168.309 163.984C168.053 164.032 167.805 164.056 167.565 164.056C167.229 164.056 166.901 164.016 166.581 163.936C166.277 163.856 166.005 163.736 165.765 163.576C165.525 163.4 165.325 163.184 165.165 162.928C165.021 162.656 164.949 162.336 164.949 161.968ZM183.072 158.464H177.528C177.544 158.224 177.592 157.952 177.672 157.648C177.768 157.344 177.92 157.056 178.128 156.784C178.352 156.512 178.64 156.288 178.992 156.112C179.36 155.92 179.816 155.824 180.36 155.824C181.192 155.824 181.808 156.048 182.208 156.496C182.624 156.944 182.912 157.6 183.072 158.464ZM177.528 160.624H186.48C186.544 159.664 186.464 158.744 186.24 157.864C186.016 156.984 185.648 156.2 185.136 155.512C184.64 154.824 184 154.28 183.216 153.88C182.432 153.464 181.512 153.256 180.456 153.256C179.512 153.256 178.648 153.424 177.864 153.76C177.096 154.096 176.432 154.56 175.872 155.152C175.312 155.728 174.88 156.416 174.576 157.216C174.272 158.016 174.12 158.88 174.12 159.808C174.12 160.768 174.264 161.648 174.552 162.448C174.856 163.248 175.28 163.936 175.824 164.512C176.368 165.088 177.032 165.536 177.816 165.856C178.6 166.16 179.48 166.312 180.456 166.312C181.864 166.312 183.064 165.992 184.056 165.352C185.048 164.712 185.784 163.648 186.264 162.16H183.264C183.152 162.544 182.848 162.912 182.352 163.264C181.856 163.6 181.264 163.768 180.576 163.768C179.616 163.768 178.88 163.52 178.368 163.024C177.856 162.528 177.576 161.728 177.528 160.624ZM200.005 163.072C199.477 163.072 199.037 162.96 198.685 162.736C198.333 162.512 198.045 162.224 197.821 161.872C197.613 161.52 197.461 161.128 197.365 160.696C197.285 160.248 197.245 159.8 197.245 159.352C197.245 158.888 197.293 158.448 197.389 158.032C197.501 157.6 197.669 157.224 197.893 156.904C198.133 156.568 198.421 156.304 198.757 156.112C199.109 155.92 199.525 155.824 200.005 155.824C200.565 155.824 201.029 155.928 201.397 156.136C201.765 156.344 202.061 156.624 202.285 156.976C202.509 157.328 202.669 157.736 202.765 158.2C202.861 158.648 202.909 159.128 202.909 159.64C202.909 160.088 202.845 160.52 202.717 160.936C202.605 161.336 202.429 161.696 202.189 162.016C201.949 162.336 201.645 162.592 201.277 162.784C200.909 162.976 200.485 163.072 200.005 163.072ZM206.149 165.208V153.592H202.909V155.248H202.861C202.445 154.528 201.925 154.016 201.301 153.712C200.693 153.408 199.981 153.256 199.165 153.256C198.301 153.256 197.533 153.424 196.861 153.76C196.205 154.096 195.653 154.552 195.205 155.128C194.757 155.688 194.413 156.344 194.173 157.096C193.949 157.832 193.837 158.6 193.837 159.4C193.837 160.248 193.933 161.056 194.125 161.824C194.333 162.576 194.653 163.24 195.085 163.816C195.517 164.376 196.069 164.824 196.741 165.16C197.413 165.48 198.213 165.64 199.141 165.64C199.893 165.64 200.605 165.488 201.277 165.184C201.965 164.864 202.493 164.376 202.861 163.72H202.909V165.352C202.925 166.232 202.709 166.96 202.261 167.536C201.829 168.112 201.133 168.4 200.173 168.4C199.565 168.4 199.029 168.272 198.565 168.016C198.101 167.776 197.789 167.336 197.629 166.696H194.245C194.293 167.4 194.485 168 194.821 168.496C195.173 169.008 195.605 169.424 196.117 169.744C196.645 170.064 197.221 170.296 197.845 170.44C198.485 170.6 199.109 170.68 199.717 170.68C201.141 170.68 202.277 170.488 203.125 170.104C203.973 169.72 204.621 169.248 205.069 168.688C205.517 168.144 205.805 167.552 205.933 166.912C206.077 166.272 206.149 165.704 206.149 165.208ZM208.269 157.408C208.317 156.608 208.517 155.944 208.869 155.416C209.221 154.888 209.669 154.464 210.213 154.144C210.757 153.824 211.365 153.6 212.037 153.472C212.725 153.328 213.413 153.256 214.101 153.256C214.725 153.256 215.357 153.304 215.997 153.4C216.637 153.48 217.221 153.648 217.749 153.904C218.277 154.16 218.709 154.52 219.045 154.984C219.381 155.432 219.549 156.032 219.549 156.784V163.24C219.549 163.8 219.581 164.336 219.645 164.848C219.709 165.36 219.821 165.744 219.981 166H216.525C216.461 165.808 216.405 165.616 216.357 165.424C216.325 165.216 216.301 165.008 216.285 164.8C215.741 165.36 215.101 165.752 214.365 165.976C213.629 166.2 212.877 166.312 212.109 166.312C211.517 166.312 210.965 166.24 210.453 166.096C209.941 165.952 209.493 165.728 209.109 165.424C208.725 165.12 208.421 164.736 208.197 164.272C207.989 163.808 207.885 163.256 207.885 162.616C207.885 161.912 208.005 161.336 208.245 160.888C208.501 160.424 208.821 160.056 209.205 159.784C209.605 159.512 210.053 159.312 210.549 159.184C211.061 159.04 211.573 158.928 212.085 158.848C212.597 158.768 213.101 158.704 213.597 158.656C214.093 158.608 214.533 158.536 214.917 158.44C215.301 158.344 215.605 158.208 215.829 158.032C216.053 157.84 216.157 157.568 216.141 157.216C216.141 156.848 216.077 156.56 215.949 156.352C215.837 156.128 215.677 155.96 215.469 155.848C215.277 155.72 215.045 155.64 214.773 155.608C214.517 155.56 214.237 155.536 213.933 155.536C213.261 155.536 212.733 155.68 212.349 155.968C211.965 156.256 211.741 156.736 211.677 157.408H208.269ZM216.141 159.928C215.997 160.056 215.813 160.16 215.589 160.24C215.381 160.304 215.149 160.36 214.893 160.408C214.653 160.456 214.397 160.496 214.125 160.528C213.853 160.56 213.581 160.6 213.309 160.648C213.053 160.696 212.797 160.76 212.541 160.84C212.301 160.92 212.085 161.032 211.893 161.176C211.717 161.304 211.573 161.472 211.461 161.68C211.349 161.888 211.293 162.152 211.293 162.472C211.293 162.776 211.349 163.032 211.461 163.24C211.573 163.448 211.725 163.616 211.917 163.744C212.109 163.856 212.333 163.936 212.589 163.984C212.845 164.032 213.109 164.056 213.381 164.056C214.053 164.056 214.573 163.944 214.941 163.72C215.309 163.496 215.581 163.232 215.757 162.928C215.933 162.608 216.037 162.288 216.069 161.968C216.117 161.648 216.141 161.392 216.141 161.2V159.928ZM224.354 161.968H221.114C221.146 162.8 221.33 163.496 221.666 164.056C222.018 164.6 222.458 165.04 222.986 165.376C223.53 165.712 224.146 165.952 224.834 166.096C225.522 166.24 226.226 166.312 226.946 166.312C227.65 166.312 228.338 166.24 229.01 166.096C229.698 165.968 230.306 165.736 230.834 165.4C231.362 165.064 231.786 164.624 232.106 164.08C232.442 163.52 232.61 162.832 232.61 162.016C232.61 161.44 232.498 160.96 232.274 160.576C232.05 160.176 231.754 159.848 231.386 159.592C231.018 159.32 230.594 159.104 230.114 158.944C229.65 158.784 229.17 158.648 228.674 158.536C228.194 158.424 227.722 158.32 227.258 158.224C226.794 158.128 226.378 158.024 226.01 157.912C225.658 157.784 225.37 157.624 225.146 157.432C224.922 157.24 224.81 156.992 224.81 156.688C224.81 156.432 224.874 156.232 225.002 156.088C225.13 155.928 225.282 155.808 225.458 155.728C225.65 155.648 225.858 155.6 226.082 155.584C226.306 155.552 226.514 155.536 226.706 155.536C227.314 155.536 227.842 155.656 228.29 155.896C228.738 156.12 228.986 156.56 229.034 157.216H232.274C232.21 156.448 232.01 155.816 231.674 155.32C231.354 154.808 230.946 154.4 230.45 154.096C229.954 153.792 229.386 153.576 228.746 153.448C228.122 153.32 227.474 153.256 226.802 153.256C226.13 153.256 225.474 153.32 224.834 153.448C224.194 153.56 223.618 153.768 223.106 154.072C222.594 154.36 222.178 154.76 221.858 155.272C221.554 155.784 221.402 156.44 221.402 157.24C221.402 157.784 221.514 158.248 221.738 158.632C221.962 159 222.258 159.312 222.626 159.568C222.994 159.808 223.41 160.008 223.874 160.168C224.354 160.312 224.842 160.44 225.338 160.552C226.554 160.808 227.498 161.064 228.17 161.32C228.858 161.576 229.202 161.96 229.202 162.472C229.202 162.776 229.13 163.032 228.986 163.24C228.842 163.432 228.658 163.592 228.434 163.72C228.226 163.832 227.986 163.92 227.714 163.984C227.458 164.032 227.21 164.056 226.97 164.056C226.634 164.056 226.306 164.016 225.986 163.936C225.682 163.856 225.41 163.736 225.17 163.576C224.93 163.4 224.73 163.184 224.57 162.928C224.426 162.656 224.354 162.336 224.354 161.968ZM248.676 158.464H243.132C243.148 158.224 243.196 157.952 243.276 157.648C243.372 157.344 243.524 157.056 243.732 156.784C243.956 156.512 244.244 156.288 244.596 156.112C244.964 155.92 245.42 155.824 245.964 155.824C246.796 155.824 247.412 156.048 247.812 156.496C248.228 156.944 248.516 157.6 248.676 158.464ZM243.132 160.624H252.084C252.148 159.664 252.068 158.744 251.844 157.864C251.62 156.984 251.252 156.2 250.74 155.512C250.244 154.824 249.604 154.28 248.82 153.88C248.036 153.464 247.116 153.256 246.06 153.256C245.116 153.256 244.252 153.424 243.468 153.76C242.7 154.096 242.036 154.56 241.476 155.152C240.916 155.728 240.484 156.416 240.18 157.216C239.876 158.016 239.724 158.88 239.724 159.808C239.724 160.768 239.868 161.648 240.156 162.448C240.46 163.248 240.884 163.936 241.428 164.512C241.972 165.088 242.636 165.536 243.42 165.856C244.204 166.16 245.084 166.312 246.06 166.312C247.468 166.312 248.668 165.992 249.66 165.352C250.652 164.712 251.388 163.648 251.868 162.16H248.868C248.756 162.544 248.452 162.912 247.956 163.264C247.46 163.6 246.868 163.768 246.18 163.768C245.22 163.768 244.484 163.52 243.972 163.024C243.46 162.528 243.18 161.728 243.132 160.624ZM253.721 153.592V166H257.129V158.8C257.129 158.192 257.217 157.704 257.393 157.336C257.569 156.952 257.777 156.664 258.017 156.472C258.273 156.264 258.529 156.128 258.785 156.064C259.057 155.984 259.273 155.944 259.433 155.944C259.977 155.944 260.385 156.04 260.657 156.232C260.945 156.408 261.145 156.648 261.257 156.952C261.385 157.256 261.457 157.592 261.473 157.96C261.489 158.312 261.497 158.672 261.497 159.04V166H264.905V159.088C264.905 158.704 264.929 158.328 264.977 157.96C265.041 157.576 265.153 157.24 265.313 156.952C265.489 156.648 265.721 156.408 266.009 156.232C266.313 156.04 266.705 155.944 267.185 155.944C267.665 155.944 268.041 156.024 268.313 156.184C268.601 156.344 268.817 156.56 268.961 156.832C269.105 157.104 269.193 157.424 269.225 157.792C269.257 158.16 269.273 158.552 269.273 158.968V166H272.681V157.696C272.681 156.896 272.569 156.216 272.345 155.656C272.121 155.08 271.809 154.616 271.409 154.264C271.009 153.912 270.529 153.656 269.969 153.496C269.409 153.336 268.801 153.256 268.145 153.256C267.281 153.256 266.529 153.464 265.889 153.88C265.265 154.296 264.769 154.776 264.401 155.32C264.065 154.552 263.569 154.016 262.913 153.712C262.273 153.408 261.561 153.256 260.777 153.256C259.961 153.256 259.233 153.432 258.593 153.784C257.969 154.136 257.433 154.632 256.985 155.272H256.937V153.592H253.721ZM278.399 151.672V148.864H274.991V151.672H278.399ZM274.991 153.592V166H278.399V153.592H274.991ZM283.243 161.968H280.003C280.035 162.8 280.219 163.496 280.555 164.056C280.907 164.6 281.347 165.04 281.875 165.376C282.419 165.712 283.035 165.952 283.723 166.096C284.411 166.24 285.115 166.312 285.835 166.312C286.539 166.312 287.227 166.24 287.899 166.096C288.587 165.968 289.195 165.736 289.723 165.4C290.251 165.064 290.675 164.624 290.995 164.08C291.331 163.52 291.499 162.832 291.499 162.016C291.499 161.44 291.387 160.96 291.163 160.576C290.939 160.176 290.643 159.848 290.275 159.592C289.907 159.32 289.483 159.104 289.003 158.944C288.539 158.784 288.059 158.648 287.563 158.536C287.083 158.424 286.611 158.32 286.147 158.224C285.683 158.128 285.267 158.024 284.899 157.912C284.547 157.784 284.259 157.624 284.035 157.432C283.811 157.24 283.699 156.992 283.699 156.688C283.699 156.432 283.763 156.232 283.891 156.088C284.019 155.928 284.171 155.808 284.347 155.728C284.539 155.648 284.747 155.6 284.971 155.584C285.195 155.552 285.403 155.536 285.595 155.536C286.203 155.536 286.731 155.656 287.179 155.896C287.627 156.12 287.875 156.56 287.923 157.216H291.163C291.099 156.448 290.899 155.816 290.563 155.32C290.243 154.808 289.835 154.4 289.339 154.096C288.843 153.792 288.275 153.576 287.635 153.448C287.011 153.32 286.363 153.256 285.691 153.256C285.019 153.256 284.363 153.32 283.723 153.448C283.083 153.56 282.507 153.768 281.995 154.072C281.483 154.36 281.067 154.76 280.747 155.272C280.443 155.784 280.291 156.44 280.291 157.24C280.291 157.784 280.403 158.248 280.627 158.632C280.851 159 281.147 159.312 281.515 159.568C281.883 159.808 282.299 160.008 282.763 160.168C283.243 160.312 283.731 160.44 284.227 160.552C285.443 160.808 286.387 161.064 287.059 161.32C287.747 161.576 288.091 161.96 288.091 162.472C288.091 162.776 288.019 163.032 287.875 163.24C287.731 163.432 287.547 163.592 287.323 163.72C287.115 163.832 286.875 163.92 286.603 163.984C286.347 164.032 286.099 164.056 285.859 164.056C285.523 164.056 285.195 164.016 284.875 163.936C284.571 163.856 284.299 163.736 284.059 163.576C283.819 163.4 283.619 163.184 283.459 162.928C283.315 162.656 283.243 162.336 283.243 161.968ZM295.654 161.968H292.414C292.446 162.8 292.63 163.496 292.966 164.056C293.318 164.6 293.758 165.04 294.286 165.376C294.83 165.712 295.446 165.952 296.134 166.096C296.822 166.24 297.526 166.312 298.246 166.312C298.95 166.312 299.638 166.24 300.31 166.096C300.998 165.968 301.606 165.736 302.134 165.4C302.662 165.064 303.086 164.624 303.406 164.08C303.742 163.52 303.91 162.832 303.91 162.016C303.91 161.44 303.798 160.96 303.574 160.576C303.35 160.176 303.054 159.848 302.686 159.592C302.318 159.32 301.894 159.104 301.414 158.944C300.95 158.784 300.47 158.648 299.974 158.536C299.494 158.424 299.022 158.32 298.558 158.224C298.094 158.128 297.678 158.024 297.31 157.912C296.958 157.784 296.67 157.624 296.446 157.432C296.222 157.24 296.11 156.992 296.11 156.688C296.11 156.432 296.174 156.232 296.302 156.088C296.43 155.928 296.582 155.808 296.758 155.728C296.95 155.648 297.158 155.6 297.382 155.584C297.606 155.552 297.814 155.536 298.006 155.536C298.614 155.536 299.142 155.656 299.59 155.896C300.038 156.12 300.286 156.56 300.334 157.216H303.574C303.51 156.448 303.31 155.816 302.974 155.32C302.654 154.808 302.246 154.4 301.75 154.096C301.254 153.792 300.686 153.576 300.046 153.448C299.422 153.32 298.774 153.256 298.102 153.256C297.43 153.256 296.774 153.32 296.134 153.448C295.494 153.56 294.918 153.768 294.406 154.072C293.894 154.36 293.478 154.76 293.158 155.272C292.854 155.784 292.702 156.44 292.702 157.24C292.702 157.784 292.814 158.248 293.038 158.632C293.262 159 293.558 159.312 293.926 159.568C294.294 159.808 294.71 160.008 295.174 160.168C295.654 160.312 296.142 160.44 296.638 160.552C297.854 160.808 298.798 161.064 299.47 161.32C300.158 161.576 300.502 161.96 300.502 162.472C300.502 162.776 300.43 163.032 300.286 163.24C300.142 163.432 299.958 163.592 299.734 163.72C299.526 163.832 299.286 163.92 299.014 163.984C298.758 164.032 298.51 164.056 298.27 164.056C297.934 164.056 297.606 164.016 297.286 163.936C296.982 163.856 296.71 163.736 296.47 163.576C296.23 163.4 296.03 163.184 295.87 162.928C295.726 162.656 295.654 162.336 295.654 161.968ZM308.928 151.672V148.864H305.52V151.672H308.928ZM305.52 153.592V166H308.928V153.592H305.52ZM314.156 159.808C314.156 159.312 314.204 158.824 314.3 158.344C314.396 157.864 314.556 157.44 314.78 157.072C315.02 156.704 315.332 156.408 315.716 156.184C316.1 155.944 316.58 155.824 317.156 155.824C317.732 155.824 318.212 155.944 318.596 156.184C318.996 156.408 319.308 156.704 319.532 157.072C319.772 157.44 319.94 157.864 320.036 158.344C320.132 158.824 320.18 159.312 320.18 159.808C320.18 160.304 320.132 160.792 320.036 161.272C319.94 161.736 319.772 162.16 319.532 162.544C319.308 162.912 318.996 163.208 318.596 163.432C318.212 163.656 317.732 163.768 317.156 163.768C316.58 163.768 316.1 163.656 315.716 163.432C315.332 163.208 315.02 162.912 314.78 162.544C314.556 162.16 314.396 161.736 314.3 161.272C314.204 160.792 314.156 160.304 314.156 159.808ZM310.748 159.808C310.748 160.8 310.9 161.696 311.204 162.496C311.508 163.296 311.94 163.984 312.5 164.56C313.06 165.12 313.732 165.552 314.516 165.856C315.3 166.16 316.18 166.312 317.156 166.312C318.132 166.312 319.012 166.16 319.796 165.856C320.596 165.552 321.276 165.12 321.836 164.56C322.396 163.984 322.828 163.296 323.132 162.496C323.436 161.696 323.588 160.8 323.588 159.808C323.588 158.816 323.436 157.92 323.132 157.12C322.828 156.304 322.396 155.616 321.836 155.056C321.276 154.48 320.596 154.04 319.796 153.736C319.012 153.416 318.132 153.256 317.156 153.256C316.18 153.256 315.3 153.416 314.516 153.736C313.732 154.04 313.06 154.48 312.5 155.056C311.94 155.616 311.508 156.304 311.204 157.12C310.9 157.92 310.748 158.816 310.748 159.808ZM325.324 153.592V166H328.732V159.496C328.732 158.232 328.94 157.328 329.356 156.784C329.772 156.224 330.444 155.944 331.372 155.944C332.188 155.944 332.756 156.2 333.076 156.712C333.396 157.208 333.556 157.968 333.556 158.992V166H336.964V158.368C336.964 157.6 336.892 156.904 336.748 156.28C336.62 155.64 336.388 155.104 336.052 154.672C335.716 154.224 335.252 153.88 334.66 153.64C334.084 153.384 333.34 153.256 332.428 153.256C331.708 153.256 331.004 153.424 330.316 153.76C329.628 154.08 329.068 154.6 328.636 155.32H328.564V153.592H325.324ZM341.71 161.968H338.47C338.502 162.8 338.686 163.496 339.022 164.056C339.374 164.6 339.814 165.04 340.342 165.376C340.886 165.712 341.502 165.952 342.19 166.096C342.878 166.24 343.582 166.312 344.302 166.312C345.006 166.312 345.694 166.24 346.366 166.096C347.054 165.968 347.662 165.736 348.19 165.4C348.718 165.064 349.142 164.624 349.462 164.08C349.798 163.52 349.966 162.832 349.966 162.016C349.966 161.44 349.854 160.96 349.63 160.576C349.406 160.176 349.11 159.848 348.742 159.592C348.374 159.32 347.95 159.104 347.47 158.944C347.006 158.784 346.526 158.648 346.03 158.536C345.55 158.424 345.078 158.32 344.614 158.224C344.15 158.128 343.734 158.024 343.366 157.912C343.014 157.784 342.726 157.624 342.502 157.432C342.278 157.24 342.166 156.992 342.166 156.688C342.166 156.432 342.23 156.232 342.358 156.088C342.486 155.928 342.638 155.808 342.814 155.728C343.006 155.648 343.214 155.6 343.438 155.584C343.662 155.552 343.87 155.536 344.062 155.536C344.67 155.536 345.198 155.656 345.646 155.896C346.094 156.12 346.342 156.56 346.39 157.216H349.63C349.566 156.448 349.366 155.816 349.03 155.32C348.71 154.808 348.302 154.4 347.806 154.096C347.31 153.792 346.742 153.576 346.102 153.448C345.478 153.32 344.83 153.256 344.158 153.256C343.486 153.256 342.83 153.32 342.19 153.448C341.55 153.56 340.974 153.768 340.462 154.072C339.95 154.36 339.534 154.76 339.214 155.272C338.91 155.784 338.758 156.44 338.758 157.24C338.758 157.784 338.87 158.248 339.094 158.632C339.318 159 339.614 159.312 339.982 159.568C340.35 159.808 340.766 160.008 341.23 160.168C341.71 160.312 342.198 160.44 342.694 160.552C343.91 160.808 344.854 161.064 345.526 161.32C346.214 161.576 346.558 161.96 346.558 162.472C346.558 162.776 346.486 163.032 346.342 163.24C346.198 163.432 346.014 163.592 345.79 163.72C345.582 163.832 345.342 163.92 345.07 163.984C344.814 164.032 344.566 164.056 344.326 164.056C343.99 164.056 343.662 164.016 343.342 163.936C343.038 163.856 342.766 163.736 342.526 163.576C342.286 163.4 342.086 163.184 341.926 162.928C341.782 162.656 341.71 162.336 341.71 161.968ZM143.263 215.576H145.375C145.295 214.84 145.103 214.208 144.799 213.68C144.495 213.136 144.103 212.688 143.623 212.336C143.159 211.984 142.615 211.728 141.991 211.568C141.383 211.392 140.727 211.304 140.023 211.304C139.047 211.304 138.191 211.48 137.455 211.832C136.719 212.168 136.103 212.64 135.607 213.248C135.127 213.84 134.767 214.544 134.527 215.36C134.287 216.16 134.167 217.024 134.167 217.952C134.167 218.88 134.287 219.736 134.527 220.52C134.783 221.288 135.151 221.952 135.631 222.512C136.127 223.072 136.735 223.504 137.455 223.808C138.191 224.112 139.031 224.264 139.975 224.264C141.559 224.264 142.807 223.848 143.719 223.016C144.647 222.184 145.223 221 145.447 219.464H143.359C143.231 220.424 142.879 221.168 142.303 221.696C141.743 222.224 140.959 222.488 139.951 222.488C139.311 222.488 138.759 222.36 138.295 222.104C137.831 221.848 137.455 221.512 137.167 221.096C136.879 220.664 136.663 220.176 136.519 219.632C136.391 219.088 136.327 218.528 136.327 217.952C136.327 217.328 136.391 216.728 136.519 216.152C136.647 215.56 136.855 215.04 137.143 214.592C137.447 214.144 137.847 213.784 138.343 213.512C138.839 213.24 139.455 213.104 140.191 213.104C141.055 213.104 141.743 213.32 142.255 213.752C142.767 214.184 143.103 214.792 143.263 215.576ZM147.369 206.864V224H149.409V206.864H147.369ZM154.249 209.36V206.864H152.209V209.36H154.249ZM152.209 211.592V224H154.249V211.592H152.209ZM165.354 215.576H167.466C167.386 214.84 167.194 214.208 166.89 213.68C166.586 213.136 166.194 212.688 165.714 212.336C165.25 211.984 164.706 211.728 164.082 211.568C163.474 211.392 162.818 211.304 162.114 211.304C161.138 211.304 160.282 211.48 159.546 211.832C158.81 212.168 158.194 212.64 157.698 213.248C157.218 213.84 156.858 214.544 156.618 215.36C156.378 216.16 156.258 217.024 156.258 217.952C156.258 218.88 156.378 219.736 156.618 220.52C156.874 221.288 157.242 221.952 157.722 222.512C158.218 223.072 158.826 223.504 159.546 223.808C160.282 224.112 161.122 224.264 162.066 224.264C163.65 224.264 164.898 223.848 165.81 223.016C166.738 222.184 167.314 221 167.538 219.464H165.45C165.322 220.424 164.97 221.168 164.394 221.696C163.834 222.224 163.05 222.488 162.042 222.488C161.402 222.488 160.85 222.36 160.386 222.104C159.922 221.848 159.546 221.512 159.258 221.096C158.97 220.664 158.754 220.176 158.61 219.632C158.482 219.088 158.418 218.528 158.418 217.952C158.418 217.328 158.482 216.728 158.61 216.152C158.738 215.56 158.946 215.04 159.234 214.592C159.538 214.144 159.938 213.784 160.434 213.512C160.93 213.24 161.546 213.104 162.282 213.104C163.146 213.104 163.834 213.32 164.346 213.752C164.858 214.184 165.194 214.792 165.354 215.576ZM169.46 206.864V224H171.5V219.296L173.42 217.52L177.668 224H180.26L174.98 216.104L179.9 211.592H177.164L171.5 217.016V206.864H169.46ZM190.337 211.592V207.872H188.297V211.592H186.185V213.392H188.297V221.288C188.297 221.864 188.353 222.328 188.465 222.68C188.577 223.032 188.745 223.304 188.969 223.496C189.209 223.688 189.513 223.824 189.881 223.904C190.265 223.968 190.721 224 191.249 224H192.809V222.2H191.873C191.553 222.2 191.289 222.192 191.081 222.176C190.889 222.144 190.737 222.088 190.625 222.008C190.513 221.928 190.433 221.816 190.385 221.672C190.353 221.528 190.337 221.336 190.337 221.096V213.392H192.809V211.592H190.337ZM196.084 217.808C196.084 217.056 196.18 216.392 196.372 215.816C196.58 215.224 196.86 214.728 197.212 214.328C197.564 213.928 197.972 213.624 198.436 213.416C198.916 213.208 199.42 213.104 199.948 213.104C200.476 213.104 200.972 213.208 201.436 213.416C201.916 213.624 202.332 213.928 202.684 214.328C203.036 214.728 203.308 215.224 203.5 215.816C203.708 216.392 203.812 217.056 203.812 217.808C203.812 218.56 203.708 219.232 203.5 219.824C203.308 220.4 203.036 220.888 202.684 221.288C202.332 221.672 201.916 221.968 201.436 222.176C200.972 222.384 200.476 222.488 199.948 222.488C199.42 222.488 198.916 222.384 198.436 222.176C197.972 221.968 197.564 221.672 197.212 221.288C196.86 220.888 196.58 220.4 196.372 219.824C196.18 219.232 196.084 218.56 196.084 217.808ZM193.924 217.808C193.924 218.72 194.052 219.568 194.308 220.352C194.564 221.136 194.948 221.824 195.46 222.416C195.972 222.992 196.604 223.448 197.356 223.784C198.108 224.104 198.972 224.264 199.948 224.264C200.94 224.264 201.804 224.104 202.54 223.784C203.292 223.448 203.924 222.992 204.436 222.416C204.948 221.824 205.332 221.136 205.588 220.352C205.844 219.568 205.972 218.72 205.972 217.808C205.972 216.896 205.844 216.048 205.588 215.264C205.332 214.464 204.948 213.776 204.436 213.2C203.924 212.608 203.292 212.144 202.54 211.808C201.804 211.472 200.94 211.304 199.948 211.304C198.972 211.304 198.108 211.472 197.356 211.808C196.604 212.144 195.972 212.608 195.46 213.2C194.948 213.776 194.564 214.464 194.308 215.264C194.052 216.048 193.924 216.896 193.924 217.808ZM214.025 211.592V224H216.065V218.48C216.065 217.68 216.145 216.976 216.305 216.368C216.465 215.744 216.721 215.216 217.073 214.784C217.425 214.352 217.889 214.024 218.465 213.8C219.041 213.576 219.737 213.464 220.553 213.464V211.304C219.449 211.272 218.537 211.496 217.817 211.976C217.097 212.456 216.489 213.2 215.993 214.208H215.945V211.592H214.025ZM229.803 216.608H222.675C222.707 216.128 222.811 215.68 222.987 215.264C223.163 214.832 223.403 214.456 223.707 214.136C224.011 213.816 224.371 213.568 224.787 213.392C225.219 213.2 225.699 213.104 226.227 213.104C226.739 213.104 227.203 213.2 227.619 213.392C228.051 213.568 228.419 213.816 228.723 214.136C229.043 214.44 229.291 214.808 229.467 215.24C229.659 215.672 229.771 216.128 229.803 216.608ZM231.771 220.064H229.755C229.579 220.88 229.211 221.488 228.651 221.888C228.107 222.288 227.403 222.488 226.539 222.488C225.867 222.488 225.283 222.376 224.787 222.152C224.291 221.928 223.883 221.632 223.563 221.264C223.243 220.88 223.011 220.448 222.867 219.968C222.723 219.472 222.659 218.952 222.675 218.408H231.963C231.995 217.656 231.923 216.864 231.747 216.032C231.587 215.2 231.283 214.432 230.835 213.728C230.403 213.024 229.819 212.448 229.083 212C228.363 211.536 227.451 211.304 226.347 211.304C225.499 211.304 224.715 211.464 223.995 211.784C223.291 212.104 222.675 212.552 222.147 213.128C221.635 213.704 221.235 214.384 220.947 215.168C220.659 215.952 220.515 216.816 220.515 217.76C220.547 218.704 220.683 219.576 220.923 220.376C221.179 221.176 221.555 221.864 222.051 222.44C222.547 223.016 223.155 223.464 223.875 223.784C224.611 224.104 225.475 224.264 226.467 224.264C227.875 224.264 229.043 223.912 229.971 223.208C230.899 222.504 231.499 221.456 231.771 220.064ZM239.19 224L243.726 211.592H241.59L238.206 221.936H238.158L234.678 211.592H232.398L237.006 224H239.19ZM253.734 216.608H246.606C246.638 216.128 246.742 215.68 246.918 215.264C247.094 214.832 247.334 214.456 247.638 214.136C247.942 213.816 248.302 213.568 248.718 213.392C249.15 213.2 249.63 213.104 250.158 213.104C250.67 213.104 251.134 213.2 251.55 213.392C251.982 213.568 252.35 213.816 252.654 214.136C252.974 214.44 253.222 214.808 253.398 215.24C253.59 215.672 253.702 216.128 253.734 216.608ZM255.702 220.064H253.686C253.51 220.88 253.142 221.488 252.582 221.888C252.038 222.288 251.334 222.488 250.47 222.488C249.798 222.488 249.214 222.376 248.718 222.152C248.222 221.928 247.814 221.632 247.494 221.264C247.174 220.88 246.942 220.448 246.798 219.968C246.654 219.472 246.59 218.952 246.606 218.408H255.894C255.926 217.656 255.854 216.864 255.678 216.032C255.518 215.2 255.214 214.432 254.766 213.728C254.334 213.024 253.75 212.448 253.014 212C252.294 211.536 251.382 211.304 250.278 211.304C249.43 211.304 248.646 211.464 247.926 211.784C247.222 212.104 246.606 212.552 246.078 213.128C245.566 213.704 245.166 214.384 244.878 215.168C244.59 215.952 244.446 216.816 244.446 217.76C244.478 218.704 244.614 219.576 244.854 220.376C245.11 221.176 245.486 221.864 245.982 222.44C246.478 223.016 247.086 223.464 247.806 223.784C248.542 224.104 249.406 224.264 250.398 224.264C251.806 224.264 252.974 223.912 253.902 223.208C254.83 222.504 255.43 221.456 255.702 220.064ZM268.52 223.952C268.168 224.16 267.68 224.264 267.056 224.264C266.528 224.264 266.104 224.12 265.784 223.832C265.48 223.528 265.328 223.04 265.328 222.368C264.768 223.04 264.112 223.528 263.36 223.832C262.624 224.12 261.824 224.264 260.96 224.264C260.4 224.264 259.864 224.2 259.352 224.072C258.856 223.944 258.424 223.744 258.056 223.472C257.688 223.2 257.392 222.848 257.168 222.416C256.96 221.968 256.856 221.432 256.856 220.808C256.856 220.104 256.976 219.528 257.216 219.08C257.456 218.632 257.768 218.272 258.152 218C258.552 217.712 259 217.496 259.496 217.352C260.008 217.208 260.528 217.088 261.056 216.992C261.616 216.88 262.144 216.8 262.64 216.752C263.152 216.688 263.6 216.608 263.984 216.512C264.368 216.4 264.672 216.248 264.896 216.056C265.12 215.848 265.232 215.552 265.232 215.168C265.232 214.72 265.144 214.36 264.968 214.088C264.808 213.816 264.592 213.608 264.32 213.464C264.064 213.32 263.768 213.224 263.432 213.176C263.112 213.128 262.792 213.104 262.472 213.104C261.608 213.104 260.888 213.272 260.312 213.608C259.736 213.928 259.424 214.544 259.376 215.456H257.336C257.368 214.688 257.528 214.04 257.816 213.512C258.104 212.984 258.488 212.56 258.968 212.24C259.448 211.904 259.992 211.664 260.6 211.52C261.224 211.376 261.888 211.304 262.592 211.304C263.152 211.304 263.704 211.344 264.248 211.424C264.808 211.504 265.312 211.672 265.76 211.928C266.208 212.168 266.568 212.512 266.84 212.96C267.112 213.408 267.248 213.992 267.248 214.712V221.096C267.248 221.576 267.272 221.928 267.32 222.152C267.384 222.376 267.576 222.488 267.896 222.488C268.072 222.488 268.28 222.448 268.52 222.368V223.952ZM265.208 217.592C264.952 217.784 264.616 217.928 264.2 218.024C263.784 218.104 263.344 218.176 262.88 218.24C262.432 218.288 261.976 218.352 261.512 218.432C261.048 218.496 260.632 218.608 260.264 218.768C259.896 218.928 259.592 219.16 259.352 219.464C259.128 219.752 259.016 220.152 259.016 220.664C259.016 221 259.08 221.288 259.208 221.528C259.352 221.752 259.528 221.936 259.736 222.08C259.96 222.224 260.216 222.328 260.504 222.392C260.792 222.456 261.096 222.488 261.416 222.488C262.088 222.488 262.664 222.4 263.144 222.224C263.624 222.032 264.016 221.8 264.32 221.528C264.624 221.24 264.848 220.936 264.992 220.616C265.136 220.28 265.208 219.968 265.208 219.68V217.592ZM270.059 206.864V224H272.099V206.864H270.059Z" fill="black"/>
<path d="M219.708 311.507C217.398 313.656 214.266 314.976 210.815 314.976C208.296 314.976 205.946 314.272 203.962 313.055C201.444 316.042 197.666 317.941 193.441 317.941C190.389 317.941 187.57 316.95 185.291 315.274C183.131 316.659 180.487 317.473 177.631 317.473C175.509 317.473 173.504 317.023 171.727 316.224H159.735L160.952 308.732H164.888C164.587 307.737 164.426 306.69 164.426 305.61C164.426 299.058 170.338 293.746 177.631 293.746C179.709 293.746 181.675 294.178 183.424 294.946C185.928 292.286 189.49 290.624 193.441 290.624C196.623 290.624 199.552 291.702 201.879 293.51C204.193 291.337 207.343 290 210.815 290C214.796 290 218.354 291.757 220.712 294.516C222.44 293.727 224.426 293.278 226.539 293.278C233.208 293.278 238.614 297.751 238.614 303.268C238.614 308.786 233.208 313.259 226.539 313.259C224.003 313.259 221.65 312.612 219.708 311.507Z" fill="#386667"/>
<path d="M156 370L159.214 321.063H173.233L178.183 370H156Z" fill="#386667"/>
<path fill-rule="evenodd" clip-rule="evenodd" d="M178.183 335.6L185.362 321.22H192.92V336.283L202.389 321.22H210.468V336.283L219.676 321.22H227.581V337.376L236.355 321.22H244V369.922L181.85 370L178.183 335.6ZM199.696 351.19H187.708V354.937H199.696V351.19ZM207.688 351.19H219.676V354.937H207.688V351.19ZM239.656 351.034H227.668V354.78H239.656V351.034Z" fill="#386667"/>
<defs>
<filter id="filter0_d_183_5480" x="0" y="0" width="408" height="440" filterUnits="userSpaceOnUse" color-interpolation-filters="sRGB">
<feFlood flood-opacity="0" result="BackgroundImageFix"/>
<feColorMatrix in="SourceAlpha" type="matrix" values="0 0 0 0 0 0 0 0 0 0 0 0 0 0 0 0 0 0 127 0" result="hardAlpha"/>
<feOffset dy="4"/>
<feGaussianBlur stdDeviation="2"/>
<feComposite in2="hardAlpha" operator="out"/>
<feColorMatrix type="matrix" values="0 0 0 0 0 0 0 0 0 0 0 0 0 0 0 0 0 0 0.25 0"/>
<feBlend mode="normal" in2="BackgroundImageFix" result="effect1_dropShadow_183_5480"/>
<feBlend mode="normal" in="SourceGraphic" in2="effect1_dropShadow_183_5480" result="shape"/>
</filter>
</defs>
</svg>
