<svg width="318" height="60" viewBox="0 0 318 60" fill="none" xmlns="http://www.w3.org/2000/svg">
<g filter="url(#filter0_d_243_2192)">
<rect width="310" height="52" rx="8" fill="white" shape-rendering="crispEdges"/>
<rect width="290" height="28" transform="translate(8 12)" fill="white"/>
<path d="M40 15.828C40 15.4547 40.14 15.1373 40.42 14.876C40.7 14.6147 41.0453 14.484 41.456 14.484C41.848 14.484 42.184 14.6147 42.464 14.876C42.744 15.1373 42.884 15.4547 42.884 15.828C42.884 16.22 42.744 16.5467 42.464 16.808C42.184 17.0693 41.848 17.2 41.456 17.2C41.0453 17.2 40.7 17.0693 40.42 16.808C40.14 16.5467 40 16.22 40 15.828ZM40 18.628C40 18.236 40.14 17.9 40.42 17.62C40.7 17.34 41.0453 17.2 41.456 17.2C41.848 17.2 42.184 17.34 42.464 17.62C42.744 17.9 42.884 18.236 42.884 18.628C42.884 19.02 42.744 19.356 42.464 19.636C42.184 19.916 41.848 20.056 41.456 20.056C41.0453 20.056 40.7 19.916 40.42 19.636C40.14 19.356 40 19.02 40 18.628ZM40 21.428C40 21.0547 40.14 20.7373 40.42 20.476C40.7 20.196 41.0453 20.056 41.456 20.056C41.848 20.056 42.184 20.196 42.464 20.476C42.744 20.7373 42.884 21.0547 42.884 21.428C42.884 21.8013 42.744 22.128 42.464 22.408C42.184 22.6693 41.848 22.8 41.456 22.8C41.0453 22.8 40.7 22.6693 40.42 22.408C40.14 22.128 40 21.8013 40 21.428ZM40 24.2C40 23.8267 40.14 23.5 40.42 23.22C40.7 22.94 41.0453 22.8 41.456 22.8C41.848 22.8 42.184 22.94 42.464 23.22C42.744 23.5 42.884 23.8267 42.884 24.2C42.884 24.592 42.744 24.928 42.464 25.208C42.184 25.488 41.848 25.628 41.456 25.628C41.0453 25.628 40.7 25.488 40.42 25.208C40.14 24.928 40 24.592 40 24.2ZM40 27C40 26.6267 40.14 26.3093 40.42 26.048C40.7 25.768 41.0453 25.628 41.456 25.628C41.848 25.628 42.184 25.768 42.464 26.048C42.744 26.3093 42.884 26.6267 42.884 27C42.884 27.392 42.744 27.728 42.464 28.008C42.184 28.2693 41.848 28.4 41.456 28.4C41.0453 28.4 40.7 28.2693 40.42 28.008C40.14 27.728 40 27.392 40 27ZM40 29.828C40 29.436 40.14 29.1 40.42 28.82C40.7 28.54 41.0453 28.4 41.456 28.4C41.848 28.4 42.184 28.54 42.464 28.82C42.744 29.1 42.884 29.436 42.884 29.828C42.884 30.22 42.744 30.556 42.464 30.836C42.184 31.116 41.848 31.256 41.456 31.256C41.0453 31.256 40.7 31.116 40.42 30.836C40.14 30.556 40 30.22 40 29.828ZM42.716 32.656C42.716 32.3013 42.856 31.9933 43.136 31.732C43.416 31.4707 43.7613 31.34 44.172 31.34C44.5827 31.34 44.928 31.4707 45.208 31.732C45.488 31.9933 45.628 32.3013 45.628 32.656C45.628 33.0293 45.488 33.3467 45.208 33.608C44.928 33.8693 44.5827 34 44.172 34C43.7613 34 43.416 33.8693 43.136 33.608C42.856 33.3467 42.716 33.0293 42.716 32.656ZM45.628 32.656C45.628 32.2827 45.768 31.9653 46.048 31.704C46.328 31.4427 46.6733 31.312 47.084 31.312C47.476 31.312 47.812 31.4427 48.092 31.704C48.372 31.9653 48.512 32.2827 48.512 32.656C48.512 33.0293 48.372 33.3467 48.092 33.608C47.812 33.8693 47.476 34 47.084 34C46.6733 34 46.328 33.8693 46.048 33.608C45.768 33.3467 45.628 33.0293 45.628 32.656ZM48.512 29.884C48.512 29.5107 48.6427 29.184 48.904 28.904C49.184 28.624 49.52 28.484 49.912 28.484C50.2853 28.484 50.6027 28.624 50.864 28.904C51.144 29.184 51.284 29.5107 51.284 29.884C51.284 30.276 51.144 30.612 50.864 30.892C50.6027 31.172 50.2853 31.312 49.912 31.312C49.52 31.312 49.184 31.172 48.904 30.892C48.6427 30.612 48.512 30.276 48.512 29.884ZM48.372 27.084C48.372 26.692 48.512 26.3653 48.792 26.104C49.072 25.824 49.4173 25.684 49.828 25.684C50.2387 25.684 50.584 25.824 50.864 26.104C51.144 26.3653 51.284 26.692 51.284 27.084C51.284 27.476 51.144 27.812 50.864 28.092C50.584 28.3533 50.2387 28.484 49.828 28.484C49.4173 28.484 49.072 28.3533 48.792 28.092C48.512 27.812 48.372 27.476 48.372 27.084ZM48.372 24.256C48.372 23.864 48.512 23.528 48.792 23.248C49.072 22.968 49.4173 22.828 49.828 22.828C50.2387 22.828 50.584 22.968 50.864 23.248C51.144 23.528 51.284 23.864 51.284 24.256C51.284 24.648 51.144 24.984 50.864 25.264C50.584 25.544 50.2387 25.684 49.828 25.684C49.4173 25.684 49.072 25.544 48.792 25.264C48.512 24.984 48.372 24.648 48.372 24.256ZM48.316 21.456C48.316 21.0827 48.456 20.7653 48.736 20.504C49.0347 20.2427 49.3893 20.112 49.8 20.112C50.2107 20.112 50.556 20.2427 50.836 20.504C51.1347 20.7653 51.284 21.0827 51.284 21.456C51.284 21.848 51.1347 22.1747 50.836 22.436C50.556 22.6973 50.2107 22.828 49.8 22.828C49.3893 22.828 49.0347 22.6973 48.736 22.436C48.456 22.1747 48.316 21.848 48.316 21.456ZM48.316 18.684C48.316 18.3107 48.456 17.984 48.736 17.704C49.0347 17.424 49.3893 17.284 49.8 17.284C50.2107 17.284 50.556 17.424 50.836 17.704C51.1347 17.984 51.284 18.3107 51.284 18.684C51.284 19.076 51.1347 19.412 50.836 19.692C50.556 19.972 50.2107 20.112 49.8 20.112C49.3893 20.112 49.0347 19.972 48.736 19.692C48.456 19.412 48.316 19.076 48.316 18.684ZM48.344 15.884C48.344 15.492 48.484 15.1653 48.764 14.904C49.0627 14.624 49.4173 14.484 49.828 14.484C50.22 14.484 50.556 14.624 50.836 14.904C51.1347 15.1653 51.284 15.492 51.284 15.884C51.284 16.276 51.1347 16.612 50.836 16.892C50.556 17.1533 50.22 17.284 49.828 17.284C49.4173 17.284 49.0627 17.1533 48.764 16.892C48.484 16.612 48.344 16.276 48.344 15.884ZM55.4 32.656C55.4 32.2827 55.54 31.9653 55.82 31.704C56.1 31.4427 56.436 31.312 56.828 31.312C57.2013 31.312 57.528 31.4427 57.808 31.704C58.088 31.9653 58.228 32.2827 58.228 32.656C58.228 33.0293 58.088 33.3467 57.808 33.608C57.528 33.8693 57.2013 34 56.828 34C56.436 34 56.1 33.8693 55.82 33.608C55.54 33.3467 55.4 33.0293 55.4 32.656ZM58.228 32.656C58.228 32.2827 58.3587 31.9653 58.62 31.704C58.9 31.4427 59.2267 31.312 59.6 31.312C59.9733 31.312 60.2907 31.4427 60.552 31.704C60.832 31.9653 60.972 32.2827 60.972 32.656C60.972 33.0293 60.832 33.3467 60.552 33.608C60.2907 33.8693 59.9733 34 59.6 34C59.2267 34 58.9 33.8693 58.62 33.608C58.3587 33.3467 58.228 33.0293 58.228 32.656ZM60.972 32.628C60.972 32.2547 61.112 31.9373 61.392 31.676C61.672 31.4147 62.0173 31.284 62.428 31.284C62.82 31.284 63.156 31.4147 63.436 31.676C63.716 31.9373 63.856 32.2547 63.856 32.628C63.856 33.02 63.716 33.3467 63.436 33.608C63.156 33.8693 62.82 34 62.428 34C62.0173 34 61.672 33.8693 61.392 33.608C61.112 33.3467 60.972 33.02 60.972 32.628ZM63.856 29.856C63.856 29.464 63.9867 29.128 64.248 28.848C64.528 28.568 64.864 28.428 65.256 28.428C65.6293 28.428 65.9467 28.568 66.208 28.848C66.488 29.128 66.628 29.464 66.628 29.856C66.628 30.248 66.488 30.584 66.208 30.864C65.9467 31.144 65.6293 31.284 65.256 31.284C64.864 31.284 64.528 31.144 64.248 30.864C63.9867 30.584 63.856 30.248 63.856 29.856ZM63.772 27.028C63.772 26.6547 63.912 26.3373 64.192 26.076C64.472 25.796 64.808 25.656 65.2 25.656C65.592 25.656 65.928 25.796 66.208 26.076C66.488 26.3373 66.628 26.6547 66.628 27.028C66.628 27.42 66.488 27.756 66.208 28.036C65.928 28.2973 65.592 28.428 65.2 28.428C64.808 28.428 64.472 28.2973 64.192 28.036C63.912 27.756 63.772 27.42 63.772 27.028ZM61.028 24.256C61.028 23.864 61.1587 23.5373 61.42 23.276C61.7 22.996 62.0267 22.856 62.4 22.856C62.7733 22.856 63.0907 22.996 63.352 23.276C63.632 23.5373 63.772 23.864 63.772 24.256C63.772 24.648 63.632 24.984 63.352 25.264C63.0907 25.5253 62.7733 25.656 62.4 25.656C62.0267 25.656 61.7 25.5253 61.42 25.264C61.1587 24.984 61.028 24.648 61.028 24.256ZM58.2 24.228C58.2 23.8547 58.34 23.5373 58.62 23.276C58.9 22.996 59.236 22.856 59.628 22.856C60.0013 22.856 60.328 22.996 60.608 23.276C60.888 23.5373 61.028 23.8547 61.028 24.228C61.028 24.62 60.888 24.956 60.608 25.236C60.328 25.4973 60.0013 25.628 59.628 25.628C59.236 25.628 58.9 25.4973 58.62 25.236C58.34 24.956 58.2 24.62 58.2 24.228ZM55.4 21.456C55.4 21.064 55.54 20.728 55.82 20.448C56.1 20.168 56.436 20.028 56.828 20.028C57.2013 20.028 57.528 20.168 57.808 20.448C58.088 20.728 58.228 21.064 58.228 21.456C58.228 21.848 58.088 22.184 57.808 22.464C57.528 22.744 57.2013 22.884 56.828 22.884C56.436 22.884 56.1 22.744 55.82 22.464C55.54 22.184 55.4 21.848 55.4 21.456ZM55.4 18.656C55.4 18.2827 55.54 17.9653 55.82 17.704C56.1 17.4427 56.436 17.312 56.828 17.312C57.2013 17.312 57.528 17.4427 57.808 17.704C58.088 17.9653 58.228 18.2827 58.228 18.656C58.228 19.048 58.088 19.3747 57.808 19.636C57.528 19.8973 57.2013 20.028 56.828 20.028C56.436 20.028 56.1 19.8973 55.82 19.636C55.54 19.3747 55.4 19.048 55.4 18.656ZM58.228 15.884C58.228 15.5107 58.368 15.184 58.648 14.904C58.928 14.624 59.264 14.484 59.656 14.484C60.0293 14.484 60.356 14.624 60.636 14.904C60.916 15.184 61.056 15.5107 61.056 15.884C61.056 16.276 60.916 16.612 60.636 16.892C60.356 17.172 60.0293 17.312 59.656 17.312C59.264 17.312 58.928 17.172 58.648 16.892C58.368 16.612 58.228 16.276 58.228 15.884ZM61.056 15.856C61.056 15.4827 61.1867 15.1653 61.448 14.904C61.728 14.624 62.0547 14.484 62.428 14.484C62.8013 14.484 63.1187 14.624 63.38 14.904C63.66 15.1653 63.8 15.4827 63.8 15.856C63.8 16.2293 63.66 16.556 63.38 16.836C63.1187 17.0973 62.8013 17.228 62.428 17.228C62.0547 17.228 61.728 17.0973 61.448 16.836C61.1867 16.556 61.056 16.2293 61.056 15.856ZM63.8 15.856C63.8 15.4827 63.94 15.1653 64.22 14.904C64.5187 14.624 64.8733 14.484 65.284 14.484C65.676 14.484 66.012 14.624 66.292 14.904C66.5907 15.1653 66.74 15.4827 66.74 15.856C66.74 16.2293 66.5907 16.556 66.292 16.836C66.012 17.0973 65.676 17.228 65.284 17.228C64.8733 17.228 64.5187 17.0973 64.22 16.836C63.94 16.556 63.8 16.2293 63.8 15.856ZM70.8 15.856C70.8 15.4827 70.94 15.1653 71.22 14.904C71.5 14.624 71.836 14.484 72.228 14.484C72.6013 14.484 72.928 14.624 73.208 14.904C73.488 15.1653 73.628 15.4827 73.628 15.856C73.628 16.2293 73.488 16.556 73.208 16.836C72.928 17.0973 72.6013 17.228 72.228 17.228C71.836 17.228 71.5 17.0973 71.22 16.836C70.94 16.556 70.8 16.2293 70.8 15.856ZM73.628 15.856C73.628 15.4827 73.768 15.1653 74.048 14.904C74.328 14.624 74.664 14.484 75.056 14.484C75.4293 14.484 75.756 14.624 76.036 14.904C76.316 15.1653 76.456 15.4827 76.456 15.856C76.456 16.2293 76.316 16.556 76.036 16.836C75.756 17.0973 75.4293 17.228 75.056 17.228C74.664 17.228 74.328 17.0973 74.048 16.836C73.768 16.556 73.628 16.2293 73.628 15.856ZM76.456 15.856C76.456 15.4827 76.5867 15.1653 76.848 14.904C77.128 14.624 77.464 14.484 77.856 14.484C78.2293 14.484 78.5467 14.624 78.808 14.904C79.088 15.1653 79.228 15.4827 79.228 15.856C79.228 16.2293 79.088 16.556 78.808 16.836C78.5467 17.0973 78.2293 17.228 77.856 17.228C77.464 17.228 77.128 17.0973 76.848 16.836C76.5867 16.556 76.456 16.2293 76.456 15.856ZM79.228 15.856C79.228 15.4827 79.368 15.1653 79.648 14.904C79.928 14.624 80.264 14.484 80.656 14.484C81.048 14.484 81.384 14.624 81.664 14.904C81.944 15.1653 82.084 15.4827 82.084 15.856C82.084 16.2293 81.944 16.556 81.664 16.836C81.384 17.0973 81.048 17.228 80.656 17.228C80.264 17.228 79.928 17.0973 79.648 16.836C79.368 16.556 79.228 16.2293 79.228 15.856ZM70.8 18.6C70.8 18.2267 70.94 17.9093 71.22 17.648C71.5 17.368 71.836 17.228 72.228 17.228C72.62 17.228 72.956 17.368 73.236 17.648C73.516 17.9093 73.656 18.2267 73.656 18.6C73.656 18.9733 73.516 19.3 73.236 19.58C72.956 19.8413 72.62 19.972 72.228 19.972C71.836 19.972 71.5 19.8413 71.22 19.58C70.94 19.3 70.8 18.9733 70.8 18.6ZM70.8 21.344C70.8 20.9707 70.94 20.6533 71.22 20.392C71.5 20.112 71.836 19.972 72.228 19.972C72.62 19.972 72.956 20.112 73.236 20.392C73.516 20.6533 73.656 20.9707 73.656 21.344C73.656 21.736 73.516 22.072 73.236 22.352C72.956 22.6133 72.62 22.744 72.228 22.744C71.836 22.744 71.5 22.6133 71.22 22.352C70.94 22.072 70.8 21.736 70.8 21.344ZM70.8 24.116C70.8 23.7427 70.9307 23.4253 71.192 23.164C71.472 22.884 71.808 22.744 72.2 22.744C72.592 22.744 72.9187 22.884 73.18 23.164C73.46 23.4253 73.6 23.7427 73.6 24.116C73.6 24.508 73.46 24.844 73.18 25.124C72.9187 25.3853 72.592 25.516 72.2 25.516C71.808 25.516 71.472 25.3853 71.192 25.124C70.9307 24.844 70.8 24.508 70.8 24.116ZM70.8 26.944C70.8 26.552 70.9307 26.216 71.192 25.936C71.472 25.656 71.808 25.516 72.2 25.516C72.592 25.516 72.9187 25.656 73.18 25.936C73.46 26.216 73.6 26.552 73.6 26.944C73.6 27.3547 73.46 27.7 73.18 27.98C72.9187 28.26 72.592 28.4 72.2 28.4C71.808 28.4 71.472 28.26 71.192 27.98C70.9307 27.7 70.8 27.3547 70.8 26.944ZM70.8 29.772C70.8 29.3987 70.9307 29.0813 71.192 28.82C71.472 28.54 71.808 28.4 72.2 28.4C72.592 28.4 72.9187 28.54 73.18 28.82C73.46 29.0813 73.6 29.3987 73.6 29.772C73.6 30.164 73.46 30.5 73.18 30.78C72.9187 31.0413 72.592 31.172 72.2 31.172C71.808 31.172 71.472 31.0413 71.192 30.78C70.9307 30.5 70.8 30.164 70.8 29.772ZM70.8 32.572C70.8 32.1987 70.9307 31.872 71.192 31.592C71.472 31.312 71.808 31.172 72.2 31.172C72.592 31.172 72.9187 31.312 73.18 31.592C73.46 31.872 73.6 32.1987 73.6 32.572C73.6 32.964 73.46 33.3 73.18 33.58C72.9187 33.86 72.592 34 72.2 34C71.808 34 71.472 33.86 71.192 33.58C70.9307 33.3 70.8 32.964 70.8 32.572ZM73.6 32.628C73.6 32.2547 73.74 31.9373 74.02 31.676C74.3 31.396 74.6453 31.256 75.056 31.256C75.448 31.256 75.784 31.396 76.064 31.676C76.344 31.9373 76.484 32.2547 76.484 32.628C76.484 33.0013 76.344 33.328 76.064 33.608C75.784 33.8693 75.448 34 75.056 34C74.6453 34 74.3 33.8693 74.02 33.608C73.74 33.328 73.6 33.0013 73.6 32.628ZM76.484 32.628C76.484 32.2547 76.6147 31.9373 76.876 31.676C77.1373 31.396 77.464 31.256 77.856 31.256C78.2293 31.256 78.5467 31.396 78.808 31.676C79.0693 31.9373 79.2 32.2547 79.2 32.628C79.2 33.0013 79.0693 33.328 78.808 33.608C78.5467 33.8693 78.2293 34 77.856 34C77.464 34 77.1373 33.8693 76.876 33.608C76.6147 33.328 76.484 33.0013 76.484 32.628ZM79.2 32.6C79.2 32.2267 79.34 31.9093 79.62 31.648C79.9 31.368 80.2453 31.228 80.656 31.228C81.048 31.228 81.384 31.368 81.664 31.648C81.944 31.9093 82.084 32.2267 82.084 32.6C82.084 32.992 81.944 33.328 81.664 33.608C81.384 33.8693 81.048 34 80.656 34C80.2453 34 79.9 33.8693 79.62 33.608C79.34 33.328 79.2 32.992 79.2 32.6ZM73.572 24.2C73.572 23.7893 73.712 23.444 73.992 23.164C74.272 22.884 74.6173 22.744 75.028 22.744C75.4387 22.744 75.784 22.884 76.064 23.164C76.344 23.444 76.484 23.7893 76.484 24.2C76.484 24.6107 76.344 24.956 76.064 25.236C75.784 25.516 75.4387 25.656 75.028 25.656C74.6173 25.656 74.272 25.516 73.992 25.236C73.712 24.956 73.572 24.6107 73.572 24.2ZM76.484 24.228C76.484 23.8547 76.6147 23.528 76.876 23.248C77.156 22.968 77.492 22.828 77.884 22.828C78.2573 22.828 78.5747 22.968 78.836 23.248C79.116 23.528 79.256 23.8547 79.256 24.228C79.256 24.62 79.116 24.956 78.836 25.236C78.5747 25.516 78.2573 25.656 77.884 25.656C77.492 25.656 77.156 25.516 76.876 25.236C76.6147 24.956 76.484 24.62 76.484 24.228ZM104.362 32.628C104.362 32.2547 104.502 31.9373 104.782 31.676C105.062 31.4147 105.398 31.284 105.79 31.284C106.182 31.284 106.518 31.4147 106.798 31.676C107.078 31.9373 107.218 32.2547 107.218 32.628C107.218 33.02 107.078 33.3467 106.798 33.608C106.518 33.8693 106.182 34 105.79 34C105.398 34 105.062 33.8693 104.782 33.608C104.502 33.3467 104.362 33.02 104.362 32.628ZM107.218 32.628C107.218 32.2547 107.348 31.9373 107.61 31.676C107.89 31.4147 108.226 31.284 108.618 31.284C108.991 31.284 109.308 31.4147 109.57 31.676C109.85 31.9373 109.99 32.2547 109.99 32.628C109.99 33.02 109.85 33.3467 109.57 33.608C109.308 33.8693 108.991 34 108.618 34C108.226 34 107.89 33.8693 107.61 33.608C107.348 33.3467 107.218 33.02 107.218 32.628ZM109.99 32.628C109.99 32.2547 110.12 31.9373 110.382 31.676C110.662 31.396 110.998 31.256 111.39 31.256C111.782 31.256 112.108 31.396 112.37 31.676C112.65 31.9373 112.79 32.2547 112.79 32.628C112.79 33.0013 112.65 33.328 112.37 33.608C112.108 33.8693 111.782 34 111.39 34C110.998 34 110.662 33.8693 110.382 33.608C110.12 33.328 109.99 33.0013 109.99 32.628ZM112.818 29.856C112.818 29.4827 112.958 29.1653 113.238 28.904C113.518 28.624 113.854 28.484 114.246 28.484C114.638 28.484 114.974 28.624 115.254 28.904C115.534 29.1653 115.674 29.4827 115.674 29.856C115.674 30.248 115.534 30.584 115.254 30.864C114.974 31.1253 114.638 31.256 114.246 31.256C113.854 31.256 113.518 31.1253 113.238 30.864C112.958 30.584 112.818 30.248 112.818 29.856ZM112.678 27.056C112.678 26.664 112.818 26.328 113.098 26.048C113.396 25.768 113.76 25.628 114.19 25.628C114.6 25.628 114.946 25.768 115.226 26.048C115.524 26.328 115.674 26.664 115.674 27.056C115.674 27.448 115.524 27.784 115.226 28.064C114.946 28.344 114.6 28.484 114.19 28.484C113.76 28.484 113.396 28.344 113.098 28.064C112.818 27.784 112.678 27.448 112.678 27.056ZM109.962 24.256C109.962 23.8827 110.092 23.5653 110.354 23.304C110.615 23.024 110.942 22.884 111.334 22.884C111.707 22.884 112.024 23.024 112.286 23.304C112.547 23.5653 112.678 23.8827 112.678 24.256C112.678 24.6293 112.547 24.956 112.286 25.236C112.024 25.4973 111.707 25.628 111.334 25.628C110.942 25.628 110.615 25.4973 110.354 25.236C110.092 24.956 109.962 24.6293 109.962 24.256ZM107.19 24.256C107.19 23.8827 107.32 23.5653 107.582 23.304C107.862 23.024 108.198 22.884 108.59 22.884C108.963 22.884 109.28 23.024 109.542 23.304C109.822 23.5653 109.962 23.8827 109.962 24.256C109.962 24.648 109.822 24.984 109.542 25.264C109.28 25.5253 108.963 25.656 108.59 25.656C108.198 25.656 107.862 25.5253 107.582 25.264C107.32 24.984 107.19 24.648 107.19 24.256ZM104.362 24.256C104.362 23.8827 104.502 23.5653 104.782 23.304C105.062 23.024 105.398 22.884 105.79 22.884C106.163 22.884 106.49 23.024 106.77 23.304C107.05 23.5653 107.19 23.8827 107.19 24.256C107.19 24.648 107.05 24.984 106.77 25.264C106.49 25.5253 106.163 25.656 105.79 25.656C105.398 25.656 105.062 25.5253 104.782 25.264C104.502 24.984 104.362 24.648 104.362 24.256ZM104.362 21.484C104.362 21.092 104.502 20.7653 104.782 20.504C105.062 20.224 105.407 20.084 105.818 20.084C106.228 20.084 106.574 20.224 106.854 20.504C107.134 20.7653 107.274 21.092 107.274 21.484C107.274 21.876 107.134 22.212 106.854 22.492C106.574 22.7533 106.228 22.884 105.818 22.884C105.407 22.884 105.062 22.7533 104.782 22.492C104.502 22.212 104.362 21.876 104.362 21.484ZM104.362 18.684C104.362 18.292 104.502 17.9653 104.782 17.704C105.062 17.424 105.407 17.284 105.818 17.284C106.228 17.284 106.574 17.424 106.854 17.704C107.134 17.9653 107.274 18.292 107.274 18.684C107.274 19.076 107.134 19.412 106.854 19.692C106.574 19.9533 106.228 20.084 105.818 20.084C105.407 20.084 105.062 19.9533 104.782 19.692C104.502 19.412 104.362 19.076 104.362 18.684ZM104.362 15.884C104.362 15.492 104.502 15.1653 104.782 14.904C105.062 14.624 105.398 14.484 105.79 14.484C106.163 14.484 106.49 14.624 106.77 14.904C107.05 15.1653 107.19 15.492 107.19 15.884C107.19 16.276 107.05 16.612 106.77 16.892C106.49 17.1533 106.163 17.284 105.79 17.284C105.398 17.284 105.062 17.1533 104.782 16.892C104.502 16.612 104.362 16.276 104.362 15.884ZM107.19 15.8C107.19 15.4453 107.33 15.1373 107.61 14.876C107.89 14.6147 108.226 14.484 108.618 14.484C108.991 14.484 109.318 14.6147 109.598 14.876C109.878 15.1373 110.018 15.4453 110.018 15.8C110.018 16.1547 109.878 16.4627 109.598 16.724C109.318 16.9853 108.991 17.116 108.618 17.116C108.226 17.116 107.89 16.9853 107.61 16.724C107.33 16.4627 107.19 16.1547 107.19 15.8ZM110.018 15.8C110.018 15.4453 110.148 15.1373 110.41 14.876C110.69 14.6147 111.026 14.484 111.418 14.484C111.81 14.484 112.136 14.6147 112.398 14.876C112.678 15.1373 112.818 15.4453 112.818 15.8C112.818 16.1547 112.678 16.4627 112.398 16.724C112.136 16.9853 111.81 17.116 111.418 17.116C111.026 17.116 110.69 16.9853 110.41 16.724C110.148 16.4627 110.018 16.1547 110.018 15.8ZM112.734 18.628C112.734 18.2547 112.864 17.9373 113.126 17.676C113.387 17.4147 113.704 17.284 114.078 17.284C114.451 17.284 114.768 17.4147 115.03 17.676C115.291 17.9373 115.422 18.2547 115.422 18.628C115.422 19.0013 115.291 19.3187 115.03 19.58C114.768 19.8413 114.451 19.972 114.078 19.972C113.704 19.972 113.387 19.8413 113.126 19.58C112.864 19.3187 112.734 19.0013 112.734 18.628ZM112.846 21.456C112.846 21.064 112.976 20.728 113.238 20.448C113.518 20.168 113.854 20.028 114.246 20.028C114.619 20.028 114.936 20.168 115.198 20.448C115.478 20.728 115.618 21.064 115.618 21.456C115.618 21.8667 115.478 22.212 115.198 22.492C114.936 22.772 114.619 22.912 114.246 22.912C113.854 22.912 113.518 22.772 113.238 22.492C112.976 22.212 112.846 21.8667 112.846 21.456ZM104.362 27.084C104.362 26.7107 104.502 26.3933 104.782 26.132C105.062 25.8707 105.407 25.74 105.818 25.74C106.21 25.74 106.546 25.8707 106.826 26.132C107.106 26.3933 107.246 26.7107 107.246 27.084C107.246 27.4573 107.106 27.7747 106.826 28.036C106.546 28.2973 106.21 28.428 105.818 28.428C105.407 28.428 105.062 28.2973 104.782 28.036C104.502 27.7747 104.362 27.4573 104.362 27.084ZM104.362 29.828C104.362 29.436 104.502 29.1093 104.782 28.848C105.062 28.568 105.407 28.428 105.818 28.428C106.21 28.428 106.546 28.568 106.826 28.848C107.106 29.1093 107.246 29.436 107.246 29.828C107.246 30.22 107.106 30.556 106.826 30.836C106.546 31.0973 106.21 31.228 105.818 31.228C105.407 31.228 105.062 31.0973 104.782 30.836C104.502 30.556 104.362 30.22 104.362 29.828ZM119.762 15.828C119.762 15.4547 119.902 15.1373 120.182 14.876C120.462 14.6147 120.798 14.484 121.19 14.484C121.582 14.484 121.918 14.6147 122.198 14.876C122.478 15.1373 122.618 15.4547 122.618 15.828C122.618 16.2013 122.478 16.5187 122.198 16.78C121.918 17.0413 121.582 17.172 121.19 17.172C120.798 17.172 120.462 17.0413 120.182 16.78C119.902 16.5187 119.762 16.2013 119.762 15.828ZM119.762 18.572C119.762 18.1987 119.902 17.872 120.182 17.592C120.462 17.312 120.798 17.172 121.19 17.172C121.582 17.172 121.918 17.312 122.198 17.592C122.478 17.872 122.618 18.1987 122.618 18.572C122.618 18.964 122.478 19.3 122.198 19.58C121.918 19.86 121.582 20 121.19 20C120.798 20 120.462 19.86 120.182 19.58C119.902 19.3 119.762 18.964 119.762 18.572ZM119.762 32.628C119.762 32.2547 119.902 31.9373 120.182 31.676C120.462 31.4147 120.798 31.284 121.19 31.284C121.582 31.284 121.918 31.4147 122.198 31.676C122.478 31.9373 122.618 32.2547 122.618 32.628C122.618 33.02 122.478 33.3467 122.198 33.608C121.918 33.8693 121.582 34 121.19 34C120.798 34 120.462 33.8693 120.182 33.608C119.902 33.3467 119.762 33.02 119.762 32.628ZM119.762 29.884C119.762 29.492 119.902 29.1653 120.182 28.904C120.462 28.624 120.798 28.484 121.19 28.484C121.582 28.484 121.918 28.624 122.198 28.904C122.478 29.1653 122.618 29.492 122.618 29.884C122.618 30.276 122.478 30.612 122.198 30.892C121.918 31.1533 121.582 31.284 121.19 31.284C120.798 31.284 120.462 31.1533 120.182 30.892C119.902 30.612 119.762 30.276 119.762 29.884ZM122.534 27.112C122.534 26.7013 122.674 26.356 122.954 26.076C123.234 25.796 123.57 25.656 123.962 25.656C124.354 25.656 124.69 25.796 124.97 26.076C125.25 26.356 125.39 26.7013 125.39 27.112C125.39 27.5227 125.25 27.868 124.97 28.148C124.69 28.428 124.354 28.568 123.962 28.568C123.57 28.568 123.234 28.428 122.954 28.148C122.674 27.868 122.534 27.5227 122.534 27.112ZM125.39 24.256C125.39 23.864 125.52 23.5373 125.782 23.276C126.062 22.996 126.398 22.856 126.79 22.856C127.182 22.856 127.508 22.996 127.77 23.276C128.05 23.5373 128.19 23.864 128.19 24.256C128.19 24.648 128.05 24.984 127.77 25.264C127.508 25.5253 127.182 25.656 126.79 25.656C126.398 25.656 126.062 25.5253 125.782 25.264C125.52 24.984 125.39 24.648 125.39 24.256ZM128.19 21.456C128.19 21.064 128.32 20.7373 128.582 20.476C128.862 20.196 129.198 20.056 129.59 20.056C129.982 20.056 130.308 20.196 130.57 20.476C130.85 20.7373 130.99 21.064 130.99 21.456C130.99 21.848 130.85 22.184 130.57 22.464C130.308 22.7253 129.982 22.856 129.59 22.856C129.198 22.856 128.862 22.7253 128.582 22.464C128.32 22.184 128.19 21.848 128.19 21.456ZM130.99 18.656C130.99 18.264 131.13 17.9373 131.41 17.676C131.69 17.396 132.035 17.256 132.446 17.256C132.838 17.256 133.174 17.396 133.454 17.676C133.734 17.9373 133.874 18.264 133.874 18.656C133.874 19.048 133.734 19.384 133.454 19.664C133.174 19.9253 132.838 20.056 132.446 20.056C132.035 20.056 131.69 19.9253 131.41 19.664C131.13 19.384 130.99 19.048 130.99 18.656ZM130.99 15.856C130.99 15.4827 131.13 15.1653 131.41 14.904C131.69 14.624 132.035 14.484 132.446 14.484C132.838 14.484 133.174 14.624 133.454 14.904C133.734 15.1653 133.874 15.4827 133.874 15.856C133.874 16.248 133.734 16.584 133.454 16.864C133.174 17.1253 132.838 17.256 132.446 17.256C132.035 17.256 131.69 17.1253 131.41 16.864C131.13 16.584 130.99 16.248 130.99 15.856ZM122.506 21.484C122.506 21.1293 122.646 20.8213 122.926 20.56C123.224 20.2987 123.579 20.168 123.99 20.168C124.382 20.168 124.718 20.2987 124.998 20.56C125.296 20.8213 125.446 21.1293 125.446 21.484C125.446 21.8387 125.296 22.1467 124.998 22.408C124.718 22.6693 124.382 22.8 123.99 22.8C123.579 22.8 123.224 22.6693 122.926 22.408C122.646 22.1467 122.506 21.8387 122.506 21.484ZM137.951 24.2C137.951 23.8453 138.091 23.5373 138.371 23.276C138.651 23.0147 138.987 22.884 139.379 22.884C139.771 22.884 140.107 23.0147 140.387 23.276C140.667 23.5373 140.807 23.8453 140.807 24.2C140.807 24.5733 140.667 24.8907 140.387 25.152C140.107 25.4133 139.771 25.544 139.379 25.544C138.987 25.544 138.651 25.4133 138.371 25.152C138.091 24.8907 137.951 24.5733 137.951 24.2ZM137.951 32.656C137.951 32.2827 138.091 31.9653 138.371 31.704C138.651 31.4427 138.996 31.312 139.407 31.312C139.799 31.312 140.135 31.4427 140.415 31.704C140.695 31.9653 140.835 32.2827 140.835 32.656C140.835 33.0293 140.695 33.3467 140.415 33.608C140.135 33.8693 139.799 34 139.407 34C138.996 34 138.651 33.8693 138.371 33.608C138.091 33.3467 137.951 33.0293 137.951 32.656Z" fill="black"/>
<path d="M29 26L11 38L11 14L29 26Z" fill="#517B83"/>
<rect x="0.5" y="0.5" width="309" height="51" rx="7.5" stroke="black" shape-rendering="crispEdges"/>
</g>
<defs>
<filter id="filter0_d_243_2192" x="0" y="0" width="318" height="60" filterUnits="userSpaceOnUse" color-interpolation-filters="sRGB">
<feFlood flood-opacity="0" result="BackgroundImageFix"/>
<feColorMatrix in="SourceAlpha" type="matrix" values="0 0 0 0 0 0 0 0 0 0 0 0 0 0 0 0 0 0 127 0" result="hardAlpha"/>
<feOffset dx="4" dy="4"/>
<feGaussianBlur stdDeviation="2"/>
<feComposite in2="hardAlpha" operator="out"/>
<feColorMatrix type="matrix" values="0 0 0 0 0 0 0 0 0 0 0 0 0 0 0 0 0 0 0.25 0"/>
<feBlend mode="normal" in2="BackgroundImageFix" result="effect1_dropShadow_243_2192"/>
<feBlend mode="normal" in="SourceGraphic" in2="effect1_dropShadow_243_2192" result="shape"/>
</filter>
</defs>
</svg>
