<svg width="318" height="60" viewBox="0 0 318 60" fill="none" xmlns="http://www.w3.org/2000/svg">
<g filter="url(#filter0_d_243_2191)">
<rect width="310" height="52" rx="8" fill="white" shape-rendering="crispEdges"/>
<rect width="290" height="28" transform="translate(8 12)" fill="white"/>
<path d="M40 32.656C40 32.2827 40.14 31.9653 40.42 31.704C40.7 31.4427 41.036 31.312 41.428 31.312C41.8013 31.312 42.128 31.4427 42.408 31.704C42.688 31.9653 42.828 32.2827 42.828 32.656C42.828 33.0293 42.688 33.3467 42.408 33.608C42.128 33.8693 41.8013 34 41.428 34C41.036 34 40.7 33.8693 40.42 33.608C40.14 33.3467 40 33.0293 40 32.656ZM42.828 32.656C42.828 32.2827 42.9587 31.9653 43.22 31.704C43.5 31.4427 43.8267 31.312 44.2 31.312C44.5733 31.312 44.8907 31.4427 45.152 31.704C45.432 31.9653 45.572 32.2827 45.572 32.656C45.572 33.0293 45.432 33.3467 45.152 33.608C44.8907 33.8693 44.5733 34 44.2 34C43.8267 34 43.5 33.8693 43.22 33.608C42.9587 33.3467 42.828 33.0293 42.828 32.656ZM45.572 32.628C45.572 32.2547 45.712 31.9373 45.992 31.676C46.272 31.4147 46.6173 31.284 47.028 31.284C47.42 31.284 47.756 31.4147 48.036 31.676C48.316 31.9373 48.456 32.2547 48.456 32.628C48.456 33.02 48.316 33.3467 48.036 33.608C47.756 33.8693 47.42 34 47.028 34C46.6173 34 46.272 33.8693 45.992 33.608C45.712 33.3467 45.572 33.02 45.572 32.628ZM48.456 29.856C48.456 29.464 48.5867 29.128 48.848 28.848C49.128 28.568 49.464 28.428 49.856 28.428C50.2293 28.428 50.5467 28.568 50.808 28.848C51.088 29.128 51.228 29.464 51.228 29.856C51.228 30.248 51.088 30.584 50.808 30.864C50.5467 31.144 50.2293 31.284 49.856 31.284C49.464 31.284 49.128 31.144 48.848 30.864C48.5867 30.584 48.456 30.248 48.456 29.856ZM48.372 27.028C48.372 26.6547 48.512 26.3373 48.792 26.076C49.072 25.796 49.408 25.656 49.8 25.656C50.192 25.656 50.528 25.796 50.808 26.076C51.088 26.3373 51.228 26.6547 51.228 27.028C51.228 27.42 51.088 27.756 50.808 28.036C50.528 28.2973 50.192 28.428 49.8 28.428C49.408 28.428 49.072 28.2973 48.792 28.036C48.512 27.756 48.372 27.42 48.372 27.028ZM45.628 24.256C45.628 23.864 45.7587 23.5373 46.02 23.276C46.3 22.996 46.6267 22.856 47 22.856C47.3733 22.856 47.6907 22.996 47.952 23.276C48.232 23.5373 48.372 23.864 48.372 24.256C48.372 24.648 48.232 24.984 47.952 25.264C47.6907 25.5253 47.3733 25.656 47 25.656C46.6267 25.656 46.3 25.5253 46.02 25.264C45.7587 24.984 45.628 24.648 45.628 24.256ZM42.8 24.228C42.8 23.8547 42.94 23.5373 43.22 23.276C43.5 22.996 43.836 22.856 44.228 22.856C44.6013 22.856 44.928 22.996 45.208 23.276C45.488 23.5373 45.628 23.8547 45.628 24.228C45.628 24.62 45.488 24.956 45.208 25.236C44.928 25.4973 44.6013 25.628 44.228 25.628C43.836 25.628 43.5 25.4973 43.22 25.236C42.94 24.956 42.8 24.62 42.8 24.228ZM40 21.456C40 21.064 40.14 20.728 40.42 20.448C40.7 20.168 41.036 20.028 41.428 20.028C41.8013 20.028 42.128 20.168 42.408 20.448C42.688 20.728 42.828 21.064 42.828 21.456C42.828 21.848 42.688 22.184 42.408 22.464C42.128 22.744 41.8013 22.884 41.428 22.884C41.036 22.884 40.7 22.744 40.42 22.464C40.14 22.184 40 21.848 40 21.456ZM40 18.656C40 18.2827 40.14 17.9653 40.42 17.704C40.7 17.4427 41.036 17.312 41.428 17.312C41.8013 17.312 42.128 17.4427 42.408 17.704C42.688 17.9653 42.828 18.2827 42.828 18.656C42.828 19.048 42.688 19.3747 42.408 19.636C42.128 19.8973 41.8013 20.028 41.428 20.028C41.036 20.028 40.7 19.8973 40.42 19.636C40.14 19.3747 40 19.048 40 18.656ZM42.828 15.884C42.828 15.5107 42.968 15.184 43.248 14.904C43.528 14.624 43.864 14.484 44.256 14.484C44.6293 14.484 44.956 14.624 45.236 14.904C45.516 15.184 45.656 15.5107 45.656 15.884C45.656 16.276 45.516 16.612 45.236 16.892C44.956 17.172 44.6293 17.312 44.256 17.312C43.864 17.312 43.528 17.172 43.248 16.892C42.968 16.612 42.828 16.276 42.828 15.884ZM45.656 15.856C45.656 15.4827 45.7867 15.1653 46.048 14.904C46.328 14.624 46.6547 14.484 47.028 14.484C47.4013 14.484 47.7187 14.624 47.98 14.904C48.26 15.1653 48.4 15.4827 48.4 15.856C48.4 16.2293 48.26 16.556 47.98 16.836C47.7187 17.0973 47.4013 17.228 47.028 17.228C46.6547 17.228 46.328 17.0973 46.048 16.836C45.7867 16.556 45.656 16.2293 45.656 15.856ZM48.4 15.856C48.4 15.4827 48.54 15.1653 48.82 14.904C49.1187 14.624 49.4733 14.484 49.884 14.484C50.276 14.484 50.612 14.624 50.892 14.904C51.1907 15.1653 51.34 15.4827 51.34 15.856C51.34 16.2293 51.1907 16.556 50.892 16.836C50.612 17.0973 50.276 17.228 49.884 17.228C49.4733 17.228 49.1187 17.0973 48.82 16.836C48.54 16.556 48.4 16.2293 48.4 15.856ZM55.4 15.856C55.4 15.4827 55.54 15.1653 55.82 14.904C56.1 14.624 56.436 14.484 56.828 14.484C57.2013 14.484 57.528 14.624 57.808 14.904C58.088 15.1653 58.228 15.4827 58.228 15.856C58.228 16.2293 58.088 16.556 57.808 16.836C57.528 17.0973 57.2013 17.228 56.828 17.228C56.436 17.228 56.1 17.0973 55.82 16.836C55.54 16.556 55.4 16.2293 55.4 15.856ZM58.228 15.856C58.228 15.4827 58.368 15.1653 58.648 14.904C58.928 14.624 59.264 14.484 59.656 14.484C60.0293 14.484 60.356 14.624 60.636 14.904C60.916 15.1653 61.056 15.4827 61.056 15.856C61.056 16.2293 60.916 16.556 60.636 16.836C60.356 17.0973 60.0293 17.228 59.656 17.228C59.264 17.228 58.928 17.0973 58.648 16.836C58.368 16.556 58.228 16.2293 58.228 15.856ZM61.056 15.856C61.056 15.4827 61.1867 15.1653 61.448 14.904C61.728 14.624 62.064 14.484 62.456 14.484C62.8293 14.484 63.1467 14.624 63.408 14.904C63.688 15.1653 63.828 15.4827 63.828 15.856C63.828 16.2293 63.688 16.556 63.408 16.836C63.1467 17.0973 62.8293 17.228 62.456 17.228C62.064 17.228 61.728 17.0973 61.448 16.836C61.1867 16.556 61.056 16.2293 61.056 15.856ZM63.828 15.856C63.828 15.4827 63.968 15.1653 64.248 14.904C64.528 14.624 64.864 14.484 65.256 14.484C65.648 14.484 65.984 14.624 66.264 14.904C66.544 15.1653 66.684 15.4827 66.684 15.856C66.684 16.2293 66.544 16.556 66.264 16.836C65.984 17.0973 65.648 17.228 65.256 17.228C64.864 17.228 64.528 17.0973 64.248 16.836C63.968 16.556 63.828 16.2293 63.828 15.856ZM55.4 18.6C55.4 18.2267 55.54 17.9093 55.82 17.648C56.1 17.368 56.436 17.228 56.828 17.228C57.22 17.228 57.556 17.368 57.836 17.648C58.116 17.9093 58.256 18.2267 58.256 18.6C58.256 18.9733 58.116 19.3 57.836 19.58C57.556 19.8413 57.22 19.972 56.828 19.972C56.436 19.972 56.1 19.8413 55.82 19.58C55.54 19.3 55.4 18.9733 55.4 18.6ZM55.4 21.344C55.4 20.9707 55.54 20.6533 55.82 20.392C56.1 20.112 56.436 19.972 56.828 19.972C57.22 19.972 57.556 20.112 57.836 20.392C58.116 20.6533 58.256 20.9707 58.256 21.344C58.256 21.736 58.116 22.072 57.836 22.352C57.556 22.6133 57.22 22.744 56.828 22.744C56.436 22.744 56.1 22.6133 55.82 22.352C55.54 22.072 55.4 21.736 55.4 21.344ZM55.4 24.116C55.4 23.7427 55.5307 23.4253 55.792 23.164C56.072 22.884 56.408 22.744 56.8 22.744C57.192 22.744 57.5187 22.884 57.78 23.164C58.06 23.4253 58.2 23.7427 58.2 24.116C58.2 24.508 58.06 24.844 57.78 25.124C57.5187 25.3853 57.192 25.516 56.8 25.516C56.408 25.516 56.072 25.3853 55.792 25.124C55.5307 24.844 55.4 24.508 55.4 24.116ZM55.4 26.944C55.4 26.552 55.5307 26.216 55.792 25.936C56.072 25.656 56.408 25.516 56.8 25.516C57.192 25.516 57.5187 25.656 57.78 25.936C58.06 26.216 58.2 26.552 58.2 26.944C58.2 27.3547 58.06 27.7 57.78 27.98C57.5187 28.26 57.192 28.4 56.8 28.4C56.408 28.4 56.072 28.26 55.792 27.98C55.5307 27.7 55.4 27.3547 55.4 26.944ZM55.4 29.772C55.4 29.3987 55.5307 29.0813 55.792 28.82C56.072 28.54 56.408 28.4 56.8 28.4C57.192 28.4 57.5187 28.54 57.78 28.82C58.06 29.0813 58.2 29.3987 58.2 29.772C58.2 30.164 58.06 30.5 57.78 30.78C57.5187 31.0413 57.192 31.172 56.8 31.172C56.408 31.172 56.072 31.0413 55.792 30.78C55.5307 30.5 55.4 30.164 55.4 29.772ZM55.4 32.572C55.4 32.1987 55.5307 31.872 55.792 31.592C56.072 31.312 56.408 31.172 56.8 31.172C57.192 31.172 57.5187 31.312 57.78 31.592C58.06 31.872 58.2 32.1987 58.2 32.572C58.2 32.964 58.06 33.3 57.78 33.58C57.5187 33.86 57.192 34 56.8 34C56.408 34 56.072 33.86 55.792 33.58C55.5307 33.3 55.4 32.964 55.4 32.572ZM58.2 32.628C58.2 32.2547 58.34 31.9373 58.62 31.676C58.9 31.396 59.2453 31.256 59.656 31.256C60.048 31.256 60.384 31.396 60.664 31.676C60.944 31.9373 61.084 32.2547 61.084 32.628C61.084 33.0013 60.944 33.328 60.664 33.608C60.384 33.8693 60.048 34 59.656 34C59.2453 34 58.9 33.8693 58.62 33.608C58.34 33.328 58.2 33.0013 58.2 32.628ZM61.084 32.628C61.084 32.2547 61.2147 31.9373 61.476 31.676C61.7373 31.396 62.064 31.256 62.456 31.256C62.8293 31.256 63.1467 31.396 63.408 31.676C63.6693 31.9373 63.8 32.2547 63.8 32.628C63.8 33.0013 63.6693 33.328 63.408 33.608C63.1467 33.8693 62.8293 34 62.456 34C62.064 34 61.7373 33.8693 61.476 33.608C61.2147 33.328 61.084 33.0013 61.084 32.628ZM63.8 32.6C63.8 32.2267 63.94 31.9093 64.22 31.648C64.5 31.368 64.8453 31.228 65.256 31.228C65.648 31.228 65.984 31.368 66.264 31.648C66.544 31.9093 66.684 32.2267 66.684 32.6C66.684 32.992 66.544 33.328 66.264 33.608C65.984 33.8693 65.648 34 65.256 34C64.8453 34 64.5 33.8693 64.22 33.608C63.94 33.328 63.8 32.992 63.8 32.6ZM58.172 24.2C58.172 23.7893 58.312 23.444 58.592 23.164C58.872 22.884 59.2173 22.744 59.628 22.744C60.0387 22.744 60.384 22.884 60.664 23.164C60.944 23.444 61.084 23.7893 61.084 24.2C61.084 24.6107 60.944 24.956 60.664 25.236C60.384 25.516 60.0387 25.656 59.628 25.656C59.2173 25.656 58.872 25.516 58.592 25.236C58.312 24.956 58.172 24.6107 58.172 24.2ZM61.084 24.228C61.084 23.8547 61.2147 23.528 61.476 23.248C61.756 22.968 62.092 22.828 62.484 22.828C62.8573 22.828 63.1747 22.968 63.436 23.248C63.716 23.528 63.856 23.8547 63.856 24.228C63.856 24.62 63.716 24.956 63.436 25.236C63.1747 25.516 62.8573 25.656 62.484 25.656C62.092 25.656 61.756 25.516 61.476 25.236C61.2147 24.956 61.084 24.62 61.084 24.228ZM70.8 15.856C70.8 15.4827 70.94 15.1653 71.22 14.904C71.5 14.624 71.8453 14.484 72.256 14.484C72.648 14.484 72.984 14.624 73.264 14.904C73.544 15.1653 73.684 15.4827 73.684 15.856C73.684 16.248 73.544 16.584 73.264 16.864C72.984 17.1253 72.648 17.256 72.256 17.256C71.8453 17.256 71.5 17.1253 71.22 16.864C70.94 16.584 70.8 16.248 70.8 15.856ZM70.8 18.656C70.8 18.2827 70.94 17.956 71.22 17.676C71.5 17.396 71.8453 17.256 72.256 17.256C72.648 17.256 72.984 17.396 73.264 17.676C73.544 17.956 73.684 18.2827 73.684 18.656C73.684 19.048 73.544 19.384 73.264 19.664C72.984 19.944 72.648 20.084 72.256 20.084C71.8453 20.084 71.5 19.944 71.22 19.664C70.94 19.384 70.8 19.048 70.8 18.656ZM70.8 21.428C70.8 21.0547 70.94 20.7373 71.22 20.476C71.5 20.2147 71.8453 20.084 72.256 20.084C72.6667 20.084 73.012 20.2147 73.292 20.476C73.572 20.7373 73.712 21.0547 73.712 21.428C73.712 21.8013 73.572 22.1187 73.292 22.38C73.012 22.6413 72.6667 22.772 72.256 22.772C71.8453 22.772 71.5 22.6413 71.22 22.38C70.94 22.1187 70.8 21.8013 70.8 21.428ZM70.8 24.172C70.8 23.7987 70.94 23.472 71.22 23.192C71.5 22.912 71.8453 22.772 72.256 22.772C72.6667 22.772 73.012 22.912 73.292 23.192C73.572 23.472 73.712 23.7987 73.712 24.172C73.712 24.564 73.572 24.9 73.292 25.18C73.012 25.46 72.6667 25.6 72.256 25.6C71.8453 25.6 71.5 25.46 71.22 25.18C70.94 24.9 70.8 24.564 70.8 24.172ZM70.8 27C70.8 26.608 70.94 26.2813 71.22 26.02C71.5 25.74 71.8453 25.6 72.256 25.6C72.648 25.6 72.984 25.74 73.264 26.02C73.544 26.2813 73.684 26.608 73.684 27C73.684 27.392 73.544 27.728 73.264 28.008C72.984 28.2693 72.648 28.4 72.256 28.4C71.8453 28.4 71.5 28.2693 71.22 28.008C70.94 27.728 70.8 27.392 70.8 27ZM70.8 29.8C70.8 29.4267 70.94 29.1 71.22 28.82C71.5 28.54 71.8453 28.4 72.256 28.4C72.648 28.4 72.984 28.54 73.264 28.82C73.544 29.1 73.684 29.4267 73.684 29.8C73.684 30.192 73.544 30.528 73.264 30.808C72.984 31.088 72.648 31.228 72.256 31.228C71.8453 31.228 71.5 31.088 71.22 30.808C70.94 30.528 70.8 30.192 70.8 29.8ZM70.8 32.6C70.8 32.2267 70.94 31.9093 71.22 31.648C71.5 31.368 71.836 31.228 72.228 31.228C72.6013 31.228 72.928 31.368 73.208 31.648C73.488 31.9093 73.628 32.2267 73.628 32.6C73.628 32.992 73.488 33.328 73.208 33.608C72.928 33.8693 72.6013 34 72.228 34C71.836 34 71.5 33.8693 71.22 33.608C70.94 33.328 70.8 32.992 70.8 32.6ZM73.628 32.628C73.628 32.2547 73.768 31.9373 74.048 31.676C74.328 31.4147 74.664 31.284 75.056 31.284C75.4293 31.284 75.756 31.4147 76.036 31.676C76.316 31.9373 76.456 32.2547 76.456 32.628C76.456 33.02 76.316 33.3467 76.036 33.608C75.756 33.8693 75.4293 34 75.056 34C74.664 34 74.328 33.8693 74.048 33.608C73.768 33.3467 73.628 33.02 73.628 32.628ZM76.456 32.628C76.456 32.2547 76.5867 31.9373 76.848 31.676C77.128 31.4147 77.464 31.284 77.856 31.284C78.2293 31.284 78.5467 31.4147 78.808 31.676C79.088 31.9373 79.228 32.2547 79.228 32.628C79.228 33.02 79.088 33.3467 78.808 33.608C78.5467 33.8693 78.2293 34 77.856 34C77.464 34 77.128 33.8693 76.848 33.608C76.5867 33.3467 76.456 33.02 76.456 32.628ZM79.228 32.628C79.228 32.2547 79.368 31.9373 79.648 31.676C79.928 31.396 80.264 31.256 80.656 31.256C81.048 31.256 81.384 31.396 81.664 31.676C81.944 31.9373 82.084 32.2547 82.084 32.628C82.084 33.0013 81.944 33.328 81.664 33.608C81.384 33.8693 81.048 34 80.656 34C80.264 34 79.928 33.8693 79.648 33.608C79.368 33.328 79.228 33.0013 79.228 32.628ZM86.2 15.856C86.2 15.4827 86.34 15.1653 86.62 14.904C86.9 14.624 87.2453 14.484 87.656 14.484C88.048 14.484 88.384 14.624 88.664 14.904C88.944 15.1653 89.084 15.4827 89.084 15.856C89.084 16.248 88.944 16.584 88.664 16.864C88.384 17.1253 88.048 17.256 87.656 17.256C87.2453 17.256 86.9 17.1253 86.62 16.864C86.34 16.584 86.2 16.248 86.2 15.856ZM86.2 18.656C86.2 18.2827 86.34 17.956 86.62 17.676C86.9 17.396 87.2453 17.256 87.656 17.256C88.048 17.256 88.384 17.396 88.664 17.676C88.944 17.956 89.084 18.2827 89.084 18.656C89.084 19.048 88.944 19.384 88.664 19.664C88.384 19.944 88.048 20.084 87.656 20.084C87.2453 20.084 86.9 19.944 86.62 19.664C86.34 19.384 86.2 19.048 86.2 18.656ZM86.2 21.428C86.2 21.0547 86.34 20.7373 86.62 20.476C86.9 20.2147 87.2453 20.084 87.656 20.084C88.0667 20.084 88.412 20.2147 88.692 20.476C88.972 20.7373 89.112 21.0547 89.112 21.428C89.112 21.8013 88.972 22.1187 88.692 22.38C88.412 22.6413 88.0667 22.772 87.656 22.772C87.2453 22.772 86.9 22.6413 86.62 22.38C86.34 22.1187 86.2 21.8013 86.2 21.428ZM86.2 24.172C86.2 23.7987 86.34 23.472 86.62 23.192C86.9 22.912 87.2453 22.772 87.656 22.772C88.0667 22.772 88.412 22.912 88.692 23.192C88.972 23.472 89.112 23.7987 89.112 24.172C89.112 24.564 88.972 24.9 88.692 25.18C88.412 25.46 88.0667 25.6 87.656 25.6C87.2453 25.6 86.9 25.46 86.62 25.18C86.34 24.9 86.2 24.564 86.2 24.172ZM86.2 27C86.2 26.608 86.34 26.2813 86.62 26.02C86.9 25.74 87.2453 25.6 87.656 25.6C88.048 25.6 88.384 25.74 88.664 26.02C88.944 26.2813 89.084 26.608 89.084 27C89.084 27.392 88.944 27.728 88.664 28.008C88.384 28.2693 88.048 28.4 87.656 28.4C87.2453 28.4 86.9 28.2693 86.62 28.008C86.34 27.728 86.2 27.392 86.2 27ZM86.2 29.8C86.2 29.4267 86.34 29.1 86.62 28.82C86.9 28.54 87.2453 28.4 87.656 28.4C88.048 28.4 88.384 28.54 88.664 28.82C88.944 29.1 89.084 29.4267 89.084 29.8C89.084 30.192 88.944 30.528 88.664 30.808C88.384 31.088 88.048 31.228 87.656 31.228C87.2453 31.228 86.9 31.088 86.62 30.808C86.34 30.528 86.2 30.192 86.2 29.8ZM86.2 32.6C86.2 32.2267 86.34 31.9093 86.62 31.648C86.9 31.368 87.236 31.228 87.628 31.228C88.0013 31.228 88.328 31.368 88.608 31.648C88.888 31.9093 89.028 32.2267 89.028 32.6C89.028 32.992 88.888 33.328 88.608 33.608C88.328 33.8693 88.0013 34 87.628 34C87.236 34 86.9 33.8693 86.62 33.608C86.34 33.328 86.2 32.992 86.2 32.6ZM89.028 32.628C89.028 32.2547 89.168 31.9373 89.448 31.676C89.728 31.4147 90.064 31.284 90.456 31.284C90.8293 31.284 91.156 31.4147 91.436 31.676C91.716 31.9373 91.856 32.2547 91.856 32.628C91.856 33.02 91.716 33.3467 91.436 33.608C91.156 33.8693 90.8293 34 90.456 34C90.064 34 89.728 33.8693 89.448 33.608C89.168 33.3467 89.028 33.02 89.028 32.628ZM91.856 32.628C91.856 32.2547 91.9867 31.9373 92.248 31.676C92.528 31.4147 92.864 31.284 93.256 31.284C93.6293 31.284 93.9467 31.4147 94.208 31.676C94.488 31.9373 94.628 32.2547 94.628 32.628C94.628 33.02 94.488 33.3467 94.208 33.608C93.9467 33.8693 93.6293 34 93.256 34C92.864 34 92.528 33.8693 92.248 33.608C91.9867 33.3467 91.856 33.02 91.856 32.628ZM94.628 32.628C94.628 32.2547 94.768 31.9373 95.048 31.676C95.328 31.396 95.664 31.256 96.056 31.256C96.448 31.256 96.784 31.396 97.064 31.676C97.344 31.9373 97.484 32.2547 97.484 32.628C97.484 33.0013 97.344 33.328 97.064 33.608C96.784 33.8693 96.448 34 96.056 34C95.664 34 95.328 33.8693 95.048 33.608C94.768 33.328 94.628 33.0013 94.628 32.628ZM119.762 32.628C119.762 32.2547 119.902 31.9373 120.182 31.676C120.462 31.4147 120.798 31.284 121.19 31.284C121.582 31.284 121.918 31.4147 122.198 31.676C122.478 31.9373 122.618 32.2547 122.618 32.628C122.618 33.02 122.478 33.3467 122.198 33.608C121.918 33.8693 121.582 34 121.19 34C120.798 34 120.462 33.8693 120.182 33.608C119.902 33.3467 119.762 33.02 119.762 32.628ZM122.618 32.628C122.618 32.2547 122.748 31.9373 123.01 31.676C123.29 31.4147 123.626 31.284 124.018 31.284C124.391 31.284 124.708 31.4147 124.97 31.676C125.25 31.9373 125.39 32.2547 125.39 32.628C125.39 33.02 125.25 33.3467 124.97 33.608C124.708 33.8693 124.391 34 124.018 34C123.626 34 123.29 33.8693 123.01 33.608C122.748 33.3467 122.618 33.02 122.618 32.628ZM125.39 32.628C125.39 32.2547 125.52 31.9373 125.782 31.676C126.062 31.396 126.398 31.256 126.79 31.256C127.182 31.256 127.508 31.396 127.77 31.676C128.05 31.9373 128.19 32.2547 128.19 32.628C128.19 33.0013 128.05 33.328 127.77 33.608C127.508 33.8693 127.182 34 126.79 34C126.398 34 126.062 33.8693 125.782 33.608C125.52 33.328 125.39 33.0013 125.39 32.628ZM128.218 29.856C128.218 29.4827 128.358 29.1653 128.638 28.904C128.918 28.624 129.254 28.484 129.646 28.484C130.038 28.484 130.374 28.624 130.654 28.904C130.934 29.1653 131.074 29.4827 131.074 29.856C131.074 30.248 130.934 30.584 130.654 30.864C130.374 31.1253 130.038 31.256 129.646 31.256C129.254 31.256 128.918 31.1253 128.638 30.864C128.358 30.584 128.218 30.248 128.218 29.856ZM128.078 27.056C128.078 26.664 128.218 26.328 128.498 26.048C128.796 25.768 129.16 25.628 129.59 25.628C130 25.628 130.346 25.768 130.626 26.048C130.924 26.328 131.074 26.664 131.074 27.056C131.074 27.448 130.924 27.784 130.626 28.064C130.346 28.344 130 28.484 129.59 28.484C129.16 28.484 128.796 28.344 128.498 28.064C128.218 27.784 128.078 27.448 128.078 27.056ZM125.362 24.256C125.362 23.8827 125.492 23.5653 125.754 23.304C126.015 23.024 126.342 22.884 126.734 22.884C127.107 22.884 127.424 23.024 127.686 23.304C127.947 23.5653 128.078 23.8827 128.078 24.256C128.078 24.6293 127.947 24.956 127.686 25.236C127.424 25.4973 127.107 25.628 126.734 25.628C126.342 25.628 126.015 25.4973 125.754 25.236C125.492 24.956 125.362 24.6293 125.362 24.256ZM122.59 24.256C122.59 23.8827 122.72 23.5653 122.982 23.304C123.262 23.024 123.598 22.884 123.99 22.884C124.363 22.884 124.68 23.024 124.942 23.304C125.222 23.5653 125.362 23.8827 125.362 24.256C125.362 24.648 125.222 24.984 124.942 25.264C124.68 25.5253 124.363 25.656 123.99 25.656C123.598 25.656 123.262 25.5253 122.982 25.264C122.72 24.984 122.59 24.648 122.59 24.256ZM119.762 24.256C119.762 23.8827 119.902 23.5653 120.182 23.304C120.462 23.024 120.798 22.884 121.19 22.884C121.563 22.884 121.89 23.024 122.17 23.304C122.45 23.5653 122.59 23.8827 122.59 24.256C122.59 24.648 122.45 24.984 122.17 25.264C121.89 25.5253 121.563 25.656 121.19 25.656C120.798 25.656 120.462 25.5253 120.182 25.264C119.902 24.984 119.762 24.648 119.762 24.256ZM119.762 21.484C119.762 21.092 119.902 20.7653 120.182 20.504C120.462 20.224 120.807 20.084 121.218 20.084C121.628 20.084 121.974 20.224 122.254 20.504C122.534 20.7653 122.674 21.092 122.674 21.484C122.674 21.876 122.534 22.212 122.254 22.492C121.974 22.7533 121.628 22.884 121.218 22.884C120.807 22.884 120.462 22.7533 120.182 22.492C119.902 22.212 119.762 21.876 119.762 21.484ZM119.762 18.684C119.762 18.292 119.902 17.9653 120.182 17.704C120.462 17.424 120.807 17.284 121.218 17.284C121.628 17.284 121.974 17.424 122.254 17.704C122.534 17.9653 122.674 18.292 122.674 18.684C122.674 19.076 122.534 19.412 122.254 19.692C121.974 19.9533 121.628 20.084 121.218 20.084C120.807 20.084 120.462 19.9533 120.182 19.692C119.902 19.412 119.762 19.076 119.762 18.684ZM119.762 15.884C119.762 15.492 119.902 15.1653 120.182 14.904C120.462 14.624 120.798 14.484 121.19 14.484C121.563 14.484 121.89 14.624 122.17 14.904C122.45 15.1653 122.59 15.492 122.59 15.884C122.59 16.276 122.45 16.612 122.17 16.892C121.89 17.1533 121.563 17.284 121.19 17.284C120.798 17.284 120.462 17.1533 120.182 16.892C119.902 16.612 119.762 16.276 119.762 15.884ZM122.59 15.8C122.59 15.4453 122.73 15.1373 123.01 14.876C123.29 14.6147 123.626 14.484 124.018 14.484C124.391 14.484 124.718 14.6147 124.998 14.876C125.278 15.1373 125.418 15.4453 125.418 15.8C125.418 16.1547 125.278 16.4627 124.998 16.724C124.718 16.9853 124.391 17.116 124.018 17.116C123.626 17.116 123.29 16.9853 123.01 16.724C122.73 16.4627 122.59 16.1547 122.59 15.8ZM125.418 15.8C125.418 15.4453 125.548 15.1373 125.81 14.876C126.09 14.6147 126.426 14.484 126.818 14.484C127.21 14.484 127.536 14.6147 127.798 14.876C128.078 15.1373 128.218 15.4453 128.218 15.8C128.218 16.1547 128.078 16.4627 127.798 16.724C127.536 16.9853 127.21 17.116 126.818 17.116C126.426 17.116 126.09 16.9853 125.81 16.724C125.548 16.4627 125.418 16.1547 125.418 15.8ZM128.134 18.628C128.134 18.2547 128.264 17.9373 128.526 17.676C128.787 17.4147 129.104 17.284 129.478 17.284C129.851 17.284 130.168 17.4147 130.43 17.676C130.691 17.9373 130.822 18.2547 130.822 18.628C130.822 19.0013 130.691 19.3187 130.43 19.58C130.168 19.8413 129.851 19.972 129.478 19.972C129.104 19.972 128.787 19.8413 128.526 19.58C128.264 19.3187 128.134 19.0013 128.134 18.628ZM128.246 21.456C128.246 21.064 128.376 20.728 128.638 20.448C128.918 20.168 129.254 20.028 129.646 20.028C130.019 20.028 130.336 20.168 130.598 20.448C130.878 20.728 131.018 21.064 131.018 21.456C131.018 21.8667 130.878 22.212 130.598 22.492C130.336 22.772 130.019 22.912 129.646 22.912C129.254 22.912 128.918 22.772 128.638 22.492C128.376 22.212 128.246 21.8667 128.246 21.456ZM119.762 27.084C119.762 26.7107 119.902 26.3933 120.182 26.132C120.462 25.8707 120.807 25.74 121.218 25.74C121.61 25.74 121.946 25.8707 122.226 26.132C122.506 26.3933 122.646 26.7107 122.646 27.084C122.646 27.4573 122.506 27.7747 122.226 28.036C121.946 28.2973 121.61 28.428 121.218 28.428C120.807 28.428 120.462 28.2973 120.182 28.036C119.902 27.7747 119.762 27.4573 119.762 27.084ZM119.762 29.828C119.762 29.436 119.902 29.1093 120.182 28.848C120.462 28.568 120.807 28.428 121.218 28.428C121.61 28.428 121.946 28.568 122.226 28.848C122.506 29.1093 122.646 29.436 122.646 29.828C122.646 30.22 122.506 30.556 122.226 30.836C121.946 31.0973 121.61 31.228 121.218 31.228C120.807 31.228 120.462 31.0973 120.182 30.836C119.902 30.556 119.762 30.22 119.762 29.828ZM135.162 15.828C135.162 15.4547 135.302 15.1373 135.582 14.876C135.862 14.6147 136.198 14.484 136.59 14.484C136.982 14.484 137.318 14.6147 137.598 14.876C137.878 15.1373 138.018 15.4547 138.018 15.828C138.018 16.2013 137.878 16.5187 137.598 16.78C137.318 17.0413 136.982 17.172 136.59 17.172C136.198 17.172 135.862 17.0413 135.582 16.78C135.302 16.5187 135.162 16.2013 135.162 15.828ZM135.162 18.572C135.162 18.1987 135.302 17.872 135.582 17.592C135.862 17.312 136.198 17.172 136.59 17.172C136.982 17.172 137.318 17.312 137.598 17.592C137.878 17.872 138.018 18.1987 138.018 18.572C138.018 18.964 137.878 19.3 137.598 19.58C137.318 19.86 136.982 20 136.59 20C136.198 20 135.862 19.86 135.582 19.58C135.302 19.3 135.162 18.964 135.162 18.572ZM135.162 32.628C135.162 32.2547 135.302 31.9373 135.582 31.676C135.862 31.4147 136.198 31.284 136.59 31.284C136.982 31.284 137.318 31.4147 137.598 31.676C137.878 31.9373 138.018 32.2547 138.018 32.628C138.018 33.02 137.878 33.3467 137.598 33.608C137.318 33.8693 136.982 34 136.59 34C136.198 34 135.862 33.8693 135.582 33.608C135.302 33.3467 135.162 33.02 135.162 32.628ZM135.162 29.884C135.162 29.492 135.302 29.1653 135.582 28.904C135.862 28.624 136.198 28.484 136.59 28.484C136.982 28.484 137.318 28.624 137.598 28.904C137.878 29.1653 138.018 29.492 138.018 29.884C138.018 30.276 137.878 30.612 137.598 30.892C137.318 31.1533 136.982 31.284 136.59 31.284C136.198 31.284 135.862 31.1533 135.582 30.892C135.302 30.612 135.162 30.276 135.162 29.884ZM137.934 27.112C137.934 26.7013 138.074 26.356 138.354 26.076C138.634 25.796 138.97 25.656 139.362 25.656C139.754 25.656 140.09 25.796 140.37 26.076C140.65 26.356 140.79 26.7013 140.79 27.112C140.79 27.5227 140.65 27.868 140.37 28.148C140.09 28.428 139.754 28.568 139.362 28.568C138.97 28.568 138.634 28.428 138.354 28.148C138.074 27.868 137.934 27.5227 137.934 27.112ZM140.79 24.256C140.79 23.864 140.92 23.5373 141.182 23.276C141.462 22.996 141.798 22.856 142.19 22.856C142.582 22.856 142.908 22.996 143.17 23.276C143.45 23.5373 143.59 23.864 143.59 24.256C143.59 24.648 143.45 24.984 143.17 25.264C142.908 25.5253 142.582 25.656 142.19 25.656C141.798 25.656 141.462 25.5253 141.182 25.264C140.92 24.984 140.79 24.648 140.79 24.256ZM143.59 21.456C143.59 21.064 143.72 20.7373 143.982 20.476C144.262 20.196 144.598 20.056 144.99 20.056C145.382 20.056 145.708 20.196 145.97 20.476C146.25 20.7373 146.39 21.064 146.39 21.456C146.39 21.848 146.25 22.184 145.97 22.464C145.708 22.7253 145.382 22.856 144.99 22.856C144.598 22.856 144.262 22.7253 143.982 22.464C143.72 22.184 143.59 21.848 143.59 21.456ZM146.39 18.656C146.39 18.264 146.53 17.9373 146.81 17.676C147.09 17.396 147.435 17.256 147.846 17.256C148.238 17.256 148.574 17.396 148.854 17.676C149.134 17.9373 149.274 18.264 149.274 18.656C149.274 19.048 149.134 19.384 148.854 19.664C148.574 19.9253 148.238 20.056 147.846 20.056C147.435 20.056 147.09 19.9253 146.81 19.664C146.53 19.384 146.39 19.048 146.39 18.656ZM146.39 15.856C146.39 15.4827 146.53 15.1653 146.81 14.904C147.09 14.624 147.435 14.484 147.846 14.484C148.238 14.484 148.574 14.624 148.854 14.904C149.134 15.1653 149.274 15.4827 149.274 15.856C149.274 16.248 149.134 16.584 148.854 16.864C148.574 17.1253 148.238 17.256 147.846 17.256C147.435 17.256 147.09 17.1253 146.81 16.864C146.53 16.584 146.39 16.248 146.39 15.856ZM137.906 21.484C137.906 21.1293 138.046 20.8213 138.326 20.56C138.624 20.2987 138.979 20.168 139.39 20.168C139.782 20.168 140.118 20.2987 140.398 20.56C140.696 20.8213 140.846 21.1293 140.846 21.484C140.846 21.8387 140.696 22.1467 140.398 22.408C140.118 22.6693 139.782 22.8 139.39 22.8C138.979 22.8 138.624 22.6693 138.326 22.408C138.046 22.1467 137.906 21.8387 137.906 21.484ZM153.351 24.2C153.351 23.8453 153.491 23.5373 153.771 23.276C154.051 23.0147 154.387 22.884 154.779 22.884C155.171 22.884 155.507 23.0147 155.787 23.276C156.067 23.5373 156.207 23.8453 156.207 24.2C156.207 24.5733 156.067 24.8907 155.787 25.152C155.507 25.4133 155.171 25.544 154.779 25.544C154.387 25.544 154.051 25.4133 153.771 25.152C153.491 24.8907 153.351 24.5733 153.351 24.2ZM153.351 32.656C153.351 32.2827 153.491 31.9653 153.771 31.704C154.051 31.4427 154.396 31.312 154.807 31.312C155.199 31.312 155.535 31.4427 155.815 31.704C156.095 31.9653 156.235 32.2827 156.235 32.656C156.235 33.0293 156.095 33.3467 155.815 33.608C155.535 33.8693 155.199 34 154.807 34C154.396 34 154.051 33.8693 153.771 33.608C153.491 33.3467 153.351 33.0293 153.351 32.656Z" fill="black"/>
<path d="M29 26L11 38L11 14L29 26Z" fill="#517B83"/>
<rect x="0.5" y="0.5" width="309" height="51" rx="7.5" stroke="black" shape-rendering="crispEdges"/>
</g>
<defs>
<filter id="filter0_d_243_2191" x="0" y="0" width="318" height="60" filterUnits="userSpaceOnUse" color-interpolation-filters="sRGB">
<feFlood flood-opacity="0" result="BackgroundImageFix"/>
<feColorMatrix in="SourceAlpha" type="matrix" values="0 0 0 0 0 0 0 0 0 0 0 0 0 0 0 0 0 0 127 0" result="hardAlpha"/>
<feOffset dx="4" dy="4"/>
<feGaussianBlur stdDeviation="2"/>
<feComposite in2="hardAlpha" operator="out"/>
<feColorMatrix type="matrix" values="0 0 0 0 0 0 0 0 0 0 0 0 0 0 0 0 0 0 0.25 0"/>
<feBlend mode="normal" in2="BackgroundImageFix" result="effect1_dropShadow_243_2191"/>
<feBlend mode="normal" in="SourceGraphic" in2="effect1_dropShadow_243_2191" result="shape"/>
</filter>
</defs>
</svg>
