<svg width="318" height="56" viewBox="0 0 318 56" fill="none" xmlns="http://www.w3.org/2000/svg">
<g filter="url(#filter0_d_183_2226)">
<rect width="290" height="28" transform="translate(8 8)" fill="white"/>
<path d="M40 11.828C40 11.4547 40.14 11.1373 40.42 10.876C40.7 10.6147 41.0453 10.484 41.456 10.484C41.848 10.484 42.184 10.6147 42.464 10.876C42.744 11.1373 42.884 11.4547 42.884 11.828C42.884 12.22 42.744 12.5467 42.464 12.808C42.184 13.0693 41.848 13.2 41.456 13.2C41.0453 13.2 40.7 13.0693 40.42 12.808C40.14 12.5467 40 12.22 40 11.828ZM40 14.628C40 14.236 40.14 13.9 40.42 13.62C40.7 13.34 41.0453 13.2 41.456 13.2C41.848 13.2 42.184 13.34 42.464 13.62C42.744 13.9 42.884 14.236 42.884 14.628C42.884 15.02 42.744 15.356 42.464 15.636C42.184 15.916 41.848 16.056 41.456 16.056C41.0453 16.056 40.7 15.916 40.42 15.636C40.14 15.356 40 15.02 40 14.628ZM40 17.428C40 17.0547 40.14 16.7373 40.42 16.476C40.7 16.196 41.0453 16.056 41.456 16.056C41.848 16.056 42.184 16.196 42.464 16.476C42.744 16.7373 42.884 17.0547 42.884 17.428C42.884 17.8013 42.744 18.128 42.464 18.408C42.184 18.6693 41.848 18.8 41.456 18.8C41.0453 18.8 40.7 18.6693 40.42 18.408C40.14 18.128 40 17.8013 40 17.428ZM40 20.2C40 19.8267 40.14 19.5 40.42 19.22C40.7 18.94 41.0453 18.8 41.456 18.8C41.848 18.8 42.184 18.94 42.464 19.22C42.744 19.5 42.884 19.8267 42.884 20.2C42.884 20.592 42.744 20.928 42.464 21.208C42.184 21.488 41.848 21.628 41.456 21.628C41.0453 21.628 40.7 21.488 40.42 21.208C40.14 20.928 40 20.592 40 20.2ZM40 23C40 22.6267 40.14 22.3093 40.42 22.048C40.7 21.768 41.0453 21.628 41.456 21.628C41.848 21.628 42.184 21.768 42.464 22.048C42.744 22.3093 42.884 22.6267 42.884 23C42.884 23.392 42.744 23.728 42.464 24.008C42.184 24.2693 41.848 24.4 41.456 24.4C41.0453 24.4 40.7 24.2693 40.42 24.008C40.14 23.728 40 23.392 40 23ZM40 25.828C40 25.436 40.14 25.1 40.42 24.82C40.7 24.54 41.0453 24.4 41.456 24.4C41.848 24.4 42.184 24.54 42.464 24.82C42.744 25.1 42.884 25.436 42.884 25.828C42.884 26.22 42.744 26.556 42.464 26.836C42.184 27.116 41.848 27.256 41.456 27.256C41.0453 27.256 40.7 27.116 40.42 26.836C40.14 26.556 40 26.22 40 25.828ZM42.716 28.656C42.716 28.3013 42.856 27.9933 43.136 27.732C43.416 27.4707 43.7613 27.34 44.172 27.34C44.5827 27.34 44.928 27.4707 45.208 27.732C45.488 27.9933 45.628 28.3013 45.628 28.656C45.628 29.0293 45.488 29.3467 45.208 29.608C44.928 29.8693 44.5827 30 44.172 30C43.7613 30 43.416 29.8693 43.136 29.608C42.856 29.3467 42.716 29.0293 42.716 28.656ZM45.628 28.656C45.628 28.2827 45.768 27.9653 46.048 27.704C46.328 27.4427 46.6733 27.312 47.084 27.312C47.476 27.312 47.812 27.4427 48.092 27.704C48.372 27.9653 48.512 28.2827 48.512 28.656C48.512 29.0293 48.372 29.3467 48.092 29.608C47.812 29.8693 47.476 30 47.084 30C46.6733 30 46.328 29.8693 46.048 29.608C45.768 29.3467 45.628 29.0293 45.628 28.656ZM48.512 25.884C48.512 25.5107 48.6427 25.184 48.904 24.904C49.184 24.624 49.52 24.484 49.912 24.484C50.2853 24.484 50.6027 24.624 50.864 24.904C51.144 25.184 51.284 25.5107 51.284 25.884C51.284 26.276 51.144 26.612 50.864 26.892C50.6027 27.172 50.2853 27.312 49.912 27.312C49.52 27.312 49.184 27.172 48.904 26.892C48.6427 26.612 48.512 26.276 48.512 25.884ZM48.372 23.084C48.372 22.692 48.512 22.3653 48.792 22.104C49.072 21.824 49.4173 21.684 49.828 21.684C50.2387 21.684 50.584 21.824 50.864 22.104C51.144 22.3653 51.284 22.692 51.284 23.084C51.284 23.476 51.144 23.812 50.864 24.092C50.584 24.3533 50.2387 24.484 49.828 24.484C49.4173 24.484 49.072 24.3533 48.792 24.092C48.512 23.812 48.372 23.476 48.372 23.084ZM48.372 20.256C48.372 19.864 48.512 19.528 48.792 19.248C49.072 18.968 49.4173 18.828 49.828 18.828C50.2387 18.828 50.584 18.968 50.864 19.248C51.144 19.528 51.284 19.864 51.284 20.256C51.284 20.648 51.144 20.984 50.864 21.264C50.584 21.544 50.2387 21.684 49.828 21.684C49.4173 21.684 49.072 21.544 48.792 21.264C48.512 20.984 48.372 20.648 48.372 20.256ZM48.316 17.456C48.316 17.0827 48.456 16.7653 48.736 16.504C49.0347 16.2427 49.3893 16.112 49.8 16.112C50.2107 16.112 50.556 16.2427 50.836 16.504C51.1347 16.7653 51.284 17.0827 51.284 17.456C51.284 17.848 51.1347 18.1747 50.836 18.436C50.556 18.6973 50.2107 18.828 49.8 18.828C49.3893 18.828 49.0347 18.6973 48.736 18.436C48.456 18.1747 48.316 17.848 48.316 17.456ZM48.316 14.684C48.316 14.3107 48.456 13.984 48.736 13.704C49.0347 13.424 49.3893 13.284 49.8 13.284C50.2107 13.284 50.556 13.424 50.836 13.704C51.1347 13.984 51.284 14.3107 51.284 14.684C51.284 15.076 51.1347 15.412 50.836 15.692C50.556 15.972 50.2107 16.112 49.8 16.112C49.3893 16.112 49.0347 15.972 48.736 15.692C48.456 15.412 48.316 15.076 48.316 14.684ZM48.344 11.884C48.344 11.492 48.484 11.1653 48.764 10.904C49.0627 10.624 49.4173 10.484 49.828 10.484C50.22 10.484 50.556 10.624 50.836 10.904C51.1347 11.1653 51.284 11.492 51.284 11.884C51.284 12.276 51.1347 12.612 50.836 12.892C50.556 13.1533 50.22 13.284 49.828 13.284C49.4173 13.284 49.0627 13.1533 48.764 12.892C48.484 12.612 48.344 12.276 48.344 11.884ZM55.4 28.656C55.4 28.2827 55.54 27.9653 55.82 27.704C56.1 27.4427 56.436 27.312 56.828 27.312C57.2013 27.312 57.528 27.4427 57.808 27.704C58.088 27.9653 58.228 28.2827 58.228 28.656C58.228 29.0293 58.088 29.3467 57.808 29.608C57.528 29.8693 57.2013 30 56.828 30C56.436 30 56.1 29.8693 55.82 29.608C55.54 29.3467 55.4 29.0293 55.4 28.656ZM58.228 28.656C58.228 28.2827 58.3587 27.9653 58.62 27.704C58.9 27.4427 59.2267 27.312 59.6 27.312C59.9733 27.312 60.2907 27.4427 60.552 27.704C60.832 27.9653 60.972 28.2827 60.972 28.656C60.972 29.0293 60.832 29.3467 60.552 29.608C60.2907 29.8693 59.9733 30 59.6 30C59.2267 30 58.9 29.8693 58.62 29.608C58.3587 29.3467 58.228 29.0293 58.228 28.656ZM60.972 28.628C60.972 28.2547 61.112 27.9373 61.392 27.676C61.672 27.4147 62.0173 27.284 62.428 27.284C62.82 27.284 63.156 27.4147 63.436 27.676C63.716 27.9373 63.856 28.2547 63.856 28.628C63.856 29.02 63.716 29.3467 63.436 29.608C63.156 29.8693 62.82 30 62.428 30C62.0173 30 61.672 29.8693 61.392 29.608C61.112 29.3467 60.972 29.02 60.972 28.628ZM63.856 25.856C63.856 25.464 63.9867 25.128 64.248 24.848C64.528 24.568 64.864 24.428 65.256 24.428C65.6293 24.428 65.9467 24.568 66.208 24.848C66.488 25.128 66.628 25.464 66.628 25.856C66.628 26.248 66.488 26.584 66.208 26.864C65.9467 27.144 65.6293 27.284 65.256 27.284C64.864 27.284 64.528 27.144 64.248 26.864C63.9867 26.584 63.856 26.248 63.856 25.856ZM63.772 23.028C63.772 22.6547 63.912 22.3373 64.192 22.076C64.472 21.796 64.808 21.656 65.2 21.656C65.592 21.656 65.928 21.796 66.208 22.076C66.488 22.3373 66.628 22.6547 66.628 23.028C66.628 23.42 66.488 23.756 66.208 24.036C65.928 24.2973 65.592 24.428 65.2 24.428C64.808 24.428 64.472 24.2973 64.192 24.036C63.912 23.756 63.772 23.42 63.772 23.028ZM61.028 20.256C61.028 19.864 61.1587 19.5373 61.42 19.276C61.7 18.996 62.0267 18.856 62.4 18.856C62.7733 18.856 63.0907 18.996 63.352 19.276C63.632 19.5373 63.772 19.864 63.772 20.256C63.772 20.648 63.632 20.984 63.352 21.264C63.0907 21.5253 62.7733 21.656 62.4 21.656C62.0267 21.656 61.7 21.5253 61.42 21.264C61.1587 20.984 61.028 20.648 61.028 20.256ZM58.2 20.228C58.2 19.8547 58.34 19.5373 58.62 19.276C58.9 18.996 59.236 18.856 59.628 18.856C60.0013 18.856 60.328 18.996 60.608 19.276C60.888 19.5373 61.028 19.8547 61.028 20.228C61.028 20.62 60.888 20.956 60.608 21.236C60.328 21.4973 60.0013 21.628 59.628 21.628C59.236 21.628 58.9 21.4973 58.62 21.236C58.34 20.956 58.2 20.62 58.2 20.228ZM55.4 17.456C55.4 17.064 55.54 16.728 55.82 16.448C56.1 16.168 56.436 16.028 56.828 16.028C57.2013 16.028 57.528 16.168 57.808 16.448C58.088 16.728 58.228 17.064 58.228 17.456C58.228 17.848 58.088 18.184 57.808 18.464C57.528 18.744 57.2013 18.884 56.828 18.884C56.436 18.884 56.1 18.744 55.82 18.464C55.54 18.184 55.4 17.848 55.4 17.456ZM55.4 14.656C55.4 14.2827 55.54 13.9653 55.82 13.704C56.1 13.4427 56.436 13.312 56.828 13.312C57.2013 13.312 57.528 13.4427 57.808 13.704C58.088 13.9653 58.228 14.2827 58.228 14.656C58.228 15.048 58.088 15.3747 57.808 15.636C57.528 15.8973 57.2013 16.028 56.828 16.028C56.436 16.028 56.1 15.8973 55.82 15.636C55.54 15.3747 55.4 15.048 55.4 14.656ZM58.228 11.884C58.228 11.5107 58.368 11.184 58.648 10.904C58.928 10.624 59.264 10.484 59.656 10.484C60.0293 10.484 60.356 10.624 60.636 10.904C60.916 11.184 61.056 11.5107 61.056 11.884C61.056 12.276 60.916 12.612 60.636 12.892C60.356 13.172 60.0293 13.312 59.656 13.312C59.264 13.312 58.928 13.172 58.648 12.892C58.368 12.612 58.228 12.276 58.228 11.884ZM61.056 11.856C61.056 11.4827 61.1867 11.1653 61.448 10.904C61.728 10.624 62.0547 10.484 62.428 10.484C62.8013 10.484 63.1187 10.624 63.38 10.904C63.66 11.1653 63.8 11.4827 63.8 11.856C63.8 12.2293 63.66 12.556 63.38 12.836C63.1187 13.0973 62.8013 13.228 62.428 13.228C62.0547 13.228 61.728 13.0973 61.448 12.836C61.1867 12.556 61.056 12.2293 61.056 11.856ZM63.8 11.856C63.8 11.4827 63.94 11.1653 64.22 10.904C64.5187 10.624 64.8733 10.484 65.284 10.484C65.676 10.484 66.012 10.624 66.292 10.904C66.5907 11.1653 66.74 11.4827 66.74 11.856C66.74 12.2293 66.5907 12.556 66.292 12.836C66.012 13.0973 65.676 13.228 65.284 13.228C64.8733 13.228 64.5187 13.0973 64.22 12.836C63.94 12.556 63.8 12.2293 63.8 11.856ZM70.8 11.856C70.8 11.4827 70.94 11.1653 71.22 10.904C71.5 10.624 71.836 10.484 72.228 10.484C72.6013 10.484 72.928 10.624 73.208 10.904C73.488 11.1653 73.628 11.4827 73.628 11.856C73.628 12.2293 73.488 12.556 73.208 12.836C72.928 13.0973 72.6013 13.228 72.228 13.228C71.836 13.228 71.5 13.0973 71.22 12.836C70.94 12.556 70.8 12.2293 70.8 11.856ZM73.628 11.856C73.628 11.4827 73.768 11.1653 74.048 10.904C74.328 10.624 74.664 10.484 75.056 10.484C75.4293 10.484 75.756 10.624 76.036 10.904C76.316 11.1653 76.456 11.4827 76.456 11.856C76.456 12.2293 76.316 12.556 76.036 12.836C75.756 13.0973 75.4293 13.228 75.056 13.228C74.664 13.228 74.328 13.0973 74.048 12.836C73.768 12.556 73.628 12.2293 73.628 11.856ZM76.456 11.856C76.456 11.4827 76.5867 11.1653 76.848 10.904C77.128 10.624 77.464 10.484 77.856 10.484C78.2293 10.484 78.5467 10.624 78.808 10.904C79.088 11.1653 79.228 11.4827 79.228 11.856C79.228 12.2293 79.088 12.556 78.808 12.836C78.5467 13.0973 78.2293 13.228 77.856 13.228C77.464 13.228 77.128 13.0973 76.848 12.836C76.5867 12.556 76.456 12.2293 76.456 11.856ZM79.228 11.856C79.228 11.4827 79.368 11.1653 79.648 10.904C79.928 10.624 80.264 10.484 80.656 10.484C81.048 10.484 81.384 10.624 81.664 10.904C81.944 11.1653 82.084 11.4827 82.084 11.856C82.084 12.2293 81.944 12.556 81.664 12.836C81.384 13.0973 81.048 13.228 80.656 13.228C80.264 13.228 79.928 13.0973 79.648 12.836C79.368 12.556 79.228 12.2293 79.228 11.856ZM70.8 14.6C70.8 14.2267 70.94 13.9093 71.22 13.648C71.5 13.368 71.836 13.228 72.228 13.228C72.62 13.228 72.956 13.368 73.236 13.648C73.516 13.9093 73.656 14.2267 73.656 14.6C73.656 14.9733 73.516 15.3 73.236 15.58C72.956 15.8413 72.62 15.972 72.228 15.972C71.836 15.972 71.5 15.8413 71.22 15.58C70.94 15.3 70.8 14.9733 70.8 14.6ZM70.8 17.344C70.8 16.9707 70.94 16.6533 71.22 16.392C71.5 16.112 71.836 15.972 72.228 15.972C72.62 15.972 72.956 16.112 73.236 16.392C73.516 16.6533 73.656 16.9707 73.656 17.344C73.656 17.736 73.516 18.072 73.236 18.352C72.956 18.6133 72.62 18.744 72.228 18.744C71.836 18.744 71.5 18.6133 71.22 18.352C70.94 18.072 70.8 17.736 70.8 17.344ZM70.8 20.116C70.8 19.7427 70.9307 19.4253 71.192 19.164C71.472 18.884 71.808 18.744 72.2 18.744C72.592 18.744 72.9187 18.884 73.18 19.164C73.46 19.4253 73.6 19.7427 73.6 20.116C73.6 20.508 73.46 20.844 73.18 21.124C72.9187 21.3853 72.592 21.516 72.2 21.516C71.808 21.516 71.472 21.3853 71.192 21.124C70.9307 20.844 70.8 20.508 70.8 20.116ZM70.8 22.944C70.8 22.552 70.9307 22.216 71.192 21.936C71.472 21.656 71.808 21.516 72.2 21.516C72.592 21.516 72.9187 21.656 73.18 21.936C73.46 22.216 73.6 22.552 73.6 22.944C73.6 23.3547 73.46 23.7 73.18 23.98C72.9187 24.26 72.592 24.4 72.2 24.4C71.808 24.4 71.472 24.26 71.192 23.98C70.9307 23.7 70.8 23.3547 70.8 22.944ZM70.8 25.772C70.8 25.3987 70.9307 25.0813 71.192 24.82C71.472 24.54 71.808 24.4 72.2 24.4C72.592 24.4 72.9187 24.54 73.18 24.82C73.46 25.0813 73.6 25.3987 73.6 25.772C73.6 26.164 73.46 26.5 73.18 26.78C72.9187 27.0413 72.592 27.172 72.2 27.172C71.808 27.172 71.472 27.0413 71.192 26.78C70.9307 26.5 70.8 26.164 70.8 25.772ZM70.8 28.572C70.8 28.1987 70.9307 27.872 71.192 27.592C71.472 27.312 71.808 27.172 72.2 27.172C72.592 27.172 72.9187 27.312 73.18 27.592C73.46 27.872 73.6 28.1987 73.6 28.572C73.6 28.964 73.46 29.3 73.18 29.58C72.9187 29.86 72.592 30 72.2 30C71.808 30 71.472 29.86 71.192 29.58C70.9307 29.3 70.8 28.964 70.8 28.572ZM73.6 28.628C73.6 28.2547 73.74 27.9373 74.02 27.676C74.3 27.396 74.6453 27.256 75.056 27.256C75.448 27.256 75.784 27.396 76.064 27.676C76.344 27.9373 76.484 28.2547 76.484 28.628C76.484 29.0013 76.344 29.328 76.064 29.608C75.784 29.8693 75.448 30 75.056 30C74.6453 30 74.3 29.8693 74.02 29.608C73.74 29.328 73.6 29.0013 73.6 28.628ZM76.484 28.628C76.484 28.2547 76.6147 27.9373 76.876 27.676C77.1373 27.396 77.464 27.256 77.856 27.256C78.2293 27.256 78.5467 27.396 78.808 27.676C79.0693 27.9373 79.2 28.2547 79.2 28.628C79.2 29.0013 79.0693 29.328 78.808 29.608C78.5467 29.8693 78.2293 30 77.856 30C77.464 30 77.1373 29.8693 76.876 29.608C76.6147 29.328 76.484 29.0013 76.484 28.628ZM79.2 28.6C79.2 28.2267 79.34 27.9093 79.62 27.648C79.9 27.368 80.2453 27.228 80.656 27.228C81.048 27.228 81.384 27.368 81.664 27.648C81.944 27.9093 82.084 28.2267 82.084 28.6C82.084 28.992 81.944 29.328 81.664 29.608C81.384 29.8693 81.048 30 80.656 30C80.2453 30 79.9 29.8693 79.62 29.608C79.34 29.328 79.2 28.992 79.2 28.6ZM73.572 20.2C73.572 19.7893 73.712 19.444 73.992 19.164C74.272 18.884 74.6173 18.744 75.028 18.744C75.4387 18.744 75.784 18.884 76.064 19.164C76.344 19.444 76.484 19.7893 76.484 20.2C76.484 20.6107 76.344 20.956 76.064 21.236C75.784 21.516 75.4387 21.656 75.028 21.656C74.6173 21.656 74.272 21.516 73.992 21.236C73.712 20.956 73.572 20.6107 73.572 20.2ZM76.484 20.228C76.484 19.8547 76.6147 19.528 76.876 19.248C77.156 18.968 77.492 18.828 77.884 18.828C78.2573 18.828 78.5747 18.968 78.836 19.248C79.116 19.528 79.256 19.8547 79.256 20.228C79.256 20.62 79.116 20.956 78.836 21.236C78.5747 21.516 78.2573 21.656 77.884 21.656C77.492 21.656 77.156 21.516 76.876 21.236C76.6147 20.956 76.484 20.62 76.484 20.228ZM104.362 28.628C104.362 28.2547 104.502 27.9373 104.782 27.676C105.062 27.4147 105.398 27.284 105.79 27.284C106.182 27.284 106.518 27.4147 106.798 27.676C107.078 27.9373 107.218 28.2547 107.218 28.628C107.218 29.02 107.078 29.3467 106.798 29.608C106.518 29.8693 106.182 30 105.79 30C105.398 30 105.062 29.8693 104.782 29.608C104.502 29.3467 104.362 29.02 104.362 28.628ZM107.218 28.628C107.218 28.2547 107.348 27.9373 107.61 27.676C107.89 27.4147 108.226 27.284 108.618 27.284C108.991 27.284 109.308 27.4147 109.57 27.676C109.85 27.9373 109.99 28.2547 109.99 28.628C109.99 29.02 109.85 29.3467 109.57 29.608C109.308 29.8693 108.991 30 108.618 30C108.226 30 107.89 29.8693 107.61 29.608C107.348 29.3467 107.218 29.02 107.218 28.628ZM109.99 28.628C109.99 28.2547 110.12 27.9373 110.382 27.676C110.662 27.396 110.998 27.256 111.39 27.256C111.782 27.256 112.108 27.396 112.37 27.676C112.65 27.9373 112.79 28.2547 112.79 28.628C112.79 29.0013 112.65 29.328 112.37 29.608C112.108 29.8693 111.782 30 111.39 30C110.998 30 110.662 29.8693 110.382 29.608C110.12 29.328 109.99 29.0013 109.99 28.628ZM112.818 25.856C112.818 25.4827 112.958 25.1653 113.238 24.904C113.518 24.624 113.854 24.484 114.246 24.484C114.638 24.484 114.974 24.624 115.254 24.904C115.534 25.1653 115.674 25.4827 115.674 25.856C115.674 26.248 115.534 26.584 115.254 26.864C114.974 27.1253 114.638 27.256 114.246 27.256C113.854 27.256 113.518 27.1253 113.238 26.864C112.958 26.584 112.818 26.248 112.818 25.856ZM112.678 23.056C112.678 22.664 112.818 22.328 113.098 22.048C113.396 21.768 113.76 21.628 114.19 21.628C114.6 21.628 114.946 21.768 115.226 22.048C115.524 22.328 115.674 22.664 115.674 23.056C115.674 23.448 115.524 23.784 115.226 24.064C114.946 24.344 114.6 24.484 114.19 24.484C113.76 24.484 113.396 24.344 113.098 24.064C112.818 23.784 112.678 23.448 112.678 23.056ZM109.962 20.256C109.962 19.8827 110.092 19.5653 110.354 19.304C110.615 19.024 110.942 18.884 111.334 18.884C111.707 18.884 112.024 19.024 112.286 19.304C112.547 19.5653 112.678 19.8827 112.678 20.256C112.678 20.6293 112.547 20.956 112.286 21.236C112.024 21.4973 111.707 21.628 111.334 21.628C110.942 21.628 110.615 21.4973 110.354 21.236C110.092 20.956 109.962 20.6293 109.962 20.256ZM107.19 20.256C107.19 19.8827 107.32 19.5653 107.582 19.304C107.862 19.024 108.198 18.884 108.59 18.884C108.963 18.884 109.28 19.024 109.542 19.304C109.822 19.5653 109.962 19.8827 109.962 20.256C109.962 20.648 109.822 20.984 109.542 21.264C109.28 21.5253 108.963 21.656 108.59 21.656C108.198 21.656 107.862 21.5253 107.582 21.264C107.32 20.984 107.19 20.648 107.19 20.256ZM104.362 20.256C104.362 19.8827 104.502 19.5653 104.782 19.304C105.062 19.024 105.398 18.884 105.79 18.884C106.163 18.884 106.49 19.024 106.77 19.304C107.05 19.5653 107.19 19.8827 107.19 20.256C107.19 20.648 107.05 20.984 106.77 21.264C106.49 21.5253 106.163 21.656 105.79 21.656C105.398 21.656 105.062 21.5253 104.782 21.264C104.502 20.984 104.362 20.648 104.362 20.256ZM104.362 17.484C104.362 17.092 104.502 16.7653 104.782 16.504C105.062 16.224 105.407 16.084 105.818 16.084C106.228 16.084 106.574 16.224 106.854 16.504C107.134 16.7653 107.274 17.092 107.274 17.484C107.274 17.876 107.134 18.212 106.854 18.492C106.574 18.7533 106.228 18.884 105.818 18.884C105.407 18.884 105.062 18.7533 104.782 18.492C104.502 18.212 104.362 17.876 104.362 17.484ZM104.362 14.684C104.362 14.292 104.502 13.9653 104.782 13.704C105.062 13.424 105.407 13.284 105.818 13.284C106.228 13.284 106.574 13.424 106.854 13.704C107.134 13.9653 107.274 14.292 107.274 14.684C107.274 15.076 107.134 15.412 106.854 15.692C106.574 15.9533 106.228 16.084 105.818 16.084C105.407 16.084 105.062 15.9533 104.782 15.692C104.502 15.412 104.362 15.076 104.362 14.684ZM104.362 11.884C104.362 11.492 104.502 11.1653 104.782 10.904C105.062 10.624 105.398 10.484 105.79 10.484C106.163 10.484 106.49 10.624 106.77 10.904C107.05 11.1653 107.19 11.492 107.19 11.884C107.19 12.276 107.05 12.612 106.77 12.892C106.49 13.1533 106.163 13.284 105.79 13.284C105.398 13.284 105.062 13.1533 104.782 12.892C104.502 12.612 104.362 12.276 104.362 11.884ZM107.19 11.8C107.19 11.4453 107.33 11.1373 107.61 10.876C107.89 10.6147 108.226 10.484 108.618 10.484C108.991 10.484 109.318 10.6147 109.598 10.876C109.878 11.1373 110.018 11.4453 110.018 11.8C110.018 12.1547 109.878 12.4627 109.598 12.724C109.318 12.9853 108.991 13.116 108.618 13.116C108.226 13.116 107.89 12.9853 107.61 12.724C107.33 12.4627 107.19 12.1547 107.19 11.8ZM110.018 11.8C110.018 11.4453 110.148 11.1373 110.41 10.876C110.69 10.6147 111.026 10.484 111.418 10.484C111.81 10.484 112.136 10.6147 112.398 10.876C112.678 11.1373 112.818 11.4453 112.818 11.8C112.818 12.1547 112.678 12.4627 112.398 12.724C112.136 12.9853 111.81 13.116 111.418 13.116C111.026 13.116 110.69 12.9853 110.41 12.724C110.148 12.4627 110.018 12.1547 110.018 11.8ZM112.734 14.628C112.734 14.2547 112.864 13.9373 113.126 13.676C113.387 13.4147 113.704 13.284 114.078 13.284C114.451 13.284 114.768 13.4147 115.03 13.676C115.291 13.9373 115.422 14.2547 115.422 14.628C115.422 15.0013 115.291 15.3187 115.03 15.58C114.768 15.8413 114.451 15.972 114.078 15.972C113.704 15.972 113.387 15.8413 113.126 15.58C112.864 15.3187 112.734 15.0013 112.734 14.628ZM112.846 17.456C112.846 17.064 112.976 16.728 113.238 16.448C113.518 16.168 113.854 16.028 114.246 16.028C114.619 16.028 114.936 16.168 115.198 16.448C115.478 16.728 115.618 17.064 115.618 17.456C115.618 17.8667 115.478 18.212 115.198 18.492C114.936 18.772 114.619 18.912 114.246 18.912C113.854 18.912 113.518 18.772 113.238 18.492C112.976 18.212 112.846 17.8667 112.846 17.456ZM104.362 23.084C104.362 22.7107 104.502 22.3933 104.782 22.132C105.062 21.8707 105.407 21.74 105.818 21.74C106.21 21.74 106.546 21.8707 106.826 22.132C107.106 22.3933 107.246 22.7107 107.246 23.084C107.246 23.4573 107.106 23.7747 106.826 24.036C106.546 24.2973 106.21 24.428 105.818 24.428C105.407 24.428 105.062 24.2973 104.782 24.036C104.502 23.7747 104.362 23.4573 104.362 23.084ZM104.362 25.828C104.362 25.436 104.502 25.1093 104.782 24.848C105.062 24.568 105.407 24.428 105.818 24.428C106.21 24.428 106.546 24.568 106.826 24.848C107.106 25.1093 107.246 25.436 107.246 25.828C107.246 26.22 107.106 26.556 106.826 26.836C106.546 27.0973 106.21 27.228 105.818 27.228C105.407 27.228 105.062 27.0973 104.782 26.836C104.502 26.556 104.362 26.22 104.362 25.828ZM119.762 11.828C119.762 11.4547 119.902 11.1373 120.182 10.876C120.462 10.6147 120.798 10.484 121.19 10.484C121.582 10.484 121.918 10.6147 122.198 10.876C122.478 11.1373 122.618 11.4547 122.618 11.828C122.618 12.2013 122.478 12.5187 122.198 12.78C121.918 13.0413 121.582 13.172 121.19 13.172C120.798 13.172 120.462 13.0413 120.182 12.78C119.902 12.5187 119.762 12.2013 119.762 11.828ZM119.762 14.572C119.762 14.1987 119.902 13.872 120.182 13.592C120.462 13.312 120.798 13.172 121.19 13.172C121.582 13.172 121.918 13.312 122.198 13.592C122.478 13.872 122.618 14.1987 122.618 14.572C122.618 14.964 122.478 15.3 122.198 15.58C121.918 15.86 121.582 16 121.19 16C120.798 16 120.462 15.86 120.182 15.58C119.902 15.3 119.762 14.964 119.762 14.572ZM119.762 28.628C119.762 28.2547 119.902 27.9373 120.182 27.676C120.462 27.4147 120.798 27.284 121.19 27.284C121.582 27.284 121.918 27.4147 122.198 27.676C122.478 27.9373 122.618 28.2547 122.618 28.628C122.618 29.02 122.478 29.3467 122.198 29.608C121.918 29.8693 121.582 30 121.19 30C120.798 30 120.462 29.8693 120.182 29.608C119.902 29.3467 119.762 29.02 119.762 28.628ZM119.762 25.884C119.762 25.492 119.902 25.1653 120.182 24.904C120.462 24.624 120.798 24.484 121.19 24.484C121.582 24.484 121.918 24.624 122.198 24.904C122.478 25.1653 122.618 25.492 122.618 25.884C122.618 26.276 122.478 26.612 122.198 26.892C121.918 27.1533 121.582 27.284 121.19 27.284C120.798 27.284 120.462 27.1533 120.182 26.892C119.902 26.612 119.762 26.276 119.762 25.884ZM122.534 23.112C122.534 22.7013 122.674 22.356 122.954 22.076C123.234 21.796 123.57 21.656 123.962 21.656C124.354 21.656 124.69 21.796 124.97 22.076C125.25 22.356 125.39 22.7013 125.39 23.112C125.39 23.5227 125.25 23.868 124.97 24.148C124.69 24.428 124.354 24.568 123.962 24.568C123.57 24.568 123.234 24.428 122.954 24.148C122.674 23.868 122.534 23.5227 122.534 23.112ZM125.39 20.256C125.39 19.864 125.52 19.5373 125.782 19.276C126.062 18.996 126.398 18.856 126.79 18.856C127.182 18.856 127.508 18.996 127.77 19.276C128.05 19.5373 128.19 19.864 128.19 20.256C128.19 20.648 128.05 20.984 127.77 21.264C127.508 21.5253 127.182 21.656 126.79 21.656C126.398 21.656 126.062 21.5253 125.782 21.264C125.52 20.984 125.39 20.648 125.39 20.256ZM128.19 17.456C128.19 17.064 128.32 16.7373 128.582 16.476C128.862 16.196 129.198 16.056 129.59 16.056C129.982 16.056 130.308 16.196 130.57 16.476C130.85 16.7373 130.99 17.064 130.99 17.456C130.99 17.848 130.85 18.184 130.57 18.464C130.308 18.7253 129.982 18.856 129.59 18.856C129.198 18.856 128.862 18.7253 128.582 18.464C128.32 18.184 128.19 17.848 128.19 17.456ZM130.99 14.656C130.99 14.264 131.13 13.9373 131.41 13.676C131.69 13.396 132.035 13.256 132.446 13.256C132.838 13.256 133.174 13.396 133.454 13.676C133.734 13.9373 133.874 14.264 133.874 14.656C133.874 15.048 133.734 15.384 133.454 15.664C133.174 15.9253 132.838 16.056 132.446 16.056C132.035 16.056 131.69 15.9253 131.41 15.664C131.13 15.384 130.99 15.048 130.99 14.656ZM130.99 11.856C130.99 11.4827 131.13 11.1653 131.41 10.904C131.69 10.624 132.035 10.484 132.446 10.484C132.838 10.484 133.174 10.624 133.454 10.904C133.734 11.1653 133.874 11.4827 133.874 11.856C133.874 12.248 133.734 12.584 133.454 12.864C133.174 13.1253 132.838 13.256 132.446 13.256C132.035 13.256 131.69 13.1253 131.41 12.864C131.13 12.584 130.99 12.248 130.99 11.856ZM122.506 17.484C122.506 17.1293 122.646 16.8213 122.926 16.56C123.224 16.2987 123.579 16.168 123.99 16.168C124.382 16.168 124.718 16.2987 124.998 16.56C125.296 16.8213 125.446 17.1293 125.446 17.484C125.446 17.8387 125.296 18.1467 124.998 18.408C124.718 18.6693 124.382 18.8 123.99 18.8C123.579 18.8 123.224 18.6693 122.926 18.408C122.646 18.1467 122.506 17.8387 122.506 17.484ZM137.951 20.2C137.951 19.8453 138.091 19.5373 138.371 19.276C138.651 19.0147 138.987 18.884 139.379 18.884C139.771 18.884 140.107 19.0147 140.387 19.276C140.667 19.5373 140.807 19.8453 140.807 20.2C140.807 20.5733 140.667 20.8907 140.387 21.152C140.107 21.4133 139.771 21.544 139.379 21.544C138.987 21.544 138.651 21.4133 138.371 21.152C138.091 20.8907 137.951 20.5733 137.951 20.2ZM137.951 28.656C137.951 28.2827 138.091 27.9653 138.371 27.704C138.651 27.4427 138.996 27.312 139.407 27.312C139.799 27.312 140.135 27.4427 140.415 27.704C140.695 27.9653 140.835 28.2827 140.835 28.656C140.835 29.0293 140.695 29.3467 140.415 29.608C140.135 29.8693 139.799 30 139.407 30C138.996 30 138.651 29.8693 138.371 29.608C138.091 29.3467 137.951 29.0293 137.951 28.656Z" fill="black"/>
<path d="M29 22L11 34L11 10L29 22Z" fill="#517B83"/>
<rect x="0.5" y="0.5" width="309" height="47" rx="7.5" stroke="black" shape-rendering="crispEdges"/>
</g>
<defs>
<filter id="filter0_d_183_2226" x="0" y="0" width="318" height="56" filterUnits="userSpaceOnUse" color-interpolation-filters="sRGB">
<feFlood flood-opacity="0" result="BackgroundImageFix"/>
<feColorMatrix in="SourceAlpha" type="matrix" values="0 0 0 0 0 0 0 0 0 0 0 0 0 0 0 0 0 0 127 0" result="hardAlpha"/>
<feOffset dx="4" dy="4"/>
<feGaussianBlur stdDeviation="2"/>
<feComposite in2="hardAlpha" operator="out"/>
<feColorMatrix type="matrix" values="0 0 0 0 0 0 0 0 0 0 0 0 0 0 0 0 0 0 0.5 0"/>
<feBlend mode="normal" in2="BackgroundImageFix" result="effect1_dropShadow_183_2226"/>
<feBlend mode="normal" in="SourceGraphic" in2="effect1_dropShadow_183_2226" result="shape"/>
</filter>
</defs>
</svg>
