<svg width="318" height="60" viewBox="0 0 318 60" fill="none" xmlns="http://www.w3.org/2000/svg">
<g filter="url(#filter0_d_247_3009)">
<rect width="310" height="52" rx="8" fill="white" shape-rendering="crispEdges"/>
<rect width="290" height="28" transform="translate(8 12)" fill="white"/>
<path d="M40 32.628C40 32.2547 40.14 31.9373 40.42 31.676C40.7 31.4147 41.036 31.284 41.428 31.284C41.82 31.284 42.156 31.4147 42.436 31.676C42.716 31.9373 42.856 32.2547 42.856 32.628C42.856 33.02 42.716 33.3467 42.436 33.608C42.156 33.8693 41.82 34 41.428 34C41.036 34 40.7 33.8693 40.42 33.608C40.14 33.3467 40 33.02 40 32.628ZM42.856 32.628C42.856 32.2547 42.9867 31.9373 43.248 31.676C43.528 31.4147 43.864 31.284 44.256 31.284C44.6293 31.284 44.9467 31.4147 45.208 31.676C45.488 31.9373 45.628 32.2547 45.628 32.628C45.628 33.02 45.488 33.3467 45.208 33.608C44.9467 33.8693 44.6293 34 44.256 34C43.864 34 43.528 33.8693 43.248 33.608C42.9867 33.3467 42.856 33.02 42.856 32.628ZM45.628 32.628C45.628 32.2547 45.7587 31.9373 46.02 31.676C46.3 31.396 46.636 31.256 47.028 31.256C47.42 31.256 47.7467 31.396 48.008 31.676C48.288 31.9373 48.428 32.2547 48.428 32.628C48.428 33.0013 48.288 33.328 48.008 33.608C47.7467 33.8693 47.42 34 47.028 34C46.636 34 46.3 33.8693 46.02 33.608C45.7587 33.328 45.628 33.0013 45.628 32.628ZM48.456 29.856C48.456 29.4827 48.596 29.1653 48.876 28.904C49.156 28.624 49.492 28.484 49.884 28.484C50.276 28.484 50.612 28.624 50.892 28.904C51.172 29.1653 51.312 29.4827 51.312 29.856C51.312 30.248 51.172 30.584 50.892 30.864C50.612 31.1253 50.276 31.256 49.884 31.256C49.492 31.256 49.156 31.1253 48.876 30.864C48.596 30.584 48.456 30.248 48.456 29.856ZM48.316 27.056C48.316 26.664 48.456 26.328 48.736 26.048C49.0347 25.768 49.3987 25.628 49.828 25.628C50.2387 25.628 50.584 25.768 50.864 26.048C51.1627 26.328 51.312 26.664 51.312 27.056C51.312 27.448 51.1627 27.784 50.864 28.064C50.584 28.344 50.2387 28.484 49.828 28.484C49.3987 28.484 49.0347 28.344 48.736 28.064C48.456 27.784 48.316 27.448 48.316 27.056ZM45.6 24.256C45.6 23.8827 45.7307 23.5653 45.992 23.304C46.2533 23.024 46.58 22.884 46.972 22.884C47.3453 22.884 47.6627 23.024 47.924 23.304C48.1853 23.5653 48.316 23.8827 48.316 24.256C48.316 24.6293 48.1853 24.956 47.924 25.236C47.6627 25.4973 47.3453 25.628 46.972 25.628C46.58 25.628 46.2533 25.4973 45.992 25.236C45.7307 24.956 45.6 24.6293 45.6 24.256ZM42.828 24.256C42.828 23.8827 42.9587 23.5653 43.22 23.304C43.5 23.024 43.836 22.884 44.228 22.884C44.6013 22.884 44.9187 23.024 45.18 23.304C45.46 23.5653 45.6 23.8827 45.6 24.256C45.6 24.648 45.46 24.984 45.18 25.264C44.9187 25.5253 44.6013 25.656 44.228 25.656C43.836 25.656 43.5 25.5253 43.22 25.264C42.9587 24.984 42.828 24.648 42.828 24.256ZM40 24.256C40 23.8827 40.14 23.5653 40.42 23.304C40.7 23.024 41.036 22.884 41.428 22.884C41.8013 22.884 42.128 23.024 42.408 23.304C42.688 23.5653 42.828 23.8827 42.828 24.256C42.828 24.648 42.688 24.984 42.408 25.264C42.128 25.5253 41.8013 25.656 41.428 25.656C41.036 25.656 40.7 25.5253 40.42 25.264C40.14 24.984 40 24.648 40 24.256ZM40 21.484C40 21.092 40.14 20.7653 40.42 20.504C40.7 20.224 41.0453 20.084 41.456 20.084C41.8667 20.084 42.212 20.224 42.492 20.504C42.772 20.7653 42.912 21.092 42.912 21.484C42.912 21.876 42.772 22.212 42.492 22.492C42.212 22.7533 41.8667 22.884 41.456 22.884C41.0453 22.884 40.7 22.7533 40.42 22.492C40.14 22.212 40 21.876 40 21.484ZM40 18.684C40 18.292 40.14 17.9653 40.42 17.704C40.7 17.424 41.0453 17.284 41.456 17.284C41.8667 17.284 42.212 17.424 42.492 17.704C42.772 17.9653 42.912 18.292 42.912 18.684C42.912 19.076 42.772 19.412 42.492 19.692C42.212 19.9533 41.8667 20.084 41.456 20.084C41.0453 20.084 40.7 19.9533 40.42 19.692C40.14 19.412 40 19.076 40 18.684ZM40 15.884C40 15.492 40.14 15.1653 40.42 14.904C40.7 14.624 41.036 14.484 41.428 14.484C41.8013 14.484 42.128 14.624 42.408 14.904C42.688 15.1653 42.828 15.492 42.828 15.884C42.828 16.276 42.688 16.612 42.408 16.892C42.128 17.1533 41.8013 17.284 41.428 17.284C41.036 17.284 40.7 17.1533 40.42 16.892C40.14 16.612 40 16.276 40 15.884ZM42.828 15.8C42.828 15.4453 42.968 15.1373 43.248 14.876C43.528 14.6147 43.864 14.484 44.256 14.484C44.6293 14.484 44.956 14.6147 45.236 14.876C45.516 15.1373 45.656 15.4453 45.656 15.8C45.656 16.1547 45.516 16.4627 45.236 16.724C44.956 16.9853 44.6293 17.116 44.256 17.116C43.864 17.116 43.528 16.9853 43.248 16.724C42.968 16.4627 42.828 16.1547 42.828 15.8ZM45.656 15.8C45.656 15.4453 45.7867 15.1373 46.048 14.876C46.328 14.6147 46.664 14.484 47.056 14.484C47.448 14.484 47.7747 14.6147 48.036 14.876C48.316 15.1373 48.456 15.4453 48.456 15.8C48.456 16.1547 48.316 16.4627 48.036 16.724C47.7747 16.9853 47.448 17.116 47.056 17.116C46.664 17.116 46.328 16.9853 46.048 16.724C45.7867 16.4627 45.656 16.1547 45.656 15.8ZM48.372 18.628C48.372 18.2547 48.5027 17.9373 48.764 17.676C49.0253 17.4147 49.3427 17.284 49.716 17.284C50.0893 17.284 50.4067 17.4147 50.668 17.676C50.9293 17.9373 51.06 18.2547 51.06 18.628C51.06 19.0013 50.9293 19.3187 50.668 19.58C50.4067 19.8413 50.0893 19.972 49.716 19.972C49.3427 19.972 49.0253 19.8413 48.764 19.58C48.5027 19.3187 48.372 19.0013 48.372 18.628ZM48.484 21.456C48.484 21.064 48.6147 20.728 48.876 20.448C49.156 20.168 49.492 20.028 49.884 20.028C50.2573 20.028 50.5747 20.168 50.836 20.448C51.116 20.728 51.256 21.064 51.256 21.456C51.256 21.8667 51.116 22.212 50.836 22.492C50.5747 22.772 50.2573 22.912 49.884 22.912C49.492 22.912 49.156 22.772 48.876 22.492C48.6147 22.212 48.484 21.8667 48.484 21.456ZM40 27.084C40 26.7107 40.14 26.3933 40.42 26.132C40.7 25.8707 41.0453 25.74 41.456 25.74C41.848 25.74 42.184 25.8707 42.464 26.132C42.744 26.3933 42.884 26.7107 42.884 27.084C42.884 27.4573 42.744 27.7747 42.464 28.036C42.184 28.2973 41.848 28.428 41.456 28.428C41.0453 28.428 40.7 28.2973 40.42 28.036C40.14 27.7747 40 27.4573 40 27.084ZM40 29.828C40 29.436 40.14 29.1093 40.42 28.848C40.7 28.568 41.0453 28.428 41.456 28.428C41.848 28.428 42.184 28.568 42.464 28.848C42.744 29.1093 42.884 29.436 42.884 29.828C42.884 30.22 42.744 30.556 42.464 30.836C42.184 31.0973 41.848 31.228 41.456 31.228C41.0453 31.228 40.7 31.0973 40.42 30.836C40.14 30.556 40 30.22 40 29.828ZM55.4 15.856C55.4 15.4827 55.54 15.1653 55.82 14.904C56.1 14.624 56.436 14.484 56.828 14.484C57.2013 14.484 57.528 14.624 57.808 14.904C58.088 15.1653 58.228 15.4827 58.228 15.856C58.228 16.2293 58.088 16.556 57.808 16.836C57.528 17.0973 57.2013 17.228 56.828 17.228C56.436 17.228 56.1 17.0973 55.82 16.836C55.54 16.556 55.4 16.2293 55.4 15.856ZM58.228 15.856C58.228 15.4827 58.368 15.1653 58.648 14.904C58.928 14.624 59.264 14.484 59.656 14.484C60.0293 14.484 60.356 14.624 60.636 14.904C60.916 15.1653 61.056 15.4827 61.056 15.856C61.056 16.2293 60.916 16.556 60.636 16.836C60.356 17.0973 60.0293 17.228 59.656 17.228C59.264 17.228 58.928 17.0973 58.648 16.836C58.368 16.556 58.228 16.2293 58.228 15.856ZM61.056 15.856C61.056 15.4827 61.1867 15.1653 61.448 14.904C61.728 14.624 62.064 14.484 62.456 14.484C62.8293 14.484 63.1467 14.624 63.408 14.904C63.688 15.1653 63.828 15.4827 63.828 15.856C63.828 16.2293 63.688 16.556 63.408 16.836C63.1467 17.0973 62.8293 17.228 62.456 17.228C62.064 17.228 61.728 17.0973 61.448 16.836C61.1867 16.556 61.056 16.2293 61.056 15.856ZM63.828 15.856C63.828 15.4827 63.968 15.1653 64.248 14.904C64.528 14.624 64.864 14.484 65.256 14.484C65.648 14.484 65.984 14.624 66.264 14.904C66.544 15.1653 66.684 15.4827 66.684 15.856C66.684 16.2293 66.544 16.556 66.264 16.836C65.984 17.0973 65.648 17.228 65.256 17.228C64.864 17.228 64.528 17.0973 64.248 16.836C63.968 16.556 63.828 16.2293 63.828 15.856ZM55.4 18.6C55.4 18.2267 55.54 17.9093 55.82 17.648C56.1 17.368 56.436 17.228 56.828 17.228C57.22 17.228 57.556 17.368 57.836 17.648C58.116 17.9093 58.256 18.2267 58.256 18.6C58.256 18.9733 58.116 19.3 57.836 19.58C57.556 19.8413 57.22 19.972 56.828 19.972C56.436 19.972 56.1 19.8413 55.82 19.58C55.54 19.3 55.4 18.9733 55.4 18.6ZM55.4 21.344C55.4 20.9707 55.54 20.6533 55.82 20.392C56.1 20.112 56.436 19.972 56.828 19.972C57.22 19.972 57.556 20.112 57.836 20.392C58.116 20.6533 58.256 20.9707 58.256 21.344C58.256 21.736 58.116 22.072 57.836 22.352C57.556 22.6133 57.22 22.744 56.828 22.744C56.436 22.744 56.1 22.6133 55.82 22.352C55.54 22.072 55.4 21.736 55.4 21.344ZM55.4 24.116C55.4 23.7427 55.5307 23.4253 55.792 23.164C56.072 22.884 56.408 22.744 56.8 22.744C57.192 22.744 57.5187 22.884 57.78 23.164C58.06 23.4253 58.2 23.7427 58.2 24.116C58.2 24.508 58.06 24.844 57.78 25.124C57.5187 25.3853 57.192 25.516 56.8 25.516C56.408 25.516 56.072 25.3853 55.792 25.124C55.5307 24.844 55.4 24.508 55.4 24.116ZM55.4 26.944C55.4 26.552 55.5307 26.216 55.792 25.936C56.072 25.656 56.408 25.516 56.8 25.516C57.192 25.516 57.5187 25.656 57.78 25.936C58.06 26.216 58.2 26.552 58.2 26.944C58.2 27.3547 58.06 27.7 57.78 27.98C57.5187 28.26 57.192 28.4 56.8 28.4C56.408 28.4 56.072 28.26 55.792 27.98C55.5307 27.7 55.4 27.3547 55.4 26.944ZM55.4 29.772C55.4 29.3987 55.5307 29.0813 55.792 28.82C56.072 28.54 56.408 28.4 56.8 28.4C57.192 28.4 57.5187 28.54 57.78 28.82C58.06 29.0813 58.2 29.3987 58.2 29.772C58.2 30.164 58.06 30.5 57.78 30.78C57.5187 31.0413 57.192 31.172 56.8 31.172C56.408 31.172 56.072 31.0413 55.792 30.78C55.5307 30.5 55.4 30.164 55.4 29.772ZM55.4 32.572C55.4 32.1987 55.5307 31.872 55.792 31.592C56.072 31.312 56.408 31.172 56.8 31.172C57.192 31.172 57.5187 31.312 57.78 31.592C58.06 31.872 58.2 32.1987 58.2 32.572C58.2 32.964 58.06 33.3 57.78 33.58C57.5187 33.86 57.192 34 56.8 34C56.408 34 56.072 33.86 55.792 33.58C55.5307 33.3 55.4 32.964 55.4 32.572ZM58.2 32.628C58.2 32.2547 58.34 31.9373 58.62 31.676C58.9 31.396 59.2453 31.256 59.656 31.256C60.048 31.256 60.384 31.396 60.664 31.676C60.944 31.9373 61.084 32.2547 61.084 32.628C61.084 33.0013 60.944 33.328 60.664 33.608C60.384 33.8693 60.048 34 59.656 34C59.2453 34 58.9 33.8693 58.62 33.608C58.34 33.328 58.2 33.0013 58.2 32.628ZM61.084 32.628C61.084 32.2547 61.2147 31.9373 61.476 31.676C61.7373 31.396 62.064 31.256 62.456 31.256C62.8293 31.256 63.1467 31.396 63.408 31.676C63.6693 31.9373 63.8 32.2547 63.8 32.628C63.8 33.0013 63.6693 33.328 63.408 33.608C63.1467 33.8693 62.8293 34 62.456 34C62.064 34 61.7373 33.8693 61.476 33.608C61.2147 33.328 61.084 33.0013 61.084 32.628ZM63.8 32.6C63.8 32.2267 63.94 31.9093 64.22 31.648C64.5 31.368 64.8453 31.228 65.256 31.228C65.648 31.228 65.984 31.368 66.264 31.648C66.544 31.9093 66.684 32.2267 66.684 32.6C66.684 32.992 66.544 33.328 66.264 33.608C65.984 33.8693 65.648 34 65.256 34C64.8453 34 64.5 33.8693 64.22 33.608C63.94 33.328 63.8 32.992 63.8 32.6ZM58.172 24.2C58.172 23.7893 58.312 23.444 58.592 23.164C58.872 22.884 59.2173 22.744 59.628 22.744C60.0387 22.744 60.384 22.884 60.664 23.164C60.944 23.444 61.084 23.7893 61.084 24.2C61.084 24.6107 60.944 24.956 60.664 25.236C60.384 25.516 60.0387 25.656 59.628 25.656C59.2173 25.656 58.872 25.516 58.592 25.236C58.312 24.956 58.172 24.6107 58.172 24.2ZM61.084 24.228C61.084 23.8547 61.2147 23.528 61.476 23.248C61.756 22.968 62.092 22.828 62.484 22.828C62.8573 22.828 63.1747 22.968 63.436 23.248C63.716 23.528 63.856 23.8547 63.856 24.228C63.856 24.62 63.716 24.956 63.436 25.236C63.1747 25.516 62.8573 25.656 62.484 25.656C62.092 25.656 61.756 25.516 61.476 25.236C61.2147 24.956 61.084 24.62 61.084 24.228ZM70.8 32.656C70.8 32.2827 70.94 31.9653 71.22 31.704C71.5 31.4427 71.836 31.312 72.228 31.312C72.6013 31.312 72.928 31.4427 73.208 31.704C73.488 31.9653 73.628 32.2827 73.628 32.656C73.628 33.0293 73.488 33.3467 73.208 33.608C72.928 33.8693 72.6013 34 72.228 34C71.836 34 71.5 33.8693 71.22 33.608C70.94 33.3467 70.8 33.0293 70.8 32.656ZM73.628 32.656C73.628 32.2827 73.7587 31.9653 74.02 31.704C74.3 31.4427 74.6267 31.312 75 31.312C75.3733 31.312 75.6907 31.4427 75.952 31.704C76.232 31.9653 76.372 32.2827 76.372 32.656C76.372 33.0293 76.232 33.3467 75.952 33.608C75.6907 33.8693 75.3733 34 75 34C74.6267 34 74.3 33.8693 74.02 33.608C73.7587 33.3467 73.628 33.0293 73.628 32.656ZM76.372 32.628C76.372 32.2547 76.512 31.9373 76.792 31.676C77.072 31.4147 77.4173 31.284 77.828 31.284C78.22 31.284 78.556 31.4147 78.836 31.676C79.116 31.9373 79.256 32.2547 79.256 32.628C79.256 33.02 79.116 33.3467 78.836 33.608C78.556 33.8693 78.22 34 77.828 34C77.4173 34 77.072 33.8693 76.792 33.608C76.512 33.3467 76.372 33.02 76.372 32.628ZM79.256 29.856C79.256 29.464 79.3867 29.128 79.648 28.848C79.928 28.568 80.264 28.428 80.656 28.428C81.0293 28.428 81.3467 28.568 81.608 28.848C81.888 29.128 82.028 29.464 82.028 29.856C82.028 30.248 81.888 30.584 81.608 30.864C81.3467 31.144 81.0293 31.284 80.656 31.284C80.264 31.284 79.928 31.144 79.648 30.864C79.3867 30.584 79.256 30.248 79.256 29.856ZM79.172 27.028C79.172 26.6547 79.312 26.3373 79.592 26.076C79.872 25.796 80.208 25.656 80.6 25.656C80.992 25.656 81.328 25.796 81.608 26.076C81.888 26.3373 82.028 26.6547 82.028 27.028C82.028 27.42 81.888 27.756 81.608 28.036C81.328 28.2973 80.992 28.428 80.6 28.428C80.208 28.428 79.872 28.2973 79.592 28.036C79.312 27.756 79.172 27.42 79.172 27.028ZM76.428 24.256C76.428 23.864 76.5587 23.5373 76.82 23.276C77.1 22.996 77.4267 22.856 77.8 22.856C78.1733 22.856 78.4907 22.996 78.752 23.276C79.032 23.5373 79.172 23.864 79.172 24.256C79.172 24.648 79.032 24.984 78.752 25.264C78.4907 25.5253 78.1733 25.656 77.8 25.656C77.4267 25.656 77.1 25.5253 76.82 25.264C76.5587 24.984 76.428 24.648 76.428 24.256ZM73.6 24.228C73.6 23.8547 73.74 23.5373 74.02 23.276C74.3 22.996 74.636 22.856 75.028 22.856C75.4013 22.856 75.728 22.996 76.008 23.276C76.288 23.5373 76.428 23.8547 76.428 24.228C76.428 24.62 76.288 24.956 76.008 25.236C75.728 25.4973 75.4013 25.628 75.028 25.628C74.636 25.628 74.3 25.4973 74.02 25.236C73.74 24.956 73.6 24.62 73.6 24.228ZM70.8 21.456C70.8 21.064 70.94 20.728 71.22 20.448C71.5 20.168 71.836 20.028 72.228 20.028C72.6013 20.028 72.928 20.168 73.208 20.448C73.488 20.728 73.628 21.064 73.628 21.456C73.628 21.848 73.488 22.184 73.208 22.464C72.928 22.744 72.6013 22.884 72.228 22.884C71.836 22.884 71.5 22.744 71.22 22.464C70.94 22.184 70.8 21.848 70.8 21.456ZM70.8 18.656C70.8 18.2827 70.94 17.9653 71.22 17.704C71.5 17.4427 71.836 17.312 72.228 17.312C72.6013 17.312 72.928 17.4427 73.208 17.704C73.488 17.9653 73.628 18.2827 73.628 18.656C73.628 19.048 73.488 19.3747 73.208 19.636C72.928 19.8973 72.6013 20.028 72.228 20.028C71.836 20.028 71.5 19.8973 71.22 19.636C70.94 19.3747 70.8 19.048 70.8 18.656ZM73.628 15.884C73.628 15.5107 73.768 15.184 74.048 14.904C74.328 14.624 74.664 14.484 75.056 14.484C75.4293 14.484 75.756 14.624 76.036 14.904C76.316 15.184 76.456 15.5107 76.456 15.884C76.456 16.276 76.316 16.612 76.036 16.892C75.756 17.172 75.4293 17.312 75.056 17.312C74.664 17.312 74.328 17.172 74.048 16.892C73.768 16.612 73.628 16.276 73.628 15.884ZM76.456 15.856C76.456 15.4827 76.5867 15.1653 76.848 14.904C77.128 14.624 77.4547 14.484 77.828 14.484C78.2013 14.484 78.5187 14.624 78.78 14.904C79.06 15.1653 79.2 15.4827 79.2 15.856C79.2 16.2293 79.06 16.556 78.78 16.836C78.5187 17.0973 78.2013 17.228 77.828 17.228C77.4547 17.228 77.128 17.0973 76.848 16.836C76.5867 16.556 76.456 16.2293 76.456 15.856ZM79.2 15.856C79.2 15.4827 79.34 15.1653 79.62 14.904C79.9187 14.624 80.2733 14.484 80.684 14.484C81.076 14.484 81.412 14.624 81.692 14.904C81.9907 15.1653 82.14 15.4827 82.14 15.856C82.14 16.2293 81.9907 16.556 81.692 16.836C81.412 17.0973 81.076 17.228 80.684 17.228C80.2733 17.228 79.9187 17.0973 79.62 16.836C79.34 16.556 79.2 16.2293 79.2 15.856ZM86.2 15.828C86.2 15.4547 86.34 15.1373 86.62 14.876C86.9 14.6147 87.236 14.484 87.628 14.484C88.02 14.484 88.356 14.6147 88.636 14.876C88.916 15.1373 89.056 15.4547 89.056 15.828C89.056 16.2013 88.916 16.5187 88.636 16.78C88.356 17.0413 88.02 17.172 87.628 17.172C87.236 17.172 86.9 17.0413 86.62 16.78C86.34 16.5187 86.2 16.2013 86.2 15.828ZM89.056 15.828C89.056 15.4547 89.1867 15.1373 89.448 14.876C89.728 14.6147 90.064 14.484 90.456 14.484C90.848 14.484 91.1747 14.6147 91.436 14.876C91.716 15.1373 91.856 15.4547 91.856 15.828C91.856 16.2013 91.716 16.5187 91.436 16.78C91.1747 17.0413 90.848 17.172 90.456 17.172C90.064 17.172 89.728 17.0413 89.448 16.78C89.1867 16.5187 89.056 16.2013 89.056 15.828ZM91.856 15.828C91.856 15.4547 91.9867 15.1373 92.248 14.876C92.528 14.6147 92.8547 14.484 93.228 14.484C93.6013 14.484 93.9187 14.6147 94.18 14.876C94.46 15.1373 94.6 15.4547 94.6 15.828C94.6 16.22 94.46 16.5467 94.18 16.808C93.9187 17.0693 93.6013 17.2 93.228 17.2C92.8547 17.2 92.528 17.0693 92.248 16.808C91.9867 16.5467 91.856 16.22 91.856 15.828ZM94.6 15.828C94.6 15.4547 94.74 15.1373 95.02 14.876C95.3 14.6147 95.636 14.484 96.028 14.484C96.4013 14.484 96.728 14.6147 97.008 14.876C97.288 15.1373 97.428 15.4547 97.428 15.828C97.428 16.22 97.288 16.5467 97.008 16.808C96.728 17.0693 96.4013 17.2 96.028 17.2C95.636 17.2 95.3 17.0693 95.02 16.808C94.74 16.5467 94.6 16.22 94.6 15.828ZM97.428 15.856C97.428 15.4827 97.568 15.1653 97.848 14.904C98.128 14.624 98.464 14.484 98.856 14.484C99.2293 14.484 99.556 14.624 99.836 14.904C100.116 15.1653 100.256 15.4827 100.256 15.856C100.256 16.2293 100.116 16.556 99.836 16.836C99.556 17.0973 99.2293 17.228 98.856 17.228C98.464 17.228 98.128 17.0973 97.848 16.836C97.568 16.556 97.428 16.2293 97.428 15.856ZM91.828 32.628C91.828 32.2547 91.9587 31.9373 92.22 31.676C92.5 31.396 92.836 31.256 93.228 31.256C93.62 31.256 93.9467 31.396 94.208 31.676C94.488 31.9373 94.628 32.2547 94.628 32.628C94.628 33.0013 94.488 33.328 94.208 33.608C93.9467 33.8693 93.62 34 93.228 34C92.836 34 92.5 33.8693 92.22 33.608C91.9587 33.328 91.828 33.0013 91.828 32.628ZM91.8 29.856C91.8 29.4827 91.94 29.1653 92.22 28.904C92.5 28.624 92.836 28.484 93.228 28.484C93.6013 28.484 93.928 28.624 94.208 28.904C94.488 29.1653 94.628 29.4827 94.628 29.856C94.628 30.248 94.488 30.584 94.208 30.864C93.928 31.1253 93.6013 31.256 93.228 31.256C92.836 31.256 92.5 31.1253 92.22 30.864C91.94 30.584 91.8 30.248 91.8 29.856ZM91.8 27.056C91.8 26.6827 91.94 26.356 92.22 26.076C92.5 25.796 92.836 25.656 93.228 25.656C93.62 25.656 93.956 25.796 94.236 26.076C94.516 26.356 94.656 26.6827 94.656 27.056C94.656 27.448 94.516 27.784 94.236 28.064C93.956 28.344 93.62 28.484 93.228 28.484C92.836 28.484 92.5 28.344 92.22 28.064C91.94 27.784 91.8 27.448 91.8 27.056ZM91.772 24.256C91.772 23.8827 91.912 23.5653 92.192 23.304C92.472 23.024 92.8173 22.884 93.228 22.884C93.62 22.884 93.956 23.024 94.236 23.304C94.516 23.5653 94.656 23.8827 94.656 24.256C94.656 24.648 94.516 24.984 94.236 25.264C93.956 25.5253 93.62 25.656 93.228 25.656C92.8173 25.656 92.472 25.5253 92.192 25.264C91.912 24.984 91.772 24.648 91.772 24.256ZM91.772 21.456C91.772 21.0827 91.912 20.756 92.192 20.476C92.472 20.196 92.8173 20.056 93.228 20.056C93.6387 20.056 93.984 20.196 94.264 20.476C94.544 20.756 94.684 21.0827 94.684 21.456C94.684 21.848 94.544 22.184 94.264 22.464C93.984 22.744 93.6387 22.884 93.228 22.884C92.8173 22.884 92.472 22.744 92.192 22.464C91.912 22.184 91.772 21.848 91.772 21.456ZM91.744 18.684C91.744 18.3107 91.884 17.9933 92.164 17.732C92.4627 17.452 92.8173 17.312 93.228 17.312C93.62 17.312 93.956 17.452 94.236 17.732C94.5347 17.9933 94.684 18.3107 94.684 18.684C94.684 19.0573 94.5347 19.384 94.236 19.664C93.956 19.9253 93.62 20.056 93.228 20.056C92.8173 20.056 92.4627 19.9253 92.164 19.664C91.884 19.384 91.744 19.0573 91.744 18.684ZM122.551 15.828C122.551 15.4547 122.691 15.1373 122.971 14.876C123.251 14.6147 123.596 14.484 124.007 14.484C124.399 14.484 124.735 14.6147 125.015 14.876C125.295 15.1373 125.435 15.4547 125.435 15.828C125.435 16.2013 125.295 16.5187 125.015 16.78C124.735 17.0413 124.399 17.172 124.007 17.172C123.596 17.172 123.251 17.0413 122.971 16.78C122.691 16.5187 122.551 16.2013 122.551 15.828ZM125.435 15.828C125.435 15.4547 125.565 15.1373 125.827 14.876C126.107 14.6147 126.443 14.484 126.835 14.484C127.227 14.484 127.553 14.6147 127.815 14.876C128.095 15.1373 128.235 15.4547 128.235 15.828C128.235 16.2013 128.095 16.5187 127.815 16.78C127.553 17.0413 127.227 17.172 126.835 17.172C126.443 17.172 126.107 17.0413 125.827 16.78C125.565 16.5187 125.435 16.2013 125.435 15.828ZM128.235 15.828C128.235 15.4547 128.365 15.1373 128.627 14.876C128.907 14.6147 129.243 14.484 129.635 14.484C130.027 14.484 130.353 14.6147 130.615 14.876C130.895 15.1373 131.035 15.4547 131.035 15.828C131.035 16.2013 130.895 16.5187 130.615 16.78C130.353 17.0413 130.027 17.172 129.635 17.172C129.243 17.172 128.907 17.0413 128.627 16.78C128.365 16.5187 128.235 16.2013 128.235 15.828ZM125.323 18.656C125.323 18.2453 125.463 17.9 125.743 17.62C126.023 17.34 126.359 17.2 126.751 17.2C127.124 17.2 127.451 17.34 127.731 17.62C128.011 17.9 128.151 18.2453 128.151 18.656C128.151 19.0667 128.011 19.412 127.731 19.692C127.451 19.972 127.124 20.112 126.751 20.112C126.359 20.112 126.023 19.972 125.743 19.692C125.463 19.412 125.323 19.0667 125.323 18.656ZM125.323 21.456C125.323 21.0827 125.463 20.7653 125.743 20.504C126.041 20.2427 126.396 20.112 126.807 20.112C127.199 20.112 127.535 20.2427 127.815 20.504C128.113 20.7653 128.263 21.0827 128.263 21.456C128.263 21.848 128.113 22.1747 127.815 22.436C127.535 22.6973 127.199 22.828 126.807 22.828C126.396 22.828 126.041 22.6973 125.743 22.436C125.463 22.1747 125.323 21.848 125.323 21.456ZM125.323 24.2C125.323 23.8267 125.463 23.5093 125.743 23.248C126.041 22.968 126.396 22.828 126.807 22.828C127.199 22.828 127.535 22.968 127.815 23.248C128.113 23.5093 128.263 23.8267 128.263 24.2C128.263 24.5733 128.113 24.9 127.815 25.18C127.535 25.4413 127.199 25.572 126.807 25.572C126.396 25.572 126.041 25.4413 125.743 25.18C125.463 24.9 125.323 24.5733 125.323 24.2ZM125.323 26.972C125.323 26.5987 125.463 26.272 125.743 25.992C126.023 25.712 126.359 25.572 126.751 25.572C127.143 25.572 127.479 25.712 127.759 25.992C128.039 26.272 128.179 26.5987 128.179 26.972C128.179 27.364 128.039 27.7 127.759 27.98C127.479 28.26 127.143 28.4 126.751 28.4C126.359 28.4 126.023 28.26 125.743 27.98C125.463 27.7 125.323 27.364 125.323 26.972ZM125.295 29.8C125.295 29.4267 125.435 29.1 125.715 28.82C125.995 28.54 126.34 28.4 126.751 28.4C127.143 28.4 127.479 28.54 127.759 28.82C128.039 29.1 128.179 29.4267 128.179 29.8C128.179 30.192 128.039 30.528 127.759 30.808C127.479 31.088 127.143 31.228 126.751 31.228C126.34 31.228 125.995 31.088 125.715 30.808C125.435 30.528 125.295 30.192 125.295 29.8ZM122.551 32.628C122.551 32.2547 122.691 31.9373 122.971 31.676C123.251 31.4147 123.587 31.284 123.979 31.284C124.371 31.284 124.707 31.4147 124.987 31.676C125.267 31.9373 125.407 32.2547 125.407 32.628C125.407 33.02 125.267 33.3467 124.987 33.608C124.707 33.8693 124.371 34 123.979 34C123.587 34 123.251 33.8693 122.971 33.608C122.691 33.3467 122.551 33.02 122.551 32.628ZM125.407 32.628C125.407 32.2547 125.537 31.9373 125.799 31.676C126.079 31.4147 126.405 31.284 126.779 31.284C127.152 31.284 127.469 31.4147 127.731 31.676C128.011 31.9373 128.151 32.2547 128.151 32.628C128.151 33.02 128.011 33.3467 127.731 33.608C127.469 33.8693 127.152 34 126.779 34C126.405 34 126.079 33.8693 125.799 33.608C125.537 33.3467 125.407 33.02 125.407 32.628ZM128.151 32.656C128.151 32.2827 128.291 31.9653 128.571 31.704C128.851 31.4427 129.187 31.312 129.579 31.312C129.952 31.312 130.279 31.4427 130.559 31.704C130.839 31.9653 130.979 32.2827 130.979 32.656C130.979 33.0293 130.839 33.3467 130.559 33.608C130.279 33.8693 129.952 34 129.579 34C129.187 34 128.851 33.8693 128.571 33.608C128.291 33.3467 128.151 33.0293 128.151 32.656ZM135.134 15.856C135.134 15.4827 135.274 15.1653 135.554 14.904C135.834 14.624 136.17 14.484 136.562 14.484C136.954 14.484 137.29 14.624 137.57 14.904C137.85 15.1653 137.99 15.4827 137.99 15.856C137.99 16.2293 137.85 16.556 137.57 16.836C137.29 17.0973 136.954 17.228 136.562 17.228C136.17 17.228 135.834 17.0973 135.554 16.836C135.274 16.556 135.134 16.2293 135.134 15.856ZM137.99 15.856C137.99 15.4827 138.121 15.1653 138.382 14.904C138.662 14.624 138.998 14.484 139.39 14.484C139.782 14.484 140.109 14.624 140.37 14.904C140.65 15.1653 140.79 15.4827 140.79 15.856C140.79 16.2293 140.65 16.556 140.37 16.836C140.109 17.0973 139.782 17.228 139.39 17.228C138.998 17.228 138.662 17.0973 138.382 16.836C138.121 16.556 137.99 16.2293 137.99 15.856ZM140.79 15.856C140.79 15.4827 140.921 15.1653 141.182 14.904C141.462 14.624 141.789 14.484 142.162 14.484C142.536 14.484 142.853 14.624 143.114 14.904C143.394 15.1653 143.534 15.4827 143.534 15.856C143.534 16.248 143.394 16.584 143.114 16.864C142.853 17.1253 142.536 17.256 142.162 17.256C141.789 17.256 141.462 17.1253 141.182 16.864C140.921 16.584 140.79 16.248 140.79 15.856ZM143.534 15.856C143.534 15.4827 143.674 15.1653 143.954 14.904C144.234 14.624 144.57 14.484 144.962 14.484C145.336 14.484 145.662 14.624 145.942 14.904C146.222 15.1653 146.362 15.4827 146.362 15.856C146.362 16.248 146.222 16.584 145.942 16.864C145.662 17.1253 145.336 17.256 144.962 17.256C144.57 17.256 144.234 17.1253 143.954 16.864C143.674 16.584 143.534 16.248 143.534 15.856ZM135.134 18.6C135.134 18.2267 135.274 17.9093 135.554 17.648C135.834 17.3867 136.17 17.256 136.562 17.256C136.936 17.256 137.262 17.3867 137.542 17.648C137.822 17.9093 137.962 18.2267 137.962 18.6C137.962 18.9733 137.822 19.2907 137.542 19.552C137.262 19.8133 136.936 19.944 136.562 19.944C136.17 19.944 135.834 19.8133 135.554 19.552C135.274 19.2907 135.134 18.9733 135.134 18.6ZM135.134 21.344C135.134 20.9707 135.274 20.644 135.554 20.364C135.834 20.084 136.17 19.944 136.562 19.944C136.936 19.944 137.262 20.084 137.542 20.364C137.822 20.644 137.962 20.9707 137.962 21.344C137.962 21.736 137.822 22.072 137.542 22.352C137.262 22.632 136.936 22.772 136.562 22.772C136.17 22.772 135.834 22.632 135.554 22.352C135.274 22.072 135.134 21.736 135.134 21.344ZM135.134 24.144C135.134 23.7707 135.274 23.4533 135.554 23.192C135.834 22.912 136.17 22.772 136.562 22.772C136.936 22.772 137.262 22.912 137.542 23.192C137.822 23.4533 137.962 23.7707 137.962 24.144C137.962 24.536 137.822 24.872 137.542 25.152C137.262 25.4133 136.936 25.544 136.562 25.544C136.17 25.544 135.834 25.4133 135.554 25.152C135.274 24.872 135.134 24.536 135.134 24.144ZM137.962 24.2C137.962 23.8453 138.093 23.5373 138.354 23.276C138.634 23.0147 138.97 22.884 139.362 22.884C139.754 22.884 140.081 23.0147 140.342 23.276C140.622 23.5373 140.762 23.8453 140.762 24.2C140.762 24.5733 140.622 24.8907 140.342 25.152C140.081 25.4133 139.754 25.544 139.362 25.544C138.97 25.544 138.634 25.4133 138.354 25.152C138.093 24.8907 137.962 24.5733 137.962 24.2ZM140.762 24.228C140.762 23.8547 140.902 23.5373 141.182 23.276C141.462 23.0147 141.808 22.884 142.218 22.884C142.61 22.884 142.946 23.0147 143.226 23.276C143.506 23.5373 143.646 23.8547 143.646 24.228C143.646 24.62 143.506 24.9467 143.226 25.208C142.946 25.4693 142.61 25.6 142.218 25.6C141.808 25.6 141.462 25.4693 141.182 25.208C140.902 24.9467 140.762 24.62 140.762 24.228ZM135.134 27.056C135.134 26.6827 135.274 26.3653 135.554 26.104C135.834 25.824 136.17 25.684 136.562 25.684C136.936 25.684 137.262 25.824 137.542 26.104C137.822 26.3653 137.962 26.6827 137.962 27.056C137.962 27.4293 137.822 27.756 137.542 28.036C137.262 28.2973 136.936 28.428 136.562 28.428C136.17 28.428 135.834 28.2973 135.554 28.036C135.274 27.756 135.134 27.4293 135.134 27.056ZM135.134 29.828C135.134 29.436 135.274 29.1093 135.554 28.848C135.834 28.568 136.17 28.428 136.562 28.428C136.936 28.428 137.262 28.568 137.542 28.848C137.822 29.1093 137.962 29.436 137.962 29.828C137.962 30.22 137.822 30.556 137.542 30.836C137.262 31.0973 136.936 31.228 136.562 31.228C136.17 31.228 135.834 31.0973 135.554 30.836C135.274 30.556 135.134 30.22 135.134 29.828ZM135.134 32.6C135.134 32.2267 135.274 31.9093 135.554 31.648C135.834 31.368 136.18 31.228 136.59 31.228C136.982 31.228 137.318 31.368 137.598 31.648C137.878 31.9093 138.018 32.2267 138.018 32.6C138.018 32.992 137.878 33.328 137.598 33.608C137.318 33.8693 136.982 34 136.59 34C136.18 34 135.834 33.8693 135.554 33.608C135.274 33.328 135.134 32.992 135.134 32.6ZM168.696 15.828C168.696 15.4547 168.836 15.1373 169.116 14.876C169.396 14.6147 169.741 14.484 170.152 14.484C170.544 14.484 170.88 14.6147 171.16 14.876C171.44 15.1373 171.58 15.4547 171.58 15.828C171.58 16.22 171.44 16.5467 171.16 16.808C170.88 17.0693 170.544 17.2 170.152 17.2C169.741 17.2 169.396 17.0693 169.116 16.808C168.836 16.5467 168.696 16.22 168.696 15.828ZM168.696 18.628C168.696 18.236 168.836 17.9 169.116 17.62C169.396 17.34 169.741 17.2 170.152 17.2C170.544 17.2 170.88 17.34 171.16 17.62C171.44 17.9 171.58 18.236 171.58 18.628C171.58 19.02 171.44 19.356 171.16 19.636C170.88 19.916 170.544 20.056 170.152 20.056C169.741 20.056 169.396 19.916 169.116 19.636C168.836 19.356 168.696 19.02 168.696 18.628ZM168.696 21.428C168.696 21.0547 168.836 20.7373 169.116 20.476C169.396 20.196 169.741 20.056 170.152 20.056C170.544 20.056 170.88 20.196 171.16 20.476C171.44 20.7373 171.58 21.0547 171.58 21.428C171.58 21.8013 171.44 22.128 171.16 22.408C170.88 22.6693 170.544 22.8 170.152 22.8C169.741 22.8 169.396 22.6693 169.116 22.408C168.836 22.128 168.696 21.8013 168.696 21.428ZM168.696 24.2C168.696 23.8267 168.836 23.5 169.116 23.22C169.396 22.94 169.741 22.8 170.152 22.8C170.544 22.8 170.88 22.94 171.16 23.22C171.44 23.5 171.58 23.8267 171.58 24.2C171.58 24.592 171.44 24.928 171.16 25.208C170.88 25.488 170.544 25.628 170.152 25.628C169.741 25.628 169.396 25.488 169.116 25.208C168.836 24.928 168.696 24.592 168.696 24.2ZM168.696 27C168.696 26.6267 168.836 26.3093 169.116 26.048C169.396 25.768 169.741 25.628 170.152 25.628C170.544 25.628 170.88 25.768 171.16 26.048C171.44 26.3093 171.58 26.6267 171.58 27C171.58 27.392 171.44 27.728 171.16 28.008C170.88 28.2693 170.544 28.4 170.152 28.4C169.741 28.4 169.396 28.2693 169.116 28.008C168.836 27.728 168.696 27.392 168.696 27ZM168.696 29.828C168.696 29.436 168.836 29.1 169.116 28.82C169.396 28.54 169.741 28.4 170.152 28.4C170.544 28.4 170.88 28.54 171.16 28.82C171.44 29.1 171.58 29.436 171.58 29.828C171.58 30.22 171.44 30.556 171.16 30.836C170.88 31.116 170.544 31.256 170.152 31.256C169.741 31.256 169.396 31.116 169.116 30.836C168.836 30.556 168.696 30.22 168.696 29.828ZM171.412 32.656C171.412 32.3013 171.552 31.9933 171.832 31.732C172.112 31.4707 172.457 31.34 172.868 31.34C173.279 31.34 173.624 31.4707 173.904 31.732C174.184 31.9933 174.324 32.3013 174.324 32.656C174.324 33.0293 174.184 33.3467 173.904 33.608C173.624 33.8693 173.279 34 172.868 34C172.457 34 172.112 33.8693 171.832 33.608C171.552 33.3467 171.412 33.0293 171.412 32.656ZM174.324 32.656C174.324 32.2827 174.464 31.9653 174.744 31.704C175.024 31.4427 175.369 31.312 175.78 31.312C176.172 31.312 176.508 31.4427 176.788 31.704C177.068 31.9653 177.208 32.2827 177.208 32.656C177.208 33.0293 177.068 33.3467 176.788 33.608C176.508 33.8693 176.172 34 175.78 34C175.369 34 175.024 33.8693 174.744 33.608C174.464 33.3467 174.324 33.0293 174.324 32.656ZM177.208 29.884C177.208 29.5107 177.339 29.184 177.6 28.904C177.88 28.624 178.216 28.484 178.608 28.484C178.981 28.484 179.299 28.624 179.56 28.904C179.84 29.184 179.98 29.5107 179.98 29.884C179.98 30.276 179.84 30.612 179.56 30.892C179.299 31.172 178.981 31.312 178.608 31.312C178.216 31.312 177.88 31.172 177.6 30.892C177.339 30.612 177.208 30.276 177.208 29.884ZM177.068 27.084C177.068 26.692 177.208 26.3653 177.488 26.104C177.768 25.824 178.113 25.684 178.524 25.684C178.935 25.684 179.28 25.824 179.56 26.104C179.84 26.3653 179.98 26.692 179.98 27.084C179.98 27.476 179.84 27.812 179.56 28.092C179.28 28.3533 178.935 28.484 178.524 28.484C178.113 28.484 177.768 28.3533 177.488 28.092C177.208 27.812 177.068 27.476 177.068 27.084ZM177.068 24.256C177.068 23.864 177.208 23.528 177.488 23.248C177.768 22.968 178.113 22.828 178.524 22.828C178.935 22.828 179.28 22.968 179.56 23.248C179.84 23.528 179.98 23.864 179.98 24.256C179.98 24.648 179.84 24.984 179.56 25.264C179.28 25.544 178.935 25.684 178.524 25.684C178.113 25.684 177.768 25.544 177.488 25.264C177.208 24.984 177.068 24.648 177.068 24.256ZM177.012 21.456C177.012 21.0827 177.152 20.7653 177.432 20.504C177.731 20.2427 178.085 20.112 178.496 20.112C178.907 20.112 179.252 20.2427 179.532 20.504C179.831 20.7653 179.98 21.0827 179.98 21.456C179.98 21.848 179.831 22.1747 179.532 22.436C179.252 22.6973 178.907 22.828 178.496 22.828C178.085 22.828 177.731 22.6973 177.432 22.436C177.152 22.1747 177.012 21.848 177.012 21.456ZM177.012 18.684C177.012 18.3107 177.152 17.984 177.432 17.704C177.731 17.424 178.085 17.284 178.496 17.284C178.907 17.284 179.252 17.424 179.532 17.704C179.831 17.984 179.98 18.3107 179.98 18.684C179.98 19.076 179.831 19.412 179.532 19.692C179.252 19.972 178.907 20.112 178.496 20.112C178.085 20.112 177.731 19.972 177.432 19.692C177.152 19.412 177.012 19.076 177.012 18.684ZM177.04 15.884C177.04 15.492 177.18 15.1653 177.46 14.904C177.759 14.624 178.113 14.484 178.524 14.484C178.916 14.484 179.252 14.624 179.532 14.904C179.831 15.1653 179.98 15.492 179.98 15.884C179.98 16.276 179.831 16.612 179.532 16.892C179.252 17.1533 178.916 17.284 178.524 17.284C178.113 17.284 177.759 17.1533 177.46 16.892C177.18 16.612 177.04 16.276 177.04 15.884ZM184.096 32.656C184.096 32.2827 184.236 31.9653 184.516 31.704C184.796 31.4427 185.132 31.312 185.524 31.312C185.897 31.312 186.224 31.4427 186.504 31.704C186.784 31.9653 186.924 32.2827 186.924 32.656C186.924 33.0293 186.784 33.3467 186.504 33.608C186.224 33.8693 185.897 34 185.524 34C185.132 34 184.796 33.8693 184.516 33.608C184.236 33.3467 184.096 33.0293 184.096 32.656ZM186.924 32.656C186.924 32.2827 187.055 31.9653 187.316 31.704C187.596 31.4427 187.923 31.312 188.296 31.312C188.669 31.312 188.987 31.4427 189.248 31.704C189.528 31.9653 189.668 32.2827 189.668 32.656C189.668 33.0293 189.528 33.3467 189.248 33.608C188.987 33.8693 188.669 34 188.296 34C187.923 34 187.596 33.8693 187.316 33.608C187.055 33.3467 186.924 33.0293 186.924 32.656ZM189.668 32.628C189.668 32.2547 189.808 31.9373 190.088 31.676C190.368 31.4147 190.713 31.284 191.124 31.284C191.516 31.284 191.852 31.4147 192.132 31.676C192.412 31.9373 192.552 32.2547 192.552 32.628C192.552 33.02 192.412 33.3467 192.132 33.608C191.852 33.8693 191.516 34 191.124 34C190.713 34 190.368 33.8693 190.088 33.608C189.808 33.3467 189.668 33.02 189.668 32.628ZM192.552 29.856C192.552 29.464 192.683 29.128 192.944 28.848C193.224 28.568 193.56 28.428 193.952 28.428C194.325 28.428 194.643 28.568 194.904 28.848C195.184 29.128 195.324 29.464 195.324 29.856C195.324 30.248 195.184 30.584 194.904 30.864C194.643 31.144 194.325 31.284 193.952 31.284C193.56 31.284 193.224 31.144 192.944 30.864C192.683 30.584 192.552 30.248 192.552 29.856ZM192.468 27.028C192.468 26.6547 192.608 26.3373 192.888 26.076C193.168 25.796 193.504 25.656 193.896 25.656C194.288 25.656 194.624 25.796 194.904 26.076C195.184 26.3373 195.324 26.6547 195.324 27.028C195.324 27.42 195.184 27.756 194.904 28.036C194.624 28.2973 194.288 28.428 193.896 28.428C193.504 28.428 193.168 28.2973 192.888 28.036C192.608 27.756 192.468 27.42 192.468 27.028ZM189.724 24.256C189.724 23.864 189.855 23.5373 190.116 23.276C190.396 22.996 190.723 22.856 191.096 22.856C191.469 22.856 191.787 22.996 192.048 23.276C192.328 23.5373 192.468 23.864 192.468 24.256C192.468 24.648 192.328 24.984 192.048 25.264C191.787 25.5253 191.469 25.656 191.096 25.656C190.723 25.656 190.396 25.5253 190.116 25.264C189.855 24.984 189.724 24.648 189.724 24.256ZM186.896 24.228C186.896 23.8547 187.036 23.5373 187.316 23.276C187.596 22.996 187.932 22.856 188.324 22.856C188.697 22.856 189.024 22.996 189.304 23.276C189.584 23.5373 189.724 23.8547 189.724 24.228C189.724 24.62 189.584 24.956 189.304 25.236C189.024 25.4973 188.697 25.628 188.324 25.628C187.932 25.628 187.596 25.4973 187.316 25.236C187.036 24.956 186.896 24.62 186.896 24.228ZM184.096 21.456C184.096 21.064 184.236 20.728 184.516 20.448C184.796 20.168 185.132 20.028 185.524 20.028C185.897 20.028 186.224 20.168 186.504 20.448C186.784 20.728 186.924 21.064 186.924 21.456C186.924 21.848 186.784 22.184 186.504 22.464C186.224 22.744 185.897 22.884 185.524 22.884C185.132 22.884 184.796 22.744 184.516 22.464C184.236 22.184 184.096 21.848 184.096 21.456ZM184.096 18.656C184.096 18.2827 184.236 17.9653 184.516 17.704C184.796 17.4427 185.132 17.312 185.524 17.312C185.897 17.312 186.224 17.4427 186.504 17.704C186.784 17.9653 186.924 18.2827 186.924 18.656C186.924 19.048 186.784 19.3747 186.504 19.636C186.224 19.8973 185.897 20.028 185.524 20.028C185.132 20.028 184.796 19.8973 184.516 19.636C184.236 19.3747 184.096 19.048 184.096 18.656ZM186.924 15.884C186.924 15.5107 187.064 15.184 187.344 14.904C187.624 14.624 187.96 14.484 188.352 14.484C188.725 14.484 189.052 14.624 189.332 14.904C189.612 15.184 189.752 15.5107 189.752 15.884C189.752 16.276 189.612 16.612 189.332 16.892C189.052 17.172 188.725 17.312 188.352 17.312C187.96 17.312 187.624 17.172 187.344 16.892C187.064 16.612 186.924 16.276 186.924 15.884ZM189.752 15.856C189.752 15.4827 189.883 15.1653 190.144 14.904C190.424 14.624 190.751 14.484 191.124 14.484C191.497 14.484 191.815 14.624 192.076 14.904C192.356 15.1653 192.496 15.4827 192.496 15.856C192.496 16.2293 192.356 16.556 192.076 16.836C191.815 17.0973 191.497 17.228 191.124 17.228C190.751 17.228 190.424 17.0973 190.144 16.836C189.883 16.556 189.752 16.2293 189.752 15.856ZM192.496 15.856C192.496 15.4827 192.636 15.1653 192.916 14.904C193.215 14.624 193.569 14.484 193.98 14.484C194.372 14.484 194.708 14.624 194.988 14.904C195.287 15.1653 195.436 15.4827 195.436 15.856C195.436 16.2293 195.287 16.556 194.988 16.836C194.708 17.0973 194.372 17.228 193.98 17.228C193.569 17.228 193.215 17.0973 192.916 16.836C192.636 16.556 192.496 16.2293 192.496 15.856ZM199.496 15.856C199.496 15.4827 199.636 15.1653 199.916 14.904C200.196 14.624 200.532 14.484 200.924 14.484C201.297 14.484 201.624 14.624 201.904 14.904C202.184 15.1653 202.324 15.4827 202.324 15.856C202.324 16.2293 202.184 16.556 201.904 16.836C201.624 17.0973 201.297 17.228 200.924 17.228C200.532 17.228 200.196 17.0973 199.916 16.836C199.636 16.556 199.496 16.2293 199.496 15.856ZM202.324 15.856C202.324 15.4827 202.464 15.1653 202.744 14.904C203.024 14.624 203.36 14.484 203.752 14.484C204.125 14.484 204.452 14.624 204.732 14.904C205.012 15.1653 205.152 15.4827 205.152 15.856C205.152 16.2293 205.012 16.556 204.732 16.836C204.452 17.0973 204.125 17.228 203.752 17.228C203.36 17.228 203.024 17.0973 202.744 16.836C202.464 16.556 202.324 16.2293 202.324 15.856ZM205.152 15.856C205.152 15.4827 205.283 15.1653 205.544 14.904C205.824 14.624 206.16 14.484 206.552 14.484C206.925 14.484 207.243 14.624 207.504 14.904C207.784 15.1653 207.924 15.4827 207.924 15.856C207.924 16.2293 207.784 16.556 207.504 16.836C207.243 17.0973 206.925 17.228 206.552 17.228C206.16 17.228 205.824 17.0973 205.544 16.836C205.283 16.556 205.152 16.2293 205.152 15.856ZM207.924 15.856C207.924 15.4827 208.064 15.1653 208.344 14.904C208.624 14.624 208.96 14.484 209.352 14.484C209.744 14.484 210.08 14.624 210.36 14.904C210.64 15.1653 210.78 15.4827 210.78 15.856C210.78 16.2293 210.64 16.556 210.36 16.836C210.08 17.0973 209.744 17.228 209.352 17.228C208.96 17.228 208.624 17.0973 208.344 16.836C208.064 16.556 207.924 16.2293 207.924 15.856ZM199.496 18.6C199.496 18.2267 199.636 17.9093 199.916 17.648C200.196 17.368 200.532 17.228 200.924 17.228C201.316 17.228 201.652 17.368 201.932 17.648C202.212 17.9093 202.352 18.2267 202.352 18.6C202.352 18.9733 202.212 19.3 201.932 19.58C201.652 19.8413 201.316 19.972 200.924 19.972C200.532 19.972 200.196 19.8413 199.916 19.58C199.636 19.3 199.496 18.9733 199.496 18.6ZM199.496 21.344C199.496 20.9707 199.636 20.6533 199.916 20.392C200.196 20.112 200.532 19.972 200.924 19.972C201.316 19.972 201.652 20.112 201.932 20.392C202.212 20.6533 202.352 20.9707 202.352 21.344C202.352 21.736 202.212 22.072 201.932 22.352C201.652 22.6133 201.316 22.744 200.924 22.744C200.532 22.744 200.196 22.6133 199.916 22.352C199.636 22.072 199.496 21.736 199.496 21.344ZM199.496 24.116C199.496 23.7427 199.627 23.4253 199.888 23.164C200.168 22.884 200.504 22.744 200.896 22.744C201.288 22.744 201.615 22.884 201.876 23.164C202.156 23.4253 202.296 23.7427 202.296 24.116C202.296 24.508 202.156 24.844 201.876 25.124C201.615 25.3853 201.288 25.516 200.896 25.516C200.504 25.516 200.168 25.3853 199.888 25.124C199.627 24.844 199.496 24.508 199.496 24.116ZM199.496 26.944C199.496 26.552 199.627 26.216 199.888 25.936C200.168 25.656 200.504 25.516 200.896 25.516C201.288 25.516 201.615 25.656 201.876 25.936C202.156 26.216 202.296 26.552 202.296 26.944C202.296 27.3547 202.156 27.7 201.876 27.98C201.615 28.26 201.288 28.4 200.896 28.4C200.504 28.4 200.168 28.26 199.888 27.98C199.627 27.7 199.496 27.3547 199.496 26.944ZM199.496 29.772C199.496 29.3987 199.627 29.0813 199.888 28.82C200.168 28.54 200.504 28.4 200.896 28.4C201.288 28.4 201.615 28.54 201.876 28.82C202.156 29.0813 202.296 29.3987 202.296 29.772C202.296 30.164 202.156 30.5 201.876 30.78C201.615 31.0413 201.288 31.172 200.896 31.172C200.504 31.172 200.168 31.0413 199.888 30.78C199.627 30.5 199.496 30.164 199.496 29.772ZM199.496 32.572C199.496 32.1987 199.627 31.872 199.888 31.592C200.168 31.312 200.504 31.172 200.896 31.172C201.288 31.172 201.615 31.312 201.876 31.592C202.156 31.872 202.296 32.1987 202.296 32.572C202.296 32.964 202.156 33.3 201.876 33.58C201.615 33.86 201.288 34 200.896 34C200.504 34 200.168 33.86 199.888 33.58C199.627 33.3 199.496 32.964 199.496 32.572ZM202.296 32.628C202.296 32.2547 202.436 31.9373 202.716 31.676C202.996 31.396 203.341 31.256 203.752 31.256C204.144 31.256 204.48 31.396 204.76 31.676C205.04 31.9373 205.18 32.2547 205.18 32.628C205.18 33.0013 205.04 33.328 204.76 33.608C204.48 33.8693 204.144 34 203.752 34C203.341 34 202.996 33.8693 202.716 33.608C202.436 33.328 202.296 33.0013 202.296 32.628ZM205.18 32.628C205.18 32.2547 205.311 31.9373 205.572 31.676C205.833 31.396 206.16 31.256 206.552 31.256C206.925 31.256 207.243 31.396 207.504 31.676C207.765 31.9373 207.896 32.2547 207.896 32.628C207.896 33.0013 207.765 33.328 207.504 33.608C207.243 33.8693 206.925 34 206.552 34C206.16 34 205.833 33.8693 205.572 33.608C205.311 33.328 205.18 33.0013 205.18 32.628ZM207.896 32.6C207.896 32.2267 208.036 31.9093 208.316 31.648C208.596 31.368 208.941 31.228 209.352 31.228C209.744 31.228 210.08 31.368 210.36 31.648C210.64 31.9093 210.78 32.2267 210.78 32.6C210.78 32.992 210.64 33.328 210.36 33.608C210.08 33.8693 209.744 34 209.352 34C208.941 34 208.596 33.8693 208.316 33.608C208.036 33.328 207.896 32.992 207.896 32.6ZM202.268 24.2C202.268 23.7893 202.408 23.444 202.688 23.164C202.968 22.884 203.313 22.744 203.724 22.744C204.135 22.744 204.48 22.884 204.76 23.164C205.04 23.444 205.18 23.7893 205.18 24.2C205.18 24.6107 205.04 24.956 204.76 25.236C204.48 25.516 204.135 25.656 203.724 25.656C203.313 25.656 202.968 25.516 202.688 25.236C202.408 24.956 202.268 24.6107 202.268 24.2ZM205.18 24.228C205.18 23.8547 205.311 23.528 205.572 23.248C205.852 22.968 206.188 22.828 206.58 22.828C206.953 22.828 207.271 22.968 207.532 23.248C207.812 23.528 207.952 23.8547 207.952 24.228C207.952 24.62 207.812 24.956 207.532 25.236C207.271 25.516 206.953 25.656 206.58 25.656C206.188 25.656 205.852 25.516 205.572 25.236C205.311 24.956 205.18 24.62 205.18 24.228ZM214.896 15.828C214.896 15.4547 215.036 15.1373 215.316 14.876C215.596 14.6147 215.932 14.484 216.324 14.484C216.716 14.484 217.052 14.6147 217.332 14.876C217.612 15.1373 217.752 15.4547 217.752 15.828C217.752 16.22 217.612 16.5467 217.332 16.808C217.052 17.0693 216.716 17.2 216.324 17.2C215.932 17.2 215.596 17.0693 215.316 16.808C215.036 16.5467 214.896 16.22 214.896 15.828ZM217.752 15.828C217.752 15.4547 217.883 15.1373 218.144 14.876C218.424 14.6147 218.76 14.484 219.152 14.484C219.525 14.484 219.843 14.6147 220.104 14.876C220.384 15.1373 220.524 15.4547 220.524 15.828C220.524 16.22 220.384 16.5467 220.104 16.808C219.843 17.0693 219.525 17.2 219.152 17.2C218.76 17.2 218.424 17.0693 218.144 16.808C217.883 16.5467 217.752 16.22 217.752 15.828ZM220.524 15.856C220.524 15.4827 220.664 15.1653 220.944 14.904C221.224 14.624 221.569 14.484 221.98 14.484C222.372 14.484 222.708 14.624 222.988 14.904C223.268 15.1653 223.408 15.4827 223.408 15.856C223.408 16.2293 223.268 16.556 222.988 16.836C222.708 17.0973 222.372 17.228 221.98 17.228C221.569 17.228 221.224 17.0973 220.944 16.836C220.664 16.556 220.524 16.2293 220.524 15.856ZM223.408 18.6C223.408 18.2267 223.539 17.9093 223.8 17.648C224.08 17.368 224.416 17.228 224.808 17.228C225.181 17.228 225.499 17.368 225.76 17.648C226.04 17.9093 226.18 18.2267 226.18 18.6C226.18 18.992 226.04 19.328 225.76 19.608C225.499 19.8693 225.181 20 224.808 20C224.416 20 224.08 19.8693 223.8 19.608C223.539 19.328 223.408 18.992 223.408 18.6ZM223.296 21.4C223.296 21.008 223.436 20.6813 223.716 20.42C223.996 20.14 224.341 20 224.752 20C225.144 20 225.48 20.14 225.76 20.42C226.04 20.6813 226.18 21.008 226.18 21.4C226.18 21.792 226.04 22.128 225.76 22.408C225.48 22.6693 225.144 22.8 224.752 22.8C224.341 22.8 223.996 22.6693 223.716 22.408C223.436 22.128 223.296 21.792 223.296 21.4ZM223.296 24.172C223.296 23.7987 223.436 23.4813 223.716 23.22C223.996 22.94 224.332 22.8 224.724 22.8C225.097 22.8 225.424 22.94 225.704 23.22C225.984 23.4813 226.124 23.7987 226.124 24.172C226.124 24.564 225.984 24.9 225.704 25.18C225.424 25.4413 225.097 25.572 224.724 25.572C224.332 25.572 223.996 25.4413 223.716 25.18C223.436 24.9 223.296 24.564 223.296 24.172ZM223.24 26.972C223.24 26.58 223.38 26.2533 223.66 25.992C223.94 25.712 224.285 25.572 224.696 25.572C225.088 25.572 225.424 25.712 225.704 25.992C225.984 26.2533 226.124 26.58 226.124 26.972C226.124 27.364 225.984 27.7 225.704 27.98C225.424 28.2413 225.088 28.372 224.696 28.372C224.285 28.372 223.94 28.2413 223.66 27.98C223.38 27.7 223.24 27.364 223.24 26.972ZM223.24 29.8C223.24 29.408 223.38 29.072 223.66 28.792C223.94 28.512 224.285 28.372 224.696 28.372C225.088 28.372 225.424 28.512 225.704 28.792C225.984 29.072 226.124 29.408 226.124 29.8C226.124 30.192 225.984 30.528 225.704 30.808C225.424 31.088 225.088 31.228 224.696 31.228C224.285 31.228 223.94 31.088 223.66 30.808C223.38 30.528 223.24 30.192 223.24 29.8ZM214.896 32.628C214.896 32.2547 215.036 31.9373 215.316 31.676C215.596 31.4147 215.932 31.284 216.324 31.284C216.716 31.284 217.052 31.4147 217.332 31.676C217.612 31.9373 217.752 32.2547 217.752 32.628C217.752 33.02 217.612 33.3467 217.332 33.608C217.052 33.8693 216.716 34 216.324 34C215.932 34 215.596 33.8693 215.316 33.608C215.036 33.3467 214.896 33.02 214.896 32.628ZM217.752 32.628C217.752 32.2547 217.883 31.9373 218.144 31.676C218.424 31.4147 218.751 31.284 219.124 31.284C219.497 31.284 219.815 31.4147 220.076 31.676C220.356 31.9373 220.496 32.2547 220.496 32.628C220.496 33.02 220.356 33.3467 220.076 33.608C219.815 33.8693 219.497 34 219.124 34C218.751 34 218.424 33.8693 218.144 33.608C217.883 33.3467 217.752 33.02 217.752 32.628ZM220.496 32.628C220.496 32.2547 220.636 31.9373 220.916 31.676C221.196 31.4147 221.532 31.284 221.924 31.284C222.297 31.284 222.624 31.4147 222.904 31.676C223.184 31.9373 223.324 32.2547 223.324 32.628C223.324 33.02 223.184 33.3467 222.904 33.608C222.624 33.8693 222.297 34 221.924 34C221.532 34 221.196 33.8693 220.916 33.608C220.636 33.3467 220.496 33.02 220.496 32.628ZM214.896 29.772C214.896 29.3987 215.036 29.0813 215.316 28.82C215.596 28.5587 215.932 28.428 216.324 28.428C216.716 28.428 217.052 28.5587 217.332 28.82C217.612 29.0813 217.752 29.3987 217.752 29.772C217.752 30.164 217.612 30.4907 217.332 30.752C217.052 31.0133 216.716 31.144 216.324 31.144C215.932 31.144 215.596 31.0133 215.316 30.752C215.036 30.4907 214.896 30.164 214.896 29.772ZM214.896 27.028C214.896 26.6547 215.036 26.3373 215.316 26.076C215.596 25.796 215.932 25.656 216.324 25.656C216.716 25.656 217.052 25.796 217.332 26.076C217.612 26.3373 217.752 26.6547 217.752 27.028C217.752 27.42 217.612 27.756 217.332 28.036C217.052 28.2973 216.716 28.428 216.324 28.428C215.932 28.428 215.596 28.2973 215.316 28.036C215.036 27.756 214.896 27.42 214.896 27.028ZM214.896 24.256C214.896 23.864 215.036 23.5373 215.316 23.276C215.596 22.996 215.941 22.856 216.352 22.856C216.744 22.856 217.08 22.996 217.36 23.276C217.64 23.5373 217.78 23.864 217.78 24.256C217.78 24.648 217.64 24.984 217.36 25.264C217.08 25.5253 216.744 25.656 216.352 25.656C215.941 25.656 215.596 25.5253 215.316 25.264C215.036 24.984 214.896 24.648 214.896 24.256ZM214.896 21.456C214.896 21.0827 215.036 20.7653 215.316 20.504C215.596 20.224 215.941 20.084 216.352 20.084C216.744 20.084 217.08 20.224 217.36 20.504C217.64 20.7653 217.78 21.0827 217.78 21.456C217.78 21.848 217.64 22.184 217.36 22.464C217.08 22.7253 216.744 22.856 216.352 22.856C215.941 22.856 215.596 22.7253 215.316 22.464C215.036 22.184 214.896 21.848 214.896 21.456ZM214.896 18.684C214.896 18.3107 215.036 17.9933 215.316 17.732C215.596 17.452 215.932 17.312 216.324 17.312C216.697 17.312 217.024 17.452 217.304 17.732C217.584 17.9933 217.724 18.3107 217.724 18.684C217.724 19.076 217.584 19.412 217.304 19.692C217.024 19.9533 216.697 20.084 216.324 20.084C215.932 20.084 215.596 19.9533 215.316 19.692C215.036 19.412 214.896 19.076 214.896 18.684ZM248.458 32.628C248.458 32.2547 248.598 31.9373 248.878 31.676C249.158 31.4147 249.494 31.284 249.886 31.284C250.278 31.284 250.614 31.4147 250.894 31.676C251.174 31.9373 251.314 32.2547 251.314 32.628C251.314 33.02 251.174 33.3467 250.894 33.608C250.614 33.8693 250.278 34 249.886 34C249.494 34 249.158 33.8693 248.878 33.608C248.598 33.3467 248.458 33.02 248.458 32.628ZM251.314 32.628C251.314 32.2547 251.444 31.9373 251.706 31.676C251.986 31.4147 252.322 31.284 252.714 31.284C253.087 31.284 253.404 31.4147 253.666 31.676C253.946 31.9373 254.086 32.2547 254.086 32.628C254.086 33.02 253.946 33.3467 253.666 33.608C253.404 33.8693 253.087 34 252.714 34C252.322 34 251.986 33.8693 251.706 33.608C251.444 33.3467 251.314 33.02 251.314 32.628ZM254.086 32.628C254.086 32.2547 254.216 31.9373 254.478 31.676C254.758 31.396 255.094 31.256 255.486 31.256C255.878 31.256 256.204 31.396 256.466 31.676C256.746 31.9373 256.886 32.2547 256.886 32.628C256.886 33.0013 256.746 33.328 256.466 33.608C256.204 33.8693 255.878 34 255.486 34C255.094 34 254.758 33.8693 254.478 33.608C254.216 33.328 254.086 33.0013 254.086 32.628ZM256.914 29.856C256.914 29.4827 257.054 29.1653 257.334 28.904C257.614 28.624 257.95 28.484 258.342 28.484C258.734 28.484 259.07 28.624 259.35 28.904C259.63 29.1653 259.77 29.4827 259.77 29.856C259.77 30.248 259.63 30.584 259.35 30.864C259.07 31.1253 258.734 31.256 258.342 31.256C257.95 31.256 257.614 31.1253 257.334 30.864C257.054 30.584 256.914 30.248 256.914 29.856ZM256.774 27.056C256.774 26.664 256.914 26.328 257.194 26.048C257.492 25.768 257.856 25.628 258.286 25.628C258.696 25.628 259.042 25.768 259.322 26.048C259.62 26.328 259.77 26.664 259.77 27.056C259.77 27.448 259.62 27.784 259.322 28.064C259.042 28.344 258.696 28.484 258.286 28.484C257.856 28.484 257.492 28.344 257.194 28.064C256.914 27.784 256.774 27.448 256.774 27.056ZM254.058 24.256C254.058 23.8827 254.188 23.5653 254.45 23.304C254.711 23.024 255.038 22.884 255.43 22.884C255.803 22.884 256.12 23.024 256.382 23.304C256.643 23.5653 256.774 23.8827 256.774 24.256C256.774 24.6293 256.643 24.956 256.382 25.236C256.12 25.4973 255.803 25.628 255.43 25.628C255.038 25.628 254.711 25.4973 254.45 25.236C254.188 24.956 254.058 24.6293 254.058 24.256ZM251.286 24.256C251.286 23.8827 251.416 23.5653 251.678 23.304C251.958 23.024 252.294 22.884 252.686 22.884C253.059 22.884 253.376 23.024 253.638 23.304C253.918 23.5653 254.058 23.8827 254.058 24.256C254.058 24.648 253.918 24.984 253.638 25.264C253.376 25.5253 253.059 25.656 252.686 25.656C252.294 25.656 251.958 25.5253 251.678 25.264C251.416 24.984 251.286 24.648 251.286 24.256ZM248.458 24.256C248.458 23.8827 248.598 23.5653 248.878 23.304C249.158 23.024 249.494 22.884 249.886 22.884C250.259 22.884 250.586 23.024 250.866 23.304C251.146 23.5653 251.286 23.8827 251.286 24.256C251.286 24.648 251.146 24.984 250.866 25.264C250.586 25.5253 250.259 25.656 249.886 25.656C249.494 25.656 249.158 25.5253 248.878 25.264C248.598 24.984 248.458 24.648 248.458 24.256ZM248.458 21.484C248.458 21.092 248.598 20.7653 248.878 20.504C249.158 20.224 249.503 20.084 249.914 20.084C250.324 20.084 250.67 20.224 250.95 20.504C251.23 20.7653 251.37 21.092 251.37 21.484C251.37 21.876 251.23 22.212 250.95 22.492C250.67 22.7533 250.324 22.884 249.914 22.884C249.503 22.884 249.158 22.7533 248.878 22.492C248.598 22.212 248.458 21.876 248.458 21.484ZM248.458 18.684C248.458 18.292 248.598 17.9653 248.878 17.704C249.158 17.424 249.503 17.284 249.914 17.284C250.324 17.284 250.67 17.424 250.95 17.704C251.23 17.9653 251.37 18.292 251.37 18.684C251.37 19.076 251.23 19.412 250.95 19.692C250.67 19.9533 250.324 20.084 249.914 20.084C249.503 20.084 249.158 19.9533 248.878 19.692C248.598 19.412 248.458 19.076 248.458 18.684ZM248.458 15.884C248.458 15.492 248.598 15.1653 248.878 14.904C249.158 14.624 249.494 14.484 249.886 14.484C250.259 14.484 250.586 14.624 250.866 14.904C251.146 15.1653 251.286 15.492 251.286 15.884C251.286 16.276 251.146 16.612 250.866 16.892C250.586 17.1533 250.259 17.284 249.886 17.284C249.494 17.284 249.158 17.1533 248.878 16.892C248.598 16.612 248.458 16.276 248.458 15.884ZM251.286 15.8C251.286 15.4453 251.426 15.1373 251.706 14.876C251.986 14.6147 252.322 14.484 252.714 14.484C253.087 14.484 253.414 14.6147 253.694 14.876C253.974 15.1373 254.114 15.4453 254.114 15.8C254.114 16.1547 253.974 16.4627 253.694 16.724C253.414 16.9853 253.087 17.116 252.714 17.116C252.322 17.116 251.986 16.9853 251.706 16.724C251.426 16.4627 251.286 16.1547 251.286 15.8ZM254.114 15.8C254.114 15.4453 254.244 15.1373 254.506 14.876C254.786 14.6147 255.122 14.484 255.514 14.484C255.906 14.484 256.232 14.6147 256.494 14.876C256.774 15.1373 256.914 15.4453 256.914 15.8C256.914 16.1547 256.774 16.4627 256.494 16.724C256.232 16.9853 255.906 17.116 255.514 17.116C255.122 17.116 254.786 16.9853 254.506 16.724C254.244 16.4627 254.114 16.1547 254.114 15.8ZM256.83 18.628C256.83 18.2547 256.96 17.9373 257.222 17.676C257.483 17.4147 257.8 17.284 258.174 17.284C258.547 17.284 258.864 17.4147 259.126 17.676C259.387 17.9373 259.518 18.2547 259.518 18.628C259.518 19.0013 259.387 19.3187 259.126 19.58C258.864 19.8413 258.547 19.972 258.174 19.972C257.8 19.972 257.483 19.8413 257.222 19.58C256.96 19.3187 256.83 19.0013 256.83 18.628ZM256.942 21.456C256.942 21.064 257.072 20.728 257.334 20.448C257.614 20.168 257.95 20.028 258.342 20.028C258.715 20.028 259.032 20.168 259.294 20.448C259.574 20.728 259.714 21.064 259.714 21.456C259.714 21.8667 259.574 22.212 259.294 22.492C259.032 22.772 258.715 22.912 258.342 22.912C257.95 22.912 257.614 22.772 257.334 22.492C257.072 22.212 256.942 21.8667 256.942 21.456ZM248.458 27.084C248.458 26.7107 248.598 26.3933 248.878 26.132C249.158 25.8707 249.503 25.74 249.914 25.74C250.306 25.74 250.642 25.8707 250.922 26.132C251.202 26.3933 251.342 26.7107 251.342 27.084C251.342 27.4573 251.202 27.7747 250.922 28.036C250.642 28.2973 250.306 28.428 249.914 28.428C249.503 28.428 249.158 28.2973 248.878 28.036C248.598 27.7747 248.458 27.4573 248.458 27.084ZM248.458 29.828C248.458 29.436 248.598 29.1093 248.878 28.848C249.158 28.568 249.503 28.428 249.914 28.428C250.306 28.428 250.642 28.568 250.922 28.848C251.202 29.1093 251.342 29.436 251.342 29.828C251.342 30.22 251.202 30.556 250.922 30.836C250.642 31.0973 250.306 31.228 249.914 31.228C249.503 31.228 249.158 31.0973 248.878 30.836C248.598 30.556 248.458 30.22 248.458 29.828ZM263.858 15.828C263.858 15.4547 263.998 15.1373 264.278 14.876C264.558 14.6147 264.894 14.484 265.286 14.484C265.678 14.484 266.014 14.6147 266.294 14.876C266.574 15.1373 266.714 15.4547 266.714 15.828C266.714 16.2013 266.574 16.5187 266.294 16.78C266.014 17.0413 265.678 17.172 265.286 17.172C264.894 17.172 264.558 17.0413 264.278 16.78C263.998 16.5187 263.858 16.2013 263.858 15.828ZM263.858 18.572C263.858 18.1987 263.998 17.872 264.278 17.592C264.558 17.312 264.894 17.172 265.286 17.172C265.678 17.172 266.014 17.312 266.294 17.592C266.574 17.872 266.714 18.1987 266.714 18.572C266.714 18.964 266.574 19.3 266.294 19.58C266.014 19.86 265.678 20 265.286 20C264.894 20 264.558 19.86 264.278 19.58C263.998 19.3 263.858 18.964 263.858 18.572ZM263.858 32.628C263.858 32.2547 263.998 31.9373 264.278 31.676C264.558 31.4147 264.894 31.284 265.286 31.284C265.678 31.284 266.014 31.4147 266.294 31.676C266.574 31.9373 266.714 32.2547 266.714 32.628C266.714 33.02 266.574 33.3467 266.294 33.608C266.014 33.8693 265.678 34 265.286 34C264.894 34 264.558 33.8693 264.278 33.608C263.998 33.3467 263.858 33.02 263.858 32.628ZM263.858 29.884C263.858 29.492 263.998 29.1653 264.278 28.904C264.558 28.624 264.894 28.484 265.286 28.484C265.678 28.484 266.014 28.624 266.294 28.904C266.574 29.1653 266.714 29.492 266.714 29.884C266.714 30.276 266.574 30.612 266.294 30.892C266.014 31.1533 265.678 31.284 265.286 31.284C264.894 31.284 264.558 31.1533 264.278 30.892C263.998 30.612 263.858 30.276 263.858 29.884ZM266.63 27.112C266.63 26.7013 266.77 26.356 267.05 26.076C267.33 25.796 267.666 25.656 268.058 25.656C268.45 25.656 268.786 25.796 269.066 26.076C269.346 26.356 269.486 26.7013 269.486 27.112C269.486 27.5227 269.346 27.868 269.066 28.148C268.786 28.428 268.45 28.568 268.058 28.568C267.666 28.568 267.33 28.428 267.05 28.148C266.77 27.868 266.63 27.5227 266.63 27.112ZM269.486 24.256C269.486 23.864 269.616 23.5373 269.878 23.276C270.158 22.996 270.494 22.856 270.886 22.856C271.278 22.856 271.604 22.996 271.866 23.276C272.146 23.5373 272.286 23.864 272.286 24.256C272.286 24.648 272.146 24.984 271.866 25.264C271.604 25.5253 271.278 25.656 270.886 25.656C270.494 25.656 270.158 25.5253 269.878 25.264C269.616 24.984 269.486 24.648 269.486 24.256ZM272.286 21.456C272.286 21.064 272.416 20.7373 272.678 20.476C272.958 20.196 273.294 20.056 273.686 20.056C274.078 20.056 274.404 20.196 274.666 20.476C274.946 20.7373 275.086 21.064 275.086 21.456C275.086 21.848 274.946 22.184 274.666 22.464C274.404 22.7253 274.078 22.856 273.686 22.856C273.294 22.856 272.958 22.7253 272.678 22.464C272.416 22.184 272.286 21.848 272.286 21.456ZM275.086 18.656C275.086 18.264 275.226 17.9373 275.506 17.676C275.786 17.396 276.131 17.256 276.542 17.256C276.934 17.256 277.27 17.396 277.55 17.676C277.83 17.9373 277.97 18.264 277.97 18.656C277.97 19.048 277.83 19.384 277.55 19.664C277.27 19.9253 276.934 20.056 276.542 20.056C276.131 20.056 275.786 19.9253 275.506 19.664C275.226 19.384 275.086 19.048 275.086 18.656ZM275.086 15.856C275.086 15.4827 275.226 15.1653 275.506 14.904C275.786 14.624 276.131 14.484 276.542 14.484C276.934 14.484 277.27 14.624 277.55 14.904C277.83 15.1653 277.97 15.4827 277.97 15.856C277.97 16.248 277.83 16.584 277.55 16.864C277.27 17.1253 276.934 17.256 276.542 17.256C276.131 17.256 275.786 17.1253 275.506 16.864C275.226 16.584 275.086 16.248 275.086 15.856ZM266.602 21.484C266.602 21.1293 266.742 20.8213 267.022 20.56C267.32 20.2987 267.675 20.168 268.086 20.168C268.478 20.168 268.814 20.2987 269.094 20.56C269.392 20.8213 269.542 21.1293 269.542 21.484C269.542 21.8387 269.392 22.1467 269.094 22.408C268.814 22.6693 268.478 22.8 268.086 22.8C267.675 22.8 267.32 22.6693 267.022 22.408C266.742 22.1467 266.602 21.8387 266.602 21.484ZM282.047 24.2C282.047 23.8453 282.187 23.5373 282.467 23.276C282.747 23.0147 283.083 22.884 283.475 22.884C283.867 22.884 284.203 23.0147 284.483 23.276C284.763 23.5373 284.903 23.8453 284.903 24.2C284.903 24.5733 284.763 24.8907 284.483 25.152C284.203 25.4133 283.867 25.544 283.475 25.544C283.083 25.544 282.747 25.4133 282.467 25.152C282.187 24.8907 282.047 24.5733 282.047 24.2ZM282.047 32.656C282.047 32.2827 282.187 31.9653 282.467 31.704C282.747 31.4427 283.092 31.312 283.503 31.312C283.895 31.312 284.231 31.4427 284.511 31.704C284.791 31.9653 284.931 32.2827 284.931 32.656C284.931 33.0293 284.791 33.3467 284.511 33.608C284.231 33.8693 283.895 34 283.503 34C283.092 34 282.747 33.8693 282.467 33.608C282.187 33.3467 282.047 33.0293 282.047 32.656Z" fill="black"/>
<path d="M29 26L11 38L11 14L29 26Z" fill="#517B83"/>
<rect x="0.5" y="0.5" width="309" height="51" rx="7.5" stroke="black" shape-rendering="crispEdges"/>
</g>
<defs>
<filter id="filter0_d_247_3009" x="0" y="0" width="318" height="60" filterUnits="userSpaceOnUse" color-interpolation-filters="sRGB">
<feFlood flood-opacity="0" result="BackgroundImageFix"/>
<feColorMatrix in="SourceAlpha" type="matrix" values="0 0 0 0 0 0 0 0 0 0 0 0 0 0 0 0 0 0 127 0" result="hardAlpha"/>
<feOffset dx="4" dy="4"/>
<feGaussianBlur stdDeviation="2"/>
<feComposite in2="hardAlpha" operator="out"/>
<feColorMatrix type="matrix" values="0 0 0 0 0 0 0 0 0 0 0 0 0 0 0 0 0 0 0.25 0"/>
<feBlend mode="normal" in2="BackgroundImageFix" result="effect1_dropShadow_247_3009"/>
<feBlend mode="normal" in="SourceGraphic" in2="effect1_dropShadow_247_3009" result="shape"/>
</filter>
</defs>
</svg>
