<svg width="318" height="60" viewBox="0 0 318 60" fill="none" xmlns="http://www.w3.org/2000/svg">
<g filter="url(#filter0_d_243_2193)">
<rect width="310" height="52" rx="8" fill="white" shape-rendering="crispEdges"/>
<rect width="290" height="28" transform="translate(8 12)" fill="white"/>
<path d="M40 15.856C40 15.4827 40.14 15.1653 40.42 14.904C40.7 14.624 41.036 14.484 41.428 14.484C41.82 14.484 42.156 14.624 42.436 14.904C42.716 15.1653 42.856 15.4827 42.856 15.856C42.856 16.2293 42.716 16.556 42.436 16.836C42.156 17.0973 41.82 17.228 41.428 17.228C41.036 17.228 40.7 17.0973 40.42 16.836C40.14 16.556 40 16.2293 40 15.856ZM42.856 15.856C42.856 15.4827 42.9867 15.1653 43.248 14.904C43.528 14.624 43.864 14.484 44.256 14.484C44.648 14.484 44.9747 14.624 45.236 14.904C45.516 15.1653 45.656 15.4827 45.656 15.856C45.656 16.2293 45.516 16.556 45.236 16.836C44.9747 17.0973 44.648 17.228 44.256 17.228C43.864 17.228 43.528 17.0973 43.248 16.836C42.9867 16.556 42.856 16.2293 42.856 15.856ZM45.656 15.856C45.656 15.4827 45.7867 15.1653 46.048 14.904C46.328 14.624 46.6547 14.484 47.028 14.484C47.4013 14.484 47.7187 14.624 47.98 14.904C48.26 15.1653 48.4 15.4827 48.4 15.856C48.4 16.248 48.26 16.584 47.98 16.864C47.7187 17.1253 47.4013 17.256 47.028 17.256C46.6547 17.256 46.328 17.1253 46.048 16.864C45.7867 16.584 45.656 16.248 45.656 15.856ZM48.4 15.856C48.4 15.4827 48.54 15.1653 48.82 14.904C49.1 14.624 49.436 14.484 49.828 14.484C50.2013 14.484 50.528 14.624 50.808 14.904C51.088 15.1653 51.228 15.4827 51.228 15.856C51.228 16.248 51.088 16.584 50.808 16.864C50.528 17.1253 50.2013 17.256 49.828 17.256C49.436 17.256 49.1 17.1253 48.82 16.864C48.54 16.584 48.4 16.248 48.4 15.856ZM40 18.6C40 18.2267 40.14 17.9093 40.42 17.648C40.7 17.3867 41.036 17.256 41.428 17.256C41.8013 17.256 42.128 17.3867 42.408 17.648C42.688 17.9093 42.828 18.2267 42.828 18.6C42.828 18.9733 42.688 19.2907 42.408 19.552C42.128 19.8133 41.8013 19.944 41.428 19.944C41.036 19.944 40.7 19.8133 40.42 19.552C40.14 19.2907 40 18.9733 40 18.6ZM40 21.344C40 20.9707 40.14 20.644 40.42 20.364C40.7 20.084 41.036 19.944 41.428 19.944C41.8013 19.944 42.128 20.084 42.408 20.364C42.688 20.644 42.828 20.9707 42.828 21.344C42.828 21.736 42.688 22.072 42.408 22.352C42.128 22.632 41.8013 22.772 41.428 22.772C41.036 22.772 40.7 22.632 40.42 22.352C40.14 22.072 40 21.736 40 21.344ZM40 24.144C40 23.7707 40.14 23.4533 40.42 23.192C40.7 22.912 41.036 22.772 41.428 22.772C41.8013 22.772 42.128 22.912 42.408 23.192C42.688 23.4533 42.828 23.7707 42.828 24.144C42.828 24.536 42.688 24.872 42.408 25.152C42.128 25.4133 41.8013 25.544 41.428 25.544C41.036 25.544 40.7 25.4133 40.42 25.152C40.14 24.872 40 24.536 40 24.144ZM42.828 24.2C42.828 23.8453 42.9587 23.5373 43.22 23.276C43.5 23.0147 43.836 22.884 44.228 22.884C44.62 22.884 44.9467 23.0147 45.208 23.276C45.488 23.5373 45.628 23.8453 45.628 24.2C45.628 24.5733 45.488 24.8907 45.208 25.152C44.9467 25.4133 44.62 25.544 44.228 25.544C43.836 25.544 43.5 25.4133 43.22 25.152C42.9587 24.8907 42.828 24.5733 42.828 24.2ZM45.628 24.228C45.628 23.8547 45.768 23.5373 46.048 23.276C46.328 23.0147 46.6733 22.884 47.084 22.884C47.476 22.884 47.812 23.0147 48.092 23.276C48.372 23.5373 48.512 23.8547 48.512 24.228C48.512 24.62 48.372 24.9467 48.092 25.208C47.812 25.4693 47.476 25.6 47.084 25.6C46.6733 25.6 46.328 25.4693 46.048 25.208C45.768 24.9467 45.628 24.62 45.628 24.228ZM40 27.056C40 26.6827 40.14 26.3653 40.42 26.104C40.7 25.824 41.036 25.684 41.428 25.684C41.8013 25.684 42.128 25.824 42.408 26.104C42.688 26.3653 42.828 26.6827 42.828 27.056C42.828 27.4293 42.688 27.756 42.408 28.036C42.128 28.2973 41.8013 28.428 41.428 28.428C41.036 28.428 40.7 28.2973 40.42 28.036C40.14 27.756 40 27.4293 40 27.056ZM40 29.828C40 29.436 40.14 29.1093 40.42 28.848C40.7 28.568 41.036 28.428 41.428 28.428C41.8013 28.428 42.128 28.568 42.408 28.848C42.688 29.1093 42.828 29.436 42.828 29.828C42.828 30.22 42.688 30.556 42.408 30.836C42.128 31.0973 41.8013 31.228 41.428 31.228C41.036 31.228 40.7 31.0973 40.42 30.836C40.14 30.556 40 30.22 40 29.828ZM40 32.6C40 32.2267 40.14 31.9093 40.42 31.648C40.7 31.368 41.0453 31.228 41.456 31.228C41.848 31.228 42.184 31.368 42.464 31.648C42.744 31.9093 42.884 32.2267 42.884 32.6C42.884 32.992 42.744 33.328 42.464 33.608C42.184 33.8693 41.848 34 41.456 34C41.0453 34 40.7 33.8693 40.42 33.608C40.14 33.328 40 32.992 40 32.6ZM55.4 15.856C55.4 15.4827 55.54 15.1653 55.82 14.904C56.1 14.624 56.4453 14.484 56.856 14.484C57.248 14.484 57.584 14.624 57.864 14.904C58.144 15.1653 58.284 15.4827 58.284 15.856C58.284 16.2293 58.144 16.556 57.864 16.836C57.584 17.0973 57.248 17.228 56.856 17.228C56.4453 17.228 56.1 17.0973 55.82 16.836C55.54 16.556 55.4 16.2293 55.4 15.856ZM58.284 15.856C58.284 15.4827 58.4147 15.1653 58.676 14.904C58.956 14.624 59.2827 14.484 59.656 14.484C60.0293 14.484 60.3467 14.624 60.608 14.904C60.888 15.1653 61.028 15.4827 61.028 15.856C61.028 16.2293 60.888 16.556 60.608 16.836C60.3467 17.0973 60.0293 17.228 59.656 17.228C59.2827 17.228 58.956 17.0973 58.676 16.836C58.4147 16.556 58.284 16.2293 58.284 15.856ZM61.028 15.828C61.028 15.4547 61.168 15.1373 61.448 14.876C61.728 14.6147 62.064 14.484 62.456 14.484C62.8293 14.484 63.156 14.6147 63.436 14.876C63.716 15.1373 63.856 15.4547 63.856 15.828C63.856 16.22 63.716 16.5467 63.436 16.808C63.156 17.0693 62.8293 17.2 62.456 17.2C62.064 17.2 61.728 17.0693 61.448 16.808C61.168 16.5467 61.028 16.22 61.028 15.828ZM63.856 18.6C63.856 18.2267 63.996 17.9 64.276 17.62C64.556 17.34 64.892 17.2 65.284 17.2C65.6573 17.2 65.984 17.34 66.264 17.62C66.544 17.9 66.684 18.2267 66.684 18.6C66.684 18.992 66.544 19.328 66.264 19.608C65.984 19.888 65.6573 20.028 65.284 20.028C64.892 20.028 64.556 19.888 64.276 19.608C63.996 19.328 63.856 18.992 63.856 18.6ZM63.772 21.428C63.772 21.036 63.912 20.7093 64.192 20.448C64.472 20.168 64.8173 20.028 65.228 20.028C65.6387 20.028 65.984 20.168 66.264 20.448C66.544 20.7093 66.684 21.036 66.684 21.428C66.684 21.82 66.544 22.156 66.264 22.436C65.984 22.6973 65.6387 22.828 65.228 22.828C64.8173 22.828 64.472 22.6973 64.192 22.436C63.912 22.156 63.772 21.82 63.772 21.428ZM61 24.228C61 23.8547 61.1307 23.528 61.392 23.248C61.672 22.968 62.008 22.828 62.4 22.828C62.7733 22.828 63.0907 22.968 63.352 23.248C63.632 23.528 63.772 23.8547 63.772 24.228C63.772 24.62 63.632 24.956 63.352 25.236C63.0907 25.516 62.7733 25.656 62.4 25.656C62.008 25.656 61.672 25.516 61.392 25.236C61.1307 24.956 61 24.62 61 24.228ZM58.228 24.256C58.228 23.864 58.3587 23.5373 58.62 23.276C58.9 22.996 59.236 22.856 59.628 22.856C60.0013 22.856 60.3187 22.996 60.58 23.276C60.86 23.5373 61 23.864 61 24.256C61 24.648 60.86 24.984 60.58 25.264C60.3187 25.5253 60.0013 25.656 59.628 25.656C59.236 25.656 58.9 25.5253 58.62 25.264C58.3587 24.984 58.228 24.648 58.228 24.256ZM55.4 32.628C55.4 32.2547 55.54 31.9373 55.82 31.676C56.1 31.396 56.4453 31.256 56.856 31.256C57.2667 31.256 57.612 31.396 57.892 31.676C58.172 31.9373 58.312 32.2547 58.312 32.628C58.312 33.0013 58.172 33.328 57.892 33.608C57.612 33.8693 57.2667 34 56.856 34C56.4453 34 56.1 33.8693 55.82 33.608C55.54 33.328 55.4 33.0013 55.4 32.628ZM55.4 29.856C55.4 29.4827 55.54 29.1653 55.82 28.904C56.1 28.624 56.4453 28.484 56.856 28.484C57.2667 28.484 57.612 28.624 57.892 28.904C58.172 29.1653 58.312 29.4827 58.312 29.856C58.312 30.248 58.172 30.584 57.892 30.864C57.612 31.1253 57.2667 31.256 56.856 31.256C56.4453 31.256 56.1 31.1253 55.82 30.864C55.54 30.584 55.4 30.248 55.4 29.856ZM55.4 27.084C55.4 26.692 55.54 26.3653 55.82 26.104C56.1187 25.824 56.4733 25.684 56.884 25.684C57.2947 25.684 57.64 25.824 57.92 26.104C58.2187 26.3653 58.368 26.692 58.368 27.084C58.368 27.476 58.2187 27.812 57.92 28.092C57.64 28.3533 57.2947 28.484 56.884 28.484C56.4733 28.484 56.1187 28.3533 55.82 28.092C55.54 27.812 55.4 27.476 55.4 27.084ZM55.4 24.284C55.4 23.9107 55.54 23.5933 55.82 23.332C56.1187 23.052 56.4733 22.912 56.884 22.912C57.2947 22.912 57.64 23.052 57.92 23.332C58.2187 23.5933 58.368 23.9107 58.368 24.284C58.368 24.676 58.2187 25.012 57.92 25.292C57.64 25.5533 57.2947 25.684 56.884 25.684C56.4733 25.684 56.1187 25.5533 55.82 25.292C55.54 25.012 55.4 24.676 55.4 24.284ZM55.4 21.484C55.4 21.092 55.54 20.756 55.82 20.476C56.1 20.196 56.4453 20.056 56.856 20.056C57.2667 20.056 57.612 20.196 57.892 20.476C58.172 20.756 58.312 21.092 58.312 21.484C58.312 21.876 58.172 22.212 57.892 22.492C57.612 22.772 57.2667 22.912 56.856 22.912C56.4453 22.912 56.1 22.772 55.82 22.492C55.54 22.212 55.4 21.876 55.4 21.484ZM55.4 18.684C55.4 18.3107 55.54 17.9933 55.82 17.732C56.1 17.452 56.4453 17.312 56.856 17.312C57.2667 17.312 57.612 17.452 57.892 17.732C58.172 17.9933 58.312 18.3107 58.312 18.684C58.312 19.0573 58.172 19.384 57.892 19.664C57.612 19.9253 57.2667 20.056 56.856 20.056C56.4453 20.056 56.1 19.9253 55.82 19.664C55.54 19.384 55.4 19.0573 55.4 18.684ZM63.856 27C63.856 26.6267 63.9867 26.3 64.248 26.02C64.528 25.74 64.864 25.6 65.256 25.6C65.6293 25.6 65.9467 25.74 66.208 26.02C66.488 26.3 66.628 26.6267 66.628 27C66.628 27.392 66.488 27.728 66.208 28.008C65.9467 28.288 65.6293 28.428 65.256 28.428C64.864 28.428 64.528 28.288 64.248 28.008C63.9867 27.728 63.856 27.392 63.856 27ZM63.8 29.8C63.8 29.4267 63.94 29.1093 64.22 28.848C64.5 28.568 64.836 28.428 65.228 28.428C65.6013 28.428 65.928 28.568 66.208 28.848C66.488 29.1093 66.628 29.4267 66.628 29.8C66.628 30.192 66.488 30.528 66.208 30.808C65.928 31.0693 65.6013 31.2 65.228 31.2C64.836 31.2 64.5 31.0693 64.22 30.808C63.94 30.528 63.8 30.192 63.8 29.8ZM63.8 32.6C63.8 32.208 63.94 31.8813 64.22 31.62C64.5 31.34 64.836 31.2 65.228 31.2C65.6013 31.2 65.928 31.34 66.208 31.62C66.488 31.8813 66.628 32.208 66.628 32.6C66.628 32.992 66.488 33.328 66.208 33.608C65.928 33.8693 65.6013 34 65.228 34C64.836 34 64.5 33.8693 64.22 33.608C63.94 33.328 63.8 32.992 63.8 32.6ZM70.8 15.856C70.8 15.4827 70.94 15.1653 71.22 14.904C71.5 14.624 71.836 14.484 72.228 14.484C72.6013 14.484 72.928 14.624 73.208 14.904C73.488 15.1653 73.628 15.4827 73.628 15.856C73.628 16.2293 73.488 16.556 73.208 16.836C72.928 17.0973 72.6013 17.228 72.228 17.228C71.836 17.228 71.5 17.0973 71.22 16.836C70.94 16.556 70.8 16.2293 70.8 15.856ZM73.628 15.856C73.628 15.4827 73.768 15.1653 74.048 14.904C74.328 14.624 74.664 14.484 75.056 14.484C75.4293 14.484 75.756 14.624 76.036 14.904C76.316 15.1653 76.456 15.4827 76.456 15.856C76.456 16.2293 76.316 16.556 76.036 16.836C75.756 17.0973 75.4293 17.228 75.056 17.228C74.664 17.228 74.328 17.0973 74.048 16.836C73.768 16.556 73.628 16.2293 73.628 15.856ZM76.456 15.856C76.456 15.4827 76.5867 15.1653 76.848 14.904C77.128 14.624 77.464 14.484 77.856 14.484C78.2293 14.484 78.5467 14.624 78.808 14.904C79.088 15.1653 79.228 15.4827 79.228 15.856C79.228 16.2293 79.088 16.556 78.808 16.836C78.5467 17.0973 78.2293 17.228 77.856 17.228C77.464 17.228 77.128 17.0973 76.848 16.836C76.5867 16.556 76.456 16.2293 76.456 15.856ZM79.228 15.856C79.228 15.4827 79.368 15.1653 79.648 14.904C79.928 14.624 80.264 14.484 80.656 14.484C81.048 14.484 81.384 14.624 81.664 14.904C81.944 15.1653 82.084 15.4827 82.084 15.856C82.084 16.2293 81.944 16.556 81.664 16.836C81.384 17.0973 81.048 17.228 80.656 17.228C80.264 17.228 79.928 17.0973 79.648 16.836C79.368 16.556 79.228 16.2293 79.228 15.856ZM70.8 18.6C70.8 18.2267 70.94 17.9093 71.22 17.648C71.5 17.368 71.836 17.228 72.228 17.228C72.62 17.228 72.956 17.368 73.236 17.648C73.516 17.9093 73.656 18.2267 73.656 18.6C73.656 18.9733 73.516 19.3 73.236 19.58C72.956 19.8413 72.62 19.972 72.228 19.972C71.836 19.972 71.5 19.8413 71.22 19.58C70.94 19.3 70.8 18.9733 70.8 18.6ZM70.8 21.344C70.8 20.9707 70.94 20.6533 71.22 20.392C71.5 20.112 71.836 19.972 72.228 19.972C72.62 19.972 72.956 20.112 73.236 20.392C73.516 20.6533 73.656 20.9707 73.656 21.344C73.656 21.736 73.516 22.072 73.236 22.352C72.956 22.6133 72.62 22.744 72.228 22.744C71.836 22.744 71.5 22.6133 71.22 22.352C70.94 22.072 70.8 21.736 70.8 21.344ZM70.8 24.116C70.8 23.7427 70.9307 23.4253 71.192 23.164C71.472 22.884 71.808 22.744 72.2 22.744C72.592 22.744 72.9187 22.884 73.18 23.164C73.46 23.4253 73.6 23.7427 73.6 24.116C73.6 24.508 73.46 24.844 73.18 25.124C72.9187 25.3853 72.592 25.516 72.2 25.516C71.808 25.516 71.472 25.3853 71.192 25.124C70.9307 24.844 70.8 24.508 70.8 24.116ZM70.8 26.944C70.8 26.552 70.9307 26.216 71.192 25.936C71.472 25.656 71.808 25.516 72.2 25.516C72.592 25.516 72.9187 25.656 73.18 25.936C73.46 26.216 73.6 26.552 73.6 26.944C73.6 27.3547 73.46 27.7 73.18 27.98C72.9187 28.26 72.592 28.4 72.2 28.4C71.808 28.4 71.472 28.26 71.192 27.98C70.9307 27.7 70.8 27.3547 70.8 26.944ZM70.8 29.772C70.8 29.3987 70.9307 29.0813 71.192 28.82C71.472 28.54 71.808 28.4 72.2 28.4C72.592 28.4 72.9187 28.54 73.18 28.82C73.46 29.0813 73.6 29.3987 73.6 29.772C73.6 30.164 73.46 30.5 73.18 30.78C72.9187 31.0413 72.592 31.172 72.2 31.172C71.808 31.172 71.472 31.0413 71.192 30.78C70.9307 30.5 70.8 30.164 70.8 29.772ZM70.8 32.572C70.8 32.1987 70.9307 31.872 71.192 31.592C71.472 31.312 71.808 31.172 72.2 31.172C72.592 31.172 72.9187 31.312 73.18 31.592C73.46 31.872 73.6 32.1987 73.6 32.572C73.6 32.964 73.46 33.3 73.18 33.58C72.9187 33.86 72.592 34 72.2 34C71.808 34 71.472 33.86 71.192 33.58C70.9307 33.3 70.8 32.964 70.8 32.572ZM73.6 32.628C73.6 32.2547 73.74 31.9373 74.02 31.676C74.3 31.396 74.6453 31.256 75.056 31.256C75.448 31.256 75.784 31.396 76.064 31.676C76.344 31.9373 76.484 32.2547 76.484 32.628C76.484 33.0013 76.344 33.328 76.064 33.608C75.784 33.8693 75.448 34 75.056 34C74.6453 34 74.3 33.8693 74.02 33.608C73.74 33.328 73.6 33.0013 73.6 32.628ZM76.484 32.628C76.484 32.2547 76.6147 31.9373 76.876 31.676C77.1373 31.396 77.464 31.256 77.856 31.256C78.2293 31.256 78.5467 31.396 78.808 31.676C79.0693 31.9373 79.2 32.2547 79.2 32.628C79.2 33.0013 79.0693 33.328 78.808 33.608C78.5467 33.8693 78.2293 34 77.856 34C77.464 34 77.1373 33.8693 76.876 33.608C76.6147 33.328 76.484 33.0013 76.484 32.628ZM79.2 32.6C79.2 32.2267 79.34 31.9093 79.62 31.648C79.9 31.368 80.2453 31.228 80.656 31.228C81.048 31.228 81.384 31.368 81.664 31.648C81.944 31.9093 82.084 32.2267 82.084 32.6C82.084 32.992 81.944 33.328 81.664 33.608C81.384 33.8693 81.048 34 80.656 34C80.2453 34 79.9 33.8693 79.62 33.608C79.34 33.328 79.2 32.992 79.2 32.6ZM73.572 24.2C73.572 23.7893 73.712 23.444 73.992 23.164C74.272 22.884 74.6173 22.744 75.028 22.744C75.4387 22.744 75.784 22.884 76.064 23.164C76.344 23.444 76.484 23.7893 76.484 24.2C76.484 24.6107 76.344 24.956 76.064 25.236C75.784 25.516 75.4387 25.656 75.028 25.656C74.6173 25.656 74.272 25.516 73.992 25.236C73.712 24.956 73.572 24.6107 73.572 24.2ZM76.484 24.228C76.484 23.8547 76.6147 23.528 76.876 23.248C77.156 22.968 77.492 22.828 77.884 22.828C78.2573 22.828 78.5747 22.968 78.836 23.248C79.116 23.528 79.256 23.8547 79.256 24.228C79.256 24.62 79.116 24.956 78.836 25.236C78.5747 25.516 78.2573 25.656 77.884 25.656C77.492 25.656 77.156 25.516 76.876 25.236C76.6147 24.956 76.484 24.62 76.484 24.228ZM86.2 15.856C86.2 15.4827 86.34 15.1653 86.62 14.904C86.9 14.624 87.236 14.484 87.628 14.484C88.0013 14.484 88.328 14.624 88.608 14.904C88.888 15.1653 89.028 15.4827 89.028 15.856C89.028 16.2293 88.888 16.556 88.608 16.836C88.328 17.0973 88.0013 17.228 87.628 17.228C87.236 17.228 86.9 17.0973 86.62 16.836C86.34 16.556 86.2 16.2293 86.2 15.856ZM89.028 15.856C89.028 15.4827 89.168 15.1653 89.448 14.904C89.728 14.624 90.064 14.484 90.456 14.484C90.8293 14.484 91.156 14.624 91.436 14.904C91.716 15.1653 91.856 15.4827 91.856 15.856C91.856 16.2293 91.716 16.556 91.436 16.836C91.156 17.0973 90.8293 17.228 90.456 17.228C90.064 17.228 89.728 17.0973 89.448 16.836C89.168 16.556 89.028 16.2293 89.028 15.856ZM91.856 15.856C91.856 15.4827 91.9867 15.1653 92.248 14.904C92.528 14.624 92.864 14.484 93.256 14.484C93.6293 14.484 93.9467 14.624 94.208 14.904C94.488 15.1653 94.628 15.4827 94.628 15.856C94.628 16.2293 94.488 16.556 94.208 16.836C93.9467 17.0973 93.6293 17.228 93.256 17.228C92.864 17.228 92.528 17.0973 92.248 16.836C91.9867 16.556 91.856 16.2293 91.856 15.856ZM94.628 15.856C94.628 15.4827 94.768 15.1653 95.048 14.904C95.328 14.624 95.664 14.484 96.056 14.484C96.448 14.484 96.784 14.624 97.064 14.904C97.344 15.1653 97.484 15.4827 97.484 15.856C97.484 16.2293 97.344 16.556 97.064 16.836C96.784 17.0973 96.448 17.228 96.056 17.228C95.664 17.228 95.328 17.0973 95.048 16.836C94.768 16.556 94.628 16.2293 94.628 15.856ZM86.2 18.6C86.2 18.2267 86.34 17.9093 86.62 17.648C86.9 17.368 87.236 17.228 87.628 17.228C88.02 17.228 88.356 17.368 88.636 17.648C88.916 17.9093 89.056 18.2267 89.056 18.6C89.056 18.9733 88.916 19.3 88.636 19.58C88.356 19.8413 88.02 19.972 87.628 19.972C87.236 19.972 86.9 19.8413 86.62 19.58C86.34 19.3 86.2 18.9733 86.2 18.6ZM86.2 21.344C86.2 20.9707 86.34 20.6533 86.62 20.392C86.9 20.112 87.236 19.972 87.628 19.972C88.02 19.972 88.356 20.112 88.636 20.392C88.916 20.6533 89.056 20.9707 89.056 21.344C89.056 21.736 88.916 22.072 88.636 22.352C88.356 22.6133 88.02 22.744 87.628 22.744C87.236 22.744 86.9 22.6133 86.62 22.352C86.34 22.072 86.2 21.736 86.2 21.344ZM86.2 24.116C86.2 23.7427 86.3307 23.4253 86.592 23.164C86.872 22.884 87.208 22.744 87.6 22.744C87.992 22.744 88.3187 22.884 88.58 23.164C88.86 23.4253 89 23.7427 89 24.116C89 24.508 88.86 24.844 88.58 25.124C88.3187 25.3853 87.992 25.516 87.6 25.516C87.208 25.516 86.872 25.3853 86.592 25.124C86.3307 24.844 86.2 24.508 86.2 24.116ZM86.2 26.944C86.2 26.552 86.3307 26.216 86.592 25.936C86.872 25.656 87.208 25.516 87.6 25.516C87.992 25.516 88.3187 25.656 88.58 25.936C88.86 26.216 89 26.552 89 26.944C89 27.3547 88.86 27.7 88.58 27.98C88.3187 28.26 87.992 28.4 87.6 28.4C87.208 28.4 86.872 28.26 86.592 27.98C86.3307 27.7 86.2 27.3547 86.2 26.944ZM86.2 29.772C86.2 29.3987 86.3307 29.0813 86.592 28.82C86.872 28.54 87.208 28.4 87.6 28.4C87.992 28.4 88.3187 28.54 88.58 28.82C88.86 29.0813 89 29.3987 89 29.772C89 30.164 88.86 30.5 88.58 30.78C88.3187 31.0413 87.992 31.172 87.6 31.172C87.208 31.172 86.872 31.0413 86.592 30.78C86.3307 30.5 86.2 30.164 86.2 29.772ZM86.2 32.572C86.2 32.1987 86.3307 31.872 86.592 31.592C86.872 31.312 87.208 31.172 87.6 31.172C87.992 31.172 88.3187 31.312 88.58 31.592C88.86 31.872 89 32.1987 89 32.572C89 32.964 88.86 33.3 88.58 33.58C88.3187 33.86 87.992 34 87.6 34C87.208 34 86.872 33.86 86.592 33.58C86.3307 33.3 86.2 32.964 86.2 32.572ZM89 32.628C89 32.2547 89.14 31.9373 89.42 31.676C89.7 31.396 90.0453 31.256 90.456 31.256C90.848 31.256 91.184 31.396 91.464 31.676C91.744 31.9373 91.884 32.2547 91.884 32.628C91.884 33.0013 91.744 33.328 91.464 33.608C91.184 33.8693 90.848 34 90.456 34C90.0453 34 89.7 33.8693 89.42 33.608C89.14 33.328 89 33.0013 89 32.628ZM91.884 32.628C91.884 32.2547 92.0147 31.9373 92.276 31.676C92.5373 31.396 92.864 31.256 93.256 31.256C93.6293 31.256 93.9467 31.396 94.208 31.676C94.4693 31.9373 94.6 32.2547 94.6 32.628C94.6 33.0013 94.4693 33.328 94.208 33.608C93.9467 33.8693 93.6293 34 93.256 34C92.864 34 92.5373 33.8693 92.276 33.608C92.0147 33.328 91.884 33.0013 91.884 32.628ZM94.6 32.6C94.6 32.2267 94.74 31.9093 95.02 31.648C95.3 31.368 95.6453 31.228 96.056 31.228C96.448 31.228 96.784 31.368 97.064 31.648C97.344 31.9093 97.484 32.2267 97.484 32.6C97.484 32.992 97.344 33.328 97.064 33.608C96.784 33.8693 96.448 34 96.056 34C95.6453 34 95.3 33.8693 95.02 33.608C94.74 33.328 94.6 32.992 94.6 32.6ZM88.972 24.2C88.972 23.7893 89.112 23.444 89.392 23.164C89.672 22.884 90.0173 22.744 90.428 22.744C90.8387 22.744 91.184 22.884 91.464 23.164C91.744 23.444 91.884 23.7893 91.884 24.2C91.884 24.6107 91.744 24.956 91.464 25.236C91.184 25.516 90.8387 25.656 90.428 25.656C90.0173 25.656 89.672 25.516 89.392 25.236C89.112 24.956 88.972 24.6107 88.972 24.2ZM91.884 24.228C91.884 23.8547 92.0147 23.528 92.276 23.248C92.556 22.968 92.892 22.828 93.284 22.828C93.6573 22.828 93.9747 22.968 94.236 23.248C94.516 23.528 94.656 23.8547 94.656 24.228C94.656 24.62 94.516 24.956 94.236 25.236C93.9747 25.516 93.6573 25.656 93.284 25.656C92.892 25.656 92.556 25.516 92.276 25.236C92.0147 24.956 91.884 24.62 91.884 24.228ZM101.6 15.856C101.6 15.4827 101.74 15.1653 102.02 14.904C102.3 14.624 102.636 14.484 103.028 14.484C103.401 14.484 103.728 14.624 104.008 14.904C104.288 15.1653 104.428 15.4827 104.428 15.856C104.428 16.2293 104.288 16.556 104.008 16.836C103.728 17.0973 103.401 17.228 103.028 17.228C102.636 17.228 102.3 17.0973 102.02 16.836C101.74 16.556 101.6 16.2293 101.6 15.856ZM104.428 15.856C104.428 15.4827 104.568 15.1653 104.848 14.904C105.128 14.624 105.464 14.484 105.856 14.484C106.248 14.484 106.584 14.624 106.864 14.904C107.144 15.1653 107.284 15.4827 107.284 15.856C107.284 16.2293 107.144 16.556 106.864 16.836C106.584 17.0973 106.248 17.228 105.856 17.228C105.464 17.228 105.128 17.0973 104.848 16.836C104.568 16.556 104.428 16.2293 104.428 15.856ZM107.284 15.828C107.284 15.4547 107.415 15.1373 107.676 14.876C107.956 14.6147 108.292 14.484 108.684 14.484C109.057 14.484 109.375 14.6147 109.636 14.876C109.916 15.1373 110.056 15.4547 110.056 15.828C110.056 16.2013 109.916 16.5187 109.636 16.78C109.375 17.0413 109.057 17.172 108.684 17.172C108.292 17.172 107.956 17.0413 107.676 16.78C107.415 16.5187 107.284 16.2013 107.284 15.828ZM110.056 15.828C110.056 15.4547 110.187 15.1373 110.448 14.876C110.728 14.6147 111.064 14.484 111.456 14.484C111.848 14.484 112.175 14.6147 112.436 14.876C112.716 15.1373 112.856 15.4547 112.856 15.828C112.856 16.2013 112.716 16.5187 112.436 16.78C112.175 17.0413 111.848 17.172 111.456 17.172C111.064 17.172 110.728 17.0413 110.448 16.78C110.187 16.5187 110.056 16.2013 110.056 15.828ZM110 18.628C110 18.2173 110.131 17.872 110.392 17.592C110.672 17.312 111.008 17.172 111.4 17.172C111.773 17.172 112.091 17.312 112.352 17.592C112.632 17.872 112.772 18.2173 112.772 18.628C112.772 19.0387 112.632 19.384 112.352 19.664C112.091 19.944 111.773 20.084 111.4 20.084C111.008 20.084 110.672 19.944 110.392 19.664C110.131 19.384 110 19.0387 110 18.628ZM110 21.456C110 21.0827 110.14 20.7653 110.42 20.504C110.7 20.224 111.045 20.084 111.456 20.084C111.867 20.084 112.212 20.224 112.492 20.504C112.772 20.7653 112.912 21.0827 112.912 21.456C112.912 21.848 112.772 22.184 112.492 22.464C112.212 22.7253 111.867 22.856 111.456 22.856C111.045 22.856 110.7 22.7253 110.42 22.464C110.14 22.184 110 21.848 110 21.456ZM107.172 24.256C107.172 23.8453 107.312 23.5 107.592 23.22C107.872 22.94 108.217 22.8 108.628 22.8C109.02 22.8 109.356 22.94 109.636 23.22C109.916 23.5 110.056 23.8453 110.056 24.256C110.056 24.6667 109.916 25.012 109.636 25.292C109.356 25.572 109.02 25.712 108.628 25.712C108.217 25.712 107.872 25.572 107.592 25.292C107.312 25.012 107.172 24.6667 107.172 24.256ZM104.316 27.112C104.316 26.72 104.456 26.3933 104.736 26.132C105.016 25.852 105.352 25.712 105.744 25.712C106.136 25.712 106.472 25.852 106.752 26.132C107.032 26.3933 107.172 26.72 107.172 27.112C107.172 27.504 107.032 27.84 106.752 28.12C106.472 28.3813 106.136 28.512 105.744 28.512C105.352 28.512 105.016 28.3813 104.736 28.12C104.456 27.84 104.316 27.504 104.316 27.112ZM101.6 29.884C101.6 29.5107 101.731 29.1933 101.992 28.932C102.253 28.652 102.58 28.512 102.972 28.512C103.345 28.512 103.663 28.652 103.924 28.932C104.185 29.1933 104.316 29.5107 104.316 29.884C104.316 30.276 104.185 30.612 103.924 30.892C103.663 31.1533 103.345 31.284 102.972 31.284C102.58 31.284 102.253 31.1533 101.992 30.892C101.731 30.612 101.6 30.276 101.6 29.884ZM101.6 32.628C101.6 32.2547 101.731 31.9373 101.992 31.676C102.272 31.4147 102.608 31.284 103 31.284C103.392 31.284 103.719 31.4147 103.98 31.676C104.26 31.9373 104.4 32.2547 104.4 32.628C104.4 33.02 104.26 33.3467 103.98 33.608C103.719 33.8693 103.392 34 103 34C102.608 34 102.272 33.8693 101.992 33.608C101.731 33.3467 101.6 33.02 101.6 32.628ZM104.4 32.628C104.4 32.2547 104.54 31.9373 104.82 31.676C105.1 31.396 105.436 31.256 105.828 31.256C106.22 31.256 106.556 31.396 106.836 31.676C107.116 31.9373 107.256 32.2547 107.256 32.628C107.256 33.0013 107.116 33.328 106.836 33.608C106.556 33.8693 106.22 34 105.828 34C105.436 34 105.1 33.8693 104.82 33.608C104.54 33.328 104.4 33.0013 104.4 32.628ZM107.256 32.628C107.256 32.2547 107.387 31.9373 107.648 31.676C107.928 31.396 108.264 31.256 108.656 31.256C109.029 31.256 109.347 31.396 109.608 31.676C109.888 31.9373 110.028 32.2547 110.028 32.628C110.028 33.0013 109.888 33.328 109.608 33.608C109.347 33.8693 109.029 34 108.656 34C108.264 34 107.928 33.8693 107.648 33.608C107.387 33.328 107.256 33.0013 107.256 32.628ZM110.028 32.628C110.028 32.2547 110.168 31.9373 110.448 31.676C110.728 31.396 111.064 31.256 111.456 31.256C111.848 31.256 112.184 31.396 112.464 31.676C112.744 31.9373 112.884 32.2547 112.884 32.628C112.884 33.0013 112.744 33.328 112.464 33.608C112.184 33.8693 111.848 34 111.456 34C111.064 34 110.728 33.8693 110.448 33.608C110.168 33.328 110.028 33.0013 110.028 32.628ZM117 15.856C117 15.4827 117.14 15.1653 117.42 14.904C117.7 14.624 118.036 14.484 118.428 14.484C118.801 14.484 119.128 14.624 119.408 14.904C119.688 15.1653 119.828 15.4827 119.828 15.856C119.828 16.2293 119.688 16.556 119.408 16.836C119.128 17.0973 118.801 17.228 118.428 17.228C118.036 17.228 117.7 17.0973 117.42 16.836C117.14 16.556 117 16.2293 117 15.856ZM119.828 15.856C119.828 15.4827 119.968 15.1653 120.248 14.904C120.528 14.624 120.864 14.484 121.256 14.484C121.629 14.484 121.956 14.624 122.236 14.904C122.516 15.1653 122.656 15.4827 122.656 15.856C122.656 16.2293 122.516 16.556 122.236 16.836C121.956 17.0973 121.629 17.228 121.256 17.228C120.864 17.228 120.528 17.0973 120.248 16.836C119.968 16.556 119.828 16.2293 119.828 15.856ZM122.656 15.856C122.656 15.4827 122.787 15.1653 123.048 14.904C123.328 14.624 123.664 14.484 124.056 14.484C124.429 14.484 124.747 14.624 125.008 14.904C125.288 15.1653 125.428 15.4827 125.428 15.856C125.428 16.2293 125.288 16.556 125.008 16.836C124.747 17.0973 124.429 17.228 124.056 17.228C123.664 17.228 123.328 17.0973 123.048 16.836C122.787 16.556 122.656 16.2293 122.656 15.856ZM125.428 15.856C125.428 15.4827 125.568 15.1653 125.848 14.904C126.128 14.624 126.464 14.484 126.856 14.484C127.248 14.484 127.584 14.624 127.864 14.904C128.144 15.1653 128.284 15.4827 128.284 15.856C128.284 16.2293 128.144 16.556 127.864 16.836C127.584 17.0973 127.248 17.228 126.856 17.228C126.464 17.228 126.128 17.0973 125.848 16.836C125.568 16.556 125.428 16.2293 125.428 15.856ZM117 18.6C117 18.2267 117.14 17.9093 117.42 17.648C117.7 17.368 118.036 17.228 118.428 17.228C118.82 17.228 119.156 17.368 119.436 17.648C119.716 17.9093 119.856 18.2267 119.856 18.6C119.856 18.9733 119.716 19.3 119.436 19.58C119.156 19.8413 118.82 19.972 118.428 19.972C118.036 19.972 117.7 19.8413 117.42 19.58C117.14 19.3 117 18.9733 117 18.6ZM117 21.344C117 20.9707 117.14 20.6533 117.42 20.392C117.7 20.112 118.036 19.972 118.428 19.972C118.82 19.972 119.156 20.112 119.436 20.392C119.716 20.6533 119.856 20.9707 119.856 21.344C119.856 21.736 119.716 22.072 119.436 22.352C119.156 22.6133 118.82 22.744 118.428 22.744C118.036 22.744 117.7 22.6133 117.42 22.352C117.14 22.072 117 21.736 117 21.344ZM117 24.116C117 23.7427 117.131 23.4253 117.392 23.164C117.672 22.884 118.008 22.744 118.4 22.744C118.792 22.744 119.119 22.884 119.38 23.164C119.66 23.4253 119.8 23.7427 119.8 24.116C119.8 24.508 119.66 24.844 119.38 25.124C119.119 25.3853 118.792 25.516 118.4 25.516C118.008 25.516 117.672 25.3853 117.392 25.124C117.131 24.844 117 24.508 117 24.116ZM117 26.944C117 26.552 117.131 26.216 117.392 25.936C117.672 25.656 118.008 25.516 118.4 25.516C118.792 25.516 119.119 25.656 119.38 25.936C119.66 26.216 119.8 26.552 119.8 26.944C119.8 27.3547 119.66 27.7 119.38 27.98C119.119 28.26 118.792 28.4 118.4 28.4C118.008 28.4 117.672 28.26 117.392 27.98C117.131 27.7 117 27.3547 117 26.944ZM117 29.772C117 29.3987 117.131 29.0813 117.392 28.82C117.672 28.54 118.008 28.4 118.4 28.4C118.792 28.4 119.119 28.54 119.38 28.82C119.66 29.0813 119.8 29.3987 119.8 29.772C119.8 30.164 119.66 30.5 119.38 30.78C119.119 31.0413 118.792 31.172 118.4 31.172C118.008 31.172 117.672 31.0413 117.392 30.78C117.131 30.5 117 30.164 117 29.772ZM117 32.572C117 32.1987 117.131 31.872 117.392 31.592C117.672 31.312 118.008 31.172 118.4 31.172C118.792 31.172 119.119 31.312 119.38 31.592C119.66 31.872 119.8 32.1987 119.8 32.572C119.8 32.964 119.66 33.3 119.38 33.58C119.119 33.86 118.792 34 118.4 34C118.008 34 117.672 33.86 117.392 33.58C117.131 33.3 117 32.964 117 32.572ZM119.8 32.628C119.8 32.2547 119.94 31.9373 120.22 31.676C120.5 31.396 120.845 31.256 121.256 31.256C121.648 31.256 121.984 31.396 122.264 31.676C122.544 31.9373 122.684 32.2547 122.684 32.628C122.684 33.0013 122.544 33.328 122.264 33.608C121.984 33.8693 121.648 34 121.256 34C120.845 34 120.5 33.8693 120.22 33.608C119.94 33.328 119.8 33.0013 119.8 32.628ZM122.684 32.628C122.684 32.2547 122.815 31.9373 123.076 31.676C123.337 31.396 123.664 31.256 124.056 31.256C124.429 31.256 124.747 31.396 125.008 31.676C125.269 31.9373 125.4 32.2547 125.4 32.628C125.4 33.0013 125.269 33.328 125.008 33.608C124.747 33.8693 124.429 34 124.056 34C123.664 34 123.337 33.8693 123.076 33.608C122.815 33.328 122.684 33.0013 122.684 32.628ZM125.4 32.6C125.4 32.2267 125.54 31.9093 125.82 31.648C126.1 31.368 126.445 31.228 126.856 31.228C127.248 31.228 127.584 31.368 127.864 31.648C128.144 31.9093 128.284 32.2267 128.284 32.6C128.284 32.992 128.144 33.328 127.864 33.608C127.584 33.8693 127.248 34 126.856 34C126.445 34 126.1 33.8693 125.82 33.608C125.54 33.328 125.4 32.992 125.4 32.6ZM119.772 24.2C119.772 23.7893 119.912 23.444 120.192 23.164C120.472 22.884 120.817 22.744 121.228 22.744C121.639 22.744 121.984 22.884 122.264 23.164C122.544 23.444 122.684 23.7893 122.684 24.2C122.684 24.6107 122.544 24.956 122.264 25.236C121.984 25.516 121.639 25.656 121.228 25.656C120.817 25.656 120.472 25.516 120.192 25.236C119.912 24.956 119.772 24.6107 119.772 24.2ZM122.684 24.228C122.684 23.8547 122.815 23.528 123.076 23.248C123.356 22.968 123.692 22.828 124.084 22.828C124.457 22.828 124.775 22.968 125.036 23.248C125.316 23.528 125.456 23.8547 125.456 24.228C125.456 24.62 125.316 24.956 125.036 25.236C124.775 25.516 124.457 25.656 124.084 25.656C123.692 25.656 123.356 25.516 123.076 25.236C122.815 24.956 122.684 24.62 122.684 24.228ZM150.562 32.628C150.562 32.2547 150.702 31.9373 150.982 31.676C151.262 31.4147 151.598 31.284 151.99 31.284C152.382 31.284 152.718 31.4147 152.998 31.676C153.278 31.9373 153.418 32.2547 153.418 32.628C153.418 33.02 153.278 33.3467 152.998 33.608C152.718 33.8693 152.382 34 151.99 34C151.598 34 151.262 33.8693 150.982 33.608C150.702 33.3467 150.562 33.02 150.562 32.628ZM153.418 32.628C153.418 32.2547 153.548 31.9373 153.81 31.676C154.09 31.4147 154.426 31.284 154.818 31.284C155.191 31.284 155.508 31.4147 155.77 31.676C156.05 31.9373 156.19 32.2547 156.19 32.628C156.19 33.02 156.05 33.3467 155.77 33.608C155.508 33.8693 155.191 34 154.818 34C154.426 34 154.09 33.8693 153.81 33.608C153.548 33.3467 153.418 33.02 153.418 32.628ZM156.19 32.628C156.19 32.2547 156.32 31.9373 156.582 31.676C156.862 31.396 157.198 31.256 157.59 31.256C157.982 31.256 158.308 31.396 158.57 31.676C158.85 31.9373 158.99 32.2547 158.99 32.628C158.99 33.0013 158.85 33.328 158.57 33.608C158.308 33.8693 157.982 34 157.59 34C157.198 34 156.862 33.8693 156.582 33.608C156.32 33.328 156.19 33.0013 156.19 32.628ZM159.018 29.856C159.018 29.4827 159.158 29.1653 159.438 28.904C159.718 28.624 160.054 28.484 160.446 28.484C160.838 28.484 161.174 28.624 161.454 28.904C161.734 29.1653 161.874 29.4827 161.874 29.856C161.874 30.248 161.734 30.584 161.454 30.864C161.174 31.1253 160.838 31.256 160.446 31.256C160.054 31.256 159.718 31.1253 159.438 30.864C159.158 30.584 159.018 30.248 159.018 29.856ZM158.878 27.056C158.878 26.664 159.018 26.328 159.298 26.048C159.596 25.768 159.96 25.628 160.39 25.628C160.8 25.628 161.146 25.768 161.426 26.048C161.724 26.328 161.874 26.664 161.874 27.056C161.874 27.448 161.724 27.784 161.426 28.064C161.146 28.344 160.8 28.484 160.39 28.484C159.96 28.484 159.596 28.344 159.298 28.064C159.018 27.784 158.878 27.448 158.878 27.056ZM156.162 24.256C156.162 23.8827 156.292 23.5653 156.554 23.304C156.815 23.024 157.142 22.884 157.534 22.884C157.907 22.884 158.224 23.024 158.486 23.304C158.747 23.5653 158.878 23.8827 158.878 24.256C158.878 24.6293 158.747 24.956 158.486 25.236C158.224 25.4973 157.907 25.628 157.534 25.628C157.142 25.628 156.815 25.4973 156.554 25.236C156.292 24.956 156.162 24.6293 156.162 24.256ZM153.39 24.256C153.39 23.8827 153.52 23.5653 153.782 23.304C154.062 23.024 154.398 22.884 154.79 22.884C155.163 22.884 155.48 23.024 155.742 23.304C156.022 23.5653 156.162 23.8827 156.162 24.256C156.162 24.648 156.022 24.984 155.742 25.264C155.48 25.5253 155.163 25.656 154.79 25.656C154.398 25.656 154.062 25.5253 153.782 25.264C153.52 24.984 153.39 24.648 153.39 24.256ZM150.562 24.256C150.562 23.8827 150.702 23.5653 150.982 23.304C151.262 23.024 151.598 22.884 151.99 22.884C152.363 22.884 152.69 23.024 152.97 23.304C153.25 23.5653 153.39 23.8827 153.39 24.256C153.39 24.648 153.25 24.984 152.97 25.264C152.69 25.5253 152.363 25.656 151.99 25.656C151.598 25.656 151.262 25.5253 150.982 25.264C150.702 24.984 150.562 24.648 150.562 24.256ZM150.562 21.484C150.562 21.092 150.702 20.7653 150.982 20.504C151.262 20.224 151.607 20.084 152.018 20.084C152.428 20.084 152.774 20.224 153.054 20.504C153.334 20.7653 153.474 21.092 153.474 21.484C153.474 21.876 153.334 22.212 153.054 22.492C152.774 22.7533 152.428 22.884 152.018 22.884C151.607 22.884 151.262 22.7533 150.982 22.492C150.702 22.212 150.562 21.876 150.562 21.484ZM150.562 18.684C150.562 18.292 150.702 17.9653 150.982 17.704C151.262 17.424 151.607 17.284 152.018 17.284C152.428 17.284 152.774 17.424 153.054 17.704C153.334 17.9653 153.474 18.292 153.474 18.684C153.474 19.076 153.334 19.412 153.054 19.692C152.774 19.9533 152.428 20.084 152.018 20.084C151.607 20.084 151.262 19.9533 150.982 19.692C150.702 19.412 150.562 19.076 150.562 18.684ZM150.562 15.884C150.562 15.492 150.702 15.1653 150.982 14.904C151.262 14.624 151.598 14.484 151.99 14.484C152.363 14.484 152.69 14.624 152.97 14.904C153.25 15.1653 153.39 15.492 153.39 15.884C153.39 16.276 153.25 16.612 152.97 16.892C152.69 17.1533 152.363 17.284 151.99 17.284C151.598 17.284 151.262 17.1533 150.982 16.892C150.702 16.612 150.562 16.276 150.562 15.884ZM153.39 15.8C153.39 15.4453 153.53 15.1373 153.81 14.876C154.09 14.6147 154.426 14.484 154.818 14.484C155.191 14.484 155.518 14.6147 155.798 14.876C156.078 15.1373 156.218 15.4453 156.218 15.8C156.218 16.1547 156.078 16.4627 155.798 16.724C155.518 16.9853 155.191 17.116 154.818 17.116C154.426 17.116 154.09 16.9853 153.81 16.724C153.53 16.4627 153.39 16.1547 153.39 15.8ZM156.218 15.8C156.218 15.4453 156.348 15.1373 156.61 14.876C156.89 14.6147 157.226 14.484 157.618 14.484C158.01 14.484 158.336 14.6147 158.598 14.876C158.878 15.1373 159.018 15.4453 159.018 15.8C159.018 16.1547 158.878 16.4627 158.598 16.724C158.336 16.9853 158.01 17.116 157.618 17.116C157.226 17.116 156.89 16.9853 156.61 16.724C156.348 16.4627 156.218 16.1547 156.218 15.8ZM158.934 18.628C158.934 18.2547 159.064 17.9373 159.326 17.676C159.587 17.4147 159.904 17.284 160.278 17.284C160.651 17.284 160.968 17.4147 161.23 17.676C161.491 17.9373 161.622 18.2547 161.622 18.628C161.622 19.0013 161.491 19.3187 161.23 19.58C160.968 19.8413 160.651 19.972 160.278 19.972C159.904 19.972 159.587 19.8413 159.326 19.58C159.064 19.3187 158.934 19.0013 158.934 18.628ZM159.046 21.456C159.046 21.064 159.176 20.728 159.438 20.448C159.718 20.168 160.054 20.028 160.446 20.028C160.819 20.028 161.136 20.168 161.398 20.448C161.678 20.728 161.818 21.064 161.818 21.456C161.818 21.8667 161.678 22.212 161.398 22.492C161.136 22.772 160.819 22.912 160.446 22.912C160.054 22.912 159.718 22.772 159.438 22.492C159.176 22.212 159.046 21.8667 159.046 21.456ZM150.562 27.084C150.562 26.7107 150.702 26.3933 150.982 26.132C151.262 25.8707 151.607 25.74 152.018 25.74C152.41 25.74 152.746 25.8707 153.026 26.132C153.306 26.3933 153.446 26.7107 153.446 27.084C153.446 27.4573 153.306 27.7747 153.026 28.036C152.746 28.2973 152.41 28.428 152.018 28.428C151.607 28.428 151.262 28.2973 150.982 28.036C150.702 27.7747 150.562 27.4573 150.562 27.084ZM150.562 29.828C150.562 29.436 150.702 29.1093 150.982 28.848C151.262 28.568 151.607 28.428 152.018 28.428C152.41 28.428 152.746 28.568 153.026 28.848C153.306 29.1093 153.446 29.436 153.446 29.828C153.446 30.22 153.306 30.556 153.026 30.836C152.746 31.0973 152.41 31.228 152.018 31.228C151.607 31.228 151.262 31.0973 150.982 30.836C150.702 30.556 150.562 30.22 150.562 29.828ZM165.962 15.828C165.962 15.4547 166.102 15.1373 166.382 14.876C166.662 14.6147 166.998 14.484 167.39 14.484C167.782 14.484 168.118 14.6147 168.398 14.876C168.678 15.1373 168.818 15.4547 168.818 15.828C168.818 16.2013 168.678 16.5187 168.398 16.78C168.118 17.0413 167.782 17.172 167.39 17.172C166.998 17.172 166.662 17.0413 166.382 16.78C166.102 16.5187 165.962 16.2013 165.962 15.828ZM165.962 18.572C165.962 18.1987 166.102 17.872 166.382 17.592C166.662 17.312 166.998 17.172 167.39 17.172C167.782 17.172 168.118 17.312 168.398 17.592C168.678 17.872 168.818 18.1987 168.818 18.572C168.818 18.964 168.678 19.3 168.398 19.58C168.118 19.86 167.782 20 167.39 20C166.998 20 166.662 19.86 166.382 19.58C166.102 19.3 165.962 18.964 165.962 18.572ZM165.962 32.628C165.962 32.2547 166.102 31.9373 166.382 31.676C166.662 31.4147 166.998 31.284 167.39 31.284C167.782 31.284 168.118 31.4147 168.398 31.676C168.678 31.9373 168.818 32.2547 168.818 32.628C168.818 33.02 168.678 33.3467 168.398 33.608C168.118 33.8693 167.782 34 167.39 34C166.998 34 166.662 33.8693 166.382 33.608C166.102 33.3467 165.962 33.02 165.962 32.628ZM165.962 29.884C165.962 29.492 166.102 29.1653 166.382 28.904C166.662 28.624 166.998 28.484 167.39 28.484C167.782 28.484 168.118 28.624 168.398 28.904C168.678 29.1653 168.818 29.492 168.818 29.884C168.818 30.276 168.678 30.612 168.398 30.892C168.118 31.1533 167.782 31.284 167.39 31.284C166.998 31.284 166.662 31.1533 166.382 30.892C166.102 30.612 165.962 30.276 165.962 29.884ZM168.734 27.112C168.734 26.7013 168.874 26.356 169.154 26.076C169.434 25.796 169.77 25.656 170.162 25.656C170.554 25.656 170.89 25.796 171.17 26.076C171.45 26.356 171.59 26.7013 171.59 27.112C171.59 27.5227 171.45 27.868 171.17 28.148C170.89 28.428 170.554 28.568 170.162 28.568C169.77 28.568 169.434 28.428 169.154 28.148C168.874 27.868 168.734 27.5227 168.734 27.112ZM171.59 24.256C171.59 23.864 171.72 23.5373 171.982 23.276C172.262 22.996 172.598 22.856 172.99 22.856C173.382 22.856 173.708 22.996 173.97 23.276C174.25 23.5373 174.39 23.864 174.39 24.256C174.39 24.648 174.25 24.984 173.97 25.264C173.708 25.5253 173.382 25.656 172.99 25.656C172.598 25.656 172.262 25.5253 171.982 25.264C171.72 24.984 171.59 24.648 171.59 24.256ZM174.39 21.456C174.39 21.064 174.52 20.7373 174.782 20.476C175.062 20.196 175.398 20.056 175.79 20.056C176.182 20.056 176.508 20.196 176.77 20.476C177.05 20.7373 177.19 21.064 177.19 21.456C177.19 21.848 177.05 22.184 176.77 22.464C176.508 22.7253 176.182 22.856 175.79 22.856C175.398 22.856 175.062 22.7253 174.782 22.464C174.52 22.184 174.39 21.848 174.39 21.456ZM177.19 18.656C177.19 18.264 177.33 17.9373 177.61 17.676C177.89 17.396 178.235 17.256 178.646 17.256C179.038 17.256 179.374 17.396 179.654 17.676C179.934 17.9373 180.074 18.264 180.074 18.656C180.074 19.048 179.934 19.384 179.654 19.664C179.374 19.9253 179.038 20.056 178.646 20.056C178.235 20.056 177.89 19.9253 177.61 19.664C177.33 19.384 177.19 19.048 177.19 18.656ZM177.19 15.856C177.19 15.4827 177.33 15.1653 177.61 14.904C177.89 14.624 178.235 14.484 178.646 14.484C179.038 14.484 179.374 14.624 179.654 14.904C179.934 15.1653 180.074 15.4827 180.074 15.856C180.074 16.248 179.934 16.584 179.654 16.864C179.374 17.1253 179.038 17.256 178.646 17.256C178.235 17.256 177.89 17.1253 177.61 16.864C177.33 16.584 177.19 16.248 177.19 15.856ZM168.706 21.484C168.706 21.1293 168.846 20.8213 169.126 20.56C169.424 20.2987 169.779 20.168 170.19 20.168C170.582 20.168 170.918 20.2987 171.198 20.56C171.496 20.8213 171.646 21.1293 171.646 21.484C171.646 21.8387 171.496 22.1467 171.198 22.408C170.918 22.6693 170.582 22.8 170.19 22.8C169.779 22.8 169.424 22.6693 169.126 22.408C168.846 22.1467 168.706 21.8387 168.706 21.484ZM184.151 24.2C184.151 23.8453 184.291 23.5373 184.571 23.276C184.851 23.0147 185.187 22.884 185.579 22.884C185.971 22.884 186.307 23.0147 186.587 23.276C186.867 23.5373 187.007 23.8453 187.007 24.2C187.007 24.5733 186.867 24.8907 186.587 25.152C186.307 25.4133 185.971 25.544 185.579 25.544C185.187 25.544 184.851 25.4133 184.571 25.152C184.291 24.8907 184.151 24.5733 184.151 24.2ZM184.151 32.656C184.151 32.2827 184.291 31.9653 184.571 31.704C184.851 31.4427 185.196 31.312 185.607 31.312C185.999 31.312 186.335 31.4427 186.615 31.704C186.895 31.9653 187.035 32.2827 187.035 32.656C187.035 33.0293 186.895 33.3467 186.615 33.608C186.335 33.8693 185.999 34 185.607 34C185.196 34 184.851 33.8693 184.571 33.608C184.291 33.3467 184.151 33.0293 184.151 32.656Z" fill="black"/>
<path d="M29 26L11 38L11 14L29 26Z" fill="#517B83"/>
<rect x="0.5" y="0.5" width="309" height="51" rx="7.5" stroke="black" shape-rendering="crispEdges"/>
</g>
<defs>
<filter id="filter0_d_243_2193" x="0" y="0" width="318" height="60" filterUnits="userSpaceOnUse" color-interpolation-filters="sRGB">
<feFlood flood-opacity="0" result="BackgroundImageFix"/>
<feColorMatrix in="SourceAlpha" type="matrix" values="0 0 0 0 0 0 0 0 0 0 0 0 0 0 0 0 0 0 127 0" result="hardAlpha"/>
<feOffset dx="4" dy="4"/>
<feGaussianBlur stdDeviation="2"/>
<feComposite in2="hardAlpha" operator="out"/>
<feColorMatrix type="matrix" values="0 0 0 0 0 0 0 0 0 0 0 0 0 0 0 0 0 0 0.25 0"/>
<feBlend mode="normal" in2="BackgroundImageFix" result="effect1_dropShadow_243_2193"/>
<feBlend mode="normal" in="SourceGraphic" in2="effect1_dropShadow_243_2193" result="shape"/>
</filter>
</defs>
</svg>
