<svg width="318" height="56" viewBox="0 0 318 56" fill="none" xmlns="http://www.w3.org/2000/svg">
<g filter="url(#filter0_d_183_2224)">
<rect width="290" height="28" transform="translate(8 8)" fill="white"/>
<path d="M40 28.628C40 28.2547 40.14 27.9373 40.42 27.676C40.7 27.4147 41.036 27.284 41.428 27.284C41.82 27.284 42.156 27.4147 42.436 27.676C42.716 27.9373 42.856 28.2547 42.856 28.628C42.856 29.02 42.716 29.3467 42.436 29.608C42.156 29.8693 41.82 30 41.428 30C41.036 30 40.7 29.8693 40.42 29.608C40.14 29.3467 40 29.02 40 28.628ZM42.856 28.628C42.856 28.2547 42.9867 27.9373 43.248 27.676C43.528 27.4147 43.864 27.284 44.256 27.284C44.6293 27.284 44.9467 27.4147 45.208 27.676C45.488 27.9373 45.628 28.2547 45.628 28.628C45.628 29.02 45.488 29.3467 45.208 29.608C44.9467 29.8693 44.6293 30 44.256 30C43.864 30 43.528 29.8693 43.248 29.608C42.9867 29.3467 42.856 29.02 42.856 28.628ZM45.628 28.628C45.628 28.2547 45.7587 27.9373 46.02 27.676C46.3 27.396 46.636 27.256 47.028 27.256C47.42 27.256 47.7467 27.396 48.008 27.676C48.288 27.9373 48.428 28.2547 48.428 28.628C48.428 29.0013 48.288 29.328 48.008 29.608C47.7467 29.8693 47.42 30 47.028 30C46.636 30 46.3 29.8693 46.02 29.608C45.7587 29.328 45.628 29.0013 45.628 28.628ZM48.456 25.856C48.456 25.4827 48.596 25.1653 48.876 24.904C49.156 24.624 49.492 24.484 49.884 24.484C50.276 24.484 50.612 24.624 50.892 24.904C51.172 25.1653 51.312 25.4827 51.312 25.856C51.312 26.248 51.172 26.584 50.892 26.864C50.612 27.1253 50.276 27.256 49.884 27.256C49.492 27.256 49.156 27.1253 48.876 26.864C48.596 26.584 48.456 26.248 48.456 25.856ZM48.316 23.056C48.316 22.664 48.456 22.328 48.736 22.048C49.0347 21.768 49.3987 21.628 49.828 21.628C50.2387 21.628 50.584 21.768 50.864 22.048C51.1627 22.328 51.312 22.664 51.312 23.056C51.312 23.448 51.1627 23.784 50.864 24.064C50.584 24.344 50.2387 24.484 49.828 24.484C49.3987 24.484 49.0347 24.344 48.736 24.064C48.456 23.784 48.316 23.448 48.316 23.056ZM45.6 20.256C45.6 19.8827 45.7307 19.5653 45.992 19.304C46.2533 19.024 46.58 18.884 46.972 18.884C47.3453 18.884 47.6627 19.024 47.924 19.304C48.1853 19.5653 48.316 19.8827 48.316 20.256C48.316 20.6293 48.1853 20.956 47.924 21.236C47.6627 21.4973 47.3453 21.628 46.972 21.628C46.58 21.628 46.2533 21.4973 45.992 21.236C45.7307 20.956 45.6 20.6293 45.6 20.256ZM42.828 20.256C42.828 19.8827 42.9587 19.5653 43.22 19.304C43.5 19.024 43.836 18.884 44.228 18.884C44.6013 18.884 44.9187 19.024 45.18 19.304C45.46 19.5653 45.6 19.8827 45.6 20.256C45.6 20.648 45.46 20.984 45.18 21.264C44.9187 21.5253 44.6013 21.656 44.228 21.656C43.836 21.656 43.5 21.5253 43.22 21.264C42.9587 20.984 42.828 20.648 42.828 20.256ZM40 20.256C40 19.8827 40.14 19.5653 40.42 19.304C40.7 19.024 41.036 18.884 41.428 18.884C41.8013 18.884 42.128 19.024 42.408 19.304C42.688 19.5653 42.828 19.8827 42.828 20.256C42.828 20.648 42.688 20.984 42.408 21.264C42.128 21.5253 41.8013 21.656 41.428 21.656C41.036 21.656 40.7 21.5253 40.42 21.264C40.14 20.984 40 20.648 40 20.256ZM40 17.484C40 17.092 40.14 16.7653 40.42 16.504C40.7 16.224 41.0453 16.084 41.456 16.084C41.8667 16.084 42.212 16.224 42.492 16.504C42.772 16.7653 42.912 17.092 42.912 17.484C42.912 17.876 42.772 18.212 42.492 18.492C42.212 18.7533 41.8667 18.884 41.456 18.884C41.0453 18.884 40.7 18.7533 40.42 18.492C40.14 18.212 40 17.876 40 17.484ZM40 14.684C40 14.292 40.14 13.9653 40.42 13.704C40.7 13.424 41.0453 13.284 41.456 13.284C41.8667 13.284 42.212 13.424 42.492 13.704C42.772 13.9653 42.912 14.292 42.912 14.684C42.912 15.076 42.772 15.412 42.492 15.692C42.212 15.9533 41.8667 16.084 41.456 16.084C41.0453 16.084 40.7 15.9533 40.42 15.692C40.14 15.412 40 15.076 40 14.684ZM40 11.884C40 11.492 40.14 11.1653 40.42 10.904C40.7 10.624 41.036 10.484 41.428 10.484C41.8013 10.484 42.128 10.624 42.408 10.904C42.688 11.1653 42.828 11.492 42.828 11.884C42.828 12.276 42.688 12.612 42.408 12.892C42.128 13.1533 41.8013 13.284 41.428 13.284C41.036 13.284 40.7 13.1533 40.42 12.892C40.14 12.612 40 12.276 40 11.884ZM42.828 11.8C42.828 11.4453 42.968 11.1373 43.248 10.876C43.528 10.6147 43.864 10.484 44.256 10.484C44.6293 10.484 44.956 10.6147 45.236 10.876C45.516 11.1373 45.656 11.4453 45.656 11.8C45.656 12.1547 45.516 12.4627 45.236 12.724C44.956 12.9853 44.6293 13.116 44.256 13.116C43.864 13.116 43.528 12.9853 43.248 12.724C42.968 12.4627 42.828 12.1547 42.828 11.8ZM45.656 11.8C45.656 11.4453 45.7867 11.1373 46.048 10.876C46.328 10.6147 46.664 10.484 47.056 10.484C47.448 10.484 47.7747 10.6147 48.036 10.876C48.316 11.1373 48.456 11.4453 48.456 11.8C48.456 12.1547 48.316 12.4627 48.036 12.724C47.7747 12.9853 47.448 13.116 47.056 13.116C46.664 13.116 46.328 12.9853 46.048 12.724C45.7867 12.4627 45.656 12.1547 45.656 11.8ZM48.372 14.628C48.372 14.2547 48.5027 13.9373 48.764 13.676C49.0253 13.4147 49.3427 13.284 49.716 13.284C50.0893 13.284 50.4067 13.4147 50.668 13.676C50.9293 13.9373 51.06 14.2547 51.06 14.628C51.06 15.0013 50.9293 15.3187 50.668 15.58C50.4067 15.8413 50.0893 15.972 49.716 15.972C49.3427 15.972 49.0253 15.8413 48.764 15.58C48.5027 15.3187 48.372 15.0013 48.372 14.628ZM48.484 17.456C48.484 17.064 48.6147 16.728 48.876 16.448C49.156 16.168 49.492 16.028 49.884 16.028C50.2573 16.028 50.5747 16.168 50.836 16.448C51.116 16.728 51.256 17.064 51.256 17.456C51.256 17.8667 51.116 18.212 50.836 18.492C50.5747 18.772 50.2573 18.912 49.884 18.912C49.492 18.912 49.156 18.772 48.876 18.492C48.6147 18.212 48.484 17.8667 48.484 17.456ZM40 23.084C40 22.7107 40.14 22.3933 40.42 22.132C40.7 21.8707 41.0453 21.74 41.456 21.74C41.848 21.74 42.184 21.8707 42.464 22.132C42.744 22.3933 42.884 22.7107 42.884 23.084C42.884 23.4573 42.744 23.7747 42.464 24.036C42.184 24.2973 41.848 24.428 41.456 24.428C41.0453 24.428 40.7 24.2973 40.42 24.036C40.14 23.7747 40 23.4573 40 23.084ZM40 25.828C40 25.436 40.14 25.1093 40.42 24.848C40.7 24.568 41.0453 24.428 41.456 24.428C41.848 24.428 42.184 24.568 42.464 24.848C42.744 25.1093 42.884 25.436 42.884 25.828C42.884 26.22 42.744 26.556 42.464 26.836C42.184 27.0973 41.848 27.228 41.456 27.228C41.0453 27.228 40.7 27.0973 40.42 26.836C40.14 26.556 40 26.22 40 25.828ZM55.4 11.856C55.4 11.4827 55.54 11.1653 55.82 10.904C56.1 10.624 56.436 10.484 56.828 10.484C57.2013 10.484 57.528 10.624 57.808 10.904C58.088 11.1653 58.228 11.4827 58.228 11.856C58.228 12.2293 58.088 12.556 57.808 12.836C57.528 13.0973 57.2013 13.228 56.828 13.228C56.436 13.228 56.1 13.0973 55.82 12.836C55.54 12.556 55.4 12.2293 55.4 11.856ZM58.228 11.856C58.228 11.4827 58.368 11.1653 58.648 10.904C58.928 10.624 59.264 10.484 59.656 10.484C60.0293 10.484 60.356 10.624 60.636 10.904C60.916 11.1653 61.056 11.4827 61.056 11.856C61.056 12.2293 60.916 12.556 60.636 12.836C60.356 13.0973 60.0293 13.228 59.656 13.228C59.264 13.228 58.928 13.0973 58.648 12.836C58.368 12.556 58.228 12.2293 58.228 11.856ZM61.056 11.856C61.056 11.4827 61.1867 11.1653 61.448 10.904C61.728 10.624 62.064 10.484 62.456 10.484C62.8293 10.484 63.1467 10.624 63.408 10.904C63.688 11.1653 63.828 11.4827 63.828 11.856C63.828 12.2293 63.688 12.556 63.408 12.836C63.1467 13.0973 62.8293 13.228 62.456 13.228C62.064 13.228 61.728 13.0973 61.448 12.836C61.1867 12.556 61.056 12.2293 61.056 11.856ZM63.828 11.856C63.828 11.4827 63.968 11.1653 64.248 10.904C64.528 10.624 64.864 10.484 65.256 10.484C65.648 10.484 65.984 10.624 66.264 10.904C66.544 11.1653 66.684 11.4827 66.684 11.856C66.684 12.2293 66.544 12.556 66.264 12.836C65.984 13.0973 65.648 13.228 65.256 13.228C64.864 13.228 64.528 13.0973 64.248 12.836C63.968 12.556 63.828 12.2293 63.828 11.856ZM55.4 14.6C55.4 14.2267 55.54 13.9093 55.82 13.648C56.1 13.368 56.436 13.228 56.828 13.228C57.22 13.228 57.556 13.368 57.836 13.648C58.116 13.9093 58.256 14.2267 58.256 14.6C58.256 14.9733 58.116 15.3 57.836 15.58C57.556 15.8413 57.22 15.972 56.828 15.972C56.436 15.972 56.1 15.8413 55.82 15.58C55.54 15.3 55.4 14.9733 55.4 14.6ZM55.4 17.344C55.4 16.9707 55.54 16.6533 55.82 16.392C56.1 16.112 56.436 15.972 56.828 15.972C57.22 15.972 57.556 16.112 57.836 16.392C58.116 16.6533 58.256 16.9707 58.256 17.344C58.256 17.736 58.116 18.072 57.836 18.352C57.556 18.6133 57.22 18.744 56.828 18.744C56.436 18.744 56.1 18.6133 55.82 18.352C55.54 18.072 55.4 17.736 55.4 17.344ZM55.4 20.116C55.4 19.7427 55.5307 19.4253 55.792 19.164C56.072 18.884 56.408 18.744 56.8 18.744C57.192 18.744 57.5187 18.884 57.78 19.164C58.06 19.4253 58.2 19.7427 58.2 20.116C58.2 20.508 58.06 20.844 57.78 21.124C57.5187 21.3853 57.192 21.516 56.8 21.516C56.408 21.516 56.072 21.3853 55.792 21.124C55.5307 20.844 55.4 20.508 55.4 20.116ZM55.4 22.944C55.4 22.552 55.5307 22.216 55.792 21.936C56.072 21.656 56.408 21.516 56.8 21.516C57.192 21.516 57.5187 21.656 57.78 21.936C58.06 22.216 58.2 22.552 58.2 22.944C58.2 23.3547 58.06 23.7 57.78 23.98C57.5187 24.26 57.192 24.4 56.8 24.4C56.408 24.4 56.072 24.26 55.792 23.98C55.5307 23.7 55.4 23.3547 55.4 22.944ZM55.4 25.772C55.4 25.3987 55.5307 25.0813 55.792 24.82C56.072 24.54 56.408 24.4 56.8 24.4C57.192 24.4 57.5187 24.54 57.78 24.82C58.06 25.0813 58.2 25.3987 58.2 25.772C58.2 26.164 58.06 26.5 57.78 26.78C57.5187 27.0413 57.192 27.172 56.8 27.172C56.408 27.172 56.072 27.0413 55.792 26.78C55.5307 26.5 55.4 26.164 55.4 25.772ZM55.4 28.572C55.4 28.1987 55.5307 27.872 55.792 27.592C56.072 27.312 56.408 27.172 56.8 27.172C57.192 27.172 57.5187 27.312 57.78 27.592C58.06 27.872 58.2 28.1987 58.2 28.572C58.2 28.964 58.06 29.3 57.78 29.58C57.5187 29.86 57.192 30 56.8 30C56.408 30 56.072 29.86 55.792 29.58C55.5307 29.3 55.4 28.964 55.4 28.572ZM58.2 28.628C58.2 28.2547 58.34 27.9373 58.62 27.676C58.9 27.396 59.2453 27.256 59.656 27.256C60.048 27.256 60.384 27.396 60.664 27.676C60.944 27.9373 61.084 28.2547 61.084 28.628C61.084 29.0013 60.944 29.328 60.664 29.608C60.384 29.8693 60.048 30 59.656 30C59.2453 30 58.9 29.8693 58.62 29.608C58.34 29.328 58.2 29.0013 58.2 28.628ZM61.084 28.628C61.084 28.2547 61.2147 27.9373 61.476 27.676C61.7373 27.396 62.064 27.256 62.456 27.256C62.8293 27.256 63.1467 27.396 63.408 27.676C63.6693 27.9373 63.8 28.2547 63.8 28.628C63.8 29.0013 63.6693 29.328 63.408 29.608C63.1467 29.8693 62.8293 30 62.456 30C62.064 30 61.7373 29.8693 61.476 29.608C61.2147 29.328 61.084 29.0013 61.084 28.628ZM63.8 28.6C63.8 28.2267 63.94 27.9093 64.22 27.648C64.5 27.368 64.8453 27.228 65.256 27.228C65.648 27.228 65.984 27.368 66.264 27.648C66.544 27.9093 66.684 28.2267 66.684 28.6C66.684 28.992 66.544 29.328 66.264 29.608C65.984 29.8693 65.648 30 65.256 30C64.8453 30 64.5 29.8693 64.22 29.608C63.94 29.328 63.8 28.992 63.8 28.6ZM58.172 20.2C58.172 19.7893 58.312 19.444 58.592 19.164C58.872 18.884 59.2173 18.744 59.628 18.744C60.0387 18.744 60.384 18.884 60.664 19.164C60.944 19.444 61.084 19.7893 61.084 20.2C61.084 20.6107 60.944 20.956 60.664 21.236C60.384 21.516 60.0387 21.656 59.628 21.656C59.2173 21.656 58.872 21.516 58.592 21.236C58.312 20.956 58.172 20.6107 58.172 20.2ZM61.084 20.228C61.084 19.8547 61.2147 19.528 61.476 19.248C61.756 18.968 62.092 18.828 62.484 18.828C62.8573 18.828 63.1747 18.968 63.436 19.248C63.716 19.528 63.856 19.8547 63.856 20.228C63.856 20.62 63.716 20.956 63.436 21.236C63.1747 21.516 62.8573 21.656 62.484 21.656C62.092 21.656 61.756 21.516 61.476 21.236C61.2147 20.956 61.084 20.62 61.084 20.228ZM70.8 28.656C70.8 28.2827 70.94 27.9653 71.22 27.704C71.5 27.4427 71.836 27.312 72.228 27.312C72.6013 27.312 72.928 27.4427 73.208 27.704C73.488 27.9653 73.628 28.2827 73.628 28.656C73.628 29.0293 73.488 29.3467 73.208 29.608C72.928 29.8693 72.6013 30 72.228 30C71.836 30 71.5 29.8693 71.22 29.608C70.94 29.3467 70.8 29.0293 70.8 28.656ZM73.628 28.656C73.628 28.2827 73.7587 27.9653 74.02 27.704C74.3 27.4427 74.6267 27.312 75 27.312C75.3733 27.312 75.6907 27.4427 75.952 27.704C76.232 27.9653 76.372 28.2827 76.372 28.656C76.372 29.0293 76.232 29.3467 75.952 29.608C75.6907 29.8693 75.3733 30 75 30C74.6267 30 74.3 29.8693 74.02 29.608C73.7587 29.3467 73.628 29.0293 73.628 28.656ZM76.372 28.628C76.372 28.2547 76.512 27.9373 76.792 27.676C77.072 27.4147 77.4173 27.284 77.828 27.284C78.22 27.284 78.556 27.4147 78.836 27.676C79.116 27.9373 79.256 28.2547 79.256 28.628C79.256 29.02 79.116 29.3467 78.836 29.608C78.556 29.8693 78.22 30 77.828 30C77.4173 30 77.072 29.8693 76.792 29.608C76.512 29.3467 76.372 29.02 76.372 28.628ZM79.256 25.856C79.256 25.464 79.3867 25.128 79.648 24.848C79.928 24.568 80.264 24.428 80.656 24.428C81.0293 24.428 81.3467 24.568 81.608 24.848C81.888 25.128 82.028 25.464 82.028 25.856C82.028 26.248 81.888 26.584 81.608 26.864C81.3467 27.144 81.0293 27.284 80.656 27.284C80.264 27.284 79.928 27.144 79.648 26.864C79.3867 26.584 79.256 26.248 79.256 25.856ZM79.172 23.028C79.172 22.6547 79.312 22.3373 79.592 22.076C79.872 21.796 80.208 21.656 80.6 21.656C80.992 21.656 81.328 21.796 81.608 22.076C81.888 22.3373 82.028 22.6547 82.028 23.028C82.028 23.42 81.888 23.756 81.608 24.036C81.328 24.2973 80.992 24.428 80.6 24.428C80.208 24.428 79.872 24.2973 79.592 24.036C79.312 23.756 79.172 23.42 79.172 23.028ZM76.428 20.256C76.428 19.864 76.5587 19.5373 76.82 19.276C77.1 18.996 77.4267 18.856 77.8 18.856C78.1733 18.856 78.4907 18.996 78.752 19.276C79.032 19.5373 79.172 19.864 79.172 20.256C79.172 20.648 79.032 20.984 78.752 21.264C78.4907 21.5253 78.1733 21.656 77.8 21.656C77.4267 21.656 77.1 21.5253 76.82 21.264C76.5587 20.984 76.428 20.648 76.428 20.256ZM73.6 20.228C73.6 19.8547 73.74 19.5373 74.02 19.276C74.3 18.996 74.636 18.856 75.028 18.856C75.4013 18.856 75.728 18.996 76.008 19.276C76.288 19.5373 76.428 19.8547 76.428 20.228C76.428 20.62 76.288 20.956 76.008 21.236C75.728 21.4973 75.4013 21.628 75.028 21.628C74.636 21.628 74.3 21.4973 74.02 21.236C73.74 20.956 73.6 20.62 73.6 20.228ZM70.8 17.456C70.8 17.064 70.94 16.728 71.22 16.448C71.5 16.168 71.836 16.028 72.228 16.028C72.6013 16.028 72.928 16.168 73.208 16.448C73.488 16.728 73.628 17.064 73.628 17.456C73.628 17.848 73.488 18.184 73.208 18.464C72.928 18.744 72.6013 18.884 72.228 18.884C71.836 18.884 71.5 18.744 71.22 18.464C70.94 18.184 70.8 17.848 70.8 17.456ZM70.8 14.656C70.8 14.2827 70.94 13.9653 71.22 13.704C71.5 13.4427 71.836 13.312 72.228 13.312C72.6013 13.312 72.928 13.4427 73.208 13.704C73.488 13.9653 73.628 14.2827 73.628 14.656C73.628 15.048 73.488 15.3747 73.208 15.636C72.928 15.8973 72.6013 16.028 72.228 16.028C71.836 16.028 71.5 15.8973 71.22 15.636C70.94 15.3747 70.8 15.048 70.8 14.656ZM73.628 11.884C73.628 11.5107 73.768 11.184 74.048 10.904C74.328 10.624 74.664 10.484 75.056 10.484C75.4293 10.484 75.756 10.624 76.036 10.904C76.316 11.184 76.456 11.5107 76.456 11.884C76.456 12.276 76.316 12.612 76.036 12.892C75.756 13.172 75.4293 13.312 75.056 13.312C74.664 13.312 74.328 13.172 74.048 12.892C73.768 12.612 73.628 12.276 73.628 11.884ZM76.456 11.856C76.456 11.4827 76.5867 11.1653 76.848 10.904C77.128 10.624 77.4547 10.484 77.828 10.484C78.2013 10.484 78.5187 10.624 78.78 10.904C79.06 11.1653 79.2 11.4827 79.2 11.856C79.2 12.2293 79.06 12.556 78.78 12.836C78.5187 13.0973 78.2013 13.228 77.828 13.228C77.4547 13.228 77.128 13.0973 76.848 12.836C76.5867 12.556 76.456 12.2293 76.456 11.856ZM79.2 11.856C79.2 11.4827 79.34 11.1653 79.62 10.904C79.9187 10.624 80.2733 10.484 80.684 10.484C81.076 10.484 81.412 10.624 81.692 10.904C81.9907 11.1653 82.14 11.4827 82.14 11.856C82.14 12.2293 81.9907 12.556 81.692 12.836C81.412 13.0973 81.076 13.228 80.684 13.228C80.2733 13.228 79.9187 13.0973 79.62 12.836C79.34 12.556 79.2 12.2293 79.2 11.856ZM86.2 11.828C86.2 11.4547 86.34 11.1373 86.62 10.876C86.9 10.6147 87.236 10.484 87.628 10.484C88.02 10.484 88.356 10.6147 88.636 10.876C88.916 11.1373 89.056 11.4547 89.056 11.828C89.056 12.2013 88.916 12.5187 88.636 12.78C88.356 13.0413 88.02 13.172 87.628 13.172C87.236 13.172 86.9 13.0413 86.62 12.78C86.34 12.5187 86.2 12.2013 86.2 11.828ZM89.056 11.828C89.056 11.4547 89.1867 11.1373 89.448 10.876C89.728 10.6147 90.064 10.484 90.456 10.484C90.848 10.484 91.1747 10.6147 91.436 10.876C91.716 11.1373 91.856 11.4547 91.856 11.828C91.856 12.2013 91.716 12.5187 91.436 12.78C91.1747 13.0413 90.848 13.172 90.456 13.172C90.064 13.172 89.728 13.0413 89.448 12.78C89.1867 12.5187 89.056 12.2013 89.056 11.828ZM91.856 11.828C91.856 11.4547 91.9867 11.1373 92.248 10.876C92.528 10.6147 92.8547 10.484 93.228 10.484C93.6013 10.484 93.9187 10.6147 94.18 10.876C94.46 11.1373 94.6 11.4547 94.6 11.828C94.6 12.22 94.46 12.5467 94.18 12.808C93.9187 13.0693 93.6013 13.2 93.228 13.2C92.8547 13.2 92.528 13.0693 92.248 12.808C91.9867 12.5467 91.856 12.22 91.856 11.828ZM94.6 11.828C94.6 11.4547 94.74 11.1373 95.02 10.876C95.3 10.6147 95.636 10.484 96.028 10.484C96.4013 10.484 96.728 10.6147 97.008 10.876C97.288 11.1373 97.428 11.4547 97.428 11.828C97.428 12.22 97.288 12.5467 97.008 12.808C96.728 13.0693 96.4013 13.2 96.028 13.2C95.636 13.2 95.3 13.0693 95.02 12.808C94.74 12.5467 94.6 12.22 94.6 11.828ZM97.428 11.856C97.428 11.4827 97.568 11.1653 97.848 10.904C98.128 10.624 98.464 10.484 98.856 10.484C99.2293 10.484 99.556 10.624 99.836 10.904C100.116 11.1653 100.256 11.4827 100.256 11.856C100.256 12.2293 100.116 12.556 99.836 12.836C99.556 13.0973 99.2293 13.228 98.856 13.228C98.464 13.228 98.128 13.0973 97.848 12.836C97.568 12.556 97.428 12.2293 97.428 11.856ZM91.828 28.628C91.828 28.2547 91.9587 27.9373 92.22 27.676C92.5 27.396 92.836 27.256 93.228 27.256C93.62 27.256 93.9467 27.396 94.208 27.676C94.488 27.9373 94.628 28.2547 94.628 28.628C94.628 29.0013 94.488 29.328 94.208 29.608C93.9467 29.8693 93.62 30 93.228 30C92.836 30 92.5 29.8693 92.22 29.608C91.9587 29.328 91.828 29.0013 91.828 28.628ZM91.8 25.856C91.8 25.4827 91.94 25.1653 92.22 24.904C92.5 24.624 92.836 24.484 93.228 24.484C93.6013 24.484 93.928 24.624 94.208 24.904C94.488 25.1653 94.628 25.4827 94.628 25.856C94.628 26.248 94.488 26.584 94.208 26.864C93.928 27.1253 93.6013 27.256 93.228 27.256C92.836 27.256 92.5 27.1253 92.22 26.864C91.94 26.584 91.8 26.248 91.8 25.856ZM91.8 23.056C91.8 22.6827 91.94 22.356 92.22 22.076C92.5 21.796 92.836 21.656 93.228 21.656C93.62 21.656 93.956 21.796 94.236 22.076C94.516 22.356 94.656 22.6827 94.656 23.056C94.656 23.448 94.516 23.784 94.236 24.064C93.956 24.344 93.62 24.484 93.228 24.484C92.836 24.484 92.5 24.344 92.22 24.064C91.94 23.784 91.8 23.448 91.8 23.056ZM91.772 20.256C91.772 19.8827 91.912 19.5653 92.192 19.304C92.472 19.024 92.8173 18.884 93.228 18.884C93.62 18.884 93.956 19.024 94.236 19.304C94.516 19.5653 94.656 19.8827 94.656 20.256C94.656 20.648 94.516 20.984 94.236 21.264C93.956 21.5253 93.62 21.656 93.228 21.656C92.8173 21.656 92.472 21.5253 92.192 21.264C91.912 20.984 91.772 20.648 91.772 20.256ZM91.772 17.456C91.772 17.0827 91.912 16.756 92.192 16.476C92.472 16.196 92.8173 16.056 93.228 16.056C93.6387 16.056 93.984 16.196 94.264 16.476C94.544 16.756 94.684 17.0827 94.684 17.456C94.684 17.848 94.544 18.184 94.264 18.464C93.984 18.744 93.6387 18.884 93.228 18.884C92.8173 18.884 92.472 18.744 92.192 18.464C91.912 18.184 91.772 17.848 91.772 17.456ZM91.744 14.684C91.744 14.3107 91.884 13.9933 92.164 13.732C92.4627 13.452 92.8173 13.312 93.228 13.312C93.62 13.312 93.956 13.452 94.236 13.732C94.5347 13.9933 94.684 14.3107 94.684 14.684C94.684 15.0573 94.5347 15.384 94.236 15.664C93.956 15.9253 93.62 16.056 93.228 16.056C92.8173 16.056 92.4627 15.9253 92.164 15.664C91.884 15.384 91.744 15.0573 91.744 14.684ZM122.551 11.828C122.551 11.4547 122.691 11.1373 122.971 10.876C123.251 10.6147 123.596 10.484 124.007 10.484C124.399 10.484 124.735 10.6147 125.015 10.876C125.295 11.1373 125.435 11.4547 125.435 11.828C125.435 12.2013 125.295 12.5187 125.015 12.78C124.735 13.0413 124.399 13.172 124.007 13.172C123.596 13.172 123.251 13.0413 122.971 12.78C122.691 12.5187 122.551 12.2013 122.551 11.828ZM125.435 11.828C125.435 11.4547 125.565 11.1373 125.827 10.876C126.107 10.6147 126.443 10.484 126.835 10.484C127.227 10.484 127.553 10.6147 127.815 10.876C128.095 11.1373 128.235 11.4547 128.235 11.828C128.235 12.2013 128.095 12.5187 127.815 12.78C127.553 13.0413 127.227 13.172 126.835 13.172C126.443 13.172 126.107 13.0413 125.827 12.78C125.565 12.5187 125.435 12.2013 125.435 11.828ZM128.235 11.828C128.235 11.4547 128.365 11.1373 128.627 10.876C128.907 10.6147 129.243 10.484 129.635 10.484C130.027 10.484 130.353 10.6147 130.615 10.876C130.895 11.1373 131.035 11.4547 131.035 11.828C131.035 12.2013 130.895 12.5187 130.615 12.78C130.353 13.0413 130.027 13.172 129.635 13.172C129.243 13.172 128.907 13.0413 128.627 12.78C128.365 12.5187 128.235 12.2013 128.235 11.828ZM125.323 14.656C125.323 14.2453 125.463 13.9 125.743 13.62C126.023 13.34 126.359 13.2 126.751 13.2C127.124 13.2 127.451 13.34 127.731 13.62C128.011 13.9 128.151 14.2453 128.151 14.656C128.151 15.0667 128.011 15.412 127.731 15.692C127.451 15.972 127.124 16.112 126.751 16.112C126.359 16.112 126.023 15.972 125.743 15.692C125.463 15.412 125.323 15.0667 125.323 14.656ZM125.323 17.456C125.323 17.0827 125.463 16.7653 125.743 16.504C126.041 16.2427 126.396 16.112 126.807 16.112C127.199 16.112 127.535 16.2427 127.815 16.504C128.113 16.7653 128.263 17.0827 128.263 17.456C128.263 17.848 128.113 18.1747 127.815 18.436C127.535 18.6973 127.199 18.828 126.807 18.828C126.396 18.828 126.041 18.6973 125.743 18.436C125.463 18.1747 125.323 17.848 125.323 17.456ZM125.323 20.2C125.323 19.8267 125.463 19.5093 125.743 19.248C126.041 18.968 126.396 18.828 126.807 18.828C127.199 18.828 127.535 18.968 127.815 19.248C128.113 19.5093 128.263 19.8267 128.263 20.2C128.263 20.5733 128.113 20.9 127.815 21.18C127.535 21.4413 127.199 21.572 126.807 21.572C126.396 21.572 126.041 21.4413 125.743 21.18C125.463 20.9 125.323 20.5733 125.323 20.2ZM125.323 22.972C125.323 22.5987 125.463 22.272 125.743 21.992C126.023 21.712 126.359 21.572 126.751 21.572C127.143 21.572 127.479 21.712 127.759 21.992C128.039 22.272 128.179 22.5987 128.179 22.972C128.179 23.364 128.039 23.7 127.759 23.98C127.479 24.26 127.143 24.4 126.751 24.4C126.359 24.4 126.023 24.26 125.743 23.98C125.463 23.7 125.323 23.364 125.323 22.972ZM125.295 25.8C125.295 25.4267 125.435 25.1 125.715 24.82C125.995 24.54 126.34 24.4 126.751 24.4C127.143 24.4 127.479 24.54 127.759 24.82C128.039 25.1 128.179 25.4267 128.179 25.8C128.179 26.192 128.039 26.528 127.759 26.808C127.479 27.088 127.143 27.228 126.751 27.228C126.34 27.228 125.995 27.088 125.715 26.808C125.435 26.528 125.295 26.192 125.295 25.8ZM122.551 28.628C122.551 28.2547 122.691 27.9373 122.971 27.676C123.251 27.4147 123.587 27.284 123.979 27.284C124.371 27.284 124.707 27.4147 124.987 27.676C125.267 27.9373 125.407 28.2547 125.407 28.628C125.407 29.02 125.267 29.3467 124.987 29.608C124.707 29.8693 124.371 30 123.979 30C123.587 30 123.251 29.8693 122.971 29.608C122.691 29.3467 122.551 29.02 122.551 28.628ZM125.407 28.628C125.407 28.2547 125.537 27.9373 125.799 27.676C126.079 27.4147 126.405 27.284 126.779 27.284C127.152 27.284 127.469 27.4147 127.731 27.676C128.011 27.9373 128.151 28.2547 128.151 28.628C128.151 29.02 128.011 29.3467 127.731 29.608C127.469 29.8693 127.152 30 126.779 30C126.405 30 126.079 29.8693 125.799 29.608C125.537 29.3467 125.407 29.02 125.407 28.628ZM128.151 28.656C128.151 28.2827 128.291 27.9653 128.571 27.704C128.851 27.4427 129.187 27.312 129.579 27.312C129.952 27.312 130.279 27.4427 130.559 27.704C130.839 27.9653 130.979 28.2827 130.979 28.656C130.979 29.0293 130.839 29.3467 130.559 29.608C130.279 29.8693 129.952 30 129.579 30C129.187 30 128.851 29.8693 128.571 29.608C128.291 29.3467 128.151 29.0293 128.151 28.656ZM135.134 11.856C135.134 11.4827 135.274 11.1653 135.554 10.904C135.834 10.624 136.17 10.484 136.562 10.484C136.954 10.484 137.29 10.624 137.57 10.904C137.85 11.1653 137.99 11.4827 137.99 11.856C137.99 12.2293 137.85 12.556 137.57 12.836C137.29 13.0973 136.954 13.228 136.562 13.228C136.17 13.228 135.834 13.0973 135.554 12.836C135.274 12.556 135.134 12.2293 135.134 11.856ZM137.99 11.856C137.99 11.4827 138.121 11.1653 138.382 10.904C138.662 10.624 138.998 10.484 139.39 10.484C139.782 10.484 140.109 10.624 140.37 10.904C140.65 11.1653 140.79 11.4827 140.79 11.856C140.79 12.2293 140.65 12.556 140.37 12.836C140.109 13.0973 139.782 13.228 139.39 13.228C138.998 13.228 138.662 13.0973 138.382 12.836C138.121 12.556 137.99 12.2293 137.99 11.856ZM140.79 11.856C140.79 11.4827 140.921 11.1653 141.182 10.904C141.462 10.624 141.789 10.484 142.162 10.484C142.536 10.484 142.853 10.624 143.114 10.904C143.394 11.1653 143.534 11.4827 143.534 11.856C143.534 12.248 143.394 12.584 143.114 12.864C142.853 13.1253 142.536 13.256 142.162 13.256C141.789 13.256 141.462 13.1253 141.182 12.864C140.921 12.584 140.79 12.248 140.79 11.856ZM143.534 11.856C143.534 11.4827 143.674 11.1653 143.954 10.904C144.234 10.624 144.57 10.484 144.962 10.484C145.336 10.484 145.662 10.624 145.942 10.904C146.222 11.1653 146.362 11.4827 146.362 11.856C146.362 12.248 146.222 12.584 145.942 12.864C145.662 13.1253 145.336 13.256 144.962 13.256C144.57 13.256 144.234 13.1253 143.954 12.864C143.674 12.584 143.534 12.248 143.534 11.856ZM135.134 14.6C135.134 14.2267 135.274 13.9093 135.554 13.648C135.834 13.3867 136.17 13.256 136.562 13.256C136.936 13.256 137.262 13.3867 137.542 13.648C137.822 13.9093 137.962 14.2267 137.962 14.6C137.962 14.9733 137.822 15.2907 137.542 15.552C137.262 15.8133 136.936 15.944 136.562 15.944C136.17 15.944 135.834 15.8133 135.554 15.552C135.274 15.2907 135.134 14.9733 135.134 14.6ZM135.134 17.344C135.134 16.9707 135.274 16.644 135.554 16.364C135.834 16.084 136.17 15.944 136.562 15.944C136.936 15.944 137.262 16.084 137.542 16.364C137.822 16.644 137.962 16.9707 137.962 17.344C137.962 17.736 137.822 18.072 137.542 18.352C137.262 18.632 136.936 18.772 136.562 18.772C136.17 18.772 135.834 18.632 135.554 18.352C135.274 18.072 135.134 17.736 135.134 17.344ZM135.134 20.144C135.134 19.7707 135.274 19.4533 135.554 19.192C135.834 18.912 136.17 18.772 136.562 18.772C136.936 18.772 137.262 18.912 137.542 19.192C137.822 19.4533 137.962 19.7707 137.962 20.144C137.962 20.536 137.822 20.872 137.542 21.152C137.262 21.4133 136.936 21.544 136.562 21.544C136.17 21.544 135.834 21.4133 135.554 21.152C135.274 20.872 135.134 20.536 135.134 20.144ZM137.962 20.2C137.962 19.8453 138.093 19.5373 138.354 19.276C138.634 19.0147 138.97 18.884 139.362 18.884C139.754 18.884 140.081 19.0147 140.342 19.276C140.622 19.5373 140.762 19.8453 140.762 20.2C140.762 20.5733 140.622 20.8907 140.342 21.152C140.081 21.4133 139.754 21.544 139.362 21.544C138.97 21.544 138.634 21.4133 138.354 21.152C138.093 20.8907 137.962 20.5733 137.962 20.2ZM140.762 20.228C140.762 19.8547 140.902 19.5373 141.182 19.276C141.462 19.0147 141.808 18.884 142.218 18.884C142.61 18.884 142.946 19.0147 143.226 19.276C143.506 19.5373 143.646 19.8547 143.646 20.228C143.646 20.62 143.506 20.9467 143.226 21.208C142.946 21.4693 142.61 21.6 142.218 21.6C141.808 21.6 141.462 21.4693 141.182 21.208C140.902 20.9467 140.762 20.62 140.762 20.228ZM135.134 23.056C135.134 22.6827 135.274 22.3653 135.554 22.104C135.834 21.824 136.17 21.684 136.562 21.684C136.936 21.684 137.262 21.824 137.542 22.104C137.822 22.3653 137.962 22.6827 137.962 23.056C137.962 23.4293 137.822 23.756 137.542 24.036C137.262 24.2973 136.936 24.428 136.562 24.428C136.17 24.428 135.834 24.2973 135.554 24.036C135.274 23.756 135.134 23.4293 135.134 23.056ZM135.134 25.828C135.134 25.436 135.274 25.1093 135.554 24.848C135.834 24.568 136.17 24.428 136.562 24.428C136.936 24.428 137.262 24.568 137.542 24.848C137.822 25.1093 137.962 25.436 137.962 25.828C137.962 26.22 137.822 26.556 137.542 26.836C137.262 27.0973 136.936 27.228 136.562 27.228C136.17 27.228 135.834 27.0973 135.554 26.836C135.274 26.556 135.134 26.22 135.134 25.828ZM135.134 28.6C135.134 28.2267 135.274 27.9093 135.554 27.648C135.834 27.368 136.18 27.228 136.59 27.228C136.982 27.228 137.318 27.368 137.598 27.648C137.878 27.9093 138.018 28.2267 138.018 28.6C138.018 28.992 137.878 29.328 137.598 29.608C137.318 29.8693 136.982 30 136.59 30C136.18 30 135.834 29.8693 135.554 29.608C135.274 29.328 135.134 28.992 135.134 28.6ZM168.696 11.828C168.696 11.4547 168.836 11.1373 169.116 10.876C169.396 10.6147 169.741 10.484 170.152 10.484C170.544 10.484 170.88 10.6147 171.16 10.876C171.44 11.1373 171.58 11.4547 171.58 11.828C171.58 12.22 171.44 12.5467 171.16 12.808C170.88 13.0693 170.544 13.2 170.152 13.2C169.741 13.2 169.396 13.0693 169.116 12.808C168.836 12.5467 168.696 12.22 168.696 11.828ZM168.696 14.628C168.696 14.236 168.836 13.9 169.116 13.62C169.396 13.34 169.741 13.2 170.152 13.2C170.544 13.2 170.88 13.34 171.16 13.62C171.44 13.9 171.58 14.236 171.58 14.628C171.58 15.02 171.44 15.356 171.16 15.636C170.88 15.916 170.544 16.056 170.152 16.056C169.741 16.056 169.396 15.916 169.116 15.636C168.836 15.356 168.696 15.02 168.696 14.628ZM168.696 17.428C168.696 17.0547 168.836 16.7373 169.116 16.476C169.396 16.196 169.741 16.056 170.152 16.056C170.544 16.056 170.88 16.196 171.16 16.476C171.44 16.7373 171.58 17.0547 171.58 17.428C171.58 17.8013 171.44 18.128 171.16 18.408C170.88 18.6693 170.544 18.8 170.152 18.8C169.741 18.8 169.396 18.6693 169.116 18.408C168.836 18.128 168.696 17.8013 168.696 17.428ZM168.696 20.2C168.696 19.8267 168.836 19.5 169.116 19.22C169.396 18.94 169.741 18.8 170.152 18.8C170.544 18.8 170.88 18.94 171.16 19.22C171.44 19.5 171.58 19.8267 171.58 20.2C171.58 20.592 171.44 20.928 171.16 21.208C170.88 21.488 170.544 21.628 170.152 21.628C169.741 21.628 169.396 21.488 169.116 21.208C168.836 20.928 168.696 20.592 168.696 20.2ZM168.696 23C168.696 22.6267 168.836 22.3093 169.116 22.048C169.396 21.768 169.741 21.628 170.152 21.628C170.544 21.628 170.88 21.768 171.16 22.048C171.44 22.3093 171.58 22.6267 171.58 23C171.58 23.392 171.44 23.728 171.16 24.008C170.88 24.2693 170.544 24.4 170.152 24.4C169.741 24.4 169.396 24.2693 169.116 24.008C168.836 23.728 168.696 23.392 168.696 23ZM168.696 25.828C168.696 25.436 168.836 25.1 169.116 24.82C169.396 24.54 169.741 24.4 170.152 24.4C170.544 24.4 170.88 24.54 171.16 24.82C171.44 25.1 171.58 25.436 171.58 25.828C171.58 26.22 171.44 26.556 171.16 26.836C170.88 27.116 170.544 27.256 170.152 27.256C169.741 27.256 169.396 27.116 169.116 26.836C168.836 26.556 168.696 26.22 168.696 25.828ZM171.412 28.656C171.412 28.3013 171.552 27.9933 171.832 27.732C172.112 27.4707 172.457 27.34 172.868 27.34C173.279 27.34 173.624 27.4707 173.904 27.732C174.184 27.9933 174.324 28.3013 174.324 28.656C174.324 29.0293 174.184 29.3467 173.904 29.608C173.624 29.8693 173.279 30 172.868 30C172.457 30 172.112 29.8693 171.832 29.608C171.552 29.3467 171.412 29.0293 171.412 28.656ZM174.324 28.656C174.324 28.2827 174.464 27.9653 174.744 27.704C175.024 27.4427 175.369 27.312 175.78 27.312C176.172 27.312 176.508 27.4427 176.788 27.704C177.068 27.9653 177.208 28.2827 177.208 28.656C177.208 29.0293 177.068 29.3467 176.788 29.608C176.508 29.8693 176.172 30 175.78 30C175.369 30 175.024 29.8693 174.744 29.608C174.464 29.3467 174.324 29.0293 174.324 28.656ZM177.208 25.884C177.208 25.5107 177.339 25.184 177.6 24.904C177.88 24.624 178.216 24.484 178.608 24.484C178.981 24.484 179.299 24.624 179.56 24.904C179.84 25.184 179.98 25.5107 179.98 25.884C179.98 26.276 179.84 26.612 179.56 26.892C179.299 27.172 178.981 27.312 178.608 27.312C178.216 27.312 177.88 27.172 177.6 26.892C177.339 26.612 177.208 26.276 177.208 25.884ZM177.068 23.084C177.068 22.692 177.208 22.3653 177.488 22.104C177.768 21.824 178.113 21.684 178.524 21.684C178.935 21.684 179.28 21.824 179.56 22.104C179.84 22.3653 179.98 22.692 179.98 23.084C179.98 23.476 179.84 23.812 179.56 24.092C179.28 24.3533 178.935 24.484 178.524 24.484C178.113 24.484 177.768 24.3533 177.488 24.092C177.208 23.812 177.068 23.476 177.068 23.084ZM177.068 20.256C177.068 19.864 177.208 19.528 177.488 19.248C177.768 18.968 178.113 18.828 178.524 18.828C178.935 18.828 179.28 18.968 179.56 19.248C179.84 19.528 179.98 19.864 179.98 20.256C179.98 20.648 179.84 20.984 179.56 21.264C179.28 21.544 178.935 21.684 178.524 21.684C178.113 21.684 177.768 21.544 177.488 21.264C177.208 20.984 177.068 20.648 177.068 20.256ZM177.012 17.456C177.012 17.0827 177.152 16.7653 177.432 16.504C177.731 16.2427 178.085 16.112 178.496 16.112C178.907 16.112 179.252 16.2427 179.532 16.504C179.831 16.7653 179.98 17.0827 179.98 17.456C179.98 17.848 179.831 18.1747 179.532 18.436C179.252 18.6973 178.907 18.828 178.496 18.828C178.085 18.828 177.731 18.6973 177.432 18.436C177.152 18.1747 177.012 17.848 177.012 17.456ZM177.012 14.684C177.012 14.3107 177.152 13.984 177.432 13.704C177.731 13.424 178.085 13.284 178.496 13.284C178.907 13.284 179.252 13.424 179.532 13.704C179.831 13.984 179.98 14.3107 179.98 14.684C179.98 15.076 179.831 15.412 179.532 15.692C179.252 15.972 178.907 16.112 178.496 16.112C178.085 16.112 177.731 15.972 177.432 15.692C177.152 15.412 177.012 15.076 177.012 14.684ZM177.04 11.884C177.04 11.492 177.18 11.1653 177.46 10.904C177.759 10.624 178.113 10.484 178.524 10.484C178.916 10.484 179.252 10.624 179.532 10.904C179.831 11.1653 179.98 11.492 179.98 11.884C179.98 12.276 179.831 12.612 179.532 12.892C179.252 13.1533 178.916 13.284 178.524 13.284C178.113 13.284 177.759 13.1533 177.46 12.892C177.18 12.612 177.04 12.276 177.04 11.884ZM184.096 28.656C184.096 28.2827 184.236 27.9653 184.516 27.704C184.796 27.4427 185.132 27.312 185.524 27.312C185.897 27.312 186.224 27.4427 186.504 27.704C186.784 27.9653 186.924 28.2827 186.924 28.656C186.924 29.0293 186.784 29.3467 186.504 29.608C186.224 29.8693 185.897 30 185.524 30C185.132 30 184.796 29.8693 184.516 29.608C184.236 29.3467 184.096 29.0293 184.096 28.656ZM186.924 28.656C186.924 28.2827 187.055 27.9653 187.316 27.704C187.596 27.4427 187.923 27.312 188.296 27.312C188.669 27.312 188.987 27.4427 189.248 27.704C189.528 27.9653 189.668 28.2827 189.668 28.656C189.668 29.0293 189.528 29.3467 189.248 29.608C188.987 29.8693 188.669 30 188.296 30C187.923 30 187.596 29.8693 187.316 29.608C187.055 29.3467 186.924 29.0293 186.924 28.656ZM189.668 28.628C189.668 28.2547 189.808 27.9373 190.088 27.676C190.368 27.4147 190.713 27.284 191.124 27.284C191.516 27.284 191.852 27.4147 192.132 27.676C192.412 27.9373 192.552 28.2547 192.552 28.628C192.552 29.02 192.412 29.3467 192.132 29.608C191.852 29.8693 191.516 30 191.124 30C190.713 30 190.368 29.8693 190.088 29.608C189.808 29.3467 189.668 29.02 189.668 28.628ZM192.552 25.856C192.552 25.464 192.683 25.128 192.944 24.848C193.224 24.568 193.56 24.428 193.952 24.428C194.325 24.428 194.643 24.568 194.904 24.848C195.184 25.128 195.324 25.464 195.324 25.856C195.324 26.248 195.184 26.584 194.904 26.864C194.643 27.144 194.325 27.284 193.952 27.284C193.56 27.284 193.224 27.144 192.944 26.864C192.683 26.584 192.552 26.248 192.552 25.856ZM192.468 23.028C192.468 22.6547 192.608 22.3373 192.888 22.076C193.168 21.796 193.504 21.656 193.896 21.656C194.288 21.656 194.624 21.796 194.904 22.076C195.184 22.3373 195.324 22.6547 195.324 23.028C195.324 23.42 195.184 23.756 194.904 24.036C194.624 24.2973 194.288 24.428 193.896 24.428C193.504 24.428 193.168 24.2973 192.888 24.036C192.608 23.756 192.468 23.42 192.468 23.028ZM189.724 20.256C189.724 19.864 189.855 19.5373 190.116 19.276C190.396 18.996 190.723 18.856 191.096 18.856C191.469 18.856 191.787 18.996 192.048 19.276C192.328 19.5373 192.468 19.864 192.468 20.256C192.468 20.648 192.328 20.984 192.048 21.264C191.787 21.5253 191.469 21.656 191.096 21.656C190.723 21.656 190.396 21.5253 190.116 21.264C189.855 20.984 189.724 20.648 189.724 20.256ZM186.896 20.228C186.896 19.8547 187.036 19.5373 187.316 19.276C187.596 18.996 187.932 18.856 188.324 18.856C188.697 18.856 189.024 18.996 189.304 19.276C189.584 19.5373 189.724 19.8547 189.724 20.228C189.724 20.62 189.584 20.956 189.304 21.236C189.024 21.4973 188.697 21.628 188.324 21.628C187.932 21.628 187.596 21.4973 187.316 21.236C187.036 20.956 186.896 20.62 186.896 20.228ZM184.096 17.456C184.096 17.064 184.236 16.728 184.516 16.448C184.796 16.168 185.132 16.028 185.524 16.028C185.897 16.028 186.224 16.168 186.504 16.448C186.784 16.728 186.924 17.064 186.924 17.456C186.924 17.848 186.784 18.184 186.504 18.464C186.224 18.744 185.897 18.884 185.524 18.884C185.132 18.884 184.796 18.744 184.516 18.464C184.236 18.184 184.096 17.848 184.096 17.456ZM184.096 14.656C184.096 14.2827 184.236 13.9653 184.516 13.704C184.796 13.4427 185.132 13.312 185.524 13.312C185.897 13.312 186.224 13.4427 186.504 13.704C186.784 13.9653 186.924 14.2827 186.924 14.656C186.924 15.048 186.784 15.3747 186.504 15.636C186.224 15.8973 185.897 16.028 185.524 16.028C185.132 16.028 184.796 15.8973 184.516 15.636C184.236 15.3747 184.096 15.048 184.096 14.656ZM186.924 11.884C186.924 11.5107 187.064 11.184 187.344 10.904C187.624 10.624 187.96 10.484 188.352 10.484C188.725 10.484 189.052 10.624 189.332 10.904C189.612 11.184 189.752 11.5107 189.752 11.884C189.752 12.276 189.612 12.612 189.332 12.892C189.052 13.172 188.725 13.312 188.352 13.312C187.96 13.312 187.624 13.172 187.344 12.892C187.064 12.612 186.924 12.276 186.924 11.884ZM189.752 11.856C189.752 11.4827 189.883 11.1653 190.144 10.904C190.424 10.624 190.751 10.484 191.124 10.484C191.497 10.484 191.815 10.624 192.076 10.904C192.356 11.1653 192.496 11.4827 192.496 11.856C192.496 12.2293 192.356 12.556 192.076 12.836C191.815 13.0973 191.497 13.228 191.124 13.228C190.751 13.228 190.424 13.0973 190.144 12.836C189.883 12.556 189.752 12.2293 189.752 11.856ZM192.496 11.856C192.496 11.4827 192.636 11.1653 192.916 10.904C193.215 10.624 193.569 10.484 193.98 10.484C194.372 10.484 194.708 10.624 194.988 10.904C195.287 11.1653 195.436 11.4827 195.436 11.856C195.436 12.2293 195.287 12.556 194.988 12.836C194.708 13.0973 194.372 13.228 193.98 13.228C193.569 13.228 193.215 13.0973 192.916 12.836C192.636 12.556 192.496 12.2293 192.496 11.856ZM199.496 11.856C199.496 11.4827 199.636 11.1653 199.916 10.904C200.196 10.624 200.532 10.484 200.924 10.484C201.297 10.484 201.624 10.624 201.904 10.904C202.184 11.1653 202.324 11.4827 202.324 11.856C202.324 12.2293 202.184 12.556 201.904 12.836C201.624 13.0973 201.297 13.228 200.924 13.228C200.532 13.228 200.196 13.0973 199.916 12.836C199.636 12.556 199.496 12.2293 199.496 11.856ZM202.324 11.856C202.324 11.4827 202.464 11.1653 202.744 10.904C203.024 10.624 203.36 10.484 203.752 10.484C204.125 10.484 204.452 10.624 204.732 10.904C205.012 11.1653 205.152 11.4827 205.152 11.856C205.152 12.2293 205.012 12.556 204.732 12.836C204.452 13.0973 204.125 13.228 203.752 13.228C203.36 13.228 203.024 13.0973 202.744 12.836C202.464 12.556 202.324 12.2293 202.324 11.856ZM205.152 11.856C205.152 11.4827 205.283 11.1653 205.544 10.904C205.824 10.624 206.16 10.484 206.552 10.484C206.925 10.484 207.243 10.624 207.504 10.904C207.784 11.1653 207.924 11.4827 207.924 11.856C207.924 12.2293 207.784 12.556 207.504 12.836C207.243 13.0973 206.925 13.228 206.552 13.228C206.16 13.228 205.824 13.0973 205.544 12.836C205.283 12.556 205.152 12.2293 205.152 11.856ZM207.924 11.856C207.924 11.4827 208.064 11.1653 208.344 10.904C208.624 10.624 208.96 10.484 209.352 10.484C209.744 10.484 210.08 10.624 210.36 10.904C210.64 11.1653 210.78 11.4827 210.78 11.856C210.78 12.2293 210.64 12.556 210.36 12.836C210.08 13.0973 209.744 13.228 209.352 13.228C208.96 13.228 208.624 13.0973 208.344 12.836C208.064 12.556 207.924 12.2293 207.924 11.856ZM199.496 14.6C199.496 14.2267 199.636 13.9093 199.916 13.648C200.196 13.368 200.532 13.228 200.924 13.228C201.316 13.228 201.652 13.368 201.932 13.648C202.212 13.9093 202.352 14.2267 202.352 14.6C202.352 14.9733 202.212 15.3 201.932 15.58C201.652 15.8413 201.316 15.972 200.924 15.972C200.532 15.972 200.196 15.8413 199.916 15.58C199.636 15.3 199.496 14.9733 199.496 14.6ZM199.496 17.344C199.496 16.9707 199.636 16.6533 199.916 16.392C200.196 16.112 200.532 15.972 200.924 15.972C201.316 15.972 201.652 16.112 201.932 16.392C202.212 16.6533 202.352 16.9707 202.352 17.344C202.352 17.736 202.212 18.072 201.932 18.352C201.652 18.6133 201.316 18.744 200.924 18.744C200.532 18.744 200.196 18.6133 199.916 18.352C199.636 18.072 199.496 17.736 199.496 17.344ZM199.496 20.116C199.496 19.7427 199.627 19.4253 199.888 19.164C200.168 18.884 200.504 18.744 200.896 18.744C201.288 18.744 201.615 18.884 201.876 19.164C202.156 19.4253 202.296 19.7427 202.296 20.116C202.296 20.508 202.156 20.844 201.876 21.124C201.615 21.3853 201.288 21.516 200.896 21.516C200.504 21.516 200.168 21.3853 199.888 21.124C199.627 20.844 199.496 20.508 199.496 20.116ZM199.496 22.944C199.496 22.552 199.627 22.216 199.888 21.936C200.168 21.656 200.504 21.516 200.896 21.516C201.288 21.516 201.615 21.656 201.876 21.936C202.156 22.216 202.296 22.552 202.296 22.944C202.296 23.3547 202.156 23.7 201.876 23.98C201.615 24.26 201.288 24.4 200.896 24.4C200.504 24.4 200.168 24.26 199.888 23.98C199.627 23.7 199.496 23.3547 199.496 22.944ZM199.496 25.772C199.496 25.3987 199.627 25.0813 199.888 24.82C200.168 24.54 200.504 24.4 200.896 24.4C201.288 24.4 201.615 24.54 201.876 24.82C202.156 25.0813 202.296 25.3987 202.296 25.772C202.296 26.164 202.156 26.5 201.876 26.78C201.615 27.0413 201.288 27.172 200.896 27.172C200.504 27.172 200.168 27.0413 199.888 26.78C199.627 26.5 199.496 26.164 199.496 25.772ZM199.496 28.572C199.496 28.1987 199.627 27.872 199.888 27.592C200.168 27.312 200.504 27.172 200.896 27.172C201.288 27.172 201.615 27.312 201.876 27.592C202.156 27.872 202.296 28.1987 202.296 28.572C202.296 28.964 202.156 29.3 201.876 29.58C201.615 29.86 201.288 30 200.896 30C200.504 30 200.168 29.86 199.888 29.58C199.627 29.3 199.496 28.964 199.496 28.572ZM202.296 28.628C202.296 28.2547 202.436 27.9373 202.716 27.676C202.996 27.396 203.341 27.256 203.752 27.256C204.144 27.256 204.48 27.396 204.76 27.676C205.04 27.9373 205.18 28.2547 205.18 28.628C205.18 29.0013 205.04 29.328 204.76 29.608C204.48 29.8693 204.144 30 203.752 30C203.341 30 202.996 29.8693 202.716 29.608C202.436 29.328 202.296 29.0013 202.296 28.628ZM205.18 28.628C205.18 28.2547 205.311 27.9373 205.572 27.676C205.833 27.396 206.16 27.256 206.552 27.256C206.925 27.256 207.243 27.396 207.504 27.676C207.765 27.9373 207.896 28.2547 207.896 28.628C207.896 29.0013 207.765 29.328 207.504 29.608C207.243 29.8693 206.925 30 206.552 30C206.16 30 205.833 29.8693 205.572 29.608C205.311 29.328 205.18 29.0013 205.18 28.628ZM207.896 28.6C207.896 28.2267 208.036 27.9093 208.316 27.648C208.596 27.368 208.941 27.228 209.352 27.228C209.744 27.228 210.08 27.368 210.36 27.648C210.64 27.9093 210.78 28.2267 210.78 28.6C210.78 28.992 210.64 29.328 210.36 29.608C210.08 29.8693 209.744 30 209.352 30C208.941 30 208.596 29.8693 208.316 29.608C208.036 29.328 207.896 28.992 207.896 28.6ZM202.268 20.2C202.268 19.7893 202.408 19.444 202.688 19.164C202.968 18.884 203.313 18.744 203.724 18.744C204.135 18.744 204.48 18.884 204.76 19.164C205.04 19.444 205.18 19.7893 205.18 20.2C205.18 20.6107 205.04 20.956 204.76 21.236C204.48 21.516 204.135 21.656 203.724 21.656C203.313 21.656 202.968 21.516 202.688 21.236C202.408 20.956 202.268 20.6107 202.268 20.2ZM205.18 20.228C205.18 19.8547 205.311 19.528 205.572 19.248C205.852 18.968 206.188 18.828 206.58 18.828C206.953 18.828 207.271 18.968 207.532 19.248C207.812 19.528 207.952 19.8547 207.952 20.228C207.952 20.62 207.812 20.956 207.532 21.236C207.271 21.516 206.953 21.656 206.58 21.656C206.188 21.656 205.852 21.516 205.572 21.236C205.311 20.956 205.18 20.62 205.18 20.228ZM214.896 11.828C214.896 11.4547 215.036 11.1373 215.316 10.876C215.596 10.6147 215.932 10.484 216.324 10.484C216.716 10.484 217.052 10.6147 217.332 10.876C217.612 11.1373 217.752 11.4547 217.752 11.828C217.752 12.22 217.612 12.5467 217.332 12.808C217.052 13.0693 216.716 13.2 216.324 13.2C215.932 13.2 215.596 13.0693 215.316 12.808C215.036 12.5467 214.896 12.22 214.896 11.828ZM217.752 11.828C217.752 11.4547 217.883 11.1373 218.144 10.876C218.424 10.6147 218.76 10.484 219.152 10.484C219.525 10.484 219.843 10.6147 220.104 10.876C220.384 11.1373 220.524 11.4547 220.524 11.828C220.524 12.22 220.384 12.5467 220.104 12.808C219.843 13.0693 219.525 13.2 219.152 13.2C218.76 13.2 218.424 13.0693 218.144 12.808C217.883 12.5467 217.752 12.22 217.752 11.828ZM220.524 11.856C220.524 11.4827 220.664 11.1653 220.944 10.904C221.224 10.624 221.569 10.484 221.98 10.484C222.372 10.484 222.708 10.624 222.988 10.904C223.268 11.1653 223.408 11.4827 223.408 11.856C223.408 12.2293 223.268 12.556 222.988 12.836C222.708 13.0973 222.372 13.228 221.98 13.228C221.569 13.228 221.224 13.0973 220.944 12.836C220.664 12.556 220.524 12.2293 220.524 11.856ZM223.408 14.6C223.408 14.2267 223.539 13.9093 223.8 13.648C224.08 13.368 224.416 13.228 224.808 13.228C225.181 13.228 225.499 13.368 225.76 13.648C226.04 13.9093 226.18 14.2267 226.18 14.6C226.18 14.992 226.04 15.328 225.76 15.608C225.499 15.8693 225.181 16 224.808 16C224.416 16 224.08 15.8693 223.8 15.608C223.539 15.328 223.408 14.992 223.408 14.6ZM223.296 17.4C223.296 17.008 223.436 16.6813 223.716 16.42C223.996 16.14 224.341 16 224.752 16C225.144 16 225.48 16.14 225.76 16.42C226.04 16.6813 226.18 17.008 226.18 17.4C226.18 17.792 226.04 18.128 225.76 18.408C225.48 18.6693 225.144 18.8 224.752 18.8C224.341 18.8 223.996 18.6693 223.716 18.408C223.436 18.128 223.296 17.792 223.296 17.4ZM223.296 20.172C223.296 19.7987 223.436 19.4813 223.716 19.22C223.996 18.94 224.332 18.8 224.724 18.8C225.097 18.8 225.424 18.94 225.704 19.22C225.984 19.4813 226.124 19.7987 226.124 20.172C226.124 20.564 225.984 20.9 225.704 21.18C225.424 21.4413 225.097 21.572 224.724 21.572C224.332 21.572 223.996 21.4413 223.716 21.18C223.436 20.9 223.296 20.564 223.296 20.172ZM223.24 22.972C223.24 22.58 223.38 22.2533 223.66 21.992C223.94 21.712 224.285 21.572 224.696 21.572C225.088 21.572 225.424 21.712 225.704 21.992C225.984 22.2533 226.124 22.58 226.124 22.972C226.124 23.364 225.984 23.7 225.704 23.98C225.424 24.2413 225.088 24.372 224.696 24.372C224.285 24.372 223.94 24.2413 223.66 23.98C223.38 23.7 223.24 23.364 223.24 22.972ZM223.24 25.8C223.24 25.408 223.38 25.072 223.66 24.792C223.94 24.512 224.285 24.372 224.696 24.372C225.088 24.372 225.424 24.512 225.704 24.792C225.984 25.072 226.124 25.408 226.124 25.8C226.124 26.192 225.984 26.528 225.704 26.808C225.424 27.088 225.088 27.228 224.696 27.228C224.285 27.228 223.94 27.088 223.66 26.808C223.38 26.528 223.24 26.192 223.24 25.8ZM214.896 28.628C214.896 28.2547 215.036 27.9373 215.316 27.676C215.596 27.4147 215.932 27.284 216.324 27.284C216.716 27.284 217.052 27.4147 217.332 27.676C217.612 27.9373 217.752 28.2547 217.752 28.628C217.752 29.02 217.612 29.3467 217.332 29.608C217.052 29.8693 216.716 30 216.324 30C215.932 30 215.596 29.8693 215.316 29.608C215.036 29.3467 214.896 29.02 214.896 28.628ZM217.752 28.628C217.752 28.2547 217.883 27.9373 218.144 27.676C218.424 27.4147 218.751 27.284 219.124 27.284C219.497 27.284 219.815 27.4147 220.076 27.676C220.356 27.9373 220.496 28.2547 220.496 28.628C220.496 29.02 220.356 29.3467 220.076 29.608C219.815 29.8693 219.497 30 219.124 30C218.751 30 218.424 29.8693 218.144 29.608C217.883 29.3467 217.752 29.02 217.752 28.628ZM220.496 28.628C220.496 28.2547 220.636 27.9373 220.916 27.676C221.196 27.4147 221.532 27.284 221.924 27.284C222.297 27.284 222.624 27.4147 222.904 27.676C223.184 27.9373 223.324 28.2547 223.324 28.628C223.324 29.02 223.184 29.3467 222.904 29.608C222.624 29.8693 222.297 30 221.924 30C221.532 30 221.196 29.8693 220.916 29.608C220.636 29.3467 220.496 29.02 220.496 28.628ZM214.896 25.772C214.896 25.3987 215.036 25.0813 215.316 24.82C215.596 24.5587 215.932 24.428 216.324 24.428C216.716 24.428 217.052 24.5587 217.332 24.82C217.612 25.0813 217.752 25.3987 217.752 25.772C217.752 26.164 217.612 26.4907 217.332 26.752C217.052 27.0133 216.716 27.144 216.324 27.144C215.932 27.144 215.596 27.0133 215.316 26.752C215.036 26.4907 214.896 26.164 214.896 25.772ZM214.896 23.028C214.896 22.6547 215.036 22.3373 215.316 22.076C215.596 21.796 215.932 21.656 216.324 21.656C216.716 21.656 217.052 21.796 217.332 22.076C217.612 22.3373 217.752 22.6547 217.752 23.028C217.752 23.42 217.612 23.756 217.332 24.036C217.052 24.2973 216.716 24.428 216.324 24.428C215.932 24.428 215.596 24.2973 215.316 24.036C215.036 23.756 214.896 23.42 214.896 23.028ZM214.896 20.256C214.896 19.864 215.036 19.5373 215.316 19.276C215.596 18.996 215.941 18.856 216.352 18.856C216.744 18.856 217.08 18.996 217.36 19.276C217.64 19.5373 217.78 19.864 217.78 20.256C217.78 20.648 217.64 20.984 217.36 21.264C217.08 21.5253 216.744 21.656 216.352 21.656C215.941 21.656 215.596 21.5253 215.316 21.264C215.036 20.984 214.896 20.648 214.896 20.256ZM214.896 17.456C214.896 17.0827 215.036 16.7653 215.316 16.504C215.596 16.224 215.941 16.084 216.352 16.084C216.744 16.084 217.08 16.224 217.36 16.504C217.64 16.7653 217.78 17.0827 217.78 17.456C217.78 17.848 217.64 18.184 217.36 18.464C217.08 18.7253 216.744 18.856 216.352 18.856C215.941 18.856 215.596 18.7253 215.316 18.464C215.036 18.184 214.896 17.848 214.896 17.456ZM214.896 14.684C214.896 14.3107 215.036 13.9933 215.316 13.732C215.596 13.452 215.932 13.312 216.324 13.312C216.697 13.312 217.024 13.452 217.304 13.732C217.584 13.9933 217.724 14.3107 217.724 14.684C217.724 15.076 217.584 15.412 217.304 15.692C217.024 15.9533 216.697 16.084 216.324 16.084C215.932 16.084 215.596 15.9533 215.316 15.692C215.036 15.412 214.896 15.076 214.896 14.684ZM248.458 28.628C248.458 28.2547 248.598 27.9373 248.878 27.676C249.158 27.4147 249.494 27.284 249.886 27.284C250.278 27.284 250.614 27.4147 250.894 27.676C251.174 27.9373 251.314 28.2547 251.314 28.628C251.314 29.02 251.174 29.3467 250.894 29.608C250.614 29.8693 250.278 30 249.886 30C249.494 30 249.158 29.8693 248.878 29.608C248.598 29.3467 248.458 29.02 248.458 28.628ZM251.314 28.628C251.314 28.2547 251.444 27.9373 251.706 27.676C251.986 27.4147 252.322 27.284 252.714 27.284C253.087 27.284 253.404 27.4147 253.666 27.676C253.946 27.9373 254.086 28.2547 254.086 28.628C254.086 29.02 253.946 29.3467 253.666 29.608C253.404 29.8693 253.087 30 252.714 30C252.322 30 251.986 29.8693 251.706 29.608C251.444 29.3467 251.314 29.02 251.314 28.628ZM254.086 28.628C254.086 28.2547 254.216 27.9373 254.478 27.676C254.758 27.396 255.094 27.256 255.486 27.256C255.878 27.256 256.204 27.396 256.466 27.676C256.746 27.9373 256.886 28.2547 256.886 28.628C256.886 29.0013 256.746 29.328 256.466 29.608C256.204 29.8693 255.878 30 255.486 30C255.094 30 254.758 29.8693 254.478 29.608C254.216 29.328 254.086 29.0013 254.086 28.628ZM256.914 25.856C256.914 25.4827 257.054 25.1653 257.334 24.904C257.614 24.624 257.95 24.484 258.342 24.484C258.734 24.484 259.07 24.624 259.35 24.904C259.63 25.1653 259.77 25.4827 259.77 25.856C259.77 26.248 259.63 26.584 259.35 26.864C259.07 27.1253 258.734 27.256 258.342 27.256C257.95 27.256 257.614 27.1253 257.334 26.864C257.054 26.584 256.914 26.248 256.914 25.856ZM256.774 23.056C256.774 22.664 256.914 22.328 257.194 22.048C257.492 21.768 257.856 21.628 258.286 21.628C258.696 21.628 259.042 21.768 259.322 22.048C259.62 22.328 259.77 22.664 259.77 23.056C259.77 23.448 259.62 23.784 259.322 24.064C259.042 24.344 258.696 24.484 258.286 24.484C257.856 24.484 257.492 24.344 257.194 24.064C256.914 23.784 256.774 23.448 256.774 23.056ZM254.058 20.256C254.058 19.8827 254.188 19.5653 254.45 19.304C254.711 19.024 255.038 18.884 255.43 18.884C255.803 18.884 256.12 19.024 256.382 19.304C256.643 19.5653 256.774 19.8827 256.774 20.256C256.774 20.6293 256.643 20.956 256.382 21.236C256.12 21.4973 255.803 21.628 255.43 21.628C255.038 21.628 254.711 21.4973 254.45 21.236C254.188 20.956 254.058 20.6293 254.058 20.256ZM251.286 20.256C251.286 19.8827 251.416 19.5653 251.678 19.304C251.958 19.024 252.294 18.884 252.686 18.884C253.059 18.884 253.376 19.024 253.638 19.304C253.918 19.5653 254.058 19.8827 254.058 20.256C254.058 20.648 253.918 20.984 253.638 21.264C253.376 21.5253 253.059 21.656 252.686 21.656C252.294 21.656 251.958 21.5253 251.678 21.264C251.416 20.984 251.286 20.648 251.286 20.256ZM248.458 20.256C248.458 19.8827 248.598 19.5653 248.878 19.304C249.158 19.024 249.494 18.884 249.886 18.884C250.259 18.884 250.586 19.024 250.866 19.304C251.146 19.5653 251.286 19.8827 251.286 20.256C251.286 20.648 251.146 20.984 250.866 21.264C250.586 21.5253 250.259 21.656 249.886 21.656C249.494 21.656 249.158 21.5253 248.878 21.264C248.598 20.984 248.458 20.648 248.458 20.256ZM248.458 17.484C248.458 17.092 248.598 16.7653 248.878 16.504C249.158 16.224 249.503 16.084 249.914 16.084C250.324 16.084 250.67 16.224 250.95 16.504C251.23 16.7653 251.37 17.092 251.37 17.484C251.37 17.876 251.23 18.212 250.95 18.492C250.67 18.7533 250.324 18.884 249.914 18.884C249.503 18.884 249.158 18.7533 248.878 18.492C248.598 18.212 248.458 17.876 248.458 17.484ZM248.458 14.684C248.458 14.292 248.598 13.9653 248.878 13.704C249.158 13.424 249.503 13.284 249.914 13.284C250.324 13.284 250.67 13.424 250.95 13.704C251.23 13.9653 251.37 14.292 251.37 14.684C251.37 15.076 251.23 15.412 250.95 15.692C250.67 15.9533 250.324 16.084 249.914 16.084C249.503 16.084 249.158 15.9533 248.878 15.692C248.598 15.412 248.458 15.076 248.458 14.684ZM248.458 11.884C248.458 11.492 248.598 11.1653 248.878 10.904C249.158 10.624 249.494 10.484 249.886 10.484C250.259 10.484 250.586 10.624 250.866 10.904C251.146 11.1653 251.286 11.492 251.286 11.884C251.286 12.276 251.146 12.612 250.866 12.892C250.586 13.1533 250.259 13.284 249.886 13.284C249.494 13.284 249.158 13.1533 248.878 12.892C248.598 12.612 248.458 12.276 248.458 11.884ZM251.286 11.8C251.286 11.4453 251.426 11.1373 251.706 10.876C251.986 10.6147 252.322 10.484 252.714 10.484C253.087 10.484 253.414 10.6147 253.694 10.876C253.974 11.1373 254.114 11.4453 254.114 11.8C254.114 12.1547 253.974 12.4627 253.694 12.724C253.414 12.9853 253.087 13.116 252.714 13.116C252.322 13.116 251.986 12.9853 251.706 12.724C251.426 12.4627 251.286 12.1547 251.286 11.8ZM254.114 11.8C254.114 11.4453 254.244 11.1373 254.506 10.876C254.786 10.6147 255.122 10.484 255.514 10.484C255.906 10.484 256.232 10.6147 256.494 10.876C256.774 11.1373 256.914 11.4453 256.914 11.8C256.914 12.1547 256.774 12.4627 256.494 12.724C256.232 12.9853 255.906 13.116 255.514 13.116C255.122 13.116 254.786 12.9853 254.506 12.724C254.244 12.4627 254.114 12.1547 254.114 11.8ZM256.83 14.628C256.83 14.2547 256.96 13.9373 257.222 13.676C257.483 13.4147 257.8 13.284 258.174 13.284C258.547 13.284 258.864 13.4147 259.126 13.676C259.387 13.9373 259.518 14.2547 259.518 14.628C259.518 15.0013 259.387 15.3187 259.126 15.58C258.864 15.8413 258.547 15.972 258.174 15.972C257.8 15.972 257.483 15.8413 257.222 15.58C256.96 15.3187 256.83 15.0013 256.83 14.628ZM256.942 17.456C256.942 17.064 257.072 16.728 257.334 16.448C257.614 16.168 257.95 16.028 258.342 16.028C258.715 16.028 259.032 16.168 259.294 16.448C259.574 16.728 259.714 17.064 259.714 17.456C259.714 17.8667 259.574 18.212 259.294 18.492C259.032 18.772 258.715 18.912 258.342 18.912C257.95 18.912 257.614 18.772 257.334 18.492C257.072 18.212 256.942 17.8667 256.942 17.456ZM248.458 23.084C248.458 22.7107 248.598 22.3933 248.878 22.132C249.158 21.8707 249.503 21.74 249.914 21.74C250.306 21.74 250.642 21.8707 250.922 22.132C251.202 22.3933 251.342 22.7107 251.342 23.084C251.342 23.4573 251.202 23.7747 250.922 24.036C250.642 24.2973 250.306 24.428 249.914 24.428C249.503 24.428 249.158 24.2973 248.878 24.036C248.598 23.7747 248.458 23.4573 248.458 23.084ZM248.458 25.828C248.458 25.436 248.598 25.1093 248.878 24.848C249.158 24.568 249.503 24.428 249.914 24.428C250.306 24.428 250.642 24.568 250.922 24.848C251.202 25.1093 251.342 25.436 251.342 25.828C251.342 26.22 251.202 26.556 250.922 26.836C250.642 27.0973 250.306 27.228 249.914 27.228C249.503 27.228 249.158 27.0973 248.878 26.836C248.598 26.556 248.458 26.22 248.458 25.828ZM263.858 11.828C263.858 11.4547 263.998 11.1373 264.278 10.876C264.558 10.6147 264.894 10.484 265.286 10.484C265.678 10.484 266.014 10.6147 266.294 10.876C266.574 11.1373 266.714 11.4547 266.714 11.828C266.714 12.2013 266.574 12.5187 266.294 12.78C266.014 13.0413 265.678 13.172 265.286 13.172C264.894 13.172 264.558 13.0413 264.278 12.78C263.998 12.5187 263.858 12.2013 263.858 11.828ZM263.858 14.572C263.858 14.1987 263.998 13.872 264.278 13.592C264.558 13.312 264.894 13.172 265.286 13.172C265.678 13.172 266.014 13.312 266.294 13.592C266.574 13.872 266.714 14.1987 266.714 14.572C266.714 14.964 266.574 15.3 266.294 15.58C266.014 15.86 265.678 16 265.286 16C264.894 16 264.558 15.86 264.278 15.58C263.998 15.3 263.858 14.964 263.858 14.572ZM263.858 28.628C263.858 28.2547 263.998 27.9373 264.278 27.676C264.558 27.4147 264.894 27.284 265.286 27.284C265.678 27.284 266.014 27.4147 266.294 27.676C266.574 27.9373 266.714 28.2547 266.714 28.628C266.714 29.02 266.574 29.3467 266.294 29.608C266.014 29.8693 265.678 30 265.286 30C264.894 30 264.558 29.8693 264.278 29.608C263.998 29.3467 263.858 29.02 263.858 28.628ZM263.858 25.884C263.858 25.492 263.998 25.1653 264.278 24.904C264.558 24.624 264.894 24.484 265.286 24.484C265.678 24.484 266.014 24.624 266.294 24.904C266.574 25.1653 266.714 25.492 266.714 25.884C266.714 26.276 266.574 26.612 266.294 26.892C266.014 27.1533 265.678 27.284 265.286 27.284C264.894 27.284 264.558 27.1533 264.278 26.892C263.998 26.612 263.858 26.276 263.858 25.884ZM266.63 23.112C266.63 22.7013 266.77 22.356 267.05 22.076C267.33 21.796 267.666 21.656 268.058 21.656C268.45 21.656 268.786 21.796 269.066 22.076C269.346 22.356 269.486 22.7013 269.486 23.112C269.486 23.5227 269.346 23.868 269.066 24.148C268.786 24.428 268.45 24.568 268.058 24.568C267.666 24.568 267.33 24.428 267.05 24.148C266.77 23.868 266.63 23.5227 266.63 23.112ZM269.486 20.256C269.486 19.864 269.616 19.5373 269.878 19.276C270.158 18.996 270.494 18.856 270.886 18.856C271.278 18.856 271.604 18.996 271.866 19.276C272.146 19.5373 272.286 19.864 272.286 20.256C272.286 20.648 272.146 20.984 271.866 21.264C271.604 21.5253 271.278 21.656 270.886 21.656C270.494 21.656 270.158 21.5253 269.878 21.264C269.616 20.984 269.486 20.648 269.486 20.256ZM272.286 17.456C272.286 17.064 272.416 16.7373 272.678 16.476C272.958 16.196 273.294 16.056 273.686 16.056C274.078 16.056 274.404 16.196 274.666 16.476C274.946 16.7373 275.086 17.064 275.086 17.456C275.086 17.848 274.946 18.184 274.666 18.464C274.404 18.7253 274.078 18.856 273.686 18.856C273.294 18.856 272.958 18.7253 272.678 18.464C272.416 18.184 272.286 17.848 272.286 17.456ZM275.086 14.656C275.086 14.264 275.226 13.9373 275.506 13.676C275.786 13.396 276.131 13.256 276.542 13.256C276.934 13.256 277.27 13.396 277.55 13.676C277.83 13.9373 277.97 14.264 277.97 14.656C277.97 15.048 277.83 15.384 277.55 15.664C277.27 15.9253 276.934 16.056 276.542 16.056C276.131 16.056 275.786 15.9253 275.506 15.664C275.226 15.384 275.086 15.048 275.086 14.656ZM275.086 11.856C275.086 11.4827 275.226 11.1653 275.506 10.904C275.786 10.624 276.131 10.484 276.542 10.484C276.934 10.484 277.27 10.624 277.55 10.904C277.83 11.1653 277.97 11.4827 277.97 11.856C277.97 12.248 277.83 12.584 277.55 12.864C277.27 13.1253 276.934 13.256 276.542 13.256C276.131 13.256 275.786 13.1253 275.506 12.864C275.226 12.584 275.086 12.248 275.086 11.856ZM266.602 17.484C266.602 17.1293 266.742 16.8213 267.022 16.56C267.32 16.2987 267.675 16.168 268.086 16.168C268.478 16.168 268.814 16.2987 269.094 16.56C269.392 16.8213 269.542 17.1293 269.542 17.484C269.542 17.8387 269.392 18.1467 269.094 18.408C268.814 18.6693 268.478 18.8 268.086 18.8C267.675 18.8 267.32 18.6693 267.022 18.408C266.742 18.1467 266.602 17.8387 266.602 17.484ZM282.047 20.2C282.047 19.8453 282.187 19.5373 282.467 19.276C282.747 19.0147 283.083 18.884 283.475 18.884C283.867 18.884 284.203 19.0147 284.483 19.276C284.763 19.5373 284.903 19.8453 284.903 20.2C284.903 20.5733 284.763 20.8907 284.483 21.152C284.203 21.4133 283.867 21.544 283.475 21.544C283.083 21.544 282.747 21.4133 282.467 21.152C282.187 20.8907 282.047 20.5733 282.047 20.2ZM282.047 28.656C282.047 28.2827 282.187 27.9653 282.467 27.704C282.747 27.4427 283.092 27.312 283.503 27.312C283.895 27.312 284.231 27.4427 284.511 27.704C284.791 27.9653 284.931 28.2827 284.931 28.656C284.931 29.0293 284.791 29.3467 284.511 29.608C284.231 29.8693 283.895 30 283.503 30C283.092 30 282.747 29.8693 282.467 29.608C282.187 29.3467 282.047 29.0293 282.047 28.656Z" fill="black"/>
<path d="M29 22L11 34L11 10L29 22Z" fill="#517B83"/>
<rect x="0.5" y="0.5" width="309" height="47" rx="7.5" stroke="black" shape-rendering="crispEdges"/>
</g>
<defs>
<filter id="filter0_d_183_2224" x="0" y="0" width="318" height="56" filterUnits="userSpaceOnUse" color-interpolation-filters="sRGB">
<feFlood flood-opacity="0" result="BackgroundImageFix"/>
<feColorMatrix in="SourceAlpha" type="matrix" values="0 0 0 0 0 0 0 0 0 0 0 0 0 0 0 0 0 0 127 0" result="hardAlpha"/>
<feOffset dx="4" dy="4"/>
<feGaussianBlur stdDeviation="2"/>
<feComposite in2="hardAlpha" operator="out"/>
<feColorMatrix type="matrix" values="0 0 0 0 0 0 0 0 0 0 0 0 0 0 0 0 0 0 0.5 0"/>
<feBlend mode="normal" in2="BackgroundImageFix" result="effect1_dropShadow_183_2224"/>
<feBlend mode="normal" in="SourceGraphic" in2="effect1_dropShadow_183_2224" result="shape"/>
</filter>
</defs>
</svg>
