<svg width="318" height="56" viewBox="0 0 318 56" fill="none" xmlns="http://www.w3.org/2000/svg">
<g filter="url(#filter0_d_183_2227)">
<rect width="290" height="28" transform="translate(8 8)" fill="white"/>
<path d="M40 11.856C40 11.4827 40.14 11.1653 40.42 10.904C40.7 10.624 41.036 10.484 41.428 10.484C41.82 10.484 42.156 10.624 42.436 10.904C42.716 11.1653 42.856 11.4827 42.856 11.856C42.856 12.2293 42.716 12.556 42.436 12.836C42.156 13.0973 41.82 13.228 41.428 13.228C41.036 13.228 40.7 13.0973 40.42 12.836C40.14 12.556 40 12.2293 40 11.856ZM42.856 11.856C42.856 11.4827 42.9867 11.1653 43.248 10.904C43.528 10.624 43.864 10.484 44.256 10.484C44.648 10.484 44.9747 10.624 45.236 10.904C45.516 11.1653 45.656 11.4827 45.656 11.856C45.656 12.2293 45.516 12.556 45.236 12.836C44.9747 13.0973 44.648 13.228 44.256 13.228C43.864 13.228 43.528 13.0973 43.248 12.836C42.9867 12.556 42.856 12.2293 42.856 11.856ZM45.656 11.856C45.656 11.4827 45.7867 11.1653 46.048 10.904C46.328 10.624 46.6547 10.484 47.028 10.484C47.4013 10.484 47.7187 10.624 47.98 10.904C48.26 11.1653 48.4 11.4827 48.4 11.856C48.4 12.248 48.26 12.584 47.98 12.864C47.7187 13.1253 47.4013 13.256 47.028 13.256C46.6547 13.256 46.328 13.1253 46.048 12.864C45.7867 12.584 45.656 12.248 45.656 11.856ZM48.4 11.856C48.4 11.4827 48.54 11.1653 48.82 10.904C49.1 10.624 49.436 10.484 49.828 10.484C50.2013 10.484 50.528 10.624 50.808 10.904C51.088 11.1653 51.228 11.4827 51.228 11.856C51.228 12.248 51.088 12.584 50.808 12.864C50.528 13.1253 50.2013 13.256 49.828 13.256C49.436 13.256 49.1 13.1253 48.82 12.864C48.54 12.584 48.4 12.248 48.4 11.856ZM40 14.6C40 14.2267 40.14 13.9093 40.42 13.648C40.7 13.3867 41.036 13.256 41.428 13.256C41.8013 13.256 42.128 13.3867 42.408 13.648C42.688 13.9093 42.828 14.2267 42.828 14.6C42.828 14.9733 42.688 15.2907 42.408 15.552C42.128 15.8133 41.8013 15.944 41.428 15.944C41.036 15.944 40.7 15.8133 40.42 15.552C40.14 15.2907 40 14.9733 40 14.6ZM40 17.344C40 16.9707 40.14 16.644 40.42 16.364C40.7 16.084 41.036 15.944 41.428 15.944C41.8013 15.944 42.128 16.084 42.408 16.364C42.688 16.644 42.828 16.9707 42.828 17.344C42.828 17.736 42.688 18.072 42.408 18.352C42.128 18.632 41.8013 18.772 41.428 18.772C41.036 18.772 40.7 18.632 40.42 18.352C40.14 18.072 40 17.736 40 17.344ZM40 20.144C40 19.7707 40.14 19.4533 40.42 19.192C40.7 18.912 41.036 18.772 41.428 18.772C41.8013 18.772 42.128 18.912 42.408 19.192C42.688 19.4533 42.828 19.7707 42.828 20.144C42.828 20.536 42.688 20.872 42.408 21.152C42.128 21.4133 41.8013 21.544 41.428 21.544C41.036 21.544 40.7 21.4133 40.42 21.152C40.14 20.872 40 20.536 40 20.144ZM42.828 20.2C42.828 19.8453 42.9587 19.5373 43.22 19.276C43.5 19.0147 43.836 18.884 44.228 18.884C44.62 18.884 44.9467 19.0147 45.208 19.276C45.488 19.5373 45.628 19.8453 45.628 20.2C45.628 20.5733 45.488 20.8907 45.208 21.152C44.9467 21.4133 44.62 21.544 44.228 21.544C43.836 21.544 43.5 21.4133 43.22 21.152C42.9587 20.8907 42.828 20.5733 42.828 20.2ZM45.628 20.228C45.628 19.8547 45.768 19.5373 46.048 19.276C46.328 19.0147 46.6733 18.884 47.084 18.884C47.476 18.884 47.812 19.0147 48.092 19.276C48.372 19.5373 48.512 19.8547 48.512 20.228C48.512 20.62 48.372 20.9467 48.092 21.208C47.812 21.4693 47.476 21.6 47.084 21.6C46.6733 21.6 46.328 21.4693 46.048 21.208C45.768 20.9467 45.628 20.62 45.628 20.228ZM40 23.056C40 22.6827 40.14 22.3653 40.42 22.104C40.7 21.824 41.036 21.684 41.428 21.684C41.8013 21.684 42.128 21.824 42.408 22.104C42.688 22.3653 42.828 22.6827 42.828 23.056C42.828 23.4293 42.688 23.756 42.408 24.036C42.128 24.2973 41.8013 24.428 41.428 24.428C41.036 24.428 40.7 24.2973 40.42 24.036C40.14 23.756 40 23.4293 40 23.056ZM40 25.828C40 25.436 40.14 25.1093 40.42 24.848C40.7 24.568 41.036 24.428 41.428 24.428C41.8013 24.428 42.128 24.568 42.408 24.848C42.688 25.1093 42.828 25.436 42.828 25.828C42.828 26.22 42.688 26.556 42.408 26.836C42.128 27.0973 41.8013 27.228 41.428 27.228C41.036 27.228 40.7 27.0973 40.42 26.836C40.14 26.556 40 26.22 40 25.828ZM40 28.6C40 28.2267 40.14 27.9093 40.42 27.648C40.7 27.368 41.0453 27.228 41.456 27.228C41.848 27.228 42.184 27.368 42.464 27.648C42.744 27.9093 42.884 28.2267 42.884 28.6C42.884 28.992 42.744 29.328 42.464 29.608C42.184 29.8693 41.848 30 41.456 30C41.0453 30 40.7 29.8693 40.42 29.608C40.14 29.328 40 28.992 40 28.6ZM55.4 11.856C55.4 11.4827 55.54 11.1653 55.82 10.904C56.1 10.624 56.4453 10.484 56.856 10.484C57.248 10.484 57.584 10.624 57.864 10.904C58.144 11.1653 58.284 11.4827 58.284 11.856C58.284 12.2293 58.144 12.556 57.864 12.836C57.584 13.0973 57.248 13.228 56.856 13.228C56.4453 13.228 56.1 13.0973 55.82 12.836C55.54 12.556 55.4 12.2293 55.4 11.856ZM58.284 11.856C58.284 11.4827 58.4147 11.1653 58.676 10.904C58.956 10.624 59.2827 10.484 59.656 10.484C60.0293 10.484 60.3467 10.624 60.608 10.904C60.888 11.1653 61.028 11.4827 61.028 11.856C61.028 12.2293 60.888 12.556 60.608 12.836C60.3467 13.0973 60.0293 13.228 59.656 13.228C59.2827 13.228 58.956 13.0973 58.676 12.836C58.4147 12.556 58.284 12.2293 58.284 11.856ZM61.028 11.828C61.028 11.4547 61.168 11.1373 61.448 10.876C61.728 10.6147 62.064 10.484 62.456 10.484C62.8293 10.484 63.156 10.6147 63.436 10.876C63.716 11.1373 63.856 11.4547 63.856 11.828C63.856 12.22 63.716 12.5467 63.436 12.808C63.156 13.0693 62.8293 13.2 62.456 13.2C62.064 13.2 61.728 13.0693 61.448 12.808C61.168 12.5467 61.028 12.22 61.028 11.828ZM63.856 14.6C63.856 14.2267 63.996 13.9 64.276 13.62C64.556 13.34 64.892 13.2 65.284 13.2C65.6573 13.2 65.984 13.34 66.264 13.62C66.544 13.9 66.684 14.2267 66.684 14.6C66.684 14.992 66.544 15.328 66.264 15.608C65.984 15.888 65.6573 16.028 65.284 16.028C64.892 16.028 64.556 15.888 64.276 15.608C63.996 15.328 63.856 14.992 63.856 14.6ZM63.772 17.428C63.772 17.036 63.912 16.7093 64.192 16.448C64.472 16.168 64.8173 16.028 65.228 16.028C65.6387 16.028 65.984 16.168 66.264 16.448C66.544 16.7093 66.684 17.036 66.684 17.428C66.684 17.82 66.544 18.156 66.264 18.436C65.984 18.6973 65.6387 18.828 65.228 18.828C64.8173 18.828 64.472 18.6973 64.192 18.436C63.912 18.156 63.772 17.82 63.772 17.428ZM61 20.228C61 19.8547 61.1307 19.528 61.392 19.248C61.672 18.968 62.008 18.828 62.4 18.828C62.7733 18.828 63.0907 18.968 63.352 19.248C63.632 19.528 63.772 19.8547 63.772 20.228C63.772 20.62 63.632 20.956 63.352 21.236C63.0907 21.516 62.7733 21.656 62.4 21.656C62.008 21.656 61.672 21.516 61.392 21.236C61.1307 20.956 61 20.62 61 20.228ZM58.228 20.256C58.228 19.864 58.3587 19.5373 58.62 19.276C58.9 18.996 59.236 18.856 59.628 18.856C60.0013 18.856 60.3187 18.996 60.58 19.276C60.86 19.5373 61 19.864 61 20.256C61 20.648 60.86 20.984 60.58 21.264C60.3187 21.5253 60.0013 21.656 59.628 21.656C59.236 21.656 58.9 21.5253 58.62 21.264C58.3587 20.984 58.228 20.648 58.228 20.256ZM55.4 28.628C55.4 28.2547 55.54 27.9373 55.82 27.676C56.1 27.396 56.4453 27.256 56.856 27.256C57.2667 27.256 57.612 27.396 57.892 27.676C58.172 27.9373 58.312 28.2547 58.312 28.628C58.312 29.0013 58.172 29.328 57.892 29.608C57.612 29.8693 57.2667 30 56.856 30C56.4453 30 56.1 29.8693 55.82 29.608C55.54 29.328 55.4 29.0013 55.4 28.628ZM55.4 25.856C55.4 25.4827 55.54 25.1653 55.82 24.904C56.1 24.624 56.4453 24.484 56.856 24.484C57.2667 24.484 57.612 24.624 57.892 24.904C58.172 25.1653 58.312 25.4827 58.312 25.856C58.312 26.248 58.172 26.584 57.892 26.864C57.612 27.1253 57.2667 27.256 56.856 27.256C56.4453 27.256 56.1 27.1253 55.82 26.864C55.54 26.584 55.4 26.248 55.4 25.856ZM55.4 23.084C55.4 22.692 55.54 22.3653 55.82 22.104C56.1187 21.824 56.4733 21.684 56.884 21.684C57.2947 21.684 57.64 21.824 57.92 22.104C58.2187 22.3653 58.368 22.692 58.368 23.084C58.368 23.476 58.2187 23.812 57.92 24.092C57.64 24.3533 57.2947 24.484 56.884 24.484C56.4733 24.484 56.1187 24.3533 55.82 24.092C55.54 23.812 55.4 23.476 55.4 23.084ZM55.4 20.284C55.4 19.9107 55.54 19.5933 55.82 19.332C56.1187 19.052 56.4733 18.912 56.884 18.912C57.2947 18.912 57.64 19.052 57.92 19.332C58.2187 19.5933 58.368 19.9107 58.368 20.284C58.368 20.676 58.2187 21.012 57.92 21.292C57.64 21.5533 57.2947 21.684 56.884 21.684C56.4733 21.684 56.1187 21.5533 55.82 21.292C55.54 21.012 55.4 20.676 55.4 20.284ZM55.4 17.484C55.4 17.092 55.54 16.756 55.82 16.476C56.1 16.196 56.4453 16.056 56.856 16.056C57.2667 16.056 57.612 16.196 57.892 16.476C58.172 16.756 58.312 17.092 58.312 17.484C58.312 17.876 58.172 18.212 57.892 18.492C57.612 18.772 57.2667 18.912 56.856 18.912C56.4453 18.912 56.1 18.772 55.82 18.492C55.54 18.212 55.4 17.876 55.4 17.484ZM55.4 14.684C55.4 14.3107 55.54 13.9933 55.82 13.732C56.1 13.452 56.4453 13.312 56.856 13.312C57.2667 13.312 57.612 13.452 57.892 13.732C58.172 13.9933 58.312 14.3107 58.312 14.684C58.312 15.0573 58.172 15.384 57.892 15.664C57.612 15.9253 57.2667 16.056 56.856 16.056C56.4453 16.056 56.1 15.9253 55.82 15.664C55.54 15.384 55.4 15.0573 55.4 14.684ZM63.856 23C63.856 22.6267 63.9867 22.3 64.248 22.02C64.528 21.74 64.864 21.6 65.256 21.6C65.6293 21.6 65.9467 21.74 66.208 22.02C66.488 22.3 66.628 22.6267 66.628 23C66.628 23.392 66.488 23.728 66.208 24.008C65.9467 24.288 65.6293 24.428 65.256 24.428C64.864 24.428 64.528 24.288 64.248 24.008C63.9867 23.728 63.856 23.392 63.856 23ZM63.8 25.8C63.8 25.4267 63.94 25.1093 64.22 24.848C64.5 24.568 64.836 24.428 65.228 24.428C65.6013 24.428 65.928 24.568 66.208 24.848C66.488 25.1093 66.628 25.4267 66.628 25.8C66.628 26.192 66.488 26.528 66.208 26.808C65.928 27.0693 65.6013 27.2 65.228 27.2C64.836 27.2 64.5 27.0693 64.22 26.808C63.94 26.528 63.8 26.192 63.8 25.8ZM63.8 28.6C63.8 28.208 63.94 27.8813 64.22 27.62C64.5 27.34 64.836 27.2 65.228 27.2C65.6013 27.2 65.928 27.34 66.208 27.62C66.488 27.8813 66.628 28.208 66.628 28.6C66.628 28.992 66.488 29.328 66.208 29.608C65.928 29.8693 65.6013 30 65.228 30C64.836 30 64.5 29.8693 64.22 29.608C63.94 29.328 63.8 28.992 63.8 28.6ZM70.8 11.856C70.8 11.4827 70.94 11.1653 71.22 10.904C71.5 10.624 71.836 10.484 72.228 10.484C72.6013 10.484 72.928 10.624 73.208 10.904C73.488 11.1653 73.628 11.4827 73.628 11.856C73.628 12.2293 73.488 12.556 73.208 12.836C72.928 13.0973 72.6013 13.228 72.228 13.228C71.836 13.228 71.5 13.0973 71.22 12.836C70.94 12.556 70.8 12.2293 70.8 11.856ZM73.628 11.856C73.628 11.4827 73.768 11.1653 74.048 10.904C74.328 10.624 74.664 10.484 75.056 10.484C75.4293 10.484 75.756 10.624 76.036 10.904C76.316 11.1653 76.456 11.4827 76.456 11.856C76.456 12.2293 76.316 12.556 76.036 12.836C75.756 13.0973 75.4293 13.228 75.056 13.228C74.664 13.228 74.328 13.0973 74.048 12.836C73.768 12.556 73.628 12.2293 73.628 11.856ZM76.456 11.856C76.456 11.4827 76.5867 11.1653 76.848 10.904C77.128 10.624 77.464 10.484 77.856 10.484C78.2293 10.484 78.5467 10.624 78.808 10.904C79.088 11.1653 79.228 11.4827 79.228 11.856C79.228 12.2293 79.088 12.556 78.808 12.836C78.5467 13.0973 78.2293 13.228 77.856 13.228C77.464 13.228 77.128 13.0973 76.848 12.836C76.5867 12.556 76.456 12.2293 76.456 11.856ZM79.228 11.856C79.228 11.4827 79.368 11.1653 79.648 10.904C79.928 10.624 80.264 10.484 80.656 10.484C81.048 10.484 81.384 10.624 81.664 10.904C81.944 11.1653 82.084 11.4827 82.084 11.856C82.084 12.2293 81.944 12.556 81.664 12.836C81.384 13.0973 81.048 13.228 80.656 13.228C80.264 13.228 79.928 13.0973 79.648 12.836C79.368 12.556 79.228 12.2293 79.228 11.856ZM70.8 14.6C70.8 14.2267 70.94 13.9093 71.22 13.648C71.5 13.368 71.836 13.228 72.228 13.228C72.62 13.228 72.956 13.368 73.236 13.648C73.516 13.9093 73.656 14.2267 73.656 14.6C73.656 14.9733 73.516 15.3 73.236 15.58C72.956 15.8413 72.62 15.972 72.228 15.972C71.836 15.972 71.5 15.8413 71.22 15.58C70.94 15.3 70.8 14.9733 70.8 14.6ZM70.8 17.344C70.8 16.9707 70.94 16.6533 71.22 16.392C71.5 16.112 71.836 15.972 72.228 15.972C72.62 15.972 72.956 16.112 73.236 16.392C73.516 16.6533 73.656 16.9707 73.656 17.344C73.656 17.736 73.516 18.072 73.236 18.352C72.956 18.6133 72.62 18.744 72.228 18.744C71.836 18.744 71.5 18.6133 71.22 18.352C70.94 18.072 70.8 17.736 70.8 17.344ZM70.8 20.116C70.8 19.7427 70.9307 19.4253 71.192 19.164C71.472 18.884 71.808 18.744 72.2 18.744C72.592 18.744 72.9187 18.884 73.18 19.164C73.46 19.4253 73.6 19.7427 73.6 20.116C73.6 20.508 73.46 20.844 73.18 21.124C72.9187 21.3853 72.592 21.516 72.2 21.516C71.808 21.516 71.472 21.3853 71.192 21.124C70.9307 20.844 70.8 20.508 70.8 20.116ZM70.8 22.944C70.8 22.552 70.9307 22.216 71.192 21.936C71.472 21.656 71.808 21.516 72.2 21.516C72.592 21.516 72.9187 21.656 73.18 21.936C73.46 22.216 73.6 22.552 73.6 22.944C73.6 23.3547 73.46 23.7 73.18 23.98C72.9187 24.26 72.592 24.4 72.2 24.4C71.808 24.4 71.472 24.26 71.192 23.98C70.9307 23.7 70.8 23.3547 70.8 22.944ZM70.8 25.772C70.8 25.3987 70.9307 25.0813 71.192 24.82C71.472 24.54 71.808 24.4 72.2 24.4C72.592 24.4 72.9187 24.54 73.18 24.82C73.46 25.0813 73.6 25.3987 73.6 25.772C73.6 26.164 73.46 26.5 73.18 26.78C72.9187 27.0413 72.592 27.172 72.2 27.172C71.808 27.172 71.472 27.0413 71.192 26.78C70.9307 26.5 70.8 26.164 70.8 25.772ZM70.8 28.572C70.8 28.1987 70.9307 27.872 71.192 27.592C71.472 27.312 71.808 27.172 72.2 27.172C72.592 27.172 72.9187 27.312 73.18 27.592C73.46 27.872 73.6 28.1987 73.6 28.572C73.6 28.964 73.46 29.3 73.18 29.58C72.9187 29.86 72.592 30 72.2 30C71.808 30 71.472 29.86 71.192 29.58C70.9307 29.3 70.8 28.964 70.8 28.572ZM73.6 28.628C73.6 28.2547 73.74 27.9373 74.02 27.676C74.3 27.396 74.6453 27.256 75.056 27.256C75.448 27.256 75.784 27.396 76.064 27.676C76.344 27.9373 76.484 28.2547 76.484 28.628C76.484 29.0013 76.344 29.328 76.064 29.608C75.784 29.8693 75.448 30 75.056 30C74.6453 30 74.3 29.8693 74.02 29.608C73.74 29.328 73.6 29.0013 73.6 28.628ZM76.484 28.628C76.484 28.2547 76.6147 27.9373 76.876 27.676C77.1373 27.396 77.464 27.256 77.856 27.256C78.2293 27.256 78.5467 27.396 78.808 27.676C79.0693 27.9373 79.2 28.2547 79.2 28.628C79.2 29.0013 79.0693 29.328 78.808 29.608C78.5467 29.8693 78.2293 30 77.856 30C77.464 30 77.1373 29.8693 76.876 29.608C76.6147 29.328 76.484 29.0013 76.484 28.628ZM79.2 28.6C79.2 28.2267 79.34 27.9093 79.62 27.648C79.9 27.368 80.2453 27.228 80.656 27.228C81.048 27.228 81.384 27.368 81.664 27.648C81.944 27.9093 82.084 28.2267 82.084 28.6C82.084 28.992 81.944 29.328 81.664 29.608C81.384 29.8693 81.048 30 80.656 30C80.2453 30 79.9 29.8693 79.62 29.608C79.34 29.328 79.2 28.992 79.2 28.6ZM73.572 20.2C73.572 19.7893 73.712 19.444 73.992 19.164C74.272 18.884 74.6173 18.744 75.028 18.744C75.4387 18.744 75.784 18.884 76.064 19.164C76.344 19.444 76.484 19.7893 76.484 20.2C76.484 20.6107 76.344 20.956 76.064 21.236C75.784 21.516 75.4387 21.656 75.028 21.656C74.6173 21.656 74.272 21.516 73.992 21.236C73.712 20.956 73.572 20.6107 73.572 20.2ZM76.484 20.228C76.484 19.8547 76.6147 19.528 76.876 19.248C77.156 18.968 77.492 18.828 77.884 18.828C78.2573 18.828 78.5747 18.968 78.836 19.248C79.116 19.528 79.256 19.8547 79.256 20.228C79.256 20.62 79.116 20.956 78.836 21.236C78.5747 21.516 78.2573 21.656 77.884 21.656C77.492 21.656 77.156 21.516 76.876 21.236C76.6147 20.956 76.484 20.62 76.484 20.228ZM86.2 11.856C86.2 11.4827 86.34 11.1653 86.62 10.904C86.9 10.624 87.236 10.484 87.628 10.484C88.0013 10.484 88.328 10.624 88.608 10.904C88.888 11.1653 89.028 11.4827 89.028 11.856C89.028 12.2293 88.888 12.556 88.608 12.836C88.328 13.0973 88.0013 13.228 87.628 13.228C87.236 13.228 86.9 13.0973 86.62 12.836C86.34 12.556 86.2 12.2293 86.2 11.856ZM89.028 11.856C89.028 11.4827 89.168 11.1653 89.448 10.904C89.728 10.624 90.064 10.484 90.456 10.484C90.8293 10.484 91.156 10.624 91.436 10.904C91.716 11.1653 91.856 11.4827 91.856 11.856C91.856 12.2293 91.716 12.556 91.436 12.836C91.156 13.0973 90.8293 13.228 90.456 13.228C90.064 13.228 89.728 13.0973 89.448 12.836C89.168 12.556 89.028 12.2293 89.028 11.856ZM91.856 11.856C91.856 11.4827 91.9867 11.1653 92.248 10.904C92.528 10.624 92.864 10.484 93.256 10.484C93.6293 10.484 93.9467 10.624 94.208 10.904C94.488 11.1653 94.628 11.4827 94.628 11.856C94.628 12.2293 94.488 12.556 94.208 12.836C93.9467 13.0973 93.6293 13.228 93.256 13.228C92.864 13.228 92.528 13.0973 92.248 12.836C91.9867 12.556 91.856 12.2293 91.856 11.856ZM94.628 11.856C94.628 11.4827 94.768 11.1653 95.048 10.904C95.328 10.624 95.664 10.484 96.056 10.484C96.448 10.484 96.784 10.624 97.064 10.904C97.344 11.1653 97.484 11.4827 97.484 11.856C97.484 12.2293 97.344 12.556 97.064 12.836C96.784 13.0973 96.448 13.228 96.056 13.228C95.664 13.228 95.328 13.0973 95.048 12.836C94.768 12.556 94.628 12.2293 94.628 11.856ZM86.2 14.6C86.2 14.2267 86.34 13.9093 86.62 13.648C86.9 13.368 87.236 13.228 87.628 13.228C88.02 13.228 88.356 13.368 88.636 13.648C88.916 13.9093 89.056 14.2267 89.056 14.6C89.056 14.9733 88.916 15.3 88.636 15.58C88.356 15.8413 88.02 15.972 87.628 15.972C87.236 15.972 86.9 15.8413 86.62 15.58C86.34 15.3 86.2 14.9733 86.2 14.6ZM86.2 17.344C86.2 16.9707 86.34 16.6533 86.62 16.392C86.9 16.112 87.236 15.972 87.628 15.972C88.02 15.972 88.356 16.112 88.636 16.392C88.916 16.6533 89.056 16.9707 89.056 17.344C89.056 17.736 88.916 18.072 88.636 18.352C88.356 18.6133 88.02 18.744 87.628 18.744C87.236 18.744 86.9 18.6133 86.62 18.352C86.34 18.072 86.2 17.736 86.2 17.344ZM86.2 20.116C86.2 19.7427 86.3307 19.4253 86.592 19.164C86.872 18.884 87.208 18.744 87.6 18.744C87.992 18.744 88.3187 18.884 88.58 19.164C88.86 19.4253 89 19.7427 89 20.116C89 20.508 88.86 20.844 88.58 21.124C88.3187 21.3853 87.992 21.516 87.6 21.516C87.208 21.516 86.872 21.3853 86.592 21.124C86.3307 20.844 86.2 20.508 86.2 20.116ZM86.2 22.944C86.2 22.552 86.3307 22.216 86.592 21.936C86.872 21.656 87.208 21.516 87.6 21.516C87.992 21.516 88.3187 21.656 88.58 21.936C88.86 22.216 89 22.552 89 22.944C89 23.3547 88.86 23.7 88.58 23.98C88.3187 24.26 87.992 24.4 87.6 24.4C87.208 24.4 86.872 24.26 86.592 23.98C86.3307 23.7 86.2 23.3547 86.2 22.944ZM86.2 25.772C86.2 25.3987 86.3307 25.0813 86.592 24.82C86.872 24.54 87.208 24.4 87.6 24.4C87.992 24.4 88.3187 24.54 88.58 24.82C88.86 25.0813 89 25.3987 89 25.772C89 26.164 88.86 26.5 88.58 26.78C88.3187 27.0413 87.992 27.172 87.6 27.172C87.208 27.172 86.872 27.0413 86.592 26.78C86.3307 26.5 86.2 26.164 86.2 25.772ZM86.2 28.572C86.2 28.1987 86.3307 27.872 86.592 27.592C86.872 27.312 87.208 27.172 87.6 27.172C87.992 27.172 88.3187 27.312 88.58 27.592C88.86 27.872 89 28.1987 89 28.572C89 28.964 88.86 29.3 88.58 29.58C88.3187 29.86 87.992 30 87.6 30C87.208 30 86.872 29.86 86.592 29.58C86.3307 29.3 86.2 28.964 86.2 28.572ZM89 28.628C89 28.2547 89.14 27.9373 89.42 27.676C89.7 27.396 90.0453 27.256 90.456 27.256C90.848 27.256 91.184 27.396 91.464 27.676C91.744 27.9373 91.884 28.2547 91.884 28.628C91.884 29.0013 91.744 29.328 91.464 29.608C91.184 29.8693 90.848 30 90.456 30C90.0453 30 89.7 29.8693 89.42 29.608C89.14 29.328 89 29.0013 89 28.628ZM91.884 28.628C91.884 28.2547 92.0147 27.9373 92.276 27.676C92.5373 27.396 92.864 27.256 93.256 27.256C93.6293 27.256 93.9467 27.396 94.208 27.676C94.4693 27.9373 94.6 28.2547 94.6 28.628C94.6 29.0013 94.4693 29.328 94.208 29.608C93.9467 29.8693 93.6293 30 93.256 30C92.864 30 92.5373 29.8693 92.276 29.608C92.0147 29.328 91.884 29.0013 91.884 28.628ZM94.6 28.6C94.6 28.2267 94.74 27.9093 95.02 27.648C95.3 27.368 95.6453 27.228 96.056 27.228C96.448 27.228 96.784 27.368 97.064 27.648C97.344 27.9093 97.484 28.2267 97.484 28.6C97.484 28.992 97.344 29.328 97.064 29.608C96.784 29.8693 96.448 30 96.056 30C95.6453 30 95.3 29.8693 95.02 29.608C94.74 29.328 94.6 28.992 94.6 28.6ZM88.972 20.2C88.972 19.7893 89.112 19.444 89.392 19.164C89.672 18.884 90.0173 18.744 90.428 18.744C90.8387 18.744 91.184 18.884 91.464 19.164C91.744 19.444 91.884 19.7893 91.884 20.2C91.884 20.6107 91.744 20.956 91.464 21.236C91.184 21.516 90.8387 21.656 90.428 21.656C90.0173 21.656 89.672 21.516 89.392 21.236C89.112 20.956 88.972 20.6107 88.972 20.2ZM91.884 20.228C91.884 19.8547 92.0147 19.528 92.276 19.248C92.556 18.968 92.892 18.828 93.284 18.828C93.6573 18.828 93.9747 18.968 94.236 19.248C94.516 19.528 94.656 19.8547 94.656 20.228C94.656 20.62 94.516 20.956 94.236 21.236C93.9747 21.516 93.6573 21.656 93.284 21.656C92.892 21.656 92.556 21.516 92.276 21.236C92.0147 20.956 91.884 20.62 91.884 20.228ZM101.6 11.856C101.6 11.4827 101.74 11.1653 102.02 10.904C102.3 10.624 102.636 10.484 103.028 10.484C103.401 10.484 103.728 10.624 104.008 10.904C104.288 11.1653 104.428 11.4827 104.428 11.856C104.428 12.2293 104.288 12.556 104.008 12.836C103.728 13.0973 103.401 13.228 103.028 13.228C102.636 13.228 102.3 13.0973 102.02 12.836C101.74 12.556 101.6 12.2293 101.6 11.856ZM104.428 11.856C104.428 11.4827 104.568 11.1653 104.848 10.904C105.128 10.624 105.464 10.484 105.856 10.484C106.248 10.484 106.584 10.624 106.864 10.904C107.144 11.1653 107.284 11.4827 107.284 11.856C107.284 12.2293 107.144 12.556 106.864 12.836C106.584 13.0973 106.248 13.228 105.856 13.228C105.464 13.228 105.128 13.0973 104.848 12.836C104.568 12.556 104.428 12.2293 104.428 11.856ZM107.284 11.828C107.284 11.4547 107.415 11.1373 107.676 10.876C107.956 10.6147 108.292 10.484 108.684 10.484C109.057 10.484 109.375 10.6147 109.636 10.876C109.916 11.1373 110.056 11.4547 110.056 11.828C110.056 12.2013 109.916 12.5187 109.636 12.78C109.375 13.0413 109.057 13.172 108.684 13.172C108.292 13.172 107.956 13.0413 107.676 12.78C107.415 12.5187 107.284 12.2013 107.284 11.828ZM110.056 11.828C110.056 11.4547 110.187 11.1373 110.448 10.876C110.728 10.6147 111.064 10.484 111.456 10.484C111.848 10.484 112.175 10.6147 112.436 10.876C112.716 11.1373 112.856 11.4547 112.856 11.828C112.856 12.2013 112.716 12.5187 112.436 12.78C112.175 13.0413 111.848 13.172 111.456 13.172C111.064 13.172 110.728 13.0413 110.448 12.78C110.187 12.5187 110.056 12.2013 110.056 11.828ZM110 14.628C110 14.2173 110.131 13.872 110.392 13.592C110.672 13.312 111.008 13.172 111.4 13.172C111.773 13.172 112.091 13.312 112.352 13.592C112.632 13.872 112.772 14.2173 112.772 14.628C112.772 15.0387 112.632 15.384 112.352 15.664C112.091 15.944 111.773 16.084 111.4 16.084C111.008 16.084 110.672 15.944 110.392 15.664C110.131 15.384 110 15.0387 110 14.628ZM110 17.456C110 17.0827 110.14 16.7653 110.42 16.504C110.7 16.224 111.045 16.084 111.456 16.084C111.867 16.084 112.212 16.224 112.492 16.504C112.772 16.7653 112.912 17.0827 112.912 17.456C112.912 17.848 112.772 18.184 112.492 18.464C112.212 18.7253 111.867 18.856 111.456 18.856C111.045 18.856 110.7 18.7253 110.42 18.464C110.14 18.184 110 17.848 110 17.456ZM107.172 20.256C107.172 19.8453 107.312 19.5 107.592 19.22C107.872 18.94 108.217 18.8 108.628 18.8C109.02 18.8 109.356 18.94 109.636 19.22C109.916 19.5 110.056 19.8453 110.056 20.256C110.056 20.6667 109.916 21.012 109.636 21.292C109.356 21.572 109.02 21.712 108.628 21.712C108.217 21.712 107.872 21.572 107.592 21.292C107.312 21.012 107.172 20.6667 107.172 20.256ZM104.316 23.112C104.316 22.72 104.456 22.3933 104.736 22.132C105.016 21.852 105.352 21.712 105.744 21.712C106.136 21.712 106.472 21.852 106.752 22.132C107.032 22.3933 107.172 22.72 107.172 23.112C107.172 23.504 107.032 23.84 106.752 24.12C106.472 24.3813 106.136 24.512 105.744 24.512C105.352 24.512 105.016 24.3813 104.736 24.12C104.456 23.84 104.316 23.504 104.316 23.112ZM101.6 25.884C101.6 25.5107 101.731 25.1933 101.992 24.932C102.253 24.652 102.58 24.512 102.972 24.512C103.345 24.512 103.663 24.652 103.924 24.932C104.185 25.1933 104.316 25.5107 104.316 25.884C104.316 26.276 104.185 26.612 103.924 26.892C103.663 27.1533 103.345 27.284 102.972 27.284C102.58 27.284 102.253 27.1533 101.992 26.892C101.731 26.612 101.6 26.276 101.6 25.884ZM101.6 28.628C101.6 28.2547 101.731 27.9373 101.992 27.676C102.272 27.4147 102.608 27.284 103 27.284C103.392 27.284 103.719 27.4147 103.98 27.676C104.26 27.9373 104.4 28.2547 104.4 28.628C104.4 29.02 104.26 29.3467 103.98 29.608C103.719 29.8693 103.392 30 103 30C102.608 30 102.272 29.8693 101.992 29.608C101.731 29.3467 101.6 29.02 101.6 28.628ZM104.4 28.628C104.4 28.2547 104.54 27.9373 104.82 27.676C105.1 27.396 105.436 27.256 105.828 27.256C106.22 27.256 106.556 27.396 106.836 27.676C107.116 27.9373 107.256 28.2547 107.256 28.628C107.256 29.0013 107.116 29.328 106.836 29.608C106.556 29.8693 106.22 30 105.828 30C105.436 30 105.1 29.8693 104.82 29.608C104.54 29.328 104.4 29.0013 104.4 28.628ZM107.256 28.628C107.256 28.2547 107.387 27.9373 107.648 27.676C107.928 27.396 108.264 27.256 108.656 27.256C109.029 27.256 109.347 27.396 109.608 27.676C109.888 27.9373 110.028 28.2547 110.028 28.628C110.028 29.0013 109.888 29.328 109.608 29.608C109.347 29.8693 109.029 30 108.656 30C108.264 30 107.928 29.8693 107.648 29.608C107.387 29.328 107.256 29.0013 107.256 28.628ZM110.028 28.628C110.028 28.2547 110.168 27.9373 110.448 27.676C110.728 27.396 111.064 27.256 111.456 27.256C111.848 27.256 112.184 27.396 112.464 27.676C112.744 27.9373 112.884 28.2547 112.884 28.628C112.884 29.0013 112.744 29.328 112.464 29.608C112.184 29.8693 111.848 30 111.456 30C111.064 30 110.728 29.8693 110.448 29.608C110.168 29.328 110.028 29.0013 110.028 28.628ZM117 11.856C117 11.4827 117.14 11.1653 117.42 10.904C117.7 10.624 118.036 10.484 118.428 10.484C118.801 10.484 119.128 10.624 119.408 10.904C119.688 11.1653 119.828 11.4827 119.828 11.856C119.828 12.2293 119.688 12.556 119.408 12.836C119.128 13.0973 118.801 13.228 118.428 13.228C118.036 13.228 117.7 13.0973 117.42 12.836C117.14 12.556 117 12.2293 117 11.856ZM119.828 11.856C119.828 11.4827 119.968 11.1653 120.248 10.904C120.528 10.624 120.864 10.484 121.256 10.484C121.629 10.484 121.956 10.624 122.236 10.904C122.516 11.1653 122.656 11.4827 122.656 11.856C122.656 12.2293 122.516 12.556 122.236 12.836C121.956 13.0973 121.629 13.228 121.256 13.228C120.864 13.228 120.528 13.0973 120.248 12.836C119.968 12.556 119.828 12.2293 119.828 11.856ZM122.656 11.856C122.656 11.4827 122.787 11.1653 123.048 10.904C123.328 10.624 123.664 10.484 124.056 10.484C124.429 10.484 124.747 10.624 125.008 10.904C125.288 11.1653 125.428 11.4827 125.428 11.856C125.428 12.2293 125.288 12.556 125.008 12.836C124.747 13.0973 124.429 13.228 124.056 13.228C123.664 13.228 123.328 13.0973 123.048 12.836C122.787 12.556 122.656 12.2293 122.656 11.856ZM125.428 11.856C125.428 11.4827 125.568 11.1653 125.848 10.904C126.128 10.624 126.464 10.484 126.856 10.484C127.248 10.484 127.584 10.624 127.864 10.904C128.144 11.1653 128.284 11.4827 128.284 11.856C128.284 12.2293 128.144 12.556 127.864 12.836C127.584 13.0973 127.248 13.228 126.856 13.228C126.464 13.228 126.128 13.0973 125.848 12.836C125.568 12.556 125.428 12.2293 125.428 11.856ZM117 14.6C117 14.2267 117.14 13.9093 117.42 13.648C117.7 13.368 118.036 13.228 118.428 13.228C118.82 13.228 119.156 13.368 119.436 13.648C119.716 13.9093 119.856 14.2267 119.856 14.6C119.856 14.9733 119.716 15.3 119.436 15.58C119.156 15.8413 118.82 15.972 118.428 15.972C118.036 15.972 117.7 15.8413 117.42 15.58C117.14 15.3 117 14.9733 117 14.6ZM117 17.344C117 16.9707 117.14 16.6533 117.42 16.392C117.7 16.112 118.036 15.972 118.428 15.972C118.82 15.972 119.156 16.112 119.436 16.392C119.716 16.6533 119.856 16.9707 119.856 17.344C119.856 17.736 119.716 18.072 119.436 18.352C119.156 18.6133 118.82 18.744 118.428 18.744C118.036 18.744 117.7 18.6133 117.42 18.352C117.14 18.072 117 17.736 117 17.344ZM117 20.116C117 19.7427 117.131 19.4253 117.392 19.164C117.672 18.884 118.008 18.744 118.4 18.744C118.792 18.744 119.119 18.884 119.38 19.164C119.66 19.4253 119.8 19.7427 119.8 20.116C119.8 20.508 119.66 20.844 119.38 21.124C119.119 21.3853 118.792 21.516 118.4 21.516C118.008 21.516 117.672 21.3853 117.392 21.124C117.131 20.844 117 20.508 117 20.116ZM117 22.944C117 22.552 117.131 22.216 117.392 21.936C117.672 21.656 118.008 21.516 118.4 21.516C118.792 21.516 119.119 21.656 119.38 21.936C119.66 22.216 119.8 22.552 119.8 22.944C119.8 23.3547 119.66 23.7 119.38 23.98C119.119 24.26 118.792 24.4 118.4 24.4C118.008 24.4 117.672 24.26 117.392 23.98C117.131 23.7 117 23.3547 117 22.944ZM117 25.772C117 25.3987 117.131 25.0813 117.392 24.82C117.672 24.54 118.008 24.4 118.4 24.4C118.792 24.4 119.119 24.54 119.38 24.82C119.66 25.0813 119.8 25.3987 119.8 25.772C119.8 26.164 119.66 26.5 119.38 26.78C119.119 27.0413 118.792 27.172 118.4 27.172C118.008 27.172 117.672 27.0413 117.392 26.78C117.131 26.5 117 26.164 117 25.772ZM117 28.572C117 28.1987 117.131 27.872 117.392 27.592C117.672 27.312 118.008 27.172 118.4 27.172C118.792 27.172 119.119 27.312 119.38 27.592C119.66 27.872 119.8 28.1987 119.8 28.572C119.8 28.964 119.66 29.3 119.38 29.58C119.119 29.86 118.792 30 118.4 30C118.008 30 117.672 29.86 117.392 29.58C117.131 29.3 117 28.964 117 28.572ZM119.8 28.628C119.8 28.2547 119.94 27.9373 120.22 27.676C120.5 27.396 120.845 27.256 121.256 27.256C121.648 27.256 121.984 27.396 122.264 27.676C122.544 27.9373 122.684 28.2547 122.684 28.628C122.684 29.0013 122.544 29.328 122.264 29.608C121.984 29.8693 121.648 30 121.256 30C120.845 30 120.5 29.8693 120.22 29.608C119.94 29.328 119.8 29.0013 119.8 28.628ZM122.684 28.628C122.684 28.2547 122.815 27.9373 123.076 27.676C123.337 27.396 123.664 27.256 124.056 27.256C124.429 27.256 124.747 27.396 125.008 27.676C125.269 27.9373 125.4 28.2547 125.4 28.628C125.4 29.0013 125.269 29.328 125.008 29.608C124.747 29.8693 124.429 30 124.056 30C123.664 30 123.337 29.8693 123.076 29.608C122.815 29.328 122.684 29.0013 122.684 28.628ZM125.4 28.6C125.4 28.2267 125.54 27.9093 125.82 27.648C126.1 27.368 126.445 27.228 126.856 27.228C127.248 27.228 127.584 27.368 127.864 27.648C128.144 27.9093 128.284 28.2267 128.284 28.6C128.284 28.992 128.144 29.328 127.864 29.608C127.584 29.8693 127.248 30 126.856 30C126.445 30 126.1 29.8693 125.82 29.608C125.54 29.328 125.4 28.992 125.4 28.6ZM119.772 20.2C119.772 19.7893 119.912 19.444 120.192 19.164C120.472 18.884 120.817 18.744 121.228 18.744C121.639 18.744 121.984 18.884 122.264 19.164C122.544 19.444 122.684 19.7893 122.684 20.2C122.684 20.6107 122.544 20.956 122.264 21.236C121.984 21.516 121.639 21.656 121.228 21.656C120.817 21.656 120.472 21.516 120.192 21.236C119.912 20.956 119.772 20.6107 119.772 20.2ZM122.684 20.228C122.684 19.8547 122.815 19.528 123.076 19.248C123.356 18.968 123.692 18.828 124.084 18.828C124.457 18.828 124.775 18.968 125.036 19.248C125.316 19.528 125.456 19.8547 125.456 20.228C125.456 20.62 125.316 20.956 125.036 21.236C124.775 21.516 124.457 21.656 124.084 21.656C123.692 21.656 123.356 21.516 123.076 21.236C122.815 20.956 122.684 20.62 122.684 20.228ZM150.562 28.628C150.562 28.2547 150.702 27.9373 150.982 27.676C151.262 27.4147 151.598 27.284 151.99 27.284C152.382 27.284 152.718 27.4147 152.998 27.676C153.278 27.9373 153.418 28.2547 153.418 28.628C153.418 29.02 153.278 29.3467 152.998 29.608C152.718 29.8693 152.382 30 151.99 30C151.598 30 151.262 29.8693 150.982 29.608C150.702 29.3467 150.562 29.02 150.562 28.628ZM153.418 28.628C153.418 28.2547 153.548 27.9373 153.81 27.676C154.09 27.4147 154.426 27.284 154.818 27.284C155.191 27.284 155.508 27.4147 155.77 27.676C156.05 27.9373 156.19 28.2547 156.19 28.628C156.19 29.02 156.05 29.3467 155.77 29.608C155.508 29.8693 155.191 30 154.818 30C154.426 30 154.09 29.8693 153.81 29.608C153.548 29.3467 153.418 29.02 153.418 28.628ZM156.19 28.628C156.19 28.2547 156.32 27.9373 156.582 27.676C156.862 27.396 157.198 27.256 157.59 27.256C157.982 27.256 158.308 27.396 158.57 27.676C158.85 27.9373 158.99 28.2547 158.99 28.628C158.99 29.0013 158.85 29.328 158.57 29.608C158.308 29.8693 157.982 30 157.59 30C157.198 30 156.862 29.8693 156.582 29.608C156.32 29.328 156.19 29.0013 156.19 28.628ZM159.018 25.856C159.018 25.4827 159.158 25.1653 159.438 24.904C159.718 24.624 160.054 24.484 160.446 24.484C160.838 24.484 161.174 24.624 161.454 24.904C161.734 25.1653 161.874 25.4827 161.874 25.856C161.874 26.248 161.734 26.584 161.454 26.864C161.174 27.1253 160.838 27.256 160.446 27.256C160.054 27.256 159.718 27.1253 159.438 26.864C159.158 26.584 159.018 26.248 159.018 25.856ZM158.878 23.056C158.878 22.664 159.018 22.328 159.298 22.048C159.596 21.768 159.96 21.628 160.39 21.628C160.8 21.628 161.146 21.768 161.426 22.048C161.724 22.328 161.874 22.664 161.874 23.056C161.874 23.448 161.724 23.784 161.426 24.064C161.146 24.344 160.8 24.484 160.39 24.484C159.96 24.484 159.596 24.344 159.298 24.064C159.018 23.784 158.878 23.448 158.878 23.056ZM156.162 20.256C156.162 19.8827 156.292 19.5653 156.554 19.304C156.815 19.024 157.142 18.884 157.534 18.884C157.907 18.884 158.224 19.024 158.486 19.304C158.747 19.5653 158.878 19.8827 158.878 20.256C158.878 20.6293 158.747 20.956 158.486 21.236C158.224 21.4973 157.907 21.628 157.534 21.628C157.142 21.628 156.815 21.4973 156.554 21.236C156.292 20.956 156.162 20.6293 156.162 20.256ZM153.39 20.256C153.39 19.8827 153.52 19.5653 153.782 19.304C154.062 19.024 154.398 18.884 154.79 18.884C155.163 18.884 155.48 19.024 155.742 19.304C156.022 19.5653 156.162 19.8827 156.162 20.256C156.162 20.648 156.022 20.984 155.742 21.264C155.48 21.5253 155.163 21.656 154.79 21.656C154.398 21.656 154.062 21.5253 153.782 21.264C153.52 20.984 153.39 20.648 153.39 20.256ZM150.562 20.256C150.562 19.8827 150.702 19.5653 150.982 19.304C151.262 19.024 151.598 18.884 151.99 18.884C152.363 18.884 152.69 19.024 152.97 19.304C153.25 19.5653 153.39 19.8827 153.39 20.256C153.39 20.648 153.25 20.984 152.97 21.264C152.69 21.5253 152.363 21.656 151.99 21.656C151.598 21.656 151.262 21.5253 150.982 21.264C150.702 20.984 150.562 20.648 150.562 20.256ZM150.562 17.484C150.562 17.092 150.702 16.7653 150.982 16.504C151.262 16.224 151.607 16.084 152.018 16.084C152.428 16.084 152.774 16.224 153.054 16.504C153.334 16.7653 153.474 17.092 153.474 17.484C153.474 17.876 153.334 18.212 153.054 18.492C152.774 18.7533 152.428 18.884 152.018 18.884C151.607 18.884 151.262 18.7533 150.982 18.492C150.702 18.212 150.562 17.876 150.562 17.484ZM150.562 14.684C150.562 14.292 150.702 13.9653 150.982 13.704C151.262 13.424 151.607 13.284 152.018 13.284C152.428 13.284 152.774 13.424 153.054 13.704C153.334 13.9653 153.474 14.292 153.474 14.684C153.474 15.076 153.334 15.412 153.054 15.692C152.774 15.9533 152.428 16.084 152.018 16.084C151.607 16.084 151.262 15.9533 150.982 15.692C150.702 15.412 150.562 15.076 150.562 14.684ZM150.562 11.884C150.562 11.492 150.702 11.1653 150.982 10.904C151.262 10.624 151.598 10.484 151.99 10.484C152.363 10.484 152.69 10.624 152.97 10.904C153.25 11.1653 153.39 11.492 153.39 11.884C153.39 12.276 153.25 12.612 152.97 12.892C152.69 13.1533 152.363 13.284 151.99 13.284C151.598 13.284 151.262 13.1533 150.982 12.892C150.702 12.612 150.562 12.276 150.562 11.884ZM153.39 11.8C153.39 11.4453 153.53 11.1373 153.81 10.876C154.09 10.6147 154.426 10.484 154.818 10.484C155.191 10.484 155.518 10.6147 155.798 10.876C156.078 11.1373 156.218 11.4453 156.218 11.8C156.218 12.1547 156.078 12.4627 155.798 12.724C155.518 12.9853 155.191 13.116 154.818 13.116C154.426 13.116 154.09 12.9853 153.81 12.724C153.53 12.4627 153.39 12.1547 153.39 11.8ZM156.218 11.8C156.218 11.4453 156.348 11.1373 156.61 10.876C156.89 10.6147 157.226 10.484 157.618 10.484C158.01 10.484 158.336 10.6147 158.598 10.876C158.878 11.1373 159.018 11.4453 159.018 11.8C159.018 12.1547 158.878 12.4627 158.598 12.724C158.336 12.9853 158.01 13.116 157.618 13.116C157.226 13.116 156.89 12.9853 156.61 12.724C156.348 12.4627 156.218 12.1547 156.218 11.8ZM158.934 14.628C158.934 14.2547 159.064 13.9373 159.326 13.676C159.587 13.4147 159.904 13.284 160.278 13.284C160.651 13.284 160.968 13.4147 161.23 13.676C161.491 13.9373 161.622 14.2547 161.622 14.628C161.622 15.0013 161.491 15.3187 161.23 15.58C160.968 15.8413 160.651 15.972 160.278 15.972C159.904 15.972 159.587 15.8413 159.326 15.58C159.064 15.3187 158.934 15.0013 158.934 14.628ZM159.046 17.456C159.046 17.064 159.176 16.728 159.438 16.448C159.718 16.168 160.054 16.028 160.446 16.028C160.819 16.028 161.136 16.168 161.398 16.448C161.678 16.728 161.818 17.064 161.818 17.456C161.818 17.8667 161.678 18.212 161.398 18.492C161.136 18.772 160.819 18.912 160.446 18.912C160.054 18.912 159.718 18.772 159.438 18.492C159.176 18.212 159.046 17.8667 159.046 17.456ZM150.562 23.084C150.562 22.7107 150.702 22.3933 150.982 22.132C151.262 21.8707 151.607 21.74 152.018 21.74C152.41 21.74 152.746 21.8707 153.026 22.132C153.306 22.3933 153.446 22.7107 153.446 23.084C153.446 23.4573 153.306 23.7747 153.026 24.036C152.746 24.2973 152.41 24.428 152.018 24.428C151.607 24.428 151.262 24.2973 150.982 24.036C150.702 23.7747 150.562 23.4573 150.562 23.084ZM150.562 25.828C150.562 25.436 150.702 25.1093 150.982 24.848C151.262 24.568 151.607 24.428 152.018 24.428C152.41 24.428 152.746 24.568 153.026 24.848C153.306 25.1093 153.446 25.436 153.446 25.828C153.446 26.22 153.306 26.556 153.026 26.836C152.746 27.0973 152.41 27.228 152.018 27.228C151.607 27.228 151.262 27.0973 150.982 26.836C150.702 26.556 150.562 26.22 150.562 25.828ZM165.962 11.828C165.962 11.4547 166.102 11.1373 166.382 10.876C166.662 10.6147 166.998 10.484 167.39 10.484C167.782 10.484 168.118 10.6147 168.398 10.876C168.678 11.1373 168.818 11.4547 168.818 11.828C168.818 12.2013 168.678 12.5187 168.398 12.78C168.118 13.0413 167.782 13.172 167.39 13.172C166.998 13.172 166.662 13.0413 166.382 12.78C166.102 12.5187 165.962 12.2013 165.962 11.828ZM165.962 14.572C165.962 14.1987 166.102 13.872 166.382 13.592C166.662 13.312 166.998 13.172 167.39 13.172C167.782 13.172 168.118 13.312 168.398 13.592C168.678 13.872 168.818 14.1987 168.818 14.572C168.818 14.964 168.678 15.3 168.398 15.58C168.118 15.86 167.782 16 167.39 16C166.998 16 166.662 15.86 166.382 15.58C166.102 15.3 165.962 14.964 165.962 14.572ZM165.962 28.628C165.962 28.2547 166.102 27.9373 166.382 27.676C166.662 27.4147 166.998 27.284 167.39 27.284C167.782 27.284 168.118 27.4147 168.398 27.676C168.678 27.9373 168.818 28.2547 168.818 28.628C168.818 29.02 168.678 29.3467 168.398 29.608C168.118 29.8693 167.782 30 167.39 30C166.998 30 166.662 29.8693 166.382 29.608C166.102 29.3467 165.962 29.02 165.962 28.628ZM165.962 25.884C165.962 25.492 166.102 25.1653 166.382 24.904C166.662 24.624 166.998 24.484 167.39 24.484C167.782 24.484 168.118 24.624 168.398 24.904C168.678 25.1653 168.818 25.492 168.818 25.884C168.818 26.276 168.678 26.612 168.398 26.892C168.118 27.1533 167.782 27.284 167.39 27.284C166.998 27.284 166.662 27.1533 166.382 26.892C166.102 26.612 165.962 26.276 165.962 25.884ZM168.734 23.112C168.734 22.7013 168.874 22.356 169.154 22.076C169.434 21.796 169.77 21.656 170.162 21.656C170.554 21.656 170.89 21.796 171.17 22.076C171.45 22.356 171.59 22.7013 171.59 23.112C171.59 23.5227 171.45 23.868 171.17 24.148C170.89 24.428 170.554 24.568 170.162 24.568C169.77 24.568 169.434 24.428 169.154 24.148C168.874 23.868 168.734 23.5227 168.734 23.112ZM171.59 20.256C171.59 19.864 171.72 19.5373 171.982 19.276C172.262 18.996 172.598 18.856 172.99 18.856C173.382 18.856 173.708 18.996 173.97 19.276C174.25 19.5373 174.39 19.864 174.39 20.256C174.39 20.648 174.25 20.984 173.97 21.264C173.708 21.5253 173.382 21.656 172.99 21.656C172.598 21.656 172.262 21.5253 171.982 21.264C171.72 20.984 171.59 20.648 171.59 20.256ZM174.39 17.456C174.39 17.064 174.52 16.7373 174.782 16.476C175.062 16.196 175.398 16.056 175.79 16.056C176.182 16.056 176.508 16.196 176.77 16.476C177.05 16.7373 177.19 17.064 177.19 17.456C177.19 17.848 177.05 18.184 176.77 18.464C176.508 18.7253 176.182 18.856 175.79 18.856C175.398 18.856 175.062 18.7253 174.782 18.464C174.52 18.184 174.39 17.848 174.39 17.456ZM177.19 14.656C177.19 14.264 177.33 13.9373 177.61 13.676C177.89 13.396 178.235 13.256 178.646 13.256C179.038 13.256 179.374 13.396 179.654 13.676C179.934 13.9373 180.074 14.264 180.074 14.656C180.074 15.048 179.934 15.384 179.654 15.664C179.374 15.9253 179.038 16.056 178.646 16.056C178.235 16.056 177.89 15.9253 177.61 15.664C177.33 15.384 177.19 15.048 177.19 14.656ZM177.19 11.856C177.19 11.4827 177.33 11.1653 177.61 10.904C177.89 10.624 178.235 10.484 178.646 10.484C179.038 10.484 179.374 10.624 179.654 10.904C179.934 11.1653 180.074 11.4827 180.074 11.856C180.074 12.248 179.934 12.584 179.654 12.864C179.374 13.1253 179.038 13.256 178.646 13.256C178.235 13.256 177.89 13.1253 177.61 12.864C177.33 12.584 177.19 12.248 177.19 11.856ZM168.706 17.484C168.706 17.1293 168.846 16.8213 169.126 16.56C169.424 16.2987 169.779 16.168 170.19 16.168C170.582 16.168 170.918 16.2987 171.198 16.56C171.496 16.8213 171.646 17.1293 171.646 17.484C171.646 17.8387 171.496 18.1467 171.198 18.408C170.918 18.6693 170.582 18.8 170.19 18.8C169.779 18.8 169.424 18.6693 169.126 18.408C168.846 18.1467 168.706 17.8387 168.706 17.484ZM184.151 20.2C184.151 19.8453 184.291 19.5373 184.571 19.276C184.851 19.0147 185.187 18.884 185.579 18.884C185.971 18.884 186.307 19.0147 186.587 19.276C186.867 19.5373 187.007 19.8453 187.007 20.2C187.007 20.5733 186.867 20.8907 186.587 21.152C186.307 21.4133 185.971 21.544 185.579 21.544C185.187 21.544 184.851 21.4133 184.571 21.152C184.291 20.8907 184.151 20.5733 184.151 20.2ZM184.151 28.656C184.151 28.2827 184.291 27.9653 184.571 27.704C184.851 27.4427 185.196 27.312 185.607 27.312C185.999 27.312 186.335 27.4427 186.615 27.704C186.895 27.9653 187.035 28.2827 187.035 28.656C187.035 29.0293 186.895 29.3467 186.615 29.608C186.335 29.8693 185.999 30 185.607 30C185.196 30 184.851 29.8693 184.571 29.608C184.291 29.3467 184.151 29.0293 184.151 28.656Z" fill="black"/>
<path d="M29 22L11 34L11 10L29 22Z" fill="#517B83"/>
<rect x="0.5" y="0.5" width="309" height="47" rx="7.5" stroke="black" shape-rendering="crispEdges"/>
</g>
<defs>
<filter id="filter0_d_183_2227" x="0" y="0" width="318" height="56" filterUnits="userSpaceOnUse" color-interpolation-filters="sRGB">
<feFlood flood-opacity="0" result="BackgroundImageFix"/>
<feColorMatrix in="SourceAlpha" type="matrix" values="0 0 0 0 0 0 0 0 0 0 0 0 0 0 0 0 0 0 127 0" result="hardAlpha"/>
<feOffset dx="4" dy="4"/>
<feGaussianBlur stdDeviation="2"/>
<feComposite in2="hardAlpha" operator="out"/>
<feColorMatrix type="matrix" values="0 0 0 0 0 0 0 0 0 0 0 0 0 0 0 0 0 0 0.5 0"/>
<feBlend mode="normal" in2="BackgroundImageFix" result="effect1_dropShadow_183_2227"/>
<feBlend mode="normal" in="SourceGraphic" in2="effect1_dropShadow_183_2227" result="shape"/>
</filter>
</defs>
</svg>
