<svg width="318" height="56" viewBox="0 0 318 56" fill="none" xmlns="http://www.w3.org/2000/svg">
<g filter="url(#filter0_d_183_2225)">
<rect width="290" height="28" transform="translate(8 8)" fill="white"/>
<path d="M40 28.656C40 28.2827 40.14 27.9653 40.42 27.704C40.7 27.4427 41.036 27.312 41.428 27.312C41.8013 27.312 42.128 27.4427 42.408 27.704C42.688 27.9653 42.828 28.2827 42.828 28.656C42.828 29.0293 42.688 29.3467 42.408 29.608C42.128 29.8693 41.8013 30 41.428 30C41.036 30 40.7 29.8693 40.42 29.608C40.14 29.3467 40 29.0293 40 28.656ZM42.828 28.656C42.828 28.2827 42.9587 27.9653 43.22 27.704C43.5 27.4427 43.8267 27.312 44.2 27.312C44.5733 27.312 44.8907 27.4427 45.152 27.704C45.432 27.9653 45.572 28.2827 45.572 28.656C45.572 29.0293 45.432 29.3467 45.152 29.608C44.8907 29.8693 44.5733 30 44.2 30C43.8267 30 43.5 29.8693 43.22 29.608C42.9587 29.3467 42.828 29.0293 42.828 28.656ZM45.572 28.628C45.572 28.2547 45.712 27.9373 45.992 27.676C46.272 27.4147 46.6173 27.284 47.028 27.284C47.42 27.284 47.756 27.4147 48.036 27.676C48.316 27.9373 48.456 28.2547 48.456 28.628C48.456 29.02 48.316 29.3467 48.036 29.608C47.756 29.8693 47.42 30 47.028 30C46.6173 30 46.272 29.8693 45.992 29.608C45.712 29.3467 45.572 29.02 45.572 28.628ZM48.456 25.856C48.456 25.464 48.5867 25.128 48.848 24.848C49.128 24.568 49.464 24.428 49.856 24.428C50.2293 24.428 50.5467 24.568 50.808 24.848C51.088 25.128 51.228 25.464 51.228 25.856C51.228 26.248 51.088 26.584 50.808 26.864C50.5467 27.144 50.2293 27.284 49.856 27.284C49.464 27.284 49.128 27.144 48.848 26.864C48.5867 26.584 48.456 26.248 48.456 25.856ZM48.372 23.028C48.372 22.6547 48.512 22.3373 48.792 22.076C49.072 21.796 49.408 21.656 49.8 21.656C50.192 21.656 50.528 21.796 50.808 22.076C51.088 22.3373 51.228 22.6547 51.228 23.028C51.228 23.42 51.088 23.756 50.808 24.036C50.528 24.2973 50.192 24.428 49.8 24.428C49.408 24.428 49.072 24.2973 48.792 24.036C48.512 23.756 48.372 23.42 48.372 23.028ZM45.628 20.256C45.628 19.864 45.7587 19.5373 46.02 19.276C46.3 18.996 46.6267 18.856 47 18.856C47.3733 18.856 47.6907 18.996 47.952 19.276C48.232 19.5373 48.372 19.864 48.372 20.256C48.372 20.648 48.232 20.984 47.952 21.264C47.6907 21.5253 47.3733 21.656 47 21.656C46.6267 21.656 46.3 21.5253 46.02 21.264C45.7587 20.984 45.628 20.648 45.628 20.256ZM42.8 20.228C42.8 19.8547 42.94 19.5373 43.22 19.276C43.5 18.996 43.836 18.856 44.228 18.856C44.6013 18.856 44.928 18.996 45.208 19.276C45.488 19.5373 45.628 19.8547 45.628 20.228C45.628 20.62 45.488 20.956 45.208 21.236C44.928 21.4973 44.6013 21.628 44.228 21.628C43.836 21.628 43.5 21.4973 43.22 21.236C42.94 20.956 42.8 20.62 42.8 20.228ZM40 17.456C40 17.064 40.14 16.728 40.42 16.448C40.7 16.168 41.036 16.028 41.428 16.028C41.8013 16.028 42.128 16.168 42.408 16.448C42.688 16.728 42.828 17.064 42.828 17.456C42.828 17.848 42.688 18.184 42.408 18.464C42.128 18.744 41.8013 18.884 41.428 18.884C41.036 18.884 40.7 18.744 40.42 18.464C40.14 18.184 40 17.848 40 17.456ZM40 14.656C40 14.2827 40.14 13.9653 40.42 13.704C40.7 13.4427 41.036 13.312 41.428 13.312C41.8013 13.312 42.128 13.4427 42.408 13.704C42.688 13.9653 42.828 14.2827 42.828 14.656C42.828 15.048 42.688 15.3747 42.408 15.636C42.128 15.8973 41.8013 16.028 41.428 16.028C41.036 16.028 40.7 15.8973 40.42 15.636C40.14 15.3747 40 15.048 40 14.656ZM42.828 11.884C42.828 11.5107 42.968 11.184 43.248 10.904C43.528 10.624 43.864 10.484 44.256 10.484C44.6293 10.484 44.956 10.624 45.236 10.904C45.516 11.184 45.656 11.5107 45.656 11.884C45.656 12.276 45.516 12.612 45.236 12.892C44.956 13.172 44.6293 13.312 44.256 13.312C43.864 13.312 43.528 13.172 43.248 12.892C42.968 12.612 42.828 12.276 42.828 11.884ZM45.656 11.856C45.656 11.4827 45.7867 11.1653 46.048 10.904C46.328 10.624 46.6547 10.484 47.028 10.484C47.4013 10.484 47.7187 10.624 47.98 10.904C48.26 11.1653 48.4 11.4827 48.4 11.856C48.4 12.2293 48.26 12.556 47.98 12.836C47.7187 13.0973 47.4013 13.228 47.028 13.228C46.6547 13.228 46.328 13.0973 46.048 12.836C45.7867 12.556 45.656 12.2293 45.656 11.856ZM48.4 11.856C48.4 11.4827 48.54 11.1653 48.82 10.904C49.1187 10.624 49.4733 10.484 49.884 10.484C50.276 10.484 50.612 10.624 50.892 10.904C51.1907 11.1653 51.34 11.4827 51.34 11.856C51.34 12.2293 51.1907 12.556 50.892 12.836C50.612 13.0973 50.276 13.228 49.884 13.228C49.4733 13.228 49.1187 13.0973 48.82 12.836C48.54 12.556 48.4 12.2293 48.4 11.856ZM55.4 11.856C55.4 11.4827 55.54 11.1653 55.82 10.904C56.1 10.624 56.436 10.484 56.828 10.484C57.2013 10.484 57.528 10.624 57.808 10.904C58.088 11.1653 58.228 11.4827 58.228 11.856C58.228 12.2293 58.088 12.556 57.808 12.836C57.528 13.0973 57.2013 13.228 56.828 13.228C56.436 13.228 56.1 13.0973 55.82 12.836C55.54 12.556 55.4 12.2293 55.4 11.856ZM58.228 11.856C58.228 11.4827 58.368 11.1653 58.648 10.904C58.928 10.624 59.264 10.484 59.656 10.484C60.0293 10.484 60.356 10.624 60.636 10.904C60.916 11.1653 61.056 11.4827 61.056 11.856C61.056 12.2293 60.916 12.556 60.636 12.836C60.356 13.0973 60.0293 13.228 59.656 13.228C59.264 13.228 58.928 13.0973 58.648 12.836C58.368 12.556 58.228 12.2293 58.228 11.856ZM61.056 11.856C61.056 11.4827 61.1867 11.1653 61.448 10.904C61.728 10.624 62.064 10.484 62.456 10.484C62.8293 10.484 63.1467 10.624 63.408 10.904C63.688 11.1653 63.828 11.4827 63.828 11.856C63.828 12.2293 63.688 12.556 63.408 12.836C63.1467 13.0973 62.8293 13.228 62.456 13.228C62.064 13.228 61.728 13.0973 61.448 12.836C61.1867 12.556 61.056 12.2293 61.056 11.856ZM63.828 11.856C63.828 11.4827 63.968 11.1653 64.248 10.904C64.528 10.624 64.864 10.484 65.256 10.484C65.648 10.484 65.984 10.624 66.264 10.904C66.544 11.1653 66.684 11.4827 66.684 11.856C66.684 12.2293 66.544 12.556 66.264 12.836C65.984 13.0973 65.648 13.228 65.256 13.228C64.864 13.228 64.528 13.0973 64.248 12.836C63.968 12.556 63.828 12.2293 63.828 11.856ZM55.4 14.6C55.4 14.2267 55.54 13.9093 55.82 13.648C56.1 13.368 56.436 13.228 56.828 13.228C57.22 13.228 57.556 13.368 57.836 13.648C58.116 13.9093 58.256 14.2267 58.256 14.6C58.256 14.9733 58.116 15.3 57.836 15.58C57.556 15.8413 57.22 15.972 56.828 15.972C56.436 15.972 56.1 15.8413 55.82 15.58C55.54 15.3 55.4 14.9733 55.4 14.6ZM55.4 17.344C55.4 16.9707 55.54 16.6533 55.82 16.392C56.1 16.112 56.436 15.972 56.828 15.972C57.22 15.972 57.556 16.112 57.836 16.392C58.116 16.6533 58.256 16.9707 58.256 17.344C58.256 17.736 58.116 18.072 57.836 18.352C57.556 18.6133 57.22 18.744 56.828 18.744C56.436 18.744 56.1 18.6133 55.82 18.352C55.54 18.072 55.4 17.736 55.4 17.344ZM55.4 20.116C55.4 19.7427 55.5307 19.4253 55.792 19.164C56.072 18.884 56.408 18.744 56.8 18.744C57.192 18.744 57.5187 18.884 57.78 19.164C58.06 19.4253 58.2 19.7427 58.2 20.116C58.2 20.508 58.06 20.844 57.78 21.124C57.5187 21.3853 57.192 21.516 56.8 21.516C56.408 21.516 56.072 21.3853 55.792 21.124C55.5307 20.844 55.4 20.508 55.4 20.116ZM55.4 22.944C55.4 22.552 55.5307 22.216 55.792 21.936C56.072 21.656 56.408 21.516 56.8 21.516C57.192 21.516 57.5187 21.656 57.78 21.936C58.06 22.216 58.2 22.552 58.2 22.944C58.2 23.3547 58.06 23.7 57.78 23.98C57.5187 24.26 57.192 24.4 56.8 24.4C56.408 24.4 56.072 24.26 55.792 23.98C55.5307 23.7 55.4 23.3547 55.4 22.944ZM55.4 25.772C55.4 25.3987 55.5307 25.0813 55.792 24.82C56.072 24.54 56.408 24.4 56.8 24.4C57.192 24.4 57.5187 24.54 57.78 24.82C58.06 25.0813 58.2 25.3987 58.2 25.772C58.2 26.164 58.06 26.5 57.78 26.78C57.5187 27.0413 57.192 27.172 56.8 27.172C56.408 27.172 56.072 27.0413 55.792 26.78C55.5307 26.5 55.4 26.164 55.4 25.772ZM55.4 28.572C55.4 28.1987 55.5307 27.872 55.792 27.592C56.072 27.312 56.408 27.172 56.8 27.172C57.192 27.172 57.5187 27.312 57.78 27.592C58.06 27.872 58.2 28.1987 58.2 28.572C58.2 28.964 58.06 29.3 57.78 29.58C57.5187 29.86 57.192 30 56.8 30C56.408 30 56.072 29.86 55.792 29.58C55.5307 29.3 55.4 28.964 55.4 28.572ZM58.2 28.628C58.2 28.2547 58.34 27.9373 58.62 27.676C58.9 27.396 59.2453 27.256 59.656 27.256C60.048 27.256 60.384 27.396 60.664 27.676C60.944 27.9373 61.084 28.2547 61.084 28.628C61.084 29.0013 60.944 29.328 60.664 29.608C60.384 29.8693 60.048 30 59.656 30C59.2453 30 58.9 29.8693 58.62 29.608C58.34 29.328 58.2 29.0013 58.2 28.628ZM61.084 28.628C61.084 28.2547 61.2147 27.9373 61.476 27.676C61.7373 27.396 62.064 27.256 62.456 27.256C62.8293 27.256 63.1467 27.396 63.408 27.676C63.6693 27.9373 63.8 28.2547 63.8 28.628C63.8 29.0013 63.6693 29.328 63.408 29.608C63.1467 29.8693 62.8293 30 62.456 30C62.064 30 61.7373 29.8693 61.476 29.608C61.2147 29.328 61.084 29.0013 61.084 28.628ZM63.8 28.6C63.8 28.2267 63.94 27.9093 64.22 27.648C64.5 27.368 64.8453 27.228 65.256 27.228C65.648 27.228 65.984 27.368 66.264 27.648C66.544 27.9093 66.684 28.2267 66.684 28.6C66.684 28.992 66.544 29.328 66.264 29.608C65.984 29.8693 65.648 30 65.256 30C64.8453 30 64.5 29.8693 64.22 29.608C63.94 29.328 63.8 28.992 63.8 28.6ZM58.172 20.2C58.172 19.7893 58.312 19.444 58.592 19.164C58.872 18.884 59.2173 18.744 59.628 18.744C60.0387 18.744 60.384 18.884 60.664 19.164C60.944 19.444 61.084 19.7893 61.084 20.2C61.084 20.6107 60.944 20.956 60.664 21.236C60.384 21.516 60.0387 21.656 59.628 21.656C59.2173 21.656 58.872 21.516 58.592 21.236C58.312 20.956 58.172 20.6107 58.172 20.2ZM61.084 20.228C61.084 19.8547 61.2147 19.528 61.476 19.248C61.756 18.968 62.092 18.828 62.484 18.828C62.8573 18.828 63.1747 18.968 63.436 19.248C63.716 19.528 63.856 19.8547 63.856 20.228C63.856 20.62 63.716 20.956 63.436 21.236C63.1747 21.516 62.8573 21.656 62.484 21.656C62.092 21.656 61.756 21.516 61.476 21.236C61.2147 20.956 61.084 20.62 61.084 20.228ZM70.8 11.856C70.8 11.4827 70.94 11.1653 71.22 10.904C71.5 10.624 71.8453 10.484 72.256 10.484C72.648 10.484 72.984 10.624 73.264 10.904C73.544 11.1653 73.684 11.4827 73.684 11.856C73.684 12.248 73.544 12.584 73.264 12.864C72.984 13.1253 72.648 13.256 72.256 13.256C71.8453 13.256 71.5 13.1253 71.22 12.864C70.94 12.584 70.8 12.248 70.8 11.856ZM70.8 14.656C70.8 14.2827 70.94 13.956 71.22 13.676C71.5 13.396 71.8453 13.256 72.256 13.256C72.648 13.256 72.984 13.396 73.264 13.676C73.544 13.956 73.684 14.2827 73.684 14.656C73.684 15.048 73.544 15.384 73.264 15.664C72.984 15.944 72.648 16.084 72.256 16.084C71.8453 16.084 71.5 15.944 71.22 15.664C70.94 15.384 70.8 15.048 70.8 14.656ZM70.8 17.428C70.8 17.0547 70.94 16.7373 71.22 16.476C71.5 16.2147 71.8453 16.084 72.256 16.084C72.6667 16.084 73.012 16.2147 73.292 16.476C73.572 16.7373 73.712 17.0547 73.712 17.428C73.712 17.8013 73.572 18.1187 73.292 18.38C73.012 18.6413 72.6667 18.772 72.256 18.772C71.8453 18.772 71.5 18.6413 71.22 18.38C70.94 18.1187 70.8 17.8013 70.8 17.428ZM70.8 20.172C70.8 19.7987 70.94 19.472 71.22 19.192C71.5 18.912 71.8453 18.772 72.256 18.772C72.6667 18.772 73.012 18.912 73.292 19.192C73.572 19.472 73.712 19.7987 73.712 20.172C73.712 20.564 73.572 20.9 73.292 21.18C73.012 21.46 72.6667 21.6 72.256 21.6C71.8453 21.6 71.5 21.46 71.22 21.18C70.94 20.9 70.8 20.564 70.8 20.172ZM70.8 23C70.8 22.608 70.94 22.2813 71.22 22.02C71.5 21.74 71.8453 21.6 72.256 21.6C72.648 21.6 72.984 21.74 73.264 22.02C73.544 22.2813 73.684 22.608 73.684 23C73.684 23.392 73.544 23.728 73.264 24.008C72.984 24.2693 72.648 24.4 72.256 24.4C71.8453 24.4 71.5 24.2693 71.22 24.008C70.94 23.728 70.8 23.392 70.8 23ZM70.8 25.8C70.8 25.4267 70.94 25.1 71.22 24.82C71.5 24.54 71.8453 24.4 72.256 24.4C72.648 24.4 72.984 24.54 73.264 24.82C73.544 25.1 73.684 25.4267 73.684 25.8C73.684 26.192 73.544 26.528 73.264 26.808C72.984 27.088 72.648 27.228 72.256 27.228C71.8453 27.228 71.5 27.088 71.22 26.808C70.94 26.528 70.8 26.192 70.8 25.8ZM70.8 28.6C70.8 28.2267 70.94 27.9093 71.22 27.648C71.5 27.368 71.836 27.228 72.228 27.228C72.6013 27.228 72.928 27.368 73.208 27.648C73.488 27.9093 73.628 28.2267 73.628 28.6C73.628 28.992 73.488 29.328 73.208 29.608C72.928 29.8693 72.6013 30 72.228 30C71.836 30 71.5 29.8693 71.22 29.608C70.94 29.328 70.8 28.992 70.8 28.6ZM73.628 28.628C73.628 28.2547 73.768 27.9373 74.048 27.676C74.328 27.4147 74.664 27.284 75.056 27.284C75.4293 27.284 75.756 27.4147 76.036 27.676C76.316 27.9373 76.456 28.2547 76.456 28.628C76.456 29.02 76.316 29.3467 76.036 29.608C75.756 29.8693 75.4293 30 75.056 30C74.664 30 74.328 29.8693 74.048 29.608C73.768 29.3467 73.628 29.02 73.628 28.628ZM76.456 28.628C76.456 28.2547 76.5867 27.9373 76.848 27.676C77.128 27.4147 77.464 27.284 77.856 27.284C78.2293 27.284 78.5467 27.4147 78.808 27.676C79.088 27.9373 79.228 28.2547 79.228 28.628C79.228 29.02 79.088 29.3467 78.808 29.608C78.5467 29.8693 78.2293 30 77.856 30C77.464 30 77.128 29.8693 76.848 29.608C76.5867 29.3467 76.456 29.02 76.456 28.628ZM79.228 28.628C79.228 28.2547 79.368 27.9373 79.648 27.676C79.928 27.396 80.264 27.256 80.656 27.256C81.048 27.256 81.384 27.396 81.664 27.676C81.944 27.9373 82.084 28.2547 82.084 28.628C82.084 29.0013 81.944 29.328 81.664 29.608C81.384 29.8693 81.048 30 80.656 30C80.264 30 79.928 29.8693 79.648 29.608C79.368 29.328 79.228 29.0013 79.228 28.628ZM86.2 11.856C86.2 11.4827 86.34 11.1653 86.62 10.904C86.9 10.624 87.2453 10.484 87.656 10.484C88.048 10.484 88.384 10.624 88.664 10.904C88.944 11.1653 89.084 11.4827 89.084 11.856C89.084 12.248 88.944 12.584 88.664 12.864C88.384 13.1253 88.048 13.256 87.656 13.256C87.2453 13.256 86.9 13.1253 86.62 12.864C86.34 12.584 86.2 12.248 86.2 11.856ZM86.2 14.656C86.2 14.2827 86.34 13.956 86.62 13.676C86.9 13.396 87.2453 13.256 87.656 13.256C88.048 13.256 88.384 13.396 88.664 13.676C88.944 13.956 89.084 14.2827 89.084 14.656C89.084 15.048 88.944 15.384 88.664 15.664C88.384 15.944 88.048 16.084 87.656 16.084C87.2453 16.084 86.9 15.944 86.62 15.664C86.34 15.384 86.2 15.048 86.2 14.656ZM86.2 17.428C86.2 17.0547 86.34 16.7373 86.62 16.476C86.9 16.2147 87.2453 16.084 87.656 16.084C88.0667 16.084 88.412 16.2147 88.692 16.476C88.972 16.7373 89.112 17.0547 89.112 17.428C89.112 17.8013 88.972 18.1187 88.692 18.38C88.412 18.6413 88.0667 18.772 87.656 18.772C87.2453 18.772 86.9 18.6413 86.62 18.38C86.34 18.1187 86.2 17.8013 86.2 17.428ZM86.2 20.172C86.2 19.7987 86.34 19.472 86.62 19.192C86.9 18.912 87.2453 18.772 87.656 18.772C88.0667 18.772 88.412 18.912 88.692 19.192C88.972 19.472 89.112 19.7987 89.112 20.172C89.112 20.564 88.972 20.9 88.692 21.18C88.412 21.46 88.0667 21.6 87.656 21.6C87.2453 21.6 86.9 21.46 86.62 21.18C86.34 20.9 86.2 20.564 86.2 20.172ZM86.2 23C86.2 22.608 86.34 22.2813 86.62 22.02C86.9 21.74 87.2453 21.6 87.656 21.6C88.048 21.6 88.384 21.74 88.664 22.02C88.944 22.2813 89.084 22.608 89.084 23C89.084 23.392 88.944 23.728 88.664 24.008C88.384 24.2693 88.048 24.4 87.656 24.4C87.2453 24.4 86.9 24.2693 86.62 24.008C86.34 23.728 86.2 23.392 86.2 23ZM86.2 25.8C86.2 25.4267 86.34 25.1 86.62 24.82C86.9 24.54 87.2453 24.4 87.656 24.4C88.048 24.4 88.384 24.54 88.664 24.82C88.944 25.1 89.084 25.4267 89.084 25.8C89.084 26.192 88.944 26.528 88.664 26.808C88.384 27.088 88.048 27.228 87.656 27.228C87.2453 27.228 86.9 27.088 86.62 26.808C86.34 26.528 86.2 26.192 86.2 25.8ZM86.2 28.6C86.2 28.2267 86.34 27.9093 86.62 27.648C86.9 27.368 87.236 27.228 87.628 27.228C88.0013 27.228 88.328 27.368 88.608 27.648C88.888 27.9093 89.028 28.2267 89.028 28.6C89.028 28.992 88.888 29.328 88.608 29.608C88.328 29.8693 88.0013 30 87.628 30C87.236 30 86.9 29.8693 86.62 29.608C86.34 29.328 86.2 28.992 86.2 28.6ZM89.028 28.628C89.028 28.2547 89.168 27.9373 89.448 27.676C89.728 27.4147 90.064 27.284 90.456 27.284C90.8293 27.284 91.156 27.4147 91.436 27.676C91.716 27.9373 91.856 28.2547 91.856 28.628C91.856 29.02 91.716 29.3467 91.436 29.608C91.156 29.8693 90.8293 30 90.456 30C90.064 30 89.728 29.8693 89.448 29.608C89.168 29.3467 89.028 29.02 89.028 28.628ZM91.856 28.628C91.856 28.2547 91.9867 27.9373 92.248 27.676C92.528 27.4147 92.864 27.284 93.256 27.284C93.6293 27.284 93.9467 27.4147 94.208 27.676C94.488 27.9373 94.628 28.2547 94.628 28.628C94.628 29.02 94.488 29.3467 94.208 29.608C93.9467 29.8693 93.6293 30 93.256 30C92.864 30 92.528 29.8693 92.248 29.608C91.9867 29.3467 91.856 29.02 91.856 28.628ZM94.628 28.628C94.628 28.2547 94.768 27.9373 95.048 27.676C95.328 27.396 95.664 27.256 96.056 27.256C96.448 27.256 96.784 27.396 97.064 27.676C97.344 27.9373 97.484 28.2547 97.484 28.628C97.484 29.0013 97.344 29.328 97.064 29.608C96.784 29.8693 96.448 30 96.056 30C95.664 30 95.328 29.8693 95.048 29.608C94.768 29.328 94.628 29.0013 94.628 28.628ZM119.762 28.628C119.762 28.2547 119.902 27.9373 120.182 27.676C120.462 27.4147 120.798 27.284 121.19 27.284C121.582 27.284 121.918 27.4147 122.198 27.676C122.478 27.9373 122.618 28.2547 122.618 28.628C122.618 29.02 122.478 29.3467 122.198 29.608C121.918 29.8693 121.582 30 121.19 30C120.798 30 120.462 29.8693 120.182 29.608C119.902 29.3467 119.762 29.02 119.762 28.628ZM122.618 28.628C122.618 28.2547 122.748 27.9373 123.01 27.676C123.29 27.4147 123.626 27.284 124.018 27.284C124.391 27.284 124.708 27.4147 124.97 27.676C125.25 27.9373 125.39 28.2547 125.39 28.628C125.39 29.02 125.25 29.3467 124.97 29.608C124.708 29.8693 124.391 30 124.018 30C123.626 30 123.29 29.8693 123.01 29.608C122.748 29.3467 122.618 29.02 122.618 28.628ZM125.39 28.628C125.39 28.2547 125.52 27.9373 125.782 27.676C126.062 27.396 126.398 27.256 126.79 27.256C127.182 27.256 127.508 27.396 127.77 27.676C128.05 27.9373 128.19 28.2547 128.19 28.628C128.19 29.0013 128.05 29.328 127.77 29.608C127.508 29.8693 127.182 30 126.79 30C126.398 30 126.062 29.8693 125.782 29.608C125.52 29.328 125.39 29.0013 125.39 28.628ZM128.218 25.856C128.218 25.4827 128.358 25.1653 128.638 24.904C128.918 24.624 129.254 24.484 129.646 24.484C130.038 24.484 130.374 24.624 130.654 24.904C130.934 25.1653 131.074 25.4827 131.074 25.856C131.074 26.248 130.934 26.584 130.654 26.864C130.374 27.1253 130.038 27.256 129.646 27.256C129.254 27.256 128.918 27.1253 128.638 26.864C128.358 26.584 128.218 26.248 128.218 25.856ZM128.078 23.056C128.078 22.664 128.218 22.328 128.498 22.048C128.796 21.768 129.16 21.628 129.59 21.628C130 21.628 130.346 21.768 130.626 22.048C130.924 22.328 131.074 22.664 131.074 23.056C131.074 23.448 130.924 23.784 130.626 24.064C130.346 24.344 130 24.484 129.59 24.484C129.16 24.484 128.796 24.344 128.498 24.064C128.218 23.784 128.078 23.448 128.078 23.056ZM125.362 20.256C125.362 19.8827 125.492 19.5653 125.754 19.304C126.015 19.024 126.342 18.884 126.734 18.884C127.107 18.884 127.424 19.024 127.686 19.304C127.947 19.5653 128.078 19.8827 128.078 20.256C128.078 20.6293 127.947 20.956 127.686 21.236C127.424 21.4973 127.107 21.628 126.734 21.628C126.342 21.628 126.015 21.4973 125.754 21.236C125.492 20.956 125.362 20.6293 125.362 20.256ZM122.59 20.256C122.59 19.8827 122.72 19.5653 122.982 19.304C123.262 19.024 123.598 18.884 123.99 18.884C124.363 18.884 124.68 19.024 124.942 19.304C125.222 19.5653 125.362 19.8827 125.362 20.256C125.362 20.648 125.222 20.984 124.942 21.264C124.68 21.5253 124.363 21.656 123.99 21.656C123.598 21.656 123.262 21.5253 122.982 21.264C122.72 20.984 122.59 20.648 122.59 20.256ZM119.762 20.256C119.762 19.8827 119.902 19.5653 120.182 19.304C120.462 19.024 120.798 18.884 121.19 18.884C121.563 18.884 121.89 19.024 122.17 19.304C122.45 19.5653 122.59 19.8827 122.59 20.256C122.59 20.648 122.45 20.984 122.17 21.264C121.89 21.5253 121.563 21.656 121.19 21.656C120.798 21.656 120.462 21.5253 120.182 21.264C119.902 20.984 119.762 20.648 119.762 20.256ZM119.762 17.484C119.762 17.092 119.902 16.7653 120.182 16.504C120.462 16.224 120.807 16.084 121.218 16.084C121.628 16.084 121.974 16.224 122.254 16.504C122.534 16.7653 122.674 17.092 122.674 17.484C122.674 17.876 122.534 18.212 122.254 18.492C121.974 18.7533 121.628 18.884 121.218 18.884C120.807 18.884 120.462 18.7533 120.182 18.492C119.902 18.212 119.762 17.876 119.762 17.484ZM119.762 14.684C119.762 14.292 119.902 13.9653 120.182 13.704C120.462 13.424 120.807 13.284 121.218 13.284C121.628 13.284 121.974 13.424 122.254 13.704C122.534 13.9653 122.674 14.292 122.674 14.684C122.674 15.076 122.534 15.412 122.254 15.692C121.974 15.9533 121.628 16.084 121.218 16.084C120.807 16.084 120.462 15.9533 120.182 15.692C119.902 15.412 119.762 15.076 119.762 14.684ZM119.762 11.884C119.762 11.492 119.902 11.1653 120.182 10.904C120.462 10.624 120.798 10.484 121.19 10.484C121.563 10.484 121.89 10.624 122.17 10.904C122.45 11.1653 122.59 11.492 122.59 11.884C122.59 12.276 122.45 12.612 122.17 12.892C121.89 13.1533 121.563 13.284 121.19 13.284C120.798 13.284 120.462 13.1533 120.182 12.892C119.902 12.612 119.762 12.276 119.762 11.884ZM122.59 11.8C122.59 11.4453 122.73 11.1373 123.01 10.876C123.29 10.6147 123.626 10.484 124.018 10.484C124.391 10.484 124.718 10.6147 124.998 10.876C125.278 11.1373 125.418 11.4453 125.418 11.8C125.418 12.1547 125.278 12.4627 124.998 12.724C124.718 12.9853 124.391 13.116 124.018 13.116C123.626 13.116 123.29 12.9853 123.01 12.724C122.73 12.4627 122.59 12.1547 122.59 11.8ZM125.418 11.8C125.418 11.4453 125.548 11.1373 125.81 10.876C126.09 10.6147 126.426 10.484 126.818 10.484C127.21 10.484 127.536 10.6147 127.798 10.876C128.078 11.1373 128.218 11.4453 128.218 11.8C128.218 12.1547 128.078 12.4627 127.798 12.724C127.536 12.9853 127.21 13.116 126.818 13.116C126.426 13.116 126.09 12.9853 125.81 12.724C125.548 12.4627 125.418 12.1547 125.418 11.8ZM128.134 14.628C128.134 14.2547 128.264 13.9373 128.526 13.676C128.787 13.4147 129.104 13.284 129.478 13.284C129.851 13.284 130.168 13.4147 130.43 13.676C130.691 13.9373 130.822 14.2547 130.822 14.628C130.822 15.0013 130.691 15.3187 130.43 15.58C130.168 15.8413 129.851 15.972 129.478 15.972C129.104 15.972 128.787 15.8413 128.526 15.58C128.264 15.3187 128.134 15.0013 128.134 14.628ZM128.246 17.456C128.246 17.064 128.376 16.728 128.638 16.448C128.918 16.168 129.254 16.028 129.646 16.028C130.019 16.028 130.336 16.168 130.598 16.448C130.878 16.728 131.018 17.064 131.018 17.456C131.018 17.8667 130.878 18.212 130.598 18.492C130.336 18.772 130.019 18.912 129.646 18.912C129.254 18.912 128.918 18.772 128.638 18.492C128.376 18.212 128.246 17.8667 128.246 17.456ZM119.762 23.084C119.762 22.7107 119.902 22.3933 120.182 22.132C120.462 21.8707 120.807 21.74 121.218 21.74C121.61 21.74 121.946 21.8707 122.226 22.132C122.506 22.3933 122.646 22.7107 122.646 23.084C122.646 23.4573 122.506 23.7747 122.226 24.036C121.946 24.2973 121.61 24.428 121.218 24.428C120.807 24.428 120.462 24.2973 120.182 24.036C119.902 23.7747 119.762 23.4573 119.762 23.084ZM119.762 25.828C119.762 25.436 119.902 25.1093 120.182 24.848C120.462 24.568 120.807 24.428 121.218 24.428C121.61 24.428 121.946 24.568 122.226 24.848C122.506 25.1093 122.646 25.436 122.646 25.828C122.646 26.22 122.506 26.556 122.226 26.836C121.946 27.0973 121.61 27.228 121.218 27.228C120.807 27.228 120.462 27.0973 120.182 26.836C119.902 26.556 119.762 26.22 119.762 25.828ZM135.162 11.828C135.162 11.4547 135.302 11.1373 135.582 10.876C135.862 10.6147 136.198 10.484 136.59 10.484C136.982 10.484 137.318 10.6147 137.598 10.876C137.878 11.1373 138.018 11.4547 138.018 11.828C138.018 12.2013 137.878 12.5187 137.598 12.78C137.318 13.0413 136.982 13.172 136.59 13.172C136.198 13.172 135.862 13.0413 135.582 12.78C135.302 12.5187 135.162 12.2013 135.162 11.828ZM135.162 14.572C135.162 14.1987 135.302 13.872 135.582 13.592C135.862 13.312 136.198 13.172 136.59 13.172C136.982 13.172 137.318 13.312 137.598 13.592C137.878 13.872 138.018 14.1987 138.018 14.572C138.018 14.964 137.878 15.3 137.598 15.58C137.318 15.86 136.982 16 136.59 16C136.198 16 135.862 15.86 135.582 15.58C135.302 15.3 135.162 14.964 135.162 14.572ZM135.162 28.628C135.162 28.2547 135.302 27.9373 135.582 27.676C135.862 27.4147 136.198 27.284 136.59 27.284C136.982 27.284 137.318 27.4147 137.598 27.676C137.878 27.9373 138.018 28.2547 138.018 28.628C138.018 29.02 137.878 29.3467 137.598 29.608C137.318 29.8693 136.982 30 136.59 30C136.198 30 135.862 29.8693 135.582 29.608C135.302 29.3467 135.162 29.02 135.162 28.628ZM135.162 25.884C135.162 25.492 135.302 25.1653 135.582 24.904C135.862 24.624 136.198 24.484 136.59 24.484C136.982 24.484 137.318 24.624 137.598 24.904C137.878 25.1653 138.018 25.492 138.018 25.884C138.018 26.276 137.878 26.612 137.598 26.892C137.318 27.1533 136.982 27.284 136.59 27.284C136.198 27.284 135.862 27.1533 135.582 26.892C135.302 26.612 135.162 26.276 135.162 25.884ZM137.934 23.112C137.934 22.7013 138.074 22.356 138.354 22.076C138.634 21.796 138.97 21.656 139.362 21.656C139.754 21.656 140.09 21.796 140.37 22.076C140.65 22.356 140.79 22.7013 140.79 23.112C140.79 23.5227 140.65 23.868 140.37 24.148C140.09 24.428 139.754 24.568 139.362 24.568C138.97 24.568 138.634 24.428 138.354 24.148C138.074 23.868 137.934 23.5227 137.934 23.112ZM140.79 20.256C140.79 19.864 140.92 19.5373 141.182 19.276C141.462 18.996 141.798 18.856 142.19 18.856C142.582 18.856 142.908 18.996 143.17 19.276C143.45 19.5373 143.59 19.864 143.59 20.256C143.59 20.648 143.45 20.984 143.17 21.264C142.908 21.5253 142.582 21.656 142.19 21.656C141.798 21.656 141.462 21.5253 141.182 21.264C140.92 20.984 140.79 20.648 140.79 20.256ZM143.59 17.456C143.59 17.064 143.72 16.7373 143.982 16.476C144.262 16.196 144.598 16.056 144.99 16.056C145.382 16.056 145.708 16.196 145.97 16.476C146.25 16.7373 146.39 17.064 146.39 17.456C146.39 17.848 146.25 18.184 145.97 18.464C145.708 18.7253 145.382 18.856 144.99 18.856C144.598 18.856 144.262 18.7253 143.982 18.464C143.72 18.184 143.59 17.848 143.59 17.456ZM146.39 14.656C146.39 14.264 146.53 13.9373 146.81 13.676C147.09 13.396 147.435 13.256 147.846 13.256C148.238 13.256 148.574 13.396 148.854 13.676C149.134 13.9373 149.274 14.264 149.274 14.656C149.274 15.048 149.134 15.384 148.854 15.664C148.574 15.9253 148.238 16.056 147.846 16.056C147.435 16.056 147.09 15.9253 146.81 15.664C146.53 15.384 146.39 15.048 146.39 14.656ZM146.39 11.856C146.39 11.4827 146.53 11.1653 146.81 10.904C147.09 10.624 147.435 10.484 147.846 10.484C148.238 10.484 148.574 10.624 148.854 10.904C149.134 11.1653 149.274 11.4827 149.274 11.856C149.274 12.248 149.134 12.584 148.854 12.864C148.574 13.1253 148.238 13.256 147.846 13.256C147.435 13.256 147.09 13.1253 146.81 12.864C146.53 12.584 146.39 12.248 146.39 11.856ZM137.906 17.484C137.906 17.1293 138.046 16.8213 138.326 16.56C138.624 16.2987 138.979 16.168 139.39 16.168C139.782 16.168 140.118 16.2987 140.398 16.56C140.696 16.8213 140.846 17.1293 140.846 17.484C140.846 17.8387 140.696 18.1467 140.398 18.408C140.118 18.6693 139.782 18.8 139.39 18.8C138.979 18.8 138.624 18.6693 138.326 18.408C138.046 18.1467 137.906 17.8387 137.906 17.484ZM153.351 20.2C153.351 19.8453 153.491 19.5373 153.771 19.276C154.051 19.0147 154.387 18.884 154.779 18.884C155.171 18.884 155.507 19.0147 155.787 19.276C156.067 19.5373 156.207 19.8453 156.207 20.2C156.207 20.5733 156.067 20.8907 155.787 21.152C155.507 21.4133 155.171 21.544 154.779 21.544C154.387 21.544 154.051 21.4133 153.771 21.152C153.491 20.8907 153.351 20.5733 153.351 20.2ZM153.351 28.656C153.351 28.2827 153.491 27.9653 153.771 27.704C154.051 27.4427 154.396 27.312 154.807 27.312C155.199 27.312 155.535 27.4427 155.815 27.704C156.095 27.9653 156.235 28.2827 156.235 28.656C156.235 29.0293 156.095 29.3467 155.815 29.608C155.535 29.8693 155.199 30 154.807 30C154.396 30 154.051 29.8693 153.771 29.608C153.491 29.3467 153.351 29.0293 153.351 28.656Z" fill="black"/>
<path d="M29 22L11 34L11 10L29 22Z" fill="#517B83"/>
<rect x="0.5" y="0.5" width="309" height="47" rx="7.5" stroke="black" shape-rendering="crispEdges"/>
</g>
<defs>
<filter id="filter0_d_183_2225" x="0" y="0" width="318" height="56" filterUnits="userSpaceOnUse" color-interpolation-filters="sRGB">
<feFlood flood-opacity="0" result="BackgroundImageFix"/>
<feColorMatrix in="SourceAlpha" type="matrix" values="0 0 0 0 0 0 0 0 0 0 0 0 0 0 0 0 0 0 127 0" result="hardAlpha"/>
<feOffset dx="4" dy="4"/>
<feGaussianBlur stdDeviation="2"/>
<feComposite in2="hardAlpha" operator="out"/>
<feColorMatrix type="matrix" values="0 0 0 0 0 0 0 0 0 0 0 0 0 0 0 0 0 0 0.5 0"/>
<feBlend mode="normal" in2="BackgroundImageFix" result="effect1_dropShadow_183_2225"/>
<feBlend mode="normal" in="SourceGraphic" in2="effect1_dropShadow_183_2225" result="shape"/>
</filter>
</defs>
</svg>
