<svg width="408" height="440" viewBox="0 0 408 440" fill="none" xmlns="http://www.w3.org/2000/svg">
<g filter="url(#filter0_d_183_5481)">
<rect x="4" width="400" height="432" rx="20" fill="#ECF5F6"/>
</g>
<path fill-rule="evenodd" clip-rule="evenodd" d="M205.125 370C224.546 370 236.842 352.857 228.568 330C221.845 311.429 205.125 290 205.125 290C205.125 290 188.421 310 180.216 330C170.839 352.857 185.704 370 205.125 370Z" fill="#386667"/>
<path d="M68.8889 109.776V110.976H80.8889V109.776H68.8889ZM80.4089 109.776V110.976H92.4089V109.776H80.4089ZM91.9289 109.776V110.976H103.929V109.776H91.9289ZM116.729 105.072C116.201 105.072 115.761 104.96 115.409 104.736C115.057 104.512 114.769 104.224 114.545 103.872C114.337 103.52 114.185 103.128 114.089 102.696C114.009 102.248 113.969 101.8 113.969 101.352C113.969 100.888 114.017 100.448 114.113 100.032C114.225 99.6 114.393 99.224 114.617 98.904C114.857 98.568 115.145 98.304 115.481 98.112C115.833 97.92 116.249 97.824 116.729 97.824C117.289 97.824 117.753 97.928 118.121 98.136C118.489 98.344 118.785 98.624 119.009 98.976C119.233 99.328 119.393 99.736 119.489 100.2C119.585 100.648 119.633 101.128 119.633 101.64C119.633 102.088 119.569 102.52 119.441 102.936C119.329 103.336 119.153 103.696 118.913 104.016C118.673 104.336 118.369 104.592 118.001 104.784C117.633 104.976 117.209 105.072 116.729 105.072ZM122.873 107.208V95.592H119.633V97.248H119.585C119.169 96.528 118.649 96.016 118.025 95.712C117.417 95.408 116.705 95.256 115.889 95.256C115.025 95.256 114.257 95.424 113.585 95.76C112.929 96.096 112.377 96.552 111.929 97.128C111.481 97.688 111.137 98.344 110.897 99.096C110.673 99.832 110.561 100.6 110.561 101.4C110.561 102.248 110.657 103.056 110.849 103.824C111.057 104.576 111.377 105.24 111.809 105.816C112.241 106.376 112.793 106.824 113.465 107.16C114.137 107.48 114.937 107.64 115.865 107.64C116.617 107.64 117.329 107.488 118.001 107.184C118.689 106.864 119.217 106.376 119.585 105.72H119.633V107.352C119.649 108.232 119.433 108.96 118.985 109.536C118.553 110.112 117.857 110.4 116.897 110.4C116.289 110.4 115.753 110.272 115.289 110.016C114.825 109.776 114.513 109.336 114.353 108.696H110.969C111.017 109.4 111.209 110 111.545 110.496C111.897 111.008 112.329 111.424 112.841 111.744C113.369 112.064 113.945 112.296 114.569 112.44C115.209 112.6 115.833 112.68 116.441 112.68C117.865 112.68 119.001 112.488 119.849 112.104C120.697 111.72 121.345 111.248 121.793 110.688C122.241 110.144 122.529 109.552 122.657 108.912C122.801 108.272 122.873 107.704 122.873 107.208ZM124.992 99.408C125.04 98.608 125.24 97.944 125.592 97.416C125.944 96.888 126.392 96.464 126.936 96.144C127.48 95.824 128.088 95.6 128.76 95.472C129.448 95.328 130.136 95.256 130.824 95.256C131.448 95.256 132.08 95.304 132.72 95.4C133.36 95.48 133.944 95.648 134.472 95.904C135 96.16 135.432 96.52 135.768 96.984C136.104 97.432 136.272 98.032 136.272 98.784V105.24C136.272 105.8 136.304 106.336 136.368 106.848C136.432 107.36 136.544 107.744 136.704 108H133.248C133.184 107.808 133.128 107.616 133.08 107.424C133.048 107.216 133.024 107.008 133.008 106.8C132.464 107.36 131.824 107.752 131.088 107.976C130.352 108.2 129.6 108.312 128.832 108.312C128.24 108.312 127.688 108.24 127.176 108.096C126.664 107.952 126.216 107.728 125.832 107.424C125.448 107.12 125.144 106.736 124.92 106.272C124.712 105.808 124.608 105.256 124.608 104.616C124.608 103.912 124.728 103.336 124.968 102.888C125.224 102.424 125.544 102.056 125.928 101.784C126.328 101.512 126.776 101.312 127.272 101.184C127.784 101.04 128.296 100.928 128.808 100.848C129.32 100.768 129.824 100.704 130.32 100.656C130.816 100.608 131.256 100.536 131.64 100.44C132.024 100.344 132.328 100.208 132.552 100.032C132.776 99.84 132.88 99.568 132.864 99.216C132.864 98.848 132.8 98.56 132.672 98.352C132.56 98.128 132.4 97.96 132.192 97.848C132 97.72 131.768 97.64 131.496 97.608C131.24 97.56 130.96 97.536 130.656 97.536C129.984 97.536 129.456 97.68 129.072 97.968C128.688 98.256 128.464 98.736 128.4 99.408H124.992ZM132.864 101.928C132.72 102.056 132.536 102.16 132.312 102.24C132.104 102.304 131.872 102.36 131.616 102.408C131.376 102.456 131.12 102.496 130.848 102.528C130.576 102.56 130.304 102.6 130.032 102.648C129.776 102.696 129.52 102.76 129.264 102.84C129.024 102.92 128.808 103.032 128.616 103.176C128.44 103.304 128.296 103.472 128.184 103.68C128.072 103.888 128.016 104.152 128.016 104.472C128.016 104.776 128.072 105.032 128.184 105.24C128.296 105.448 128.448 105.616 128.64 105.744C128.832 105.856 129.056 105.936 129.312 105.984C129.568 106.032 129.832 106.056 130.104 106.056C130.776 106.056 131.296 105.944 131.664 105.72C132.032 105.496 132.304 105.232 132.48 104.928C132.656 104.608 132.76 104.288 132.792 103.968C132.84 103.648 132.864 103.392 132.864 103.2V101.928ZM138.534 90.864V108H141.942V90.864H138.534ZM144.241 90.864V108H147.649V90.864H144.241ZM152.877 101.808C152.877 101.312 152.925 100.824 153.021 100.344C153.117 99.864 153.277 99.44 153.501 99.072C153.741 98.704 154.053 98.408 154.437 98.184C154.821 97.944 155.301 97.824 155.877 97.824C156.453 97.824 156.933 97.944 157.317 98.184C157.717 98.408 158.029 98.704 158.253 99.072C158.493 99.44 158.661 99.864 158.757 100.344C158.853 100.824 158.901 101.312 158.901 101.808C158.901 102.304 158.853 102.792 158.757 103.272C158.661 103.736 158.493 104.16 158.253 104.544C158.029 104.912 157.717 105.208 157.317 105.432C156.933 105.656 156.453 105.768 155.877 105.768C155.301 105.768 154.821 105.656 154.437 105.432C154.053 105.208 153.741 104.912 153.501 104.544C153.277 104.16 153.117 103.736 153.021 103.272C152.925 102.792 152.877 102.304 152.877 101.808ZM149.469 101.808C149.469 102.8 149.621 103.696 149.925 104.496C150.229 105.296 150.661 105.984 151.221 106.56C151.781 107.12 152.453 107.552 153.237 107.856C154.021 108.16 154.901 108.312 155.877 108.312C156.853 108.312 157.733 108.16 158.517 107.856C159.317 107.552 159.997 107.12 160.557 106.56C161.117 105.984 161.549 105.296 161.853 104.496C162.157 103.696 162.309 102.8 162.309 101.808C162.309 100.816 162.157 99.92 161.853 99.12C161.549 98.304 161.117 97.616 160.557 97.056C159.997 96.48 159.317 96.04 158.517 95.736C157.733 95.416 156.853 95.256 155.877 95.256C154.901 95.256 154.021 95.416 153.237 95.736C152.453 96.04 151.781 96.48 151.221 97.056C150.661 97.616 150.229 98.304 149.925 99.12C149.621 99.92 149.469 100.816 149.469 101.808ZM164.045 95.592V108H167.453V101.496C167.453 100.232 167.661 99.328 168.077 98.784C168.493 98.224 169.165 97.944 170.093 97.944C170.909 97.944 171.477 98.2 171.797 98.712C172.117 99.208 172.277 99.968 172.277 100.992V108H175.685V100.368C175.685 99.6 175.613 98.904 175.469 98.28C175.341 97.64 175.109 97.104 174.773 96.672C174.437 96.224 173.973 95.88 173.381 95.64C172.805 95.384 172.061 95.256 171.149 95.256C170.429 95.256 169.725 95.424 169.037 95.76C168.349 96.08 167.789 96.6 167.357 97.32H167.285V95.592H164.045ZM180.431 103.968H177.191C177.223 104.8 177.407 105.496 177.743 106.056C178.095 106.6 178.535 107.04 179.063 107.376C179.607 107.712 180.223 107.952 180.911 108.096C181.599 108.24 182.303 108.312 183.023 108.312C183.727 108.312 184.415 108.24 185.087 108.096C185.775 107.968 186.383 107.736 186.911 107.4C187.439 107.064 187.863 106.624 188.183 106.08C188.519 105.52 188.687 104.832 188.687 104.016C188.687 103.44 188.575 102.96 188.351 102.576C188.127 102.176 187.831 101.848 187.463 101.592C187.095 101.32 186.671 101.104 186.191 100.944C185.727 100.784 185.247 100.648 184.751 100.536C184.271 100.424 183.799 100.32 183.335 100.224C182.871 100.128 182.455 100.024 182.087 99.912C181.735 99.784 181.447 99.624 181.223 99.432C180.999 99.24 180.887 98.992 180.887 98.688C180.887 98.432 180.951 98.232 181.079 98.088C181.207 97.928 181.359 97.808 181.535 97.728C181.727 97.648 181.935 97.6 182.159 97.584C182.383 97.552 182.591 97.536 182.783 97.536C183.391 97.536 183.919 97.656 184.367 97.896C184.815 98.12 185.063 98.56 185.111 99.216H188.351C188.287 98.448 188.087 97.816 187.751 97.32C187.431 96.808 187.023 96.4 186.527 96.096C186.031 95.792 185.463 95.576 184.823 95.448C184.199 95.32 183.551 95.256 182.879 95.256C182.207 95.256 181.551 95.32 180.911 95.448C180.271 95.56 179.695 95.768 179.183 96.072C178.671 96.36 178.255 96.76 177.935 97.272C177.631 97.784 177.479 98.44 177.479 99.24C177.479 99.784 177.591 100.248 177.815 100.632C178.039 101 178.335 101.312 178.703 101.568C179.071 101.808 179.487 102.008 179.951 102.168C180.431 102.312 180.919 102.44 181.415 102.552C182.631 102.808 183.575 103.064 184.247 103.32C184.935 103.576 185.279 103.96 185.279 104.472C185.279 104.776 185.207 105.032 185.063 105.24C184.919 105.432 184.735 105.592 184.511 105.72C184.303 105.832 184.063 105.92 183.791 105.984C183.535 106.032 183.287 106.056 183.047 106.056C182.711 106.056 182.383 106.016 182.063 105.936C181.759 105.856 181.487 105.736 181.247 105.576C181.007 105.4 180.807 105.184 180.647 104.928C180.503 104.656 180.431 104.336 180.431 103.968ZM199.425 101.808C199.425 101.312 199.473 100.824 199.569 100.344C199.665 99.864 199.825 99.44 200.049 99.072C200.289 98.704 200.601 98.408 200.985 98.184C201.369 97.944 201.849 97.824 202.425 97.824C203.001 97.824 203.481 97.944 203.865 98.184C204.265 98.408 204.577 98.704 204.801 99.072C205.041 99.44 205.209 99.864 205.305 100.344C205.401 100.824 205.449 101.312 205.449 101.808C205.449 102.304 205.401 102.792 205.305 103.272C205.209 103.736 205.041 104.16 204.801 104.544C204.577 104.912 204.265 105.208 203.865 105.432C203.481 105.656 203.001 105.768 202.425 105.768C201.849 105.768 201.369 105.656 200.985 105.432C200.601 105.208 200.289 104.912 200.049 104.544C199.825 104.16 199.665 103.736 199.569 103.272C199.473 102.792 199.425 102.304 199.425 101.808ZM196.017 101.808C196.017 102.8 196.169 103.696 196.473 104.496C196.777 105.296 197.209 105.984 197.769 106.56C198.329 107.12 199.001 107.552 199.785 107.856C200.569 108.16 201.449 108.312 202.425 108.312C203.401 108.312 204.281 108.16 205.065 107.856C205.865 107.552 206.545 107.12 207.105 106.56C207.665 105.984 208.097 105.296 208.401 104.496C208.705 103.696 208.857 102.8 208.857 101.808C208.857 100.816 208.705 99.92 208.401 99.12C208.097 98.304 207.665 97.616 207.105 97.056C206.545 96.48 205.865 96.04 205.065 95.736C204.281 95.416 203.401 95.256 202.425 95.256C201.449 95.256 200.569 95.416 199.785 95.736C199.001 96.04 198.329 96.48 197.769 97.056C197.209 97.616 196.777 98.304 196.473 99.12C196.169 99.92 196.017 100.816 196.017 101.808ZM211.337 97.872V108H214.745V97.872H217.097V95.592H214.745V94.848C214.745 94.336 214.841 93.976 215.033 93.768C215.241 93.544 215.577 93.432 216.041 93.432C216.473 93.432 216.889 93.456 217.289 93.504V90.96C217.001 90.944 216.705 90.928 216.401 90.912C216.097 90.88 215.793 90.864 215.489 90.864C214.097 90.864 213.057 91.216 212.369 91.92C211.681 92.624 211.337 93.528 211.337 94.632V95.592H209.297V97.872H211.337ZM233.401 101.808C233.401 102.32 233.345 102.816 233.233 103.296C233.121 103.776 232.945 104.2 232.705 104.568C232.465 104.936 232.161 105.232 231.793 105.456C231.441 105.664 231.009 105.768 230.497 105.768C230.001 105.768 229.569 105.664 229.201 105.456C228.833 105.232 228.529 104.936 228.289 104.568C228.049 104.2 227.873 103.776 227.761 103.296C227.649 102.816 227.593 102.32 227.593 101.808C227.593 101.28 227.649 100.776 227.761 100.296C227.873 99.816 228.049 99.392 228.289 99.024C228.529 98.656 228.833 98.368 229.201 98.16C229.569 97.936 230.001 97.824 230.497 97.824C231.009 97.824 231.441 97.936 231.793 98.16C232.161 98.368 232.465 98.656 232.705 99.024C232.945 99.392 233.121 99.816 233.233 100.296C233.345 100.776 233.401 101.28 233.401 101.808ZM224.305 90.864V108H227.545V106.416H227.593C227.961 107.104 228.505 107.592 229.225 107.88C229.945 108.168 230.761 108.312 231.673 108.312C232.297 108.312 232.913 108.184 233.521 107.928C234.129 107.672 234.673 107.28 235.153 106.752C235.649 106.224 236.049 105.552 236.353 104.736C236.657 103.904 236.809 102.92 236.809 101.784C236.809 100.648 236.657 99.672 236.353 98.856C236.049 98.024 235.649 97.344 235.153 96.816C234.673 96.288 234.129 95.896 233.521 95.64C232.913 95.384 232.297 95.256 231.673 95.256C230.905 95.256 230.161 95.408 229.441 95.712C228.737 96 228.177 96.464 227.761 97.104H227.713V90.864H224.305ZM238.593 90.864V108H242.001V90.864H238.593ZM255.845 108V95.592H252.437V102.096C252.437 103.36 252.229 104.272 251.813 104.832C251.397 105.376 250.725 105.648 249.797 105.648C248.981 105.648 248.413 105.4 248.093 104.904C247.773 104.392 247.613 103.624 247.613 102.6V95.592H244.205V103.224C244.205 103.992 244.269 104.696 244.397 105.336C244.541 105.96 244.781 106.496 245.117 106.944C245.453 107.376 245.909 107.712 246.485 107.952C247.077 108.192 247.829 108.312 248.741 108.312C249.461 108.312 250.165 108.152 250.853 107.832C251.541 107.512 252.101 106.992 252.533 106.272H252.605V108H255.845ZM266.303 100.464H260.759C260.775 100.224 260.823 99.952 260.903 99.648C260.999 99.344 261.151 99.056 261.359 98.784C261.583 98.512 261.871 98.288 262.223 98.112C262.591 97.92 263.047 97.824 263.591 97.824C264.423 97.824 265.039 98.048 265.439 98.496C265.855 98.944 266.143 99.6 266.303 100.464ZM260.759 102.624H269.711C269.775 101.664 269.695 100.744 269.471 99.864C269.247 98.984 268.879 98.2 268.367 97.512C267.871 96.824 267.231 96.28 266.447 95.88C265.663 95.464 264.743 95.256 263.687 95.256C262.743 95.256 261.879 95.424 261.095 95.76C260.327 96.096 259.663 96.56 259.103 97.152C258.543 97.728 258.111 98.416 257.807 99.216C257.503 100.016 257.351 100.88 257.351 101.808C257.351 102.768 257.495 103.648 257.783 104.448C258.087 105.248 258.511 105.936 259.055 106.512C259.599 107.088 260.263 107.536 261.047 107.856C261.831 108.16 262.711 108.312 263.687 108.312C265.095 108.312 266.295 107.992 267.287 107.352C268.279 106.712 269.015 105.648 269.495 104.16H266.495C266.383 104.544 266.079 104.912 265.583 105.264C265.087 105.6 264.495 105.768 263.807 105.768C262.847 105.768 262.111 105.52 261.599 105.024C261.087 104.528 260.807 103.728 260.759 102.624ZM291.636 108L295.548 95.592H292.044L289.764 103.992H289.716L287.604 95.592H284.292L282.228 104.016H282.18L279.9 95.592H276.3L280.236 108H283.764L285.876 99.672H285.924L288.132 108H291.636ZM296.375 99.408C296.423 98.608 296.623 97.944 296.975 97.416C297.327 96.888 297.775 96.464 298.319 96.144C298.863 95.824 299.471 95.6 300.143 95.472C300.831 95.328 301.519 95.256 302.207 95.256C302.831 95.256 303.463 95.304 304.103 95.4C304.743 95.48 305.327 95.648 305.855 95.904C306.383 96.16 306.815 96.52 307.151 96.984C307.487 97.432 307.655 98.032 307.655 98.784V105.24C307.655 105.8 307.687 106.336 307.751 106.848C307.815 107.36 307.927 107.744 308.087 108H304.631C304.567 107.808 304.511 107.616 304.463 107.424C304.431 107.216 304.407 107.008 304.391 106.8C303.847 107.36 303.207 107.752 302.471 107.976C301.735 108.2 300.983 108.312 300.215 108.312C299.623 108.312 299.071 108.24 298.559 108.096C298.047 107.952 297.599 107.728 297.215 107.424C296.831 107.12 296.527 106.736 296.303 106.272C296.095 105.808 295.991 105.256 295.991 104.616C295.991 103.912 296.111 103.336 296.351 102.888C296.607 102.424 296.927 102.056 297.311 101.784C297.711 101.512 298.159 101.312 298.655 101.184C299.167 101.04 299.679 100.928 300.191 100.848C300.703 100.768 301.207 100.704 301.703 100.656C302.199 100.608 302.639 100.536 303.023 100.44C303.407 100.344 303.711 100.208 303.935 100.032C304.159 99.84 304.263 99.568 304.247 99.216C304.247 98.848 304.183 98.56 304.055 98.352C303.943 98.128 303.783 97.96 303.575 97.848C303.383 97.72 303.151 97.64 302.879 97.608C302.623 97.56 302.343 97.536 302.039 97.536C301.367 97.536 300.839 97.68 300.455 97.968C300.071 98.256 299.847 98.736 299.783 99.408H296.375ZM304.247 101.928C304.103 102.056 303.919 102.16 303.695 102.24C303.487 102.304 303.255 102.36 302.999 102.408C302.759 102.456 302.503 102.496 302.231 102.528C301.959 102.56 301.687 102.6 301.415 102.648C301.159 102.696 300.903 102.76 300.647 102.84C300.407 102.92 300.191 103.032 299.999 103.176C299.823 103.304 299.679 103.472 299.567 103.68C299.455 103.888 299.399 104.152 299.399 104.472C299.399 104.776 299.455 105.032 299.567 105.24C299.679 105.448 299.831 105.616 300.023 105.744C300.215 105.856 300.439 105.936 300.695 105.984C300.951 106.032 301.215 106.056 301.487 106.056C302.159 106.056 302.679 105.944 303.047 105.72C303.415 105.496 303.687 105.232 303.863 104.928C304.039 104.608 304.143 104.288 304.175 103.968C304.223 103.648 304.247 103.392 304.247 103.2V101.928ZM314.14 95.592V91.872H310.732V95.592H308.668V97.872H310.732V105.192C310.732 105.816 310.836 106.32 311.044 106.704C311.252 107.088 311.532 107.384 311.884 107.592C312.252 107.8 312.668 107.936 313.132 108C313.612 108.08 314.116 108.12 314.644 108.12C314.98 108.12 315.324 108.112 315.676 108.096C316.028 108.08 316.348 108.048 316.636 108V105.36C316.476 105.392 316.308 105.416 316.132 105.432C315.956 105.448 315.772 105.456 315.58 105.456C315.004 105.456 314.62 105.36 314.428 105.168C314.236 104.976 314.14 104.592 314.14 104.016V97.872H316.636V95.592H314.14ZM326.13 100.464H320.586C320.602 100.224 320.65 99.952 320.73 99.648C320.826 99.344 320.978 99.056 321.186 98.784C321.41 98.512 321.698 98.288 322.05 98.112C322.418 97.92 322.874 97.824 323.418 97.824C324.25 97.824 324.866 98.048 325.266 98.496C325.682 98.944 325.97 99.6 326.13 100.464ZM320.586 102.624H329.538C329.602 101.664 329.522 100.744 329.298 99.864C329.074 98.984 328.706 98.2 328.194 97.512C327.698 96.824 327.058 96.28 326.274 95.88C325.49 95.464 324.57 95.256 323.514 95.256C322.57 95.256 321.706 95.424 320.922 95.76C320.154 96.096 319.49 96.56 318.93 97.152C318.37 97.728 317.938 98.416 317.634 99.216C317.33 100.016 317.178 100.88 317.178 101.808C317.178 102.768 317.322 103.648 317.61 104.448C317.914 105.248 318.338 105.936 318.882 106.512C319.426 107.088 320.09 107.536 320.874 107.856C321.658 108.16 322.538 108.312 323.514 108.312C324.922 108.312 326.122 107.992 327.114 107.352C328.106 106.712 328.842 105.648 329.322 104.16H326.322C326.21 104.544 325.906 104.912 325.41 105.264C324.914 105.6 324.322 105.768 323.634 105.768C322.674 105.768 321.938 105.52 321.426 105.024C320.914 104.528 320.634 103.728 320.586 102.624ZM331.079 95.592V108H334.487V102.408C334.487 101.848 334.543 101.328 334.655 100.848C334.767 100.368 334.951 99.952 335.207 99.6C335.479 99.232 335.831 98.944 336.263 98.736C336.695 98.528 337.223 98.424 337.847 98.424C338.055 98.424 338.271 98.44 338.495 98.472C338.719 98.488 338.911 98.512 339.071 98.544V95.376C338.799 95.296 338.551 95.256 338.327 95.256C337.895 95.256 337.479 95.32 337.079 95.448C336.679 95.576 336.303 95.76 335.951 96C335.599 96.224 335.287 96.504 335.015 96.84C334.743 97.16 334.527 97.512 334.367 97.896H334.319V95.592H331.079ZM143.75 157.576H145.862C145.782 156.84 145.59 156.208 145.286 155.68C144.982 155.136 144.59 154.688 144.11 154.336C143.646 153.984 143.102 153.728 142.478 153.568C141.87 153.392 141.214 153.304 140.51 153.304C139.534 153.304 138.678 153.48 137.942 153.832C137.206 154.168 136.59 154.64 136.094 155.248C135.614 155.84 135.254 156.544 135.014 157.36C134.774 158.16 134.654 159.024 134.654 159.952C134.654 160.88 134.774 161.736 135.014 162.52C135.27 163.288 135.638 163.952 136.118 164.512C136.614 165.072 137.222 165.504 137.942 165.808C138.678 166.112 139.518 166.264 140.462 166.264C142.046 166.264 143.294 165.848 144.206 165.016C145.134 164.184 145.71 163 145.934 161.464H143.846C143.718 162.424 143.366 163.168 142.79 163.696C142.23 164.224 141.446 164.488 140.438 164.488C139.798 164.488 139.246 164.36 138.782 164.104C138.318 163.848 137.942 163.512 137.654 163.096C137.366 162.664 137.15 162.176 137.006 161.632C136.878 161.088 136.814 160.528 136.814 159.952C136.814 159.328 136.878 158.728 137.006 158.152C137.134 157.56 137.342 157.04 137.63 156.592C137.934 156.144 138.334 155.784 138.83 155.512C139.326 155.24 139.942 155.104 140.678 155.104C141.542 155.104 142.23 155.32 142.742 155.752C143.254 156.184 143.59 156.792 143.75 157.576ZM147.856 148.864V166H149.896V148.864H147.856ZM154.737 151.36V148.864H152.697V151.36H154.737ZM152.697 153.592V166H154.737V153.592H152.697ZM165.841 157.576H167.953C167.873 156.84 167.681 156.208 167.377 155.68C167.073 155.136 166.681 154.688 166.201 154.336C165.737 153.984 165.193 153.728 164.569 153.568C163.961 153.392 163.305 153.304 162.601 153.304C161.625 153.304 160.769 153.48 160.033 153.832C159.297 154.168 158.681 154.64 158.185 155.248C157.705 155.84 157.345 156.544 157.105 157.36C156.865 158.16 156.745 159.024 156.745 159.952C156.745 160.88 156.865 161.736 157.105 162.52C157.361 163.288 157.729 163.952 158.209 164.512C158.705 165.072 159.313 165.504 160.033 165.808C160.769 166.112 161.609 166.264 162.553 166.264C164.137 166.264 165.385 165.848 166.297 165.016C167.225 164.184 167.801 163 168.025 161.464H165.937C165.809 162.424 165.457 163.168 164.881 163.696C164.321 164.224 163.537 164.488 162.529 164.488C161.889 164.488 161.337 164.36 160.873 164.104C160.409 163.848 160.033 163.512 159.745 163.096C159.457 162.664 159.241 162.176 159.097 161.632C158.969 161.088 158.905 160.528 158.905 159.952C158.905 159.328 158.969 158.728 159.097 158.152C159.225 157.56 159.433 157.04 159.721 156.592C160.025 156.144 160.425 155.784 160.921 155.512C161.417 155.24 162.033 155.104 162.769 155.104C163.633 155.104 164.321 155.32 164.833 155.752C165.345 156.184 165.681 156.792 165.841 157.576ZM169.948 148.864V166H171.988V161.296L173.908 159.52L178.156 166H180.748L175.468 158.104L180.388 153.592H177.652L171.988 159.016V148.864H169.948ZM190.825 153.592V149.872H188.785V153.592H186.673V155.392H188.785V163.288C188.785 163.864 188.841 164.328 188.953 164.68C189.065 165.032 189.233 165.304 189.457 165.496C189.697 165.688 190.001 165.824 190.369 165.904C190.753 165.968 191.209 166 191.737 166H193.297V164.2H192.361C192.041 164.2 191.777 164.192 191.569 164.176C191.377 164.144 191.225 164.088 191.113 164.008C191.001 163.928 190.921 163.816 190.873 163.672C190.841 163.528 190.825 163.336 190.825 163.096V155.392H193.297V153.592H190.825ZM196.571 159.808C196.571 159.056 196.667 158.392 196.859 157.816C197.067 157.224 197.347 156.728 197.699 156.328C198.051 155.928 198.459 155.624 198.923 155.416C199.403 155.208 199.907 155.104 200.435 155.104C200.963 155.104 201.459 155.208 201.923 155.416C202.403 155.624 202.819 155.928 203.171 156.328C203.523 156.728 203.795 157.224 203.987 157.816C204.195 158.392 204.299 159.056 204.299 159.808C204.299 160.56 204.195 161.232 203.987 161.824C203.795 162.4 203.523 162.888 203.171 163.288C202.819 163.672 202.403 163.968 201.923 164.176C201.459 164.384 200.963 164.488 200.435 164.488C199.907 164.488 199.403 164.384 198.923 164.176C198.459 163.968 198.051 163.672 197.699 163.288C197.347 162.888 197.067 162.4 196.859 161.824C196.667 161.232 196.571 160.56 196.571 159.808ZM194.411 159.808C194.411 160.72 194.539 161.568 194.795 162.352C195.051 163.136 195.435 163.824 195.947 164.416C196.459 164.992 197.091 165.448 197.843 165.784C198.595 166.104 199.459 166.264 200.435 166.264C201.427 166.264 202.291 166.104 203.027 165.784C203.779 165.448 204.411 164.992 204.923 164.416C205.435 163.824 205.819 163.136 206.075 162.352C206.331 161.568 206.459 160.72 206.459 159.808C206.459 158.896 206.331 158.048 206.075 157.264C205.819 156.464 205.435 155.776 204.923 155.2C204.411 154.608 203.779 154.144 203.027 153.808C202.291 153.472 201.427 153.304 200.435 153.304C199.459 153.304 198.595 153.472 197.843 153.808C197.091 154.144 196.459 154.608 195.947 155.2C195.435 155.776 195.051 156.464 194.795 157.264C194.539 158.048 194.411 158.896 194.411 159.808ZM214.512 153.592V166H216.552V160.48C216.552 159.68 216.632 158.976 216.792 158.368C216.952 157.744 217.208 157.216 217.56 156.784C217.912 156.352 218.376 156.024 218.952 155.8C219.528 155.576 220.224 155.464 221.04 155.464V153.304C219.936 153.272 219.024 153.496 218.304 153.976C217.584 154.456 216.976 155.2 216.48 156.208H216.432V153.592H214.512ZM230.29 158.608H223.162C223.194 158.128 223.298 157.68 223.474 157.264C223.65 156.832 223.89 156.456 224.194 156.136C224.498 155.816 224.858 155.568 225.274 155.392C225.706 155.2 226.186 155.104 226.714 155.104C227.226 155.104 227.69 155.2 228.106 155.392C228.538 155.568 228.906 155.816 229.21 156.136C229.53 156.44 229.778 156.808 229.954 157.24C230.146 157.672 230.258 158.128 230.29 158.608ZM232.258 162.064H230.242C230.066 162.88 229.698 163.488 229.138 163.888C228.594 164.288 227.89 164.488 227.026 164.488C226.354 164.488 225.77 164.376 225.274 164.152C224.778 163.928 224.37 163.632 224.05 163.264C223.73 162.88 223.498 162.448 223.354 161.968C223.21 161.472 223.146 160.952 223.162 160.408H232.45C232.482 159.656 232.41 158.864 232.234 158.032C232.074 157.2 231.77 156.432 231.322 155.728C230.89 155.024 230.306 154.448 229.57 154C228.85 153.536 227.938 153.304 226.834 153.304C225.986 153.304 225.202 153.464 224.482 153.784C223.778 154.104 223.162 154.552 222.634 155.128C222.122 155.704 221.722 156.384 221.434 157.168C221.146 157.952 221.002 158.816 221.002 159.76C221.034 160.704 221.17 161.576 221.41 162.376C221.666 163.176 222.042 163.864 222.538 164.44C223.034 165.016 223.642 165.464 224.362 165.784C225.098 166.104 225.962 166.264 226.954 166.264C228.362 166.264 229.53 165.912 230.458 165.208C231.386 164.504 231.986 163.456 232.258 162.064ZM239.677 166L244.213 153.592H242.077L238.693 163.936H238.645L235.165 153.592H232.885L237.493 166H239.677ZM254.221 158.608H247.093C247.125 158.128 247.229 157.68 247.405 157.264C247.581 156.832 247.821 156.456 248.125 156.136C248.429 155.816 248.789 155.568 249.205 155.392C249.637 155.2 250.117 155.104 250.645 155.104C251.157 155.104 251.621 155.2 252.037 155.392C252.469 155.568 252.837 155.816 253.141 156.136C253.461 156.44 253.709 156.808 253.885 157.24C254.077 157.672 254.189 158.128 254.221 158.608ZM256.189 162.064H254.173C253.997 162.88 253.629 163.488 253.069 163.888C252.525 164.288 251.821 164.488 250.957 164.488C250.285 164.488 249.701 164.376 249.205 164.152C248.709 163.928 248.301 163.632 247.981 163.264C247.661 162.88 247.429 162.448 247.285 161.968C247.141 161.472 247.077 160.952 247.093 160.408H256.381C256.413 159.656 256.341 158.864 256.165 158.032C256.005 157.2 255.701 156.432 255.253 155.728C254.821 155.024 254.237 154.448 253.501 154C252.781 153.536 251.869 153.304 250.765 153.304C249.917 153.304 249.133 153.464 248.413 153.784C247.709 154.104 247.093 154.552 246.565 155.128C246.053 155.704 245.653 156.384 245.365 157.168C245.077 157.952 244.933 158.816 244.933 159.76C244.965 160.704 245.101 161.576 245.341 162.376C245.597 163.176 245.973 163.864 246.469 164.44C246.965 165.016 247.573 165.464 248.293 165.784C249.029 166.104 249.893 166.264 250.885 166.264C252.293 166.264 253.461 165.912 254.389 165.208C255.317 164.504 255.917 163.456 256.189 162.064ZM269.007 165.952C268.655 166.16 268.167 166.264 267.543 166.264C267.015 166.264 266.591 166.12 266.271 165.832C265.967 165.528 265.815 165.04 265.815 164.368C265.255 165.04 264.599 165.528 263.847 165.832C263.111 166.12 262.311 166.264 261.447 166.264C260.887 166.264 260.351 166.2 259.839 166.072C259.343 165.944 258.911 165.744 258.543 165.472C258.175 165.2 257.879 164.848 257.655 164.416C257.447 163.968 257.343 163.432 257.343 162.808C257.343 162.104 257.463 161.528 257.703 161.08C257.943 160.632 258.255 160.272 258.639 160C259.039 159.712 259.487 159.496 259.983 159.352C260.495 159.208 261.015 159.088 261.543 158.992C262.103 158.88 262.631 158.8 263.127 158.752C263.639 158.688 264.087 158.608 264.471 158.512C264.855 158.4 265.159 158.248 265.383 158.056C265.607 157.848 265.719 157.552 265.719 157.168C265.719 156.72 265.631 156.36 265.455 156.088C265.295 155.816 265.079 155.608 264.807 155.464C264.551 155.32 264.255 155.224 263.919 155.176C263.599 155.128 263.279 155.104 262.959 155.104C262.095 155.104 261.375 155.272 260.799 155.608C260.223 155.928 259.911 156.544 259.863 157.456H257.823C257.855 156.688 258.015 156.04 258.303 155.512C258.591 154.984 258.975 154.56 259.455 154.24C259.935 153.904 260.479 153.664 261.087 153.52C261.711 153.376 262.375 153.304 263.079 153.304C263.639 153.304 264.191 153.344 264.735 153.424C265.295 153.504 265.799 153.672 266.247 153.928C266.695 154.168 267.055 154.512 267.327 154.96C267.599 155.408 267.735 155.992 267.735 156.712V163.096C267.735 163.576 267.759 163.928 267.807 164.152C267.871 164.376 268.063 164.488 268.383 164.488C268.559 164.488 268.767 164.448 269.007 164.368V165.952ZM265.695 159.592C265.439 159.784 265.103 159.928 264.687 160.024C264.271 160.104 263.831 160.176 263.367 160.24C262.919 160.288 262.463 160.352 261.999 160.432C261.535 160.496 261.119 160.608 260.751 160.768C260.383 160.928 260.079 161.16 259.839 161.464C259.615 161.752 259.503 162.152 259.503 162.664C259.503 163 259.567 163.288 259.695 163.528C259.839 163.752 260.015 163.936 260.223 164.08C260.447 164.224 260.703 164.328 260.991 164.392C261.279 164.456 261.583 164.488 261.903 164.488C262.575 164.488 263.151 164.4 263.631 164.224C264.111 164.032 264.503 163.8 264.807 163.528C265.111 163.24 265.335 162.936 265.479 162.616C265.623 162.28 265.695 161.968 265.695 161.68V159.592ZM270.546 148.864V166H272.586V148.864H270.546Z" fill="black"/>
<defs>
<filter id="filter0_d_183_5481" x="0" y="0" width="408" height="440" filterUnits="userSpaceOnUse" color-interpolation-filters="sRGB">
<feFlood flood-opacity="0" result="BackgroundImageFix"/>
<feColorMatrix in="SourceAlpha" type="matrix" values="0 0 0 0 0 0 0 0 0 0 0 0 0 0 0 0 0 0 127 0" result="hardAlpha"/>
<feOffset dy="4"/>
<feGaussianBlur stdDeviation="2"/>
<feComposite in2="hardAlpha" operator="out"/>
<feColorMatrix type="matrix" values="0 0 0 0 0 0 0 0 0 0 0 0 0 0 0 0 0 0 0.25 0"/>
<feBlend mode="normal" in2="BackgroundImageFix" result="effect1_dropShadow_183_5481"/>
<feBlend mode="normal" in="SourceGraphic" in2="effect1_dropShadow_183_5481" result="shape"/>
</filter>
</defs>
</svg>
