<svg width="932" height="260" viewBox="0 0 932 260" fill="none" xmlns="http://www.w3.org/2000/svg">
<path fill-rule="evenodd" clip-rule="evenodd" d="M38.362 36.8802C35.4529 34.2246 33.2066 30.1161 31.2741 23.1526C32.983 23.4603 34.586 23.7205 36.0941 23.9652L36.0942 23.9652L36.0942 23.9652C46.8844 25.7166 52.8114 26.6786 57.8345 38.5956C60.7627 33.9655 64.759 32.7889 71.3066 30.8613L71.3069 30.8612C71.8868 30.6904 72.4868 30.5138 73.1078 30.3283C74.0848 30.0366 75.1268 30.5426 75.4903 31.4951L75.5687 31.7005C75.769 32.2253 75.4791 32.811 74.9395 32.967C73.1186 33.4937 71.5262 33.8982 70.1013 34.2601C65.0087 35.5536 62.0562 36.3035 58.4594 40.147C58.543 40.3639 58.6264 40.5841 58.7096 40.8075C64.807 36.9698 70.7135 36.0456 75.9395 37.0874C73.6264 39.4508 72.1734 42.8663 72.1734 46.6649C72.1734 50.5999 73.7327 54.124 76.1921 56.4931C73.6996 58.8026 72.1734 61.9076 72.1734 65.322C72.1734 69.1831 74.1251 72.6485 77.2187 75.0154C76.9139 76.0457 76.7517 77.1256 76.7517 78.2384C76.7517 83.2642 80.0583 87.6195 84.8859 89.7545C78.1313 100.28 68.6982 106.439 55.0708 100.125C31.2741 110.171 21.4303 90.0785 15.0105 68.1923C14.0555 64.9366 13.7946 61.5362 14.1555 58.2271C15.1178 57.5721 15.9929 56.2798 16.2353 55.3934C16.4992 54.4283 16.5844 53.5178 16.5844 52.5207C16.5844 52.4468 16.584 52.3713 16.5835 52.2945C16.5774 51.3131 16.57 50.1282 17.527 49.5987C18.0287 49.3212 18.6524 49.1791 19.283 49.0354C20.1488 48.8382 21.0274 48.638 21.6204 48.0803C22.5343 47.2209 23.1827 45.6779 23.1827 44.4607C23.1827 43.348 23.6872 42.1034 25.0679 42.0313C25.2563 42.0214 25.4735 42.0175 25.7037 42.0134C26.3289 42.0022 27.0494 41.9892 27.5466 41.8507C27.9071 41.7502 28.3334 41.7013 28.7724 41.651C29.6415 41.5514 30.5603 41.446 31.1162 40.9232C31.5807 40.4864 32.0259 39.8664 32.2945 39.2981C32.4435 38.9829 32.7012 38.8164 32.9772 38.6381C33.0861 38.5678 33.1979 38.4956 33.3069 38.4117C34.109 37.7945 35.2747 37.4514 36.3006 37.4514C36.3133 37.4514 36.3298 37.4514 36.3497 37.4514C36.874 37.4525 39.7491 37.4584 38.5989 36.9776C38.5208 36.945 38.4419 36.9125 38.362 36.8802ZM55.2297 43.2872L55.2132 43.3199C55.1657 43.3584 55.1183 43.397 55.0708 43.4358C54.9206 43.3358 54.7708 43.2371 54.6212 43.1396C54.8224 43.1881 55.0252 43.2373 55.2297 43.2872ZM93.2833 53.5889C93.4089 53.3661 93.5286 53.1386 93.6422 52.9068C93.7681 53.2347 93.8874 53.5648 94 53.8968C93.7648 53.7888 93.5258 53.6861 93.2833 53.5889Z" fill="#386667"/>
<path d="M58.3948 10.7859C59.5646 10.9167 59.9321 12.4245 59.8312 13.3886C59.5975 15.624 56.9469 17.0417 56.9469 19.2188C56.9469 20.9326 58.9488 22.6464 59.6819 24.1814C60.1328 25.1257 60.7209 29.7339 59.0154 29.7339" stroke="#386667" stroke-width="1.45086" stroke-linecap="round"/>
<path d="M15.2377 25.1375C13.8979 25.2873 14.1628 28.6573 14.2494 29.4638C14.4063 30.9247 15.4445 32.0024 15.4445 33.4894C15.4445 34.3281 15.6717 35.4454 15.1917 36.15C14.8757 36.6139 14.6171 37.3769 14.6171 37.943C14.6171 39.2161 14.896 40.2743 15.4445 41.3786" stroke="#386667" stroke-width="1.45086" stroke-linecap="round"/>
<path d="M21.6963 19.3969C21.9518 19.3969 21.5368 19.6272 21.4435 19.6976C21.0693 19.9801 20.7346 20.7175 20.6736 21.1783C20.5084 22.4257 21.5055 23.3939 21.7423 24.533C22.0534 26.0292 21.8678 26.656 20.9609 27.8298C20.6472 28.2358 20.3482 29.5457 20.869 29.8079" stroke="#386667" stroke-width="1.45086" stroke-linecap="round"/>
<path fill-rule="evenodd" clip-rule="evenodd" d="M92.6176 38.1539C93.0496 37.6029 92.9347 36.9055 92.4937 36.4407C92.0586 35.9821 91.3081 35.7614 90.4833 36.2143C90.3793 36.2713 90.2128 36.4141 89.9962 36.6419C89.7844 36.8648 89.538 37.1545 89.2756 37.4885C89.1264 37.6784 88.9726 37.8819 88.8175 38.0947C89.1981 38.3904 89.5743 38.7299 89.9349 39.1092C90.0271 39.206 90.1147 39.3016 90.1978 39.3959C91.2748 39.2252 92.0649 38.8588 92.6176 38.1539ZM90.4862 39.7395C91.5188 39.5421 92.3335 39.1442 92.9213 38.3944C93.4932 37.6649 93.3211 36.7518 92.7728 36.1739C92.2186 35.5897 91.2775 35.3357 90.297 35.874C90.1362 35.9623 89.9344 36.1445 89.7164 36.3737C89.4937 36.608 89.2392 36.9077 88.972 37.2478C88.8204 37.4408 88.6642 37.6475 88.5067 37.8636C88.0723 37.5547 87.6361 37.3038 87.2145 37.1166C87.1646 36.9778 87.0879 36.855 86.9833 36.7541C86.6023 36.3872 85.949 36.4059 85.3019 36.7394C84.9461 36.785 84.6399 36.9174 84.4044 37.1443C84.1728 37.3674 84.0289 37.6633 83.9664 38.0115C83.5137 38.7711 83.4622 39.576 83.8997 39.9973C84.0279 40.1208 84.1868 40.2006 84.366 40.2394C84.5481 40.6533 84.7851 41.0796 85.0726 41.5044C84.9911 41.5837 84.9119 41.6621 84.8352 41.7394C84.5306 42.046 84.2645 42.3352 84.0592 42.5851C83.8582 42.8297 83.7019 43.0526 83.6334 43.2237C83.2161 44.2666 83.5763 45.1775 84.2168 45.6634C84.8505 46.1442 85.7718 46.2106 86.4255 45.5537C86.8989 45.0781 87.1866 44.5103 87.3415 43.8471C88.7664 44.7865 89.9196 44.5183 90.7484 43.7198C91.6952 42.8077 91.8973 41.5135 90.4862 39.7395ZM86.1126 42.7916C86.4181 43.1129 86.714 43.3814 86.9996 43.6022C86.8677 44.2769 86.6017 44.8278 86.153 45.2786C85.66 45.774 84.9586 45.7405 84.4484 45.3535C83.945 44.9715 83.6401 44.2465 83.991 43.3694C84.0352 43.2589 84.1567 43.0759 84.3564 42.8329C84.5516 42.5953 84.8088 42.3154 85.108 42.0142C85.17 41.9517 85.2338 41.8884 85.2991 41.8245C85.5413 42.1521 85.8131 42.4766 86.1126 42.7916Z" fill="#386667"/>
<path d="M25.1768 72.2891C25.9561 72.2526 26.4938 71.9678 26.79 71.4346C26.945 71.1611 27.0225 70.8444 27.0225 70.4844C27.0225 69.9147 26.8128 69.4818 26.3936 69.1855C26.152 69.0124 25.7464 68.8483 25.1768 68.6934V72.2891ZM22.8594 65.6924C22.8594 66.1436 23.0075 66.4967 23.3037 66.752C23.6045 67.0072 24.0078 67.1849 24.5137 67.2852V64.0723C23.9167 64.0951 23.4906 64.2773 23.2354 64.6191C22.9847 64.9609 22.8594 65.3187 22.8594 65.6924ZM21.6289 65.7744C21.6289 65.0817 21.8818 64.4574 22.3877 63.9014C22.8981 63.3454 23.6113 63.0628 24.5273 63.0537V62.1445H25.1768V63.04C26.0837 63.1038 26.7786 63.3727 27.2617 63.8467C27.7493 64.3161 28.0046 64.9382 28.0273 65.7129H26.8311C26.7992 65.3665 26.7057 65.068 26.5508 64.8174C26.2637 64.3571 25.8057 64.1156 25.1768 64.0928V67.415C26.234 67.7113 26.9518 67.9893 27.3301 68.249C27.9453 68.6774 28.2529 69.3109 28.2529 70.1494C28.2529 71.3617 27.8587 72.223 27.0703 72.7334C26.6328 73.016 26.0016 73.2028 25.1768 73.2939V74.6201H24.5273V73.2939C23.2012 73.2074 22.3011 72.738 21.8271 71.8857C21.5674 71.4255 21.4375 70.8034 21.4375 70.0195H22.6475C22.6839 70.6439 22.7819 71.0996 22.9414 71.3867C23.224 71.9017 23.748 72.1911 24.5137 72.2549V68.5293C23.5293 68.3424 22.8024 68.0303 22.333 67.5928C21.8636 67.1553 21.6289 66.5492 21.6289 65.7744ZM30.1328 66.0684V65.125C31.0215 65.0384 31.6413 64.8949 31.9922 64.6943C32.3431 64.4893 32.6051 64.0085 32.7783 63.252H33.749V73H32.4365V66.0684H30.1328ZM40.373 63.2109C41.64 63.2109 42.556 63.7327 43.1211 64.7764C43.5586 65.583 43.7773 66.6882 43.7773 68.0918C43.7773 69.4225 43.5791 70.5231 43.1826 71.3936C42.6084 72.6423 41.6696 73.2666 40.3662 73.2666C39.1904 73.2666 38.3154 72.7562 37.7412 71.7354C37.2627 70.8831 37.0234 69.7393 37.0234 68.3037C37.0234 67.1917 37.167 66.237 37.4541 65.4395C37.9919 63.9538 38.9648 63.2109 40.373 63.2109ZM40.3594 72.1455C40.9974 72.1455 41.5055 71.863 41.8838 71.2979C42.262 70.7327 42.4512 69.68 42.4512 68.1396C42.4512 67.0277 42.3145 66.1139 42.041 65.3984C41.7676 64.6784 41.2367 64.3184 40.4482 64.3184C39.7236 64.3184 39.1927 64.6602 38.8555 65.3438C38.5228 66.0228 38.3564 67.0254 38.3564 68.3516C38.3564 69.3496 38.4635 70.1517 38.6777 70.7578C39.0059 71.6829 39.5664 72.1455 40.3594 72.1455ZM48.166 63.2109C49.4329 63.2109 50.349 63.7327 50.9141 64.7764C51.3516 65.583 51.5703 66.6882 51.5703 68.0918C51.5703 69.4225 51.3721 70.5231 50.9756 71.3936C50.4014 72.6423 49.4626 73.2666 48.1592 73.2666C46.9834 73.2666 46.1084 72.7562 45.5342 71.7354C45.0557 70.8831 44.8164 69.7393 44.8164 68.3037C44.8164 67.1917 44.96 66.237 45.2471 65.4395C45.7848 63.9538 46.7578 63.2109 48.166 63.2109ZM48.1523 72.1455C48.7904 72.1455 49.2985 71.863 49.6768 71.2979C50.055 70.7327 50.2441 69.68 50.2441 68.1396C50.2441 67.0277 50.1074 66.1139 49.834 65.3984C49.5605 64.6784 49.0296 64.3184 48.2412 64.3184C47.5166 64.3184 46.9857 64.6602 46.6484 65.3438C46.3158 66.0228 46.1494 67.0254 46.1494 68.3516C46.1494 69.3496 46.2565 70.1517 46.4707 70.7578C46.7988 71.6829 47.3594 72.1455 48.1523 72.1455ZM52.9785 62.9238H54.1748V66.5674C54.4437 66.2165 54.765 65.9499 55.1387 65.7676C55.5124 65.5807 55.918 65.4873 56.3555 65.4873C57.2669 65.4873 58.0052 65.8018 58.5703 66.4307C59.14 67.055 59.4248 67.9779 59.4248 69.1992C59.4248 70.3568 59.1445 71.3184 58.584 72.084C58.0234 72.8496 57.2464 73.2324 56.2529 73.2324C55.6969 73.2324 55.2275 73.098 54.8447 72.8291C54.6169 72.6696 54.373 72.4144 54.1133 72.0635V73H52.9785V62.9238ZM56.1777 72.1455C56.8431 72.1455 57.3398 71.8812 57.668 71.3525C58.0007 70.8239 58.167 70.1266 58.167 69.2607C58.167 68.4906 58.0007 67.8525 57.668 67.3467C57.3398 66.8408 56.8545 66.5879 56.2119 66.5879C55.6514 66.5879 55.1592 66.7952 54.7354 67.21C54.3161 67.6247 54.1064 68.3083 54.1064 69.2607C54.1064 69.9489 54.193 70.5072 54.3662 70.9355C54.6898 71.7422 55.2936 72.1455 56.1777 72.1455ZM60.8672 65.6787H62.0361V66.7178C62.3825 66.2894 62.7493 65.9818 63.1367 65.7949C63.5241 65.6081 63.9548 65.5146 64.4287 65.5146C65.4678 65.5146 66.1696 65.877 66.5342 66.6016C66.7347 66.998 66.835 67.5654 66.835 68.3037V73H65.584V68.3857C65.584 67.9391 65.5179 67.5791 65.3857 67.3057C65.167 66.8499 64.7705 66.6221 64.1963 66.6221C63.9046 66.6221 63.6654 66.6517 63.4785 66.7109C63.1413 66.8112 62.8451 67.0117 62.5898 67.3125C62.3848 67.554 62.2503 67.8047 62.1865 68.0645C62.1273 68.3197 62.0977 68.6865 62.0977 69.165V73H60.8672V65.6787Z" fill="white"/>
<path fill-rule="evenodd" clip-rule="evenodd" d="M206.362 36.8802C203.453 34.2246 201.207 30.1161 199.274 23.1526C200.983 23.4603 202.586 23.7205 204.094 23.9652L204.094 23.9652L204.094 23.9652C214.884 25.7166 220.811 26.6786 225.834 38.5956C228.763 33.9655 232.759 32.7889 239.307 30.8613L239.307 30.8612C239.887 30.6904 240.487 30.5138 241.108 30.3283C242.085 30.0366 243.127 30.5426 243.49 31.4951L243.569 31.7005C243.769 32.2253 243.479 32.811 242.939 32.967C241.119 33.4937 239.526 33.8982 238.101 34.2601C233.009 35.5536 230.056 36.3035 226.459 40.147C226.543 40.3639 226.626 40.5841 226.71 40.8075C232.807 36.9698 238.714 36.0456 243.939 37.0874C241.626 39.4508 240.173 42.8663 240.173 46.6649C240.173 50.5999 241.733 54.124 244.192 56.4931C241.7 58.8026 240.173 61.9076 240.173 65.322C240.173 69.1831 242.125 72.6485 245.219 75.0154C244.914 76.0457 244.752 77.1256 244.752 78.2384C244.752 83.2642 248.058 87.6195 252.886 89.7545C246.131 100.28 236.698 106.439 223.071 100.125C199.274 110.171 189.43 90.0785 183.01 68.1923C182.055 64.9366 181.795 61.5362 182.156 58.2271C183.118 57.5721 183.993 56.2798 184.235 55.3934C184.499 54.4283 184.584 53.5178 184.584 52.5207C184.584 52.4468 184.584 52.3713 184.583 52.2945C184.577 51.3131 184.57 50.1282 185.527 49.5987C186.029 49.3212 186.652 49.1791 187.283 49.0354C188.149 48.8382 189.027 48.638 189.62 48.0803C190.534 47.2209 191.183 45.6779 191.183 44.4607C191.183 43.348 191.687 42.1034 193.068 42.0313C193.256 42.0214 193.474 42.0175 193.704 42.0134C194.329 42.0022 195.049 41.9892 195.547 41.8507C195.907 41.7502 196.333 41.7013 196.772 41.651C197.642 41.5514 198.56 41.446 199.116 40.9232C199.581 40.4864 200.026 39.8664 200.294 39.2981C200.443 38.9829 200.701 38.8164 200.977 38.6381C201.086 38.5678 201.198 38.4956 201.307 38.4117C202.109 37.7945 203.275 37.4514 204.301 37.4514C204.313 37.4514 204.33 37.4514 204.35 37.4514C204.874 37.4525 207.749 37.4584 206.599 36.9776C206.521 36.945 206.442 36.9125 206.362 36.8802ZM223.23 43.2872L223.213 43.3199C223.166 43.3584 223.118 43.397 223.071 43.4358C222.921 43.3358 222.771 43.2371 222.621 43.1396C222.822 43.1881 223.025 43.2373 223.23 43.2872ZM261.283 53.5889C261.409 53.3661 261.529 53.1386 261.642 52.9068C261.768 53.2347 261.887 53.5648 262 53.8968C261.765 53.7888 261.526 53.6861 261.283 53.5889Z" fill="#386667"/>
<path d="M226.395 10.7859C227.565 10.9167 227.932 12.4245 227.831 13.3886C227.598 15.624 224.947 17.0417 224.947 19.2188C224.947 20.9326 226.949 22.6464 227.682 24.1814C228.133 25.1257 228.721 29.7339 227.015 29.7339" stroke="#386667" stroke-width="1.45086" stroke-linecap="round"/>
<path d="M183.238 25.1375C181.898 25.2873 182.163 28.6573 182.249 29.4638C182.406 30.9247 183.445 32.0024 183.445 33.4894C183.445 34.3281 183.672 35.4454 183.192 36.15C182.876 36.6139 182.617 37.3769 182.617 37.943C182.617 39.2161 182.896 40.2743 183.445 41.3786" stroke="#386667" stroke-width="1.45086" stroke-linecap="round"/>
<path d="M189.696 19.3969C189.952 19.3969 189.537 19.6272 189.444 19.6976C189.069 19.9801 188.735 20.7175 188.674 21.1783C188.508 22.4257 189.505 23.3939 189.742 24.533C190.053 26.0292 189.868 26.656 188.961 27.8298C188.647 28.2358 188.348 29.5457 188.869 29.8079" stroke="#386667" stroke-width="1.45086" stroke-linecap="round"/>
<path fill-rule="evenodd" clip-rule="evenodd" d="M260.618 38.1539C261.05 37.6029 260.935 36.9055 260.494 36.4407C260.059 35.9821 259.308 35.7614 258.483 36.2143C258.379 36.2713 258.213 36.4141 257.996 36.6419C257.784 36.8648 257.538 37.1545 257.276 37.4885C257.126 37.6784 256.973 37.8819 256.818 38.0947C257.198 38.3904 257.574 38.7299 257.935 39.1092C258.027 39.206 258.115 39.3016 258.198 39.3959C259.275 39.2252 260.065 38.8588 260.618 38.1539ZM258.486 39.7395C259.519 39.5421 260.333 39.1442 260.921 38.3944C261.493 37.6649 261.321 36.7518 260.773 36.1739C260.219 35.5897 259.278 35.3357 258.297 35.874C258.136 35.9623 257.934 36.1445 257.716 36.3737C257.494 36.608 257.239 36.9077 256.972 37.2478C256.82 37.4408 256.664 37.6475 256.507 37.8636C256.072 37.5547 255.636 37.3038 255.215 37.1166C255.165 36.9778 255.088 36.855 254.983 36.7541C254.602 36.3872 253.949 36.4059 253.302 36.7394C252.946 36.785 252.64 36.9174 252.404 37.1443C252.173 37.3674 252.029 37.6633 251.966 38.0115C251.514 38.7711 251.462 39.576 251.9 39.9973C252.028 40.1208 252.187 40.2006 252.366 40.2394C252.548 40.6533 252.785 41.0796 253.073 41.5044C252.991 41.5837 252.912 41.6621 252.835 41.7394C252.531 42.046 252.265 42.3352 252.059 42.5851C251.858 42.8297 251.702 43.0526 251.633 43.2237C251.216 44.2666 251.576 45.1775 252.217 45.6634C252.851 46.1442 253.772 46.2106 254.426 45.5537C254.899 45.0781 255.187 44.5103 255.341 43.8471C256.766 44.7865 257.92 44.5183 258.748 43.7198C259.695 42.8077 259.897 41.5135 258.486 39.7395ZM254.113 42.7916C254.418 43.1129 254.714 43.3814 255 43.6022C254.868 44.2769 254.602 44.8278 254.153 45.2786C253.66 45.774 252.959 45.7405 252.448 45.3535C251.945 44.9715 251.64 44.2465 251.991 43.3694C252.035 43.2589 252.157 43.0759 252.356 42.8329C252.552 42.5953 252.809 42.3154 253.108 42.0142C253.17 41.9517 253.234 41.8884 253.299 41.8245C253.541 42.1521 253.813 42.4766 254.113 42.7916Z" fill="#386667"/>
<path fill-rule="evenodd" clip-rule="evenodd" d="M122.362 36.8802C119.453 34.2246 117.207 30.1161 115.274 23.1526C116.983 23.4603 118.586 23.7205 120.094 23.9652L120.094 23.9652L120.094 23.9652C130.884 25.7166 136.811 26.6786 141.834 38.5956C144.763 33.9655 148.759 32.7889 155.307 30.8613L155.307 30.8612C155.887 30.6904 156.487 30.5138 157.108 30.3283C158.085 30.0366 159.127 30.5426 159.49 31.4951L159.569 31.7005C159.769 32.2253 159.479 32.811 158.939 32.967C157.119 33.4937 155.526 33.8982 154.101 34.2601C149.009 35.5536 146.056 36.3035 142.459 40.147C142.543 40.3639 142.626 40.5841 142.71 40.8075C148.807 36.9698 154.714 36.0456 159.939 37.0874C157.626 39.4508 156.173 42.8663 156.173 46.6649C156.173 50.5999 157.733 54.124 160.192 56.4931C157.7 58.8026 156.173 61.9076 156.173 65.322C156.173 69.1831 158.125 72.6485 161.219 75.0154C160.914 76.0457 160.752 77.1256 160.752 78.2384C160.752 83.2642 164.058 87.6195 168.886 89.7545C162.131 100.28 152.698 106.439 139.071 100.125C115.274 110.171 105.43 90.0785 99.0105 68.1923C98.0555 64.9366 97.7946 61.5362 98.1555 58.2271C99.1178 57.5721 99.9929 56.2798 100.235 55.3934C100.499 54.4283 100.584 53.5178 100.584 52.5207C100.584 52.4468 100.584 52.3713 100.583 52.2945C100.577 51.3131 100.57 50.1282 101.527 49.5987C102.029 49.3212 102.652 49.1791 103.283 49.0354C104.149 48.8382 105.027 48.638 105.62 48.0803C106.534 47.2209 107.183 45.6779 107.183 44.4607C107.183 43.348 107.687 42.1034 109.068 42.0313C109.256 42.0214 109.474 42.0175 109.704 42.0134C110.329 42.0022 111.049 41.9892 111.547 41.8507C111.907 41.7502 112.333 41.7013 112.772 41.651C113.642 41.5514 114.56 41.446 115.116 40.9232C115.581 40.4864 116.026 39.8664 116.294 39.2981C116.443 38.9829 116.701 38.8164 116.977 38.6381C117.086 38.5678 117.198 38.4956 117.307 38.4117C118.109 37.7945 119.275 37.4514 120.301 37.4514C120.313 37.4514 120.33 37.4514 120.35 37.4514C120.874 37.4525 123.749 37.4584 122.599 36.9776C122.521 36.945 122.442 36.9125 122.362 36.8802ZM139.23 43.2872L139.213 43.3199C139.166 43.3584 139.118 43.397 139.071 43.4358C138.921 43.3358 138.771 43.2371 138.621 43.1396C138.822 43.1881 139.025 43.2373 139.23 43.2872ZM177.283 53.5889C177.409 53.3661 177.529 53.1386 177.642 52.9068C177.768 53.2347 177.887 53.5648 178 53.8968C177.765 53.7888 177.526 53.6861 177.283 53.5889Z" fill="#386667"/>
<path d="M142.395 10.7859C143.565 10.9167 143.932 12.4245 143.831 13.3886C143.598 15.624 140.947 17.0417 140.947 19.2188C140.947 20.9326 142.949 22.6464 143.682 24.1814C144.133 25.1257 144.721 29.7339 143.015 29.7339" stroke="#386667" stroke-width="1.45086" stroke-linecap="round"/>
<path d="M99.2377 25.1375C97.8979 25.2873 98.1628 28.6573 98.2494 29.4638C98.4063 30.9247 99.4445 32.0024 99.4445 33.4894C99.4445 34.3281 99.6717 35.4454 99.1917 36.15C98.8757 36.6139 98.6171 37.3769 98.6171 37.943C98.6171 39.2161 98.896 40.2743 99.4445 41.3786" stroke="#386667" stroke-width="1.45086" stroke-linecap="round"/>
<path d="M105.696 19.3969C105.952 19.3969 105.537 19.6272 105.444 19.6976C105.069 19.9801 104.735 20.7175 104.674 21.1783C104.508 22.4257 105.505 23.3939 105.742 24.533C106.053 26.0292 105.868 26.656 104.961 27.8298C104.647 28.2358 104.348 29.5457 104.869 29.8079" stroke="#386667" stroke-width="1.45086" stroke-linecap="round"/>
<path fill-rule="evenodd" clip-rule="evenodd" d="M176.618 38.1539C177.05 37.6029 176.935 36.9055 176.494 36.4407C176.059 35.9821 175.308 35.7614 174.483 36.2143C174.379 36.2713 174.213 36.4141 173.996 36.6419C173.784 36.8648 173.538 37.1545 173.276 37.4885C173.126 37.6784 172.973 37.8819 172.818 38.0947C173.198 38.3904 173.574 38.7299 173.935 39.1092C174.027 39.206 174.115 39.3016 174.198 39.3959C175.275 39.2252 176.065 38.8588 176.618 38.1539ZM174.486 39.7395C175.519 39.5421 176.333 39.1442 176.921 38.3944C177.493 37.6649 177.321 36.7518 176.773 36.1739C176.219 35.5897 175.278 35.3357 174.297 35.874C174.136 35.9623 173.934 36.1445 173.716 36.3737C173.494 36.608 173.239 36.9077 172.972 37.2478C172.82 37.4408 172.664 37.6475 172.507 37.8636C172.072 37.5547 171.636 37.3038 171.215 37.1166C171.165 36.9778 171.088 36.855 170.983 36.7541C170.602 36.3872 169.949 36.4059 169.302 36.7394C168.946 36.785 168.64 36.9174 168.404 37.1443C168.173 37.3674 168.029 37.6633 167.966 38.0115C167.514 38.7711 167.462 39.576 167.9 39.9973C168.028 40.1208 168.187 40.2006 168.366 40.2394C168.548 40.6533 168.785 41.0796 169.073 41.5044C168.991 41.5837 168.912 41.6621 168.835 41.7394C168.531 42.046 168.265 42.3352 168.059 42.5851C167.858 42.8297 167.702 43.0526 167.633 43.2237C167.216 44.2666 167.576 45.1775 168.217 45.6634C168.851 46.1442 169.772 46.2106 170.426 45.5537C170.899 45.0781 171.187 44.5103 171.341 43.8471C172.766 44.7865 173.92 44.5183 174.748 43.7198C175.695 42.8077 175.897 41.5135 174.486 39.7395ZM170.113 42.7916C170.418 43.1129 170.714 43.3814 171 43.6022C170.868 44.2769 170.602 44.8278 170.153 45.2786C169.66 45.774 168.959 45.7405 168.448 45.3535C167.945 44.9715 167.64 44.2465 167.991 43.3694C168.035 43.2589 168.157 43.0759 168.356 42.8329C168.552 42.5953 168.809 42.3154 169.108 42.0142C169.17 41.9517 169.234 41.8884 169.299 41.8245C169.541 42.1521 169.813 42.4766 170.113 42.7916Z" fill="#386667"/>
<path fill-rule="evenodd" clip-rule="evenodd" d="M290.362 36.8802C287.453 34.2246 285.207 30.1161 283.274 23.1526C284.983 23.4603 286.586 23.7205 288.094 23.9652L288.094 23.9652L288.094 23.9652C298.884 25.7166 304.811 26.6786 309.834 38.5956C312.763 33.9655 316.759 32.7889 323.307 30.8613L323.307 30.8612C323.887 30.6904 324.487 30.5138 325.108 30.3283C326.085 30.0366 327.127 30.5426 327.49 31.4951L327.569 31.7005C327.769 32.2253 327.479 32.811 326.939 32.967C325.119 33.4937 323.526 33.8982 322.101 34.2601C317.009 35.5536 314.056 36.3035 310.459 40.147C310.543 40.3639 310.626 40.5841 310.71 40.8075C316.807 36.9698 322.714 36.0456 327.939 37.0874C325.626 39.4508 324.173 42.8663 324.173 46.6649C324.173 50.5999 325.733 54.124 328.192 56.4931C325.7 58.8026 324.173 61.9076 324.173 65.322C324.173 69.1831 326.125 72.6485 329.219 75.0154C328.914 76.0457 328.752 77.1256 328.752 78.2384C328.752 83.2642 332.058 87.6195 336.886 89.7545C330.131 100.28 320.698 106.439 307.071 100.125C283.274 110.171 273.43 90.0785 267.01 68.1923C266.055 64.9366 265.795 61.5362 266.156 58.2271C267.118 57.5721 267.993 56.2798 268.235 55.3934C268.499 54.4283 268.584 53.5178 268.584 52.5207C268.584 52.4468 268.584 52.3713 268.583 52.2945C268.577 51.3131 268.57 50.1282 269.527 49.5987C270.029 49.3212 270.652 49.1791 271.283 49.0354C272.149 48.8382 273.027 48.638 273.62 48.0803C274.534 47.2209 275.183 45.6779 275.183 44.4607C275.183 43.348 275.687 42.1034 277.068 42.0313C277.256 42.0214 277.474 42.0175 277.704 42.0134C278.329 42.0022 279.049 41.9892 279.547 41.8507C279.907 41.7502 280.333 41.7013 280.772 41.651C281.642 41.5514 282.56 41.446 283.116 40.9232C283.581 40.4864 284.026 39.8664 284.294 39.2981C284.443 38.9829 284.701 38.8164 284.977 38.6381C285.086 38.5678 285.198 38.4956 285.307 38.4117C286.109 37.7945 287.275 37.4514 288.301 37.4514C288.313 37.4514 288.33 37.4514 288.35 37.4514C288.874 37.4525 291.749 37.4584 290.599 36.9776C290.521 36.945 290.442 36.9125 290.362 36.8802ZM307.23 43.2872L307.213 43.3199C307.166 43.3584 307.118 43.397 307.071 43.4358C306.921 43.3358 306.771 43.2371 306.621 43.1396C306.822 43.1881 307.025 43.2373 307.23 43.2872ZM345.283 53.5889C345.409 53.3661 345.529 53.1386 345.642 52.9068C345.768 53.2347 345.887 53.5648 346 53.8968C345.765 53.7888 345.526 53.6861 345.283 53.5889Z" fill="#386667"/>
<path d="M310.395 10.7859C311.565 10.9167 311.932 12.4245 311.831 13.3886C311.598 15.624 308.947 17.0417 308.947 19.2188C308.947 20.9326 310.949 22.6464 311.682 24.1814C312.133 25.1257 312.721 29.7339 311.015 29.7339" stroke="#386667" stroke-width="1.45086" stroke-linecap="round"/>
<path d="M267.238 25.1375C265.898 25.2873 266.163 28.6573 266.249 29.4638C266.406 30.9247 267.445 32.0024 267.445 33.4894C267.445 34.3281 267.672 35.4454 267.192 36.15C266.876 36.6139 266.617 37.3769 266.617 37.943C266.617 39.2161 266.896 40.2743 267.445 41.3786" stroke="#386667" stroke-width="1.45086" stroke-linecap="round"/>
<path d="M273.696 19.3969C273.952 19.3969 273.537 19.6272 273.444 19.6976C273.069 19.9801 272.735 20.7175 272.674 21.1783C272.508 22.4257 273.505 23.3939 273.742 24.533C274.053 26.0292 273.868 26.656 272.961 27.8298C272.647 28.2358 272.348 29.5457 272.869 29.8079" stroke="#386667" stroke-width="1.45086" stroke-linecap="round"/>
<path fill-rule="evenodd" clip-rule="evenodd" d="M344.618 38.1539C345.05 37.6029 344.935 36.9055 344.494 36.4407C344.059 35.9821 343.308 35.7614 342.483 36.2143C342.379 36.2713 342.213 36.4141 341.996 36.6419C341.784 36.8648 341.538 37.1545 341.276 37.4885C341.126 37.6784 340.973 37.8819 340.818 38.0947C341.198 38.3904 341.574 38.7299 341.935 39.1092C342.027 39.206 342.115 39.3016 342.198 39.3959C343.275 39.2252 344.065 38.8588 344.618 38.1539ZM342.486 39.7395C343.519 39.5421 344.333 39.1442 344.921 38.3944C345.493 37.6649 345.321 36.7518 344.773 36.1739C344.219 35.5897 343.278 35.3357 342.297 35.874C342.136 35.9623 341.934 36.1445 341.716 36.3737C341.494 36.608 341.239 36.9077 340.972 37.2478C340.82 37.4408 340.664 37.6475 340.507 37.8636C340.072 37.5547 339.636 37.3038 339.215 37.1166C339.165 36.9778 339.088 36.855 338.983 36.7541C338.602 36.3872 337.949 36.4059 337.302 36.7394C336.946 36.785 336.64 36.9174 336.404 37.1443C336.173 37.3674 336.029 37.6633 335.966 38.0115C335.514 38.7711 335.462 39.576 335.9 39.9973C336.028 40.1208 336.187 40.2006 336.366 40.2394C336.548 40.6533 336.785 41.0796 337.073 41.5044C336.991 41.5837 336.912 41.6621 336.835 41.7394C336.531 42.046 336.265 42.3352 336.059 42.5851C335.858 42.8297 335.702 43.0526 335.633 43.2237C335.216 44.2666 335.576 45.1775 336.217 45.6634C336.851 46.1442 337.772 46.2106 338.426 45.5537C338.899 45.0781 339.187 44.5103 339.341 43.8471C340.766 44.7865 341.92 44.5183 342.748 43.7198C343.695 42.8077 343.897 41.5135 342.486 39.7395ZM338.113 42.7916C338.418 43.1129 338.714 43.3814 339 43.6022C338.868 44.2769 338.602 44.8278 338.153 45.2786C337.66 45.774 336.959 45.7405 336.448 45.3535C335.945 44.9715 335.64 44.2465 335.991 43.3694C336.035 43.2589 336.157 43.0759 336.356 42.8329C336.552 42.5953 336.809 42.3154 337.108 42.0142C337.17 41.9517 337.234 41.8884 337.299 41.8245C337.541 42.1521 337.813 42.4766 338.113 42.7916Z" fill="#386667"/>
<g clip-path="url(#clip0_264_1382)">
<path fill-rule="evenodd" clip-rule="evenodd" d="M371.362 36.8802C368.453 34.2246 366.206 30.1161 364.274 23.1526C365.983 23.4603 367.586 23.7205 369.094 23.9652L369.094 23.9652L369.094 23.9652C379.884 25.7166 385.811 26.6786 390.834 38.5956C393.763 33.9655 397.759 32.7889 404.306 30.8613L404.307 30.8612C404.887 30.6904 405.487 30.5138 406.108 30.3283C407.085 30.0366 408.127 30.5426 408.49 31.4951L408.569 31.7005C408.769 32.2253 408.479 32.811 407.939 32.967C406.118 33.4937 404.526 33.8982 403.101 34.2601C398.009 35.5536 395.056 36.3035 391.459 40.147C391.543 40.3639 391.626 40.5841 391.709 40.8075C397.807 36.9698 403.713 36.0456 408.939 37.0874C406.626 39.4508 405.173 42.8663 405.173 46.6649C405.173 50.5999 406.733 54.124 409.192 56.4931C406.699 58.8026 405.173 61.9076 405.173 65.322C405.173 69.1831 407.125 72.6485 410.219 75.0154C409.914 76.0457 409.752 77.1256 409.752 78.2384C409.752 83.2642 413.058 87.6195 417.886 89.7545C411.131 100.28 401.698 106.439 388.071 100.125C364.274 110.171 354.43 90.0785 348.01 68.1923C347.055 64.9366 346.794 61.5362 347.155 58.2271C348.118 57.5721 348.993 56.2798 349.235 55.3934C349.499 54.4283 349.584 53.5178 349.584 52.5207C349.584 52.4468 349.584 52.3713 349.583 52.2945C349.577 51.3131 349.57 50.1282 350.527 49.5987C351.029 49.3212 351.652 49.1791 352.283 49.0354C353.149 48.8382 354.027 48.638 354.62 48.0803C355.534 47.2209 356.183 45.6779 356.183 44.4607C356.183 43.348 356.687 42.1034 358.068 42.0313C358.256 42.0214 358.473 42.0175 358.704 42.0134C359.329 42.0022 360.049 41.9892 360.546 41.8507C360.907 41.7502 361.333 41.7013 361.772 41.651C362.641 41.5514 363.56 41.446 364.116 40.9232C364.581 40.4864 365.026 39.8664 365.294 39.2981C365.443 38.9829 365.701 38.8164 365.977 38.6381C366.086 38.5678 366.198 38.4956 366.307 38.4117C367.109 37.7945 368.275 37.4514 369.3 37.4514C369.313 37.4514 369.33 37.4514 369.35 37.4514C369.874 37.4525 372.749 37.4584 371.599 36.9776C371.521 36.945 371.442 36.9125 371.362 36.8802ZM388.23 43.2872L388.213 43.3199C388.166 43.3584 388.118 43.397 388.071 43.4358C387.921 43.3358 387.771 43.2371 387.621 43.1396C387.822 43.1881 388.025 43.2373 388.23 43.2872ZM426.283 53.5889C426.409 53.3661 426.529 53.1386 426.642 52.9068C426.768 53.2347 426.887 53.5648 427 53.8968C426.765 53.7888 426.526 53.6861 426.283 53.5889Z" fill="#386667"/>
<path d="M348.238 25.1375C346.898 25.2873 347.163 28.6573 347.249 29.4638C347.406 30.9247 348.444 32.0024 348.444 33.4894C348.444 34.3281 348.672 35.4454 348.192 36.15C347.876 36.6139 347.617 37.3769 347.617 37.943C347.617 39.2161 347.896 40.2743 348.444 41.3786" stroke="#386667" stroke-width="1.45086" stroke-linecap="round"/>
<path d="M354.696 19.3969C354.952 19.3969 354.537 19.6272 354.443 19.6976C354.069 19.9801 353.735 20.7175 353.673 21.1783C353.508 22.4257 354.505 23.3939 354.742 24.533C355.053 26.0292 354.868 26.656 353.961 27.8298C353.647 28.2358 353.348 29.5457 353.869 29.8079" stroke="#386667" stroke-width="1.45086" stroke-linecap="round"/>
</g>
<path d="M91.6684 211.361C88.2822 232.925 67.6782 261.067 54.2291 243.889C37.8722 261.067 17.2219 232.725 16.063 211.361C14.9725 191.259 28.058 167.503 54.2291 186.142C76.4019 166.772 94.7102 191.99 91.6684 211.361Z" fill="#ABACA6"/>
<path d="M53.9111 186.508C37.8174 177.489 29.014 176.914 30.6024 158C46.8377 165.284 54.7725 166.166 53.9111 186.508Z" fill="#386667"/>
<path d="M71.6766 160.924C60.92 166.344 57.7205 173.141 53.5022 187.239C59.7123 175.239 63.5664 169.078 74.221 163.848L71.6766 160.924Z" fill="black"/>
<path d="M34.1768 216.289C34.9561 216.253 35.4938 215.968 35.79 215.435C35.945 215.161 36.0225 214.844 36.0225 214.484C36.0225 213.915 35.8128 213.482 35.3936 213.186C35.152 213.012 34.7464 212.848 34.1768 212.693V216.289ZM31.8594 209.692C31.8594 210.144 32.0075 210.497 32.3037 210.752C32.6045 211.007 33.0078 211.185 33.5137 211.285V208.072C32.9167 208.095 32.4906 208.277 32.2354 208.619C31.9847 208.961 31.8594 209.319 31.8594 209.692ZM30.6289 209.774C30.6289 209.082 30.8818 208.457 31.3877 207.901C31.8981 207.345 32.6113 207.063 33.5273 207.054V206.145H34.1768V207.04C35.0837 207.104 35.7786 207.373 36.2617 207.847C36.7493 208.316 37.0046 208.938 37.0273 209.713H35.8311C35.7992 209.367 35.7057 209.068 35.5508 208.817C35.2637 208.357 34.8057 208.116 34.1768 208.093V211.415C35.234 211.711 35.9518 211.989 36.3301 212.249C36.9453 212.677 37.2529 213.311 37.2529 214.149C37.2529 215.362 36.8587 216.223 36.0703 216.733C35.6328 217.016 35.0016 217.203 34.1768 217.294V218.62H33.5273V217.294C32.2012 217.207 31.3011 216.738 30.8271 215.886C30.5674 215.425 30.4375 214.803 30.4375 214.02H31.6475C31.6839 214.644 31.7819 215.1 31.9414 215.387C32.224 215.902 32.748 216.191 33.5137 216.255V212.529C32.5293 212.342 31.8024 212.03 31.333 211.593C30.8636 211.155 30.6289 210.549 30.6289 209.774ZM39.1328 210.068V209.125C40.0215 209.038 40.6413 208.895 40.9922 208.694C41.3431 208.489 41.6051 208.008 41.7783 207.252H42.749V217H41.4365V210.068H39.1328ZM49.373 207.211C50.64 207.211 51.556 207.733 52.1211 208.776C52.5586 209.583 52.7773 210.688 52.7773 212.092C52.7773 213.423 52.5791 214.523 52.1826 215.394C51.6084 216.642 50.6696 217.267 49.3662 217.267C48.1904 217.267 47.3154 216.756 46.7412 215.735C46.2627 214.883 46.0234 213.739 46.0234 212.304C46.0234 211.192 46.167 210.237 46.4541 209.439C46.9919 207.954 47.9648 207.211 49.373 207.211ZM49.3594 216.146C49.9974 216.146 50.5055 215.863 50.8838 215.298C51.262 214.733 51.4512 213.68 51.4512 212.14C51.4512 211.028 51.3145 210.114 51.041 209.398C50.7676 208.678 50.2367 208.318 49.4482 208.318C48.7236 208.318 48.1927 208.66 47.8555 209.344C47.5228 210.023 47.3564 211.025 47.3564 212.352C47.3564 213.35 47.4635 214.152 47.6777 214.758C48.0059 215.683 48.5664 216.146 49.3594 216.146ZM57.166 207.211C58.4329 207.211 59.349 207.733 59.9141 208.776C60.3516 209.583 60.5703 210.688 60.5703 212.092C60.5703 213.423 60.3721 214.523 59.9756 215.394C59.4014 216.642 58.4626 217.267 57.1592 217.267C55.9834 217.267 55.1084 216.756 54.5342 215.735C54.0557 214.883 53.8164 213.739 53.8164 212.304C53.8164 211.192 53.96 210.237 54.2471 209.439C54.7848 207.954 55.7578 207.211 57.166 207.211ZM57.1523 216.146C57.7904 216.146 58.2985 215.863 58.6768 215.298C59.055 214.733 59.2441 213.68 59.2441 212.14C59.2441 211.028 59.1074 210.114 58.834 209.398C58.5605 208.678 58.0296 208.318 57.2412 208.318C56.5166 208.318 55.9857 208.66 55.6484 209.344C55.3158 210.023 55.1494 211.025 55.1494 212.352C55.1494 213.35 55.2565 214.152 55.4707 214.758C55.7988 215.683 56.3594 216.146 57.1523 216.146ZM61.9785 206.924H63.1748V210.567C63.4437 210.216 63.765 209.95 64.1387 209.768C64.5124 209.581 64.918 209.487 65.3555 209.487C66.2669 209.487 67.0052 209.802 67.5703 210.431C68.14 211.055 68.4248 211.978 68.4248 213.199C68.4248 214.357 68.1445 215.318 67.584 216.084C67.0234 216.85 66.2464 217.232 65.2529 217.232C64.6969 217.232 64.2275 217.098 63.8447 216.829C63.6169 216.67 63.373 216.414 63.1133 216.063V217H61.9785V206.924ZM65.1777 216.146C65.8431 216.146 66.3398 215.881 66.668 215.353C67.0007 214.824 67.167 214.127 67.167 213.261C67.167 212.491 67.0007 211.853 66.668 211.347C66.3398 210.841 65.8545 210.588 65.2119 210.588C64.6514 210.588 64.1592 210.795 63.7354 211.21C63.3161 211.625 63.1064 212.308 63.1064 213.261C63.1064 213.949 63.193 214.507 63.3662 214.936C63.6898 215.742 64.2936 216.146 65.1777 216.146ZM69.8672 209.679H71.0361V210.718C71.3825 210.289 71.7493 209.982 72.1367 209.795C72.5241 209.608 72.9548 209.515 73.4287 209.515C74.4678 209.515 75.1696 209.877 75.5342 210.602C75.7347 210.998 75.835 211.565 75.835 212.304V217H74.584V212.386C74.584 211.939 74.5179 211.579 74.3857 211.306C74.167 210.85 73.7705 210.622 73.1963 210.622C72.9046 210.622 72.6654 210.652 72.4785 210.711C72.1413 210.811 71.8451 211.012 71.5898 211.312C71.3848 211.554 71.2503 211.805 71.1865 212.064C71.1273 212.32 71.0977 212.687 71.0977 213.165V217H69.8672V209.679Z" fill="black"/>
<path d="M175.668 211.361C172.282 232.925 151.678 261.067 138.229 243.889C121.872 261.067 101.222 232.725 100.063 211.361C98.9725 191.259 112.058 167.503 138.229 186.142C160.402 166.772 178.71 191.99 175.668 211.361Z" fill="#ABACA6"/>
<path d="M137.911 186.508C121.817 177.489 113.014 176.914 114.602 158C130.838 165.284 138.772 166.166 137.911 186.508Z" fill="#386667"/>
<path d="M155.677 160.924C144.92 166.344 141.72 173.141 137.502 187.239C143.712 175.239 147.566 169.078 158.221 163.848L155.677 160.924Z" fill="black"/>
<path d="M259.668 211.361C256.282 232.925 235.678 261.067 222.229 243.889C205.872 261.067 185.222 232.725 184.063 211.361C182.973 191.259 196.058 167.503 222.229 186.142C244.402 166.772 262.71 191.99 259.668 211.361Z" fill="#ABACA6"/>
<path d="M221.911 186.508C205.817 177.489 197.014 176.914 198.603 158C214.838 165.284 222.773 166.166 221.911 186.508Z" fill="#386667"/>
<path d="M239.677 160.924C228.92 166.344 225.72 173.141 221.502 187.239C227.712 175.239 231.566 169.078 242.221 163.848L239.677 160.924Z" fill="black"/>
<path d="M343.668 211.361C340.282 232.925 319.678 261.067 306.229 243.889C289.872 261.067 269.222 232.725 268.063 211.361C266.973 191.259 280.058 167.503 306.229 186.142C328.402 166.772 346.71 191.99 343.668 211.361Z" fill="#ABACA6"/>
<path d="M305.911 186.508C289.817 177.489 281.014 176.914 282.603 158C298.838 165.284 306.773 166.166 305.911 186.508Z" fill="#386667"/>
<path d="M323.677 160.924C312.92 166.344 309.72 173.141 305.502 187.239C311.712 175.239 315.566 169.078 326.221 163.848L323.677 160.924Z" fill="black"/>
<path d="M427.668 211.361C424.282 232.925 403.678 261.067 390.229 243.889C373.872 261.067 353.222 232.725 352.063 211.361C350.973 191.259 364.058 167.503 390.229 186.142C412.402 166.772 430.71 191.99 427.668 211.361Z" fill="#ABACA6"/>
<path d="M389.911 186.508C373.817 177.489 365.014 176.914 366.603 158C382.838 165.284 390.773 166.166 389.911 186.508Z" fill="#386667"/>
<path d="M407.677 160.924C396.92 166.344 393.72 173.141 389.502 187.239C395.712 175.239 399.566 169.078 410.221 163.848L407.677 160.924Z" fill="black"/>
<path d="M511.668 211.361C508.282 232.925 487.678 261.067 474.229 243.889C457.872 261.067 437.222 232.725 436.063 211.361C434.973 191.259 448.058 167.503 474.229 186.142C496.402 166.772 514.71 191.99 511.668 211.361Z" fill="#ABACA6"/>
<path d="M473.911 186.508C457.817 177.489 449.014 176.914 450.603 158C466.838 165.284 474.773 166.166 473.911 186.508Z" fill="#386667"/>
<path d="M491.677 160.924C480.92 166.344 477.72 173.141 473.502 187.239C479.712 175.239 483.566 169.078 494.221 163.848L491.677 160.924Z" fill="black"/>
<g clip-path="url(#clip1_264_1382)">
<path d="M595.668 211.361C592.282 232.925 571.678 261.067 558.229 243.889C541.872 261.067 521.222 232.725 520.063 211.361C518.973 191.259 532.058 167.503 558.229 186.142C580.402 166.772 598.71 191.99 595.668 211.361Z" fill="#ABACA6"/>
<path d="M557.911 186.508C541.817 177.489 533.014 176.914 534.603 158C550.838 165.284 558.773 166.166 557.911 186.508Z" fill="#386667"/>
<path d="M575.677 160.924C564.92 166.344 561.72 173.141 557.502 187.239C563.712 175.239 567.566 169.078 578.221 163.848L575.677 160.924Z" fill="black"/>
</g>
<line x1="356.5" y1="8" x2="356.5" y2="249" stroke="#386667" stroke-width="3" stroke-dasharray="6 6"/>
<path d="M599.53 204V191.04H600.754V197.754L607.396 191.04H608.782L603.67 196.206L609.682 204H608.188L602.788 196.962L600.754 198.996V204H599.53ZM615.28 198.762V199.878H610.726V198.762H615.28ZM621.436 194.568H618.16V193.812C618.64 193.776 619.072 193.728 619.456 193.668C619.852 193.608 620.194 193.494 620.482 193.326C620.782 193.158 621.028 192.918 621.22 192.606C621.424 192.282 621.574 191.85 621.67 191.31H622.588V204H621.436V194.568ZM627.244 195.468C627.244 194.844 627.34 194.28 627.532 193.776C627.724 193.26 628 192.822 628.36 192.462C628.72 192.09 629.152 191.808 629.656 191.616C630.172 191.412 630.742 191.31 631.366 191.31C632.002 191.31 632.56 191.406 633.04 191.598C633.532 191.778 633.94 192.024 634.264 192.336C634.6 192.648 634.852 193.02 635.02 193.452C635.188 193.884 635.272 194.34 635.272 194.82C635.272 195.384 635.176 195.882 634.984 196.314C634.804 196.746 634.558 197.13 634.246 197.466C633.946 197.802 633.598 198.102 633.202 198.366C632.818 198.63 632.422 198.882 632.014 199.122C631.606 199.35 631.204 199.572 630.808 199.788C630.412 200.004 630.058 200.232 629.746 200.472C629.542 200.628 629.344 200.796 629.152 200.976C628.96 201.144 628.786 201.33 628.63 201.534C628.474 201.738 628.348 201.966 628.252 202.218C628.156 202.458 628.102 202.728 628.09 203.028H635.164V204H626.866C626.878 203.388 626.944 202.836 627.064 202.344C627.184 201.852 627.448 201.372 627.856 200.904C628.3 200.4 628.756 199.968 629.224 199.608C629.704 199.248 630.172 198.93 630.628 198.654C631.084 198.366 631.516 198.108 631.924 197.88C632.332 197.64 632.692 197.382 633.004 197.106C633.316 196.83 633.562 196.518 633.742 196.17C633.922 195.822 634.012 195.396 634.012 194.892C634.012 194.484 633.94 194.118 633.796 193.794C633.652 193.47 633.454 193.194 633.202 192.966C632.95 192.738 632.656 192.57 632.32 192.462C631.984 192.342 631.618 192.282 631.222 192.282C630.802 192.282 630.418 192.372 630.07 192.552C629.734 192.72 629.44 192.948 629.188 193.236C628.948 193.524 628.762 193.86 628.63 194.244C628.498 194.628 628.444 195.036 628.468 195.468H627.244ZM643.516 199.374C643.516 199.902 643.588 200.406 643.732 200.886C643.876 201.354 644.08 201.768 644.344 202.128C644.62 202.476 644.95 202.758 645.334 202.974C645.73 203.178 646.174 203.28 646.666 203.28C647.218 203.28 647.698 203.172 648.106 202.956C648.526 202.728 648.868 202.422 649.132 202.038C649.396 201.654 649.588 201.21 649.708 200.706C649.828 200.19 649.876 199.638 649.852 199.05C649.852 198.462 649.768 197.946 649.6 197.502C649.444 197.046 649.222 196.662 648.934 196.35C648.646 196.038 648.31 195.804 647.926 195.648C647.542 195.48 647.122 195.396 646.666 195.396C646.162 195.396 645.712 195.498 645.316 195.702C644.92 195.906 644.59 196.188 644.326 196.548C644.062 196.896 643.858 197.316 643.714 197.808C643.582 198.288 643.516 198.81 643.516 199.374ZM643.516 207.672H642.436V194.676H643.516V196.314H643.552C643.708 196.014 643.906 195.744 644.146 195.504C644.398 195.264 644.668 195.066 644.956 194.91C645.256 194.754 645.562 194.634 645.874 194.55C646.186 194.466 646.492 194.424 646.792 194.424C647.548 194.424 648.19 194.55 648.718 194.802C649.246 195.054 649.678 195.402 650.014 195.846C650.362 196.278 650.614 196.794 650.77 197.394C650.926 197.994 651.004 198.636 651.004 199.32C651.004 199.968 650.92 200.592 650.752 201.192C650.584 201.792 650.326 202.32 649.978 202.776C649.642 203.22 649.21 203.58 648.682 203.856C648.166 204.12 647.554 204.252 646.846 204.252C646.186 204.252 645.55 204.108 644.938 203.82C644.338 203.52 643.864 203.082 643.516 202.506V207.672ZM659.632 194.676H660.712V204H659.632V202.704C659.488 202.872 659.326 203.046 659.146 203.226C658.966 203.406 658.756 203.574 658.516 203.73C658.288 203.874 658.018 203.994 657.706 204.09C657.394 204.198 657.034 204.252 656.626 204.252C656.002 204.252 655.48 204.168 655.06 204C654.64 203.82 654.298 203.574 654.034 203.262C653.782 202.95 653.596 202.59 653.476 202.182C653.368 201.762 653.314 201.306 653.314 200.814V194.676H654.394V200.796C654.394 201.6 654.58 202.218 654.952 202.65C655.324 203.07 655.936 203.28 656.788 203.28C657.232 203.28 657.628 203.196 657.976 203.028C658.336 202.848 658.636 202.602 658.876 202.29C659.116 201.978 659.302 201.606 659.434 201.174C659.566 200.742 659.632 200.268 659.632 199.752V194.676ZM664.522 199.302C664.522 199.866 664.588 200.394 664.72 200.886C664.864 201.366 665.068 201.786 665.332 202.146C665.596 202.494 665.926 202.77 666.322 202.974C666.718 203.178 667.168 203.28 667.672 203.28C668.128 203.28 668.548 203.202 668.932 203.046C669.316 202.878 669.652 202.638 669.94 202.326C670.228 202.014 670.45 201.636 670.606 201.192C670.774 200.736 670.858 200.214 670.858 199.626C670.882 199.038 670.834 198.492 670.714 197.988C670.594 197.472 670.402 197.022 670.138 196.638C669.874 196.254 669.532 195.954 669.112 195.738C668.704 195.51 668.224 195.396 667.672 195.396C667.18 195.396 666.736 195.504 666.34 195.72C665.956 195.924 665.626 196.206 665.35 196.566C665.086 196.914 664.882 197.328 664.738 197.808C664.594 198.276 664.522 198.774 664.522 199.302ZM664.522 204H663.442V191.04H664.522V196.17C664.87 195.594 665.344 195.162 665.944 194.874C666.556 194.574 667.192 194.424 667.852 194.424C668.56 194.424 669.172 194.562 669.688 194.838C670.216 195.102 670.648 195.462 670.984 195.918C671.332 196.362 671.59 196.884 671.758 197.484C671.926 198.084 672.01 198.708 672.01 199.356C672.01 200.04 671.932 200.682 671.776 201.282C671.62 201.882 671.368 202.404 671.02 202.848C670.684 203.28 670.252 203.622 669.724 203.874C669.196 204.126 668.554 204.252 667.798 204.252C667.498 204.252 667.192 204.21 666.88 204.126C666.568 204.042 666.262 203.922 665.962 203.766C665.674 203.61 665.404 203.418 665.152 203.19C664.912 202.95 664.714 202.674 664.558 202.362H664.522V204ZM674.481 204V191.04H675.561V204H674.481ZM678.155 204V194.676H679.235V204H678.155ZM678.101 192.642V191.04H679.289V192.642H678.101ZM688.59 197.61C688.398 196.914 688.068 196.374 687.6 195.99C687.132 195.594 686.538 195.396 685.818 195.396C685.266 195.396 684.792 195.51 684.396 195.738C684 195.966 683.676 196.272 683.424 196.656C683.172 197.028 682.986 197.454 682.866 197.934C682.746 198.402 682.686 198.876 682.686 199.356C682.686 199.848 682.74 200.328 682.848 200.796C682.968 201.264 683.154 201.684 683.406 202.056C683.658 202.428 683.982 202.728 684.378 202.956C684.774 203.172 685.254 203.28 685.818 203.28C686.622 203.28 687.264 203.058 687.744 202.614C688.236 202.17 688.548 201.558 688.68 200.778H689.832C689.736 201.294 689.58 201.768 689.364 202.2C689.16 202.62 688.89 202.986 688.554 203.298C688.23 203.598 687.84 203.832 687.384 204C686.928 204.168 686.406 204.252 685.818 204.252C685.074 204.252 684.432 204.126 683.892 203.874C683.352 203.622 682.908 203.28 682.56 202.848C682.212 202.404 681.954 201.882 681.786 201.282C681.618 200.682 681.534 200.04 681.534 199.356C681.534 198.708 681.624 198.09 681.804 197.502C681.996 196.902 682.272 196.374 682.632 195.918C682.992 195.462 683.436 195.102 683.964 194.838C684.504 194.562 685.122 194.424 685.818 194.424C686.898 194.424 687.768 194.682 688.428 195.198C689.1 195.714 689.52 196.518 689.688 197.61H688.59ZM697.625 201.084C697.793 201.888 698.093 202.458 698.525 202.794C698.969 203.118 699.599 203.28 700.415 203.28C700.811 203.28 701.153 203.232 701.441 203.136C701.729 203.04 701.963 202.914 702.143 202.758C702.335 202.59 702.479 202.404 702.575 202.2C702.671 201.996 702.719 201.78 702.719 201.552C702.719 201.096 702.569 200.76 702.269 200.544C701.981 200.316 701.615 200.142 701.171 200.022C700.727 199.89 700.247 199.782 699.731 199.698C699.215 199.602 698.735 199.464 698.291 199.284C697.847 199.104 697.475 198.846 697.175 198.51C696.887 198.174 696.743 197.7 696.743 197.088C696.743 196.308 697.025 195.672 697.589 195.18C698.165 194.676 698.975 194.424 700.019 194.424C701.027 194.424 701.843 194.652 702.467 195.108C703.103 195.552 703.487 196.302 703.619 197.358H702.521C702.425 196.638 702.149 196.134 701.693 195.846C701.249 195.546 700.685 195.396 700.001 195.396C699.317 195.396 698.795 195.546 698.435 195.846C698.075 196.134 697.895 196.518 697.895 196.998C697.895 197.418 698.039 197.742 698.327 197.97C698.627 198.186 698.999 198.366 699.443 198.51C699.887 198.642 700.367 198.762 700.883 198.87C701.399 198.978 701.879 199.134 702.323 199.338C702.767 199.53 703.133 199.794 703.421 200.13C703.721 200.466 703.871 200.934 703.871 201.534C703.871 201.978 703.775 202.374 703.583 202.722C703.391 203.058 703.127 203.34 702.791 203.568C702.455 203.796 702.053 203.964 701.585 204.072C701.129 204.192 700.625 204.252 700.073 204.252C699.521 204.252 699.029 204.168 698.597 204C698.177 203.844 697.817 203.622 697.517 203.334C697.217 203.046 696.983 202.71 696.815 202.326C696.647 201.942 696.551 201.528 696.527 201.084H697.625ZM712.601 197.61C712.409 196.914 712.079 196.374 711.611 195.99C711.143 195.594 710.549 195.396 709.829 195.396C709.277 195.396 708.803 195.51 708.407 195.738C708.011 195.966 707.687 196.272 707.435 196.656C707.183 197.028 706.997 197.454 706.877 197.934C706.757 198.402 706.697 198.876 706.697 199.356C706.697 199.848 706.751 200.328 706.859 200.796C706.979 201.264 707.165 201.684 707.417 202.056C707.669 202.428 707.993 202.728 708.389 202.956C708.785 203.172 709.265 203.28 709.829 203.28C710.633 203.28 711.275 203.058 711.755 202.614C712.247 202.17 712.559 201.558 712.691 200.778H713.843C713.747 201.294 713.591 201.768 713.375 202.2C713.171 202.62 712.901 202.986 712.565 203.298C712.241 203.598 711.851 203.832 711.395 204C710.939 204.168 710.417 204.252 709.829 204.252C709.085 204.252 708.443 204.126 707.903 203.874C707.363 203.622 706.919 203.28 706.571 202.848C706.223 202.404 705.965 201.882 705.797 201.282C705.629 200.682 705.545 200.04 705.545 199.356C705.545 198.708 705.635 198.09 705.815 197.502C706.007 196.902 706.283 196.374 706.643 195.918C707.003 195.462 707.447 195.102 707.975 194.838C708.515 194.562 709.133 194.424 709.829 194.424C710.909 194.424 711.779 194.682 712.439 195.198C713.111 195.714 713.531 196.518 713.699 197.61H712.601ZM715.997 204V191.04H717.077V195.972C717.509 195.516 717.953 195.144 718.409 194.856C718.877 194.568 719.435 194.424 720.083 194.424C720.659 194.424 721.193 194.526 721.685 194.73C722.177 194.922 722.591 195.264 722.927 195.756C723.155 196.092 723.287 196.44 723.323 196.8C723.371 197.148 723.395 197.514 723.395 197.898V204H722.315V197.916C722.315 197.076 722.129 196.446 721.757 196.026C721.385 195.606 720.767 195.396 719.903 195.396C719.567 195.396 719.261 195.45 718.985 195.558C718.709 195.654 718.457 195.786 718.229 195.954C718.013 196.122 717.827 196.314 717.671 196.53C717.515 196.746 717.395 196.974 717.311 197.214C717.203 197.514 717.137 197.802 717.113 198.078C717.089 198.354 717.077 198.654 717.077 198.978V204H715.997ZM729.707 204.252C729.107 204.24 728.543 204.132 728.015 203.928C727.499 203.724 727.043 203.418 726.647 203.01C726.263 202.602 725.957 202.092 725.729 201.48C725.501 200.868 725.387 200.154 725.387 199.338C725.387 198.654 725.477 198.018 725.657 197.43C725.837 196.83 726.107 196.308 726.467 195.864C726.827 195.42 727.277 195.072 727.817 194.82C728.357 194.556 728.987 194.424 729.707 194.424C730.439 194.424 731.075 194.556 731.615 194.82C732.155 195.072 732.605 195.42 732.965 195.864C733.325 196.296 733.589 196.812 733.757 197.412C733.937 198.012 734.027 198.654 734.027 199.338C734.027 200.082 733.925 200.754 733.721 201.354C733.517 201.954 733.223 202.47 732.839 202.902C732.467 203.334 732.011 203.67 731.471 203.91C730.943 204.138 730.355 204.252 729.707 204.252ZM732.875 199.338C732.875 198.786 732.815 198.27 732.695 197.79C732.575 197.31 732.389 196.896 732.137 196.548C731.885 196.188 731.561 195.906 731.165 195.702C730.769 195.498 730.283 195.396 729.707 195.396C729.143 195.396 728.657 195.51 728.249 195.738C727.853 195.954 727.529 196.248 727.277 196.62C727.025 196.98 726.839 197.4 726.719 197.88C726.599 198.348 726.539 198.834 726.539 199.338C726.539 199.914 726.605 200.448 726.737 200.94C726.881 201.42 727.085 201.834 727.349 202.182C727.613 202.53 727.943 202.8 728.339 202.992C728.735 203.184 729.191 203.28 729.707 203.28C730.271 203.28 730.751 203.172 731.147 202.956C731.555 202.728 731.885 202.428 732.137 202.056C732.389 201.684 732.575 201.264 732.695 200.796C732.815 200.328 732.875 199.842 732.875 199.338ZM739.709 204.252C739.109 204.24 738.545 204.132 738.017 203.928C737.501 203.724 737.045 203.418 736.649 203.01C736.265 202.602 735.959 202.092 735.731 201.48C735.503 200.868 735.389 200.154 735.389 199.338C735.389 198.654 735.479 198.018 735.659 197.43C735.839 196.83 736.109 196.308 736.469 195.864C736.829 195.42 737.279 195.072 737.819 194.82C738.359 194.556 738.989 194.424 739.709 194.424C740.441 194.424 741.077 194.556 741.617 194.82C742.157 195.072 742.607 195.42 742.967 195.864C743.327 196.296 743.591 196.812 743.759 197.412C743.939 198.012 744.029 198.654 744.029 199.338C744.029 200.082 743.927 200.754 743.723 201.354C743.519 201.954 743.225 202.47 742.841 202.902C742.469 203.334 742.013 203.67 741.473 203.91C740.945 204.138 740.357 204.252 739.709 204.252ZM742.877 199.338C742.877 198.786 742.817 198.27 742.697 197.79C742.577 197.31 742.391 196.896 742.139 196.548C741.887 196.188 741.563 195.906 741.167 195.702C740.771 195.498 740.285 195.396 739.709 195.396C739.145 195.396 738.659 195.51 738.251 195.738C737.855 195.954 737.531 196.248 737.279 196.62C737.027 196.98 736.841 197.4 736.721 197.88C736.601 198.348 736.541 198.834 736.541 199.338C736.541 199.914 736.607 200.448 736.739 200.94C736.883 201.42 737.087 201.834 737.351 202.182C737.615 202.53 737.945 202.8 738.341 202.992C738.737 203.184 739.193 203.28 739.709 203.28C740.273 203.28 740.753 203.172 741.149 202.956C741.557 202.728 741.887 202.428 742.139 202.056C742.391 201.684 742.577 201.264 742.697 200.796C742.817 200.328 742.877 199.842 742.877 199.338ZM746.165 204V191.04H747.245V204H746.165ZM750.623 201.084C750.791 201.888 751.091 202.458 751.523 202.794C751.967 203.118 752.597 203.28 753.413 203.28C753.809 203.28 754.151 203.232 754.439 203.136C754.727 203.04 754.961 202.914 755.141 202.758C755.333 202.59 755.477 202.404 755.573 202.2C755.669 201.996 755.717 201.78 755.717 201.552C755.717 201.096 755.567 200.76 755.267 200.544C754.979 200.316 754.613 200.142 754.169 200.022C753.725 199.89 753.245 199.782 752.729 199.698C752.213 199.602 751.733 199.464 751.289 199.284C750.845 199.104 750.473 198.846 750.173 198.51C749.885 198.174 749.741 197.7 749.741 197.088C749.741 196.308 750.023 195.672 750.587 195.18C751.163 194.676 751.973 194.424 753.017 194.424C754.025 194.424 754.841 194.652 755.465 195.108C756.101 195.552 756.485 196.302 756.617 197.358H755.519C755.423 196.638 755.147 196.134 754.691 195.846C754.247 195.546 753.683 195.396 752.999 195.396C752.315 195.396 751.793 195.546 751.433 195.846C751.073 196.134 750.893 196.518 750.893 196.998C750.893 197.418 751.037 197.742 751.325 197.97C751.625 198.186 751.997 198.366 752.441 198.51C752.885 198.642 753.365 198.762 753.881 198.87C754.397 198.978 754.877 199.134 755.321 199.338C755.765 199.53 756.131 199.794 756.419 200.13C756.719 200.466 756.869 200.934 756.869 201.534C756.869 201.978 756.773 202.374 756.581 202.722C756.389 203.058 756.125 203.34 755.789 203.568C755.453 203.796 755.051 203.964 754.583 204.072C754.127 204.192 753.623 204.252 753.071 204.252C752.519 204.252 752.027 204.168 751.595 204C751.175 203.844 750.815 203.622 750.515 203.334C750.215 203.046 749.981 202.71 749.813 202.326C749.645 201.942 749.549 201.528 749.525 201.084H750.623ZM770.105 199.104C769.649 199.296 769.187 199.422 768.719 199.482C768.251 199.542 767.783 199.59 767.315 199.626C766.487 199.686 765.839 199.872 765.371 200.184C764.915 200.496 764.687 200.97 764.687 201.606C764.687 201.894 764.741 202.146 764.849 202.362C764.969 202.566 765.119 202.74 765.299 202.884C765.491 203.016 765.707 203.118 765.947 203.19C766.199 203.25 766.451 203.28 766.703 203.28C767.135 203.28 767.555 203.226 767.963 203.118C768.371 203.01 768.731 202.848 769.043 202.632C769.367 202.404 769.625 202.122 769.817 201.786C770.009 201.438 770.105 201.03 770.105 200.562V199.104ZM768.287 198.564C768.491 198.54 768.731 198.504 769.007 198.456C769.295 198.408 769.529 198.342 769.709 198.258C769.889 198.174 769.997 198.036 770.033 197.844C770.081 197.64 770.105 197.454 770.105 197.286C770.105 196.734 769.925 196.284 769.565 195.936C769.217 195.576 768.623 195.396 767.783 195.396C767.411 195.396 767.069 195.432 766.757 195.504C766.445 195.564 766.169 195.678 765.929 195.846C765.701 196.002 765.509 196.218 765.353 196.494C765.209 196.758 765.113 197.094 765.065 197.502H763.967C764.003 196.95 764.129 196.482 764.345 196.098C764.561 195.702 764.837 195.384 765.173 195.144C765.521 194.892 765.917 194.712 766.361 194.604C766.817 194.484 767.297 194.424 767.801 194.424C768.269 194.424 768.707 194.478 769.115 194.586C769.535 194.682 769.895 194.844 770.195 195.072C770.507 195.288 770.747 195.582 770.915 195.954C771.095 196.326 771.185 196.782 771.185 197.322V202.398C771.185 202.818 771.257 203.088 771.401 203.208C771.557 203.316 771.863 203.286 772.319 203.118V203.964C772.235 203.988 772.109 204.024 771.941 204.072C771.785 204.12 771.629 204.144 771.473 204.144C771.305 204.144 771.143 204.126 770.987 204.09C770.807 204.066 770.663 204.012 770.555 203.928C770.447 203.832 770.357 203.724 770.285 203.604C770.225 203.472 770.183 203.334 770.159 203.19C770.135 203.034 770.123 202.872 770.123 202.704C769.667 203.208 769.145 203.592 768.557 203.856C767.969 204.12 767.333 204.252 766.649 204.252C766.241 204.252 765.845 204.198 765.461 204.09C765.089 203.982 764.759 203.814 764.471 203.586C764.183 203.358 763.955 203.082 763.787 202.758C763.619 202.422 763.535 202.026 763.535 201.57C763.535 199.986 764.621 199.05 766.793 198.762L768.287 198.564ZM775.085 204H774.005V194.676H775.085V195.972C775.517 195.516 775.961 195.144 776.417 194.856C776.885 194.568 777.443 194.424 778.091 194.424C778.667 194.424 779.201 194.526 779.693 194.73C780.185 194.922 780.599 195.264 780.935 195.756C781.163 196.092 781.295 196.44 781.331 196.8C781.379 197.148 781.403 197.514 781.403 197.898V204H780.323V197.916C780.323 197.076 780.137 196.446 779.765 196.026C779.393 195.606 778.775 195.396 777.911 195.396C777.575 195.396 777.269 195.45 776.993 195.558C776.717 195.654 776.465 195.786 776.237 195.954C776.021 196.122 775.835 196.314 775.679 196.53C775.523 196.746 775.403 196.974 775.319 197.214C775.211 197.514 775.145 197.802 775.121 198.078C775.097 198.354 775.085 198.654 775.085 198.978V204ZM785.087 204H784.007V194.676H785.087V195.972C785.519 195.516 785.963 195.144 786.419 194.856C786.887 194.568 787.445 194.424 788.093 194.424C788.669 194.424 789.203 194.526 789.695 194.73C790.187 194.922 790.601 195.264 790.937 195.756C791.165 196.092 791.297 196.44 791.333 196.8C791.381 197.148 791.405 197.514 791.405 197.898V204H790.325V197.916C790.325 197.076 790.139 196.446 789.767 196.026C789.395 195.606 788.777 195.396 787.913 195.396C787.577 195.396 787.271 195.45 786.995 195.558C786.719 195.654 786.467 195.786 786.239 195.954C786.023 196.122 785.837 196.314 785.681 196.53C785.525 196.746 785.405 196.974 785.321 197.214C785.213 197.514 785.147 197.802 785.123 198.078C785.099 198.354 785.087 198.654 785.087 198.978V204ZM800.327 194.676H801.407V204H800.327V202.704C800.183 202.872 800.021 203.046 799.841 203.226C799.661 203.406 799.451 203.574 799.211 203.73C798.983 203.874 798.713 203.994 798.401 204.09C798.089 204.198 797.729 204.252 797.321 204.252C796.697 204.252 796.175 204.168 795.755 204C795.335 203.82 794.993 203.574 794.729 203.262C794.477 202.95 794.291 202.59 794.171 202.182C794.063 201.762 794.009 201.306 794.009 200.814V194.676H795.089V200.796C795.089 201.6 795.275 202.218 795.647 202.65C796.019 203.07 796.631 203.28 797.483 203.28C797.927 203.28 798.323 203.196 798.671 203.028C799.031 202.848 799.331 202.602 799.571 202.29C799.811 201.978 799.997 201.606 800.129 201.174C800.261 200.742 800.327 200.268 800.327 199.752V194.676ZM810.113 199.104C809.657 199.296 809.195 199.422 808.727 199.482C808.259 199.542 807.791 199.59 807.323 199.626C806.495 199.686 805.847 199.872 805.379 200.184C804.923 200.496 804.695 200.97 804.695 201.606C804.695 201.894 804.749 202.146 804.857 202.362C804.977 202.566 805.127 202.74 805.307 202.884C805.499 203.016 805.715 203.118 805.955 203.19C806.207 203.25 806.459 203.28 806.711 203.28C807.143 203.28 807.563 203.226 807.971 203.118C808.379 203.01 808.739 202.848 809.051 202.632C809.375 202.404 809.633 202.122 809.825 201.786C810.017 201.438 810.113 201.03 810.113 200.562V199.104ZM808.295 198.564C808.499 198.54 808.739 198.504 809.015 198.456C809.303 198.408 809.537 198.342 809.717 198.258C809.897 198.174 810.005 198.036 810.041 197.844C810.089 197.64 810.113 197.454 810.113 197.286C810.113 196.734 809.933 196.284 809.573 195.936C809.225 195.576 808.631 195.396 807.791 195.396C807.419 195.396 807.077 195.432 806.765 195.504C806.453 195.564 806.177 195.678 805.937 195.846C805.709 196.002 805.517 196.218 805.361 196.494C805.217 196.758 805.121 197.094 805.073 197.502H803.975C804.011 196.95 804.137 196.482 804.353 196.098C804.569 195.702 804.845 195.384 805.181 195.144C805.529 194.892 805.925 194.712 806.369 194.604C806.825 194.484 807.305 194.424 807.809 194.424C808.277 194.424 808.715 194.478 809.123 194.586C809.543 194.682 809.903 194.844 810.203 195.072C810.515 195.288 810.755 195.582 810.923 195.954C811.103 196.326 811.193 196.782 811.193 197.322V202.398C811.193 202.818 811.265 203.088 811.409 203.208C811.565 203.316 811.871 203.286 812.327 203.118V203.964C812.243 203.988 812.117 204.024 811.949 204.072C811.793 204.12 811.637 204.144 811.481 204.144C811.313 204.144 811.151 204.126 810.995 204.09C810.815 204.066 810.671 204.012 810.563 203.928C810.455 203.832 810.365 203.724 810.293 203.604C810.233 203.472 810.191 203.334 810.167 203.19C810.143 203.034 810.131 202.872 810.131 202.704C809.675 203.208 809.153 203.592 808.565 203.856C807.977 204.12 807.341 204.252 806.657 204.252C806.249 204.252 805.853 204.198 805.469 204.09C805.097 203.982 804.767 203.814 804.479 203.586C804.191 203.358 803.963 203.082 803.795 202.758C803.627 202.422 803.543 202.026 803.543 201.57C803.543 199.986 804.629 199.05 806.801 198.762L808.295 198.564ZM814.175 204V191.04H815.255V204H814.175ZM829.763 198.69C829.763 198.234 829.697 197.808 829.565 197.412C829.445 197.004 829.259 196.656 829.007 196.368C828.767 196.068 828.461 195.834 828.089 195.666C827.717 195.486 827.291 195.396 826.811 195.396C826.331 195.396 825.905 195.486 825.533 195.666C825.173 195.846 824.861 196.086 824.597 196.386C824.345 196.686 824.141 197.034 823.985 197.43C823.829 197.826 823.727 198.246 823.679 198.69H829.763ZM823.679 199.59C823.679 200.094 823.745 200.574 823.877 201.03C824.009 201.474 824.201 201.864 824.453 202.2C824.717 202.524 825.047 202.788 825.443 202.992C825.839 203.184 826.295 203.28 826.811 203.28C827.519 203.28 828.125 203.094 828.629 202.722C829.133 202.35 829.469 201.822 829.637 201.138H830.843C830.711 201.582 830.537 201.996 830.321 202.38C830.105 202.752 829.835 203.082 829.511 203.37C829.187 203.646 828.803 203.862 828.359 204.018C827.915 204.174 827.399 204.252 826.811 204.252C826.067 204.252 825.425 204.126 824.885 203.874C824.345 203.622 823.901 203.28 823.553 202.848C823.205 202.404 822.947 201.888 822.779 201.3C822.611 200.7 822.527 200.058 822.527 199.374C822.527 198.69 822.623 198.048 822.815 197.448C823.019 196.848 823.301 196.326 823.661 195.882C824.033 195.426 824.483 195.072 825.011 194.82C825.539 194.556 826.139 194.424 826.811 194.424C828.095 194.424 829.103 194.868 829.835 195.756C830.567 196.632 830.927 197.91 830.915 199.59H823.679ZM836.255 199.968L833.357 204H832.043L835.625 199.176L832.331 194.676H833.663L836.237 198.384L838.883 194.676H840.251L836.885 199.176L840.377 204H839.081L836.255 199.968ZM843.221 199.374C843.221 199.902 843.293 200.406 843.437 200.886C843.581 201.354 843.785 201.768 844.049 202.128C844.325 202.476 844.655 202.758 845.039 202.974C845.435 203.178 845.879 203.28 846.371 203.28C846.923 203.28 847.403 203.172 847.811 202.956C848.231 202.728 848.573 202.422 848.837 202.038C849.101 201.654 849.293 201.21 849.413 200.706C849.533 200.19 849.581 199.638 849.557 199.05C849.557 198.462 849.473 197.946 849.305 197.502C849.149 197.046 848.927 196.662 848.639 196.35C848.351 196.038 848.015 195.804 847.631 195.648C847.247 195.48 846.827 195.396 846.371 195.396C845.867 195.396 845.417 195.498 845.021 195.702C844.625 195.906 844.295 196.188 844.031 196.548C843.767 196.896 843.563 197.316 843.419 197.808C843.287 198.288 843.221 198.81 843.221 199.374ZM843.221 207.672H842.141V194.676H843.221V196.314H843.257C843.413 196.014 843.611 195.744 843.851 195.504C844.103 195.264 844.373 195.066 844.661 194.91C844.961 194.754 845.267 194.634 845.579 194.55C845.891 194.466 846.197 194.424 846.497 194.424C847.253 194.424 847.895 194.55 848.423 194.802C848.951 195.054 849.383 195.402 849.719 195.846C850.067 196.278 850.319 196.794 850.475 197.394C850.631 197.994 850.709 198.636 850.709 199.32C850.709 199.968 850.625 200.592 850.457 201.192C850.289 201.792 850.031 202.32 849.683 202.776C849.347 203.22 848.915 203.58 848.387 203.856C847.871 204.12 847.259 204.252 846.551 204.252C845.891 204.252 845.255 204.108 844.643 203.82C844.043 203.52 843.569 203.082 843.221 202.506V207.672ZM859.769 198.69C859.769 198.234 859.703 197.808 859.571 197.412C859.451 197.004 859.265 196.656 859.013 196.368C858.773 196.068 858.467 195.834 858.095 195.666C857.723 195.486 857.297 195.396 856.817 195.396C856.337 195.396 855.911 195.486 855.539 195.666C855.179 195.846 854.867 196.086 854.603 196.386C854.351 196.686 854.147 197.034 853.991 197.43C853.835 197.826 853.733 198.246 853.685 198.69H859.769ZM853.685 199.59C853.685 200.094 853.751 200.574 853.883 201.03C854.015 201.474 854.207 201.864 854.459 202.2C854.723 202.524 855.053 202.788 855.449 202.992C855.845 203.184 856.301 203.28 856.817 203.28C857.525 203.28 858.131 203.094 858.635 202.722C859.139 202.35 859.475 201.822 859.643 201.138H860.849C860.717 201.582 860.543 201.996 860.327 202.38C860.111 202.752 859.841 203.082 859.517 203.37C859.193 203.646 858.809 203.862 858.365 204.018C857.921 204.174 857.405 204.252 856.817 204.252C856.073 204.252 855.431 204.126 854.891 203.874C854.351 203.622 853.907 203.28 853.559 202.848C853.211 202.404 852.953 201.888 852.785 201.3C852.617 200.7 852.533 200.058 852.533 199.374C852.533 198.69 852.629 198.048 852.821 197.448C853.025 196.848 853.307 196.326 853.667 195.882C854.039 195.426 854.489 195.072 855.017 194.82C855.545 194.556 856.145 194.424 856.817 194.424C858.101 194.424 859.109 194.868 859.841 195.756C860.573 196.632 860.933 197.91 860.921 199.59H853.685ZM864.101 204H863.021V194.676H864.101V195.972C864.533 195.516 864.977 195.144 865.433 194.856C865.901 194.568 866.459 194.424 867.107 194.424C867.683 194.424 868.217 194.526 868.709 194.73C869.201 194.922 869.615 195.264 869.951 195.756C870.179 196.092 870.311 196.44 870.347 196.8C870.395 197.148 870.419 197.514 870.419 197.898V204H869.339V197.916C869.339 197.076 869.153 196.446 868.781 196.026C868.409 195.606 867.791 195.396 866.927 195.396C866.591 195.396 866.285 195.45 866.009 195.558C865.733 195.654 865.481 195.786 865.253 195.954C865.037 196.122 864.851 196.314 864.695 196.53C864.539 196.746 864.419 196.974 864.335 197.214C864.227 197.514 864.161 197.802 864.137 198.078C864.113 198.354 864.101 198.654 864.101 198.978V204ZM880.223 199.302C880.223 198.774 880.151 198.276 880.007 197.808C879.863 197.328 879.653 196.914 879.377 196.566C879.113 196.206 878.783 195.924 878.387 195.72C878.003 195.504 877.565 195.396 877.073 195.396C876.509 195.396 876.023 195.51 875.615 195.738C875.207 195.954 874.871 196.254 874.607 196.638C874.343 197.022 874.151 197.472 874.031 197.988C873.911 198.492 873.863 199.038 873.887 199.626C873.887 200.214 873.965 200.736 874.121 201.192C874.289 201.636 874.517 202.014 874.805 202.326C875.093 202.638 875.429 202.878 875.813 203.046C876.197 203.202 876.617 203.28 877.073 203.28C877.577 203.28 878.027 203.178 878.423 202.974C878.819 202.77 879.149 202.494 879.413 202.146C879.677 201.786 879.875 201.366 880.007 200.886C880.151 200.394 880.223 199.866 880.223 199.302ZM880.223 191.04H881.303V204H880.223V202.362H880.187C880.031 202.674 879.827 202.95 879.575 203.19C879.335 203.418 879.065 203.61 878.765 203.766C878.477 203.922 878.177 204.042 877.865 204.126C877.553 204.21 877.247 204.252 876.947 204.252C876.191 204.252 875.549 204.126 875.021 203.874C874.493 203.622 874.055 203.28 873.707 202.848C873.371 202.404 873.125 201.882 872.969 201.282C872.813 200.682 872.735 200.04 872.735 199.356C872.735 198.708 872.819 198.084 872.987 197.484C873.155 196.884 873.407 196.362 873.743 195.918C874.091 195.462 874.523 195.102 875.039 194.838C875.567 194.562 876.185 194.424 876.893 194.424C877.553 194.424 878.183 194.574 878.783 194.874C879.395 195.162 879.875 195.594 880.223 196.17V191.04ZM883.872 204V194.676H884.952V204H883.872ZM883.818 192.642V191.04H885.006V192.642H883.818ZM890.976 204.036C890.844 204.06 890.67 204.102 890.454 204.162C890.238 204.222 889.998 204.252 889.734 204.252C889.194 204.252 888.78 204.12 888.492 203.856C888.216 203.58 888.078 203.094 888.078 202.398V195.576H886.764V194.676H888.078V192.084H889.158V194.676H890.904V195.576H889.158V201.966C889.158 202.194 889.164 202.392 889.176 202.56C889.188 202.728 889.224 202.866 889.284 202.974C889.344 203.082 889.434 203.16 889.554 203.208C889.686 203.256 889.866 203.28 890.094 203.28C890.238 203.28 890.382 203.268 890.526 203.244C890.682 203.22 890.832 203.19 890.976 203.154V204.036ZM899.028 194.676H900.108V204H899.028V202.704C898.884 202.872 898.722 203.046 898.542 203.226C898.362 203.406 898.152 203.574 897.912 203.73C897.684 203.874 897.414 203.994 897.102 204.09C896.79 204.198 896.43 204.252 896.022 204.252C895.398 204.252 894.876 204.168 894.456 204C894.036 203.82 893.694 203.574 893.43 203.262C893.178 202.95 892.992 202.59 892.872 202.182C892.764 201.762 892.71 201.306 892.71 200.814V194.676H893.79V200.796C893.79 201.6 893.976 202.218 894.348 202.65C894.72 203.07 895.332 203.28 896.184 203.28C896.628 203.28 897.024 203.196 897.372 203.028C897.732 202.848 898.032 202.602 898.272 202.29C898.512 201.978 898.698 201.606 898.83 201.174C898.962 200.742 899.028 200.268 899.028 199.752V194.676ZM903.846 204H902.766V194.676H903.846V196.422H903.882C904.182 195.678 904.566 195.162 905.034 194.874C905.514 194.574 906.144 194.424 906.924 194.424V195.594C906.312 195.582 905.808 195.678 905.412 195.882C905.016 196.086 904.698 196.362 904.458 196.71C904.23 197.058 904.068 197.472 903.972 197.952C903.888 198.42 903.846 198.912 903.846 199.428V204ZM915.14 198.69C915.14 198.234 915.074 197.808 914.942 197.412C914.822 197.004 914.636 196.656 914.384 196.368C914.144 196.068 913.838 195.834 913.466 195.666C913.094 195.486 912.668 195.396 912.188 195.396C911.708 195.396 911.282 195.486 910.91 195.666C910.55 195.846 910.238 196.086 909.974 196.386C909.722 196.686 909.518 197.034 909.362 197.43C909.206 197.826 909.104 198.246 909.056 198.69H915.14ZM909.056 199.59C909.056 200.094 909.122 200.574 909.254 201.03C909.386 201.474 909.578 201.864 909.83 202.2C910.094 202.524 910.424 202.788 910.82 202.992C911.216 203.184 911.672 203.28 912.188 203.28C912.896 203.28 913.502 203.094 914.006 202.722C914.51 202.35 914.846 201.822 915.014 201.138H916.22C916.088 201.582 915.914 201.996 915.698 202.38C915.482 202.752 915.212 203.082 914.888 203.37C914.564 203.646 914.18 203.862 913.736 204.018C913.292 204.174 912.776 204.252 912.188 204.252C911.444 204.252 910.802 204.126 910.262 203.874C909.722 203.622 909.278 203.28 908.93 202.848C908.582 202.404 908.324 201.888 908.156 201.3C907.988 200.7 907.904 200.058 907.904 199.374C907.904 198.69 908 198.048 908.192 197.448C908.396 196.848 908.678 196.326 909.038 195.882C909.41 195.426 909.86 195.072 910.388 194.82C910.916 194.556 911.516 194.424 912.188 194.424C913.472 194.424 914.48 194.868 915.212 195.756C915.944 196.632 916.304 197.91 916.292 199.59H909.056ZM918.932 204V202.416H920.246V204H918.932ZM918.932 196.728V195.144H920.246V196.728H918.932ZM601.867 219.419C600.748 219.091 599.957 218.634 599.494 218.048C599.037 217.462 598.809 216.756 598.809 215.93C598.809 215.385 598.896 214.89 599.072 214.444C599.254 213.999 599.506 213.615 599.828 213.293C600.244 212.877 600.707 212.59 601.217 212.432C601.527 212.332 601.981 212.259 602.579 212.212V211.043H603.414V212.229C604.369 212.306 605.119 212.54 605.664 212.933C606.654 213.56 607.167 214.576 607.202 215.982H604.891C604.844 215.461 604.756 215.08 604.627 214.84C604.404 214.424 604 214.195 603.414 214.154V217.503C604.809 217.983 605.746 218.408 606.227 218.777C607.018 219.393 607.413 220.26 607.413 221.379C607.413 222.855 606.871 223.928 605.787 224.596C605.125 225.006 604.34 225.246 603.432 225.316V227.083H602.579V225.334C601.425 225.205 600.563 224.953 599.995 224.578C598.993 223.904 598.501 222.756 598.519 221.133H600.892C600.974 221.871 601.088 222.366 601.234 222.618C601.463 223.011 601.911 223.266 602.579 223.383V219.63L601.867 219.419ZM603.414 219.92V223.356C603.877 223.298 604.214 223.192 604.425 223.04C604.794 222.771 604.979 222.305 604.979 221.643C604.979 221.139 604.806 220.74 604.46 220.447C604.255 220.277 603.906 220.102 603.414 219.92ZM602.579 217.257V214.172C602.069 214.184 601.691 214.321 601.445 214.585C601.199 214.843 601.076 215.197 601.076 215.648C601.076 216.141 601.261 216.53 601.63 216.817C601.835 216.976 602.151 217.122 602.579 217.257ZM613.521 216.729C614.652 216.729 615.578 217.113 616.299 217.881C617.025 218.648 617.389 219.63 617.389 220.825C617.389 222.015 617.034 223.063 616.325 223.972C615.616 224.88 614.515 225.334 613.021 225.334C611.415 225.334 610.231 224.663 609.47 223.321C608.878 222.272 608.582 220.919 608.582 219.261C608.582 218.288 608.623 217.497 608.705 216.888C608.852 215.804 609.136 214.901 609.558 214.181C609.921 213.565 610.396 213.07 610.981 212.695C611.573 212.32 612.279 212.133 613.1 212.133C614.283 212.133 615.227 212.438 615.93 213.047C616.633 213.65 617.028 214.456 617.116 215.464H614.62C614.62 215.259 614.541 215.033 614.383 214.787C614.113 214.389 613.706 214.189 613.161 214.189C612.347 214.189 611.767 214.646 611.421 215.561C611.233 216.064 611.104 216.809 611.034 217.793C611.345 217.424 611.705 217.154 612.115 216.984C612.525 216.814 612.994 216.729 613.521 216.729ZM611.834 219.12C611.342 219.501 611.096 220.116 611.096 220.966C611.096 221.651 611.28 222.211 611.649 222.645C612.019 223.078 612.487 223.295 613.056 223.295C613.612 223.295 614.049 223.087 614.365 222.671C614.688 222.249 614.849 221.704 614.849 221.036C614.849 220.292 614.667 219.724 614.304 219.331C613.94 218.933 613.495 218.733 612.968 218.733C612.54 218.733 612.162 218.862 611.834 219.12ZM623.541 216.729C624.672 216.729 625.598 217.113 626.318 217.881C627.045 218.648 627.408 219.63 627.408 220.825C627.408 222.015 627.054 223.063 626.345 223.972C625.636 224.88 624.534 225.334 623.04 225.334C621.435 225.334 620.251 224.663 619.489 223.321C618.897 222.272 618.602 220.919 618.602 219.261C618.602 218.288 618.643 217.497 618.725 216.888C618.871 215.804 619.155 214.901 619.577 214.181C619.94 213.565 620.415 213.07 621.001 212.695C621.593 212.32 622.299 212.133 623.119 212.133C624.303 212.133 625.246 212.438 625.949 213.047C626.652 213.65 627.048 214.456 627.136 215.464H624.64C624.64 215.259 624.561 215.033 624.402 214.787C624.133 214.389 623.726 214.189 623.181 214.189C622.366 214.189 621.786 214.646 621.44 215.561C621.253 216.064 621.124 216.809 621.054 217.793C621.364 217.424 621.725 217.154 622.135 216.984C622.545 216.814 623.014 216.729 623.541 216.729ZM621.854 219.12C621.361 219.501 621.115 220.116 621.115 220.966C621.115 221.651 621.3 222.211 621.669 222.645C622.038 223.078 622.507 223.295 623.075 223.295C623.632 223.295 624.068 223.087 624.385 222.671C624.707 222.249 624.868 221.704 624.868 221.036C624.868 220.292 624.687 219.724 624.323 219.331C623.96 218.933 623.515 218.733 622.987 218.733C622.56 218.733 622.182 218.862 621.854 219.12ZM633.561 216.729C634.691 216.729 635.617 217.113 636.338 217.881C637.064 218.648 637.428 219.63 637.428 220.825C637.428 222.015 637.073 223.063 636.364 223.972C635.655 224.88 634.554 225.334 633.06 225.334C631.454 225.334 630.271 224.663 629.509 223.321C628.917 222.272 628.621 220.919 628.621 219.261C628.621 218.288 628.662 217.497 628.744 216.888C628.891 215.804 629.175 214.901 629.597 214.181C629.96 213.565 630.435 213.07 631.021 212.695C631.612 212.32 632.318 212.133 633.139 212.133C634.322 212.133 635.266 212.438 635.969 213.047C636.672 213.65 637.067 214.456 637.155 215.464H634.659C634.659 215.259 634.58 215.033 634.422 214.787C634.152 214.389 633.745 214.189 633.2 214.189C632.386 214.189 631.806 214.646 631.46 215.561C631.272 216.064 631.144 216.809 631.073 217.793C631.384 217.424 631.744 217.154 632.154 216.984C632.564 216.814 633.033 216.729 633.561 216.729ZM631.873 219.12C631.381 219.501 631.135 220.116 631.135 220.966C631.135 221.651 631.319 222.211 631.688 222.645C632.058 223.078 632.526 223.295 633.095 223.295C633.651 223.295 634.088 223.087 634.404 222.671C634.727 222.249 634.888 221.704 634.888 221.036C634.888 220.292 634.706 219.724 634.343 219.331C633.979 218.933 633.534 218.733 633.007 218.733C632.579 218.733 632.201 218.862 631.873 219.12ZM639.203 222.381H641.866V225H639.203V222.381ZM647.764 225.369C646.809 225.369 645.95 225.088 645.188 224.525C644.427 223.957 643.99 223.131 643.879 222.047H646.375C646.434 222.422 646.592 222.727 646.85 222.961C647.107 223.195 647.45 223.312 647.878 223.312C648.704 223.312 649.284 222.855 649.618 221.941C649.8 221.438 649.914 220.702 649.961 219.735C649.732 220.022 649.489 220.242 649.231 220.395C648.763 220.676 648.186 220.816 647.5 220.816C646.486 220.816 645.587 220.468 644.802 219.771C644.017 219.067 643.624 218.057 643.624 216.738C643.624 215.373 644.017 214.269 644.802 213.425C645.593 212.575 646.618 212.15 647.878 212.15C649.817 212.15 651.147 213.009 651.868 214.726C652.278 215.698 652.483 216.979 652.483 218.566C652.483 220.107 652.287 221.394 651.895 222.425C651.145 224.388 649.768 225.369 647.764 225.369ZM646.885 214.603C646.404 214.978 646.164 215.613 646.164 216.51C646.164 217.266 646.316 217.834 646.621 218.215C646.932 218.59 647.406 218.777 648.045 218.777C648.391 218.777 648.716 218.678 649.021 218.479C649.589 218.115 649.873 217.485 649.873 216.589C649.873 215.868 649.703 215.297 649.363 214.875C649.029 214.453 648.569 214.242 647.983 214.242C647.556 214.242 647.189 214.362 646.885 214.603ZM664.489 225.255C663.698 225.255 663.062 225.097 662.582 224.78C662.295 224.593 661.984 224.265 661.65 223.796V225H659.198V212.062H661.694V216.668C662.011 216.223 662.359 215.883 662.74 215.648C663.191 215.355 663.766 215.209 664.463 215.209C665.723 215.209 666.707 215.663 667.416 216.571C668.131 217.479 668.488 218.651 668.488 220.087C668.488 221.575 668.137 222.809 667.434 223.787C666.73 224.766 665.749 225.255 664.489 225.255ZM665.86 220.351C665.86 219.671 665.772 219.108 665.597 218.663C665.263 217.819 664.647 217.397 663.751 217.397C662.843 217.397 662.219 217.811 661.879 218.637C661.703 219.076 661.615 219.645 661.615 220.342C661.615 221.162 661.797 221.842 662.16 222.381C662.523 222.92 663.077 223.189 663.821 223.189C664.466 223.189 664.967 222.929 665.324 222.407C665.682 221.886 665.86 221.2 665.86 220.351ZM674.799 217.274C673.949 217.274 673.366 217.635 673.05 218.355C672.886 218.736 672.804 219.223 672.804 219.814V225H670.308V215.438H672.725V216.835C673.047 216.343 673.352 215.988 673.639 215.771C674.154 215.385 674.808 215.191 675.599 215.191C676.589 215.191 677.397 215.452 678.024 215.974C678.657 216.489 678.974 217.348 678.974 218.549V225H676.407V219.173C676.407 218.669 676.34 218.282 676.205 218.013C675.959 217.521 675.49 217.274 674.799 217.274Z" fill="black"/>
<path d="M388.556 70.3389H382.061V73.3184H387.747V75.5684H382.061V81H379.371V68.0625H388.556V70.3389ZM398.162 72.6328C398.971 73.6465 399.375 74.8447 399.375 76.2275C399.375 77.6338 398.971 78.8379 398.162 79.8398C397.354 80.8359 396.126 81.334 394.479 81.334C392.833 81.334 391.605 80.8359 390.797 79.8398C389.988 78.8379 389.584 77.6338 389.584 76.2275C389.584 74.8447 389.988 73.6465 390.797 72.6328C391.605 71.6191 392.833 71.1123 394.479 71.1123C396.126 71.1123 397.354 71.6191 398.162 72.6328ZM394.471 73.2305C393.738 73.2305 393.173 73.4912 392.774 74.0127C392.382 74.5283 392.186 75.2666 392.186 76.2275C392.186 77.1885 392.382 77.9297 392.774 78.4512C393.173 78.9727 393.738 79.2334 394.471 79.2334C395.203 79.2334 395.766 78.9727 396.158 78.4512C396.551 77.9297 396.747 77.1885 396.747 76.2275C396.747 75.2666 396.551 74.5283 396.158 74.0127C395.766 73.4912 395.203 73.2305 394.471 73.2305ZM409.166 72.6328C409.975 73.6465 410.379 74.8447 410.379 76.2275C410.379 77.6338 409.975 78.8379 409.166 79.8398C408.357 80.8359 407.13 81.334 405.483 81.334C403.837 81.334 402.609 80.8359 401.801 79.8398C400.992 78.8379 400.588 77.6338 400.588 76.2275C400.588 74.8447 400.992 73.6465 401.801 72.6328C402.609 71.6191 403.837 71.1123 405.483 71.1123C407.13 71.1123 408.357 71.6191 409.166 72.6328ZM405.475 73.2305C404.742 73.2305 404.177 73.4912 403.778 74.0127C403.386 74.5283 403.189 75.2666 403.189 76.2275C403.189 77.1885 403.386 77.9297 403.778 78.4512C404.177 78.9727 404.742 79.2334 405.475 79.2334C406.207 79.2334 406.77 78.9727 407.162 78.4512C407.555 77.9297 407.751 77.1885 407.751 76.2275C407.751 75.2666 407.555 74.5283 407.162 74.0127C406.77 73.4912 406.207 73.2305 405.475 73.2305ZM420.899 68.0625V81H418.465V79.6729C418.107 80.2412 417.7 80.6543 417.243 80.9121C416.786 81.1699 416.218 81.2988 415.538 81.2988C414.419 81.2988 413.476 80.8477 412.708 79.9453C411.946 79.0371 411.565 77.874 411.565 76.4561C411.565 74.8213 411.94 73.5352 412.69 72.5977C413.446 71.6602 414.454 71.1914 415.714 71.1914C416.294 71.1914 416.81 71.3203 417.261 71.5781C417.712 71.8301 418.078 72.1816 418.359 72.6328V68.0625H420.899ZM414.149 76.2715C414.149 77.1562 414.325 77.8623 414.677 78.3896C415.022 78.9229 415.55 79.1895 416.259 79.1895C416.968 79.1895 417.507 78.9258 417.876 78.3984C418.245 77.8711 418.43 77.1885 418.43 76.3506C418.43 75.1787 418.134 74.3408 417.542 73.8369C417.179 73.5322 416.757 73.3799 416.276 73.3799C415.544 73.3799 415.005 73.6582 414.659 74.2148C414.319 74.7656 414.149 75.4512 414.149 76.2715ZM435.463 81L433.96 74.0215L432.439 81H429.838L427.148 71.4199H429.838L431.332 78.293L432.712 71.4199H435.252L436.711 78.3193L438.205 71.4199H440.815L438.038 81H435.463ZM442.564 72.457C443.227 71.6133 444.363 71.1914 445.975 71.1914C447.023 71.1914 447.955 71.3994 448.77 71.8154C449.584 72.2314 449.991 73.0166 449.991 74.1709V78.5654C449.991 78.8701 449.997 79.2393 450.009 79.6729C450.026 80.001 450.076 80.2236 450.158 80.3408C450.24 80.458 450.363 80.5547 450.527 80.6309V81H447.803C447.727 80.8066 447.674 80.625 447.645 80.4551C447.615 80.2852 447.592 80.0918 447.574 79.875C447.229 80.25 446.83 80.5693 446.379 80.833C445.84 81.1436 445.23 81.2988 444.551 81.2988C443.684 81.2988 442.966 81.0527 442.397 80.5605C441.835 80.0625 441.554 79.3594 441.554 78.4512C441.554 77.2734 442.008 76.4209 442.916 75.8936C443.414 75.6064 444.146 75.4014 445.113 75.2783L445.966 75.1729C446.429 75.1143 446.76 75.041 446.959 74.9531C447.316 74.8008 447.495 74.5635 447.495 74.2412C447.495 73.8486 447.357 73.5791 447.082 73.4326C446.812 73.2803 446.414 73.2041 445.887 73.2041C445.295 73.2041 444.876 73.3506 444.63 73.6436C444.454 73.8604 444.337 74.1533 444.278 74.5225H441.861C441.914 73.6846 442.148 72.9961 442.564 72.457ZM444.428 79.1895C444.662 79.3828 444.949 79.4795 445.289 79.4795C445.828 79.4795 446.323 79.3213 446.774 79.0049C447.231 78.6885 447.469 78.1113 447.486 77.2734V76.3418C447.328 76.4414 447.167 76.5234 447.003 76.5879C446.845 76.6465 446.625 76.7021 446.344 76.7549L445.781 76.8604C445.254 76.9541 444.876 77.0684 444.647 77.2031C444.261 77.4316 444.067 77.7861 444.067 78.2666C444.067 78.6943 444.188 79.002 444.428 79.1895ZM458.824 71.8594C459.574 72.3398 460.005 73.166 460.116 74.3379H457.611C457.576 74.0156 457.485 73.7607 457.339 73.5732C457.063 73.2334 456.595 73.0635 455.933 73.0635C455.388 73.0635 454.998 73.1484 454.764 73.3184C454.535 73.4883 454.421 73.6875 454.421 73.916C454.421 74.2031 454.544 74.4111 454.79 74.54C455.036 74.6748 455.906 74.9062 457.4 75.2344C458.396 75.4688 459.144 75.8232 459.642 76.2979C460.134 76.7783 460.38 77.3789 460.38 78.0996C460.38 79.0488 460.025 79.8252 459.316 80.4287C458.613 81.0264 457.523 81.3252 456.047 81.3252C454.541 81.3252 453.428 81.0088 452.707 80.376C451.992 79.7373 451.635 78.9258 451.635 77.9414H454.175C454.228 78.3867 454.342 78.7031 454.518 78.8906C454.828 79.2246 455.402 79.3916 456.24 79.3916C456.732 79.3916 457.122 79.3184 457.409 79.1719C457.702 79.0254 457.849 78.8057 457.849 78.5127C457.849 78.2314 457.731 78.0176 457.497 77.8711C457.263 77.7246 456.393 77.4727 454.887 77.1152C453.803 76.8457 453.038 76.5088 452.593 76.1045C452.147 75.7061 451.925 75.1318 451.925 74.3818C451.925 73.4971 452.271 72.7383 452.962 72.1055C453.659 71.4668 454.638 71.1475 455.897 71.1475C457.093 71.1475 458.068 71.3848 458.824 71.8594ZM466.629 79.2158V81.0879L465.442 81.1318C464.259 81.1729 463.45 80.9678 463.017 80.5166C462.735 80.2295 462.595 79.7871 462.595 79.1895V73.292H461.259V71.5078H462.595V68.8359H465.073V71.5078H466.629V73.292H465.073V78.3545C465.073 78.7471 465.123 78.9932 465.223 79.0928C465.322 79.1865 465.627 79.2334 466.137 79.2334C466.213 79.2334 466.292 79.2334 466.374 79.2334C466.462 79.2275 466.547 79.2217 466.629 79.2158ZM476.438 78.1875C476.373 78.7559 476.077 79.333 475.55 79.9189C474.729 80.8506 473.581 81.3164 472.104 81.3164C470.886 81.3164 469.811 80.9238 468.879 80.1387C467.947 79.3535 467.481 78.0762 467.481 76.3066C467.481 74.6484 467.9 73.377 468.738 72.4922C469.582 71.6074 470.675 71.165 472.017 71.165C472.813 71.165 473.531 71.3145 474.17 71.6133C474.809 71.9121 475.336 72.3838 475.752 73.0283C476.127 73.5967 476.37 74.2559 476.481 75.0059C476.546 75.4453 476.572 76.0781 476.561 76.9043H470.004C470.039 77.8652 470.341 78.5391 470.909 78.9258C471.255 79.166 471.671 79.2861 472.157 79.2861C472.673 79.2861 473.092 79.1396 473.414 78.8467C473.59 78.6885 473.745 78.4688 473.88 78.1875H476.438ZM473.959 75.252C473.918 74.5898 473.716 74.0889 473.353 73.749C472.995 73.4033 472.55 73.2305 472.017 73.2305C471.437 73.2305 470.985 73.4121 470.663 73.7754C470.347 74.1387 470.147 74.6309 470.065 75.252H473.959ZM481.79 78.3809V81H479.127V78.3809H481.79ZM479.127 74.417V71.7979H481.79V74.417H479.127ZM491.959 75.4189C490.84 75.0908 490.049 74.6338 489.586 74.0479C489.129 73.4619 488.9 72.7559 488.9 71.9297C488.9 71.3848 488.988 70.8896 489.164 70.4443C489.346 69.999 489.598 69.6152 489.92 69.293C490.336 68.877 490.799 68.5898 491.309 68.4316C491.619 68.332 492.073 68.2588 492.671 68.2119V67.043H493.506V68.2295C494.461 68.3057 495.211 68.54 495.756 68.9326C496.746 69.5596 497.259 70.5762 497.294 71.9824H494.982C494.936 71.4609 494.848 71.0801 494.719 70.8398C494.496 70.4238 494.092 70.1953 493.506 70.1543V73.5029C494.9 73.9834 495.838 74.4082 496.318 74.7773C497.109 75.3926 497.505 76.2598 497.505 77.3789C497.505 78.8555 496.963 79.9277 495.879 80.5957C495.217 81.0059 494.432 81.2461 493.523 81.3164V83.083H492.671V81.334C491.517 81.2051 490.655 80.9531 490.087 80.5781C489.085 79.9043 488.593 78.7559 488.61 77.1328H490.983C491.065 77.8711 491.18 78.3662 491.326 78.6182C491.555 79.0107 492.003 79.2656 492.671 79.3828V75.6299L491.959 75.4189ZM493.506 75.9199V79.3564C493.969 79.2979 494.306 79.1924 494.517 79.04C494.886 78.7705 495.07 78.3047 495.07 77.6426C495.07 77.1387 494.897 76.7402 494.552 76.4473C494.347 76.2773 493.998 76.1016 493.506 75.9199ZM492.671 73.2568V70.1719C492.161 70.1836 491.783 70.3213 491.537 70.585C491.291 70.8428 491.168 71.1973 491.168 71.6484C491.168 72.1406 491.353 72.5303 491.722 72.8174C491.927 72.9756 492.243 73.1221 492.671 73.2568ZM507.524 76.2979V78.2578H506.083V81H503.631V78.2578H498.586V76.0693L503.271 68.335H506.083V76.2979H507.524ZM500.44 76.2979H503.631V70.7959L500.44 76.2979ZM513.088 81.3164C511.465 81.3164 510.325 80.748 509.669 79.6113C509.019 78.4746 508.693 76.8545 508.693 74.751C508.693 72.6475 509.019 71.0244 509.669 69.8818C510.325 68.7393 511.465 68.168 513.088 68.168C514.711 68.168 515.851 68.7393 516.507 69.8818C517.157 71.0244 517.482 72.6475 517.482 74.751C517.482 76.8545 517.154 78.4746 516.498 79.6113C515.848 80.748 514.711 81.3164 513.088 81.3164ZM514.556 78.1084C514.784 77.335 514.898 76.2158 514.898 74.751C514.898 73.2158 514.781 72.0791 514.547 71.3408C514.318 70.6025 513.832 70.2334 513.088 70.2334C512.344 70.2334 511.852 70.6025 511.611 71.3408C511.371 72.0791 511.251 73.2158 511.251 74.751C511.251 76.2158 511.371 77.3379 511.611 78.1172C511.852 78.8906 512.344 79.2773 513.088 79.2773C513.832 79.2773 514.321 78.8877 514.556 78.1084ZM519.724 80.2002C518.991 79.4502 518.625 78.5391 518.625 77.4668C518.625 76.752 518.786 76.1045 519.108 75.5244C519.437 74.9443 519.914 74.5078 520.541 74.2148C519.926 73.8047 519.524 73.3623 519.337 72.8877C519.155 72.4072 519.064 71.959 519.064 71.543C519.064 70.6172 519.413 69.8291 520.11 69.1787C520.808 68.5225 521.792 68.1943 523.063 68.1943C524.335 68.1943 525.319 68.5225 526.017 69.1787C526.714 69.8291 527.062 70.6172 527.062 71.543C527.062 71.959 526.969 72.4072 526.781 72.8877C526.6 73.3623 526.201 73.7754 525.586 74.127C526.213 74.4785 526.685 74.9443 527.001 75.5244C527.317 76.1045 527.476 76.752 527.476 77.4668C527.476 78.5391 527.077 79.4531 526.28 80.209C525.489 80.959 524.382 81.334 522.958 81.334C521.534 81.334 520.456 80.9561 519.724 80.2002ZM521.227 77.2998C521.227 77.9268 521.388 78.4131 521.71 78.7588C522.038 79.1045 522.489 79.2773 523.063 79.2773C523.638 79.2773 524.086 79.1045 524.408 78.7588C524.736 78.4131 524.9 77.9268 524.9 77.2998C524.9 76.6494 524.733 76.1572 524.399 75.8232C524.071 75.4834 523.626 75.3135 523.063 75.3135C522.501 75.3135 522.053 75.4834 521.719 75.8232C521.391 76.1572 521.227 76.6494 521.227 77.2998ZM521.886 72.958C522.167 73.251 522.56 73.3975 523.063 73.3975C523.573 73.3975 523.966 73.251 524.241 72.958C524.522 72.665 524.663 72.2871 524.663 71.8242C524.663 71.3203 524.522 70.9277 524.241 70.6465C523.966 70.3594 523.573 70.2158 523.063 70.2158C522.56 70.2158 522.164 70.3594 521.877 70.6465C521.596 70.9277 521.455 71.3203 521.455 71.8242C521.455 72.2871 521.599 72.665 521.886 72.958ZM534.542 81.2549C533.751 81.2549 533.115 81.0967 532.635 80.7803C532.348 80.5928 532.037 80.2646 531.703 79.7959V81H529.251V68.0625H531.747V72.668C532.063 72.2227 532.412 71.8828 532.793 71.6484C533.244 71.3555 533.818 71.209 534.516 71.209C535.775 71.209 536.76 71.6631 537.469 72.5713C538.184 73.4795 538.541 74.6514 538.541 76.0869C538.541 77.5752 538.189 78.8086 537.486 79.7871C536.783 80.7656 535.802 81.2549 534.542 81.2549ZM535.913 76.3506C535.913 75.6709 535.825 75.1084 535.649 74.6631C535.315 73.8193 534.7 73.3975 533.804 73.3975C532.896 73.3975 532.271 73.8105 531.932 74.6367C531.756 75.0762 531.668 75.6445 531.668 76.3418C531.668 77.1621 531.85 77.8418 532.213 78.3809C532.576 78.9199 533.13 79.1895 533.874 79.1895C534.519 79.1895 535.02 78.9287 535.377 78.4072C535.734 77.8857 535.913 77.2002 535.913 76.3506ZM544.852 73.2744C544.002 73.2744 543.419 73.6348 543.103 74.3555C542.938 74.7363 542.856 75.2227 542.856 75.8145V81H540.36V71.4375H542.777V72.835C543.1 72.3428 543.404 71.9883 543.691 71.7715C544.207 71.3848 544.86 71.1914 545.651 71.1914C546.642 71.1914 547.45 71.4521 548.077 71.9736C548.71 72.4893 549.026 73.3477 549.026 74.5488V81H546.46V75.1729C546.46 74.6689 546.393 74.2822 546.258 74.0127C546.012 73.5205 545.543 73.2744 544.852 73.2744Z" fill="#386667"/>
<defs>
<clipPath id="clip0_264_1382">
<rect width="10" height="100" fill="white" transform="translate(347 6)"/>
</clipPath>
<clipPath id="clip1_264_1382">
<rect width="66" height="100" fill="white" transform="translate(508 154)"/>
</clipPath>
</defs>
</svg>
