<svg width="644" height="266" viewBox="0 0 644 266" fill="none" xmlns="http://www.w3.org/2000/svg">
<g clip-path="url(#clip0_233_855)">
<path d="M156.5 203C576.522 282.868 782.241 67.0157 699.517 88.2671C617.18 109.419 545.567 -9.31228 481.431 0.58777C480.89 0.671297 480.48 1.04377 480.354 1.57681C468.164 53.52 154.467 159.266 146.986 166.762C139.464 174.298 145.216 200.854 156.5 203Z" fill="url(#paint0_radial_233_855)"/>
<path d="M374.568 64.1011L362.93 84.3123C362.751 84.6227 362.452 84.8453 362.103 84.9272L306.974 97.8824C305.602 98.2048 305.658 100.176 307.046 100.42L349.531 107.898C350.414 108.054 350.876 109.036 350.434 109.815L334.673 137.568C334.581 137.73 334.455 137.871 334.304 137.98L319.135 148.921C318.076 149.685 318.683 151.358 319.986 151.265L331.211 150.457C332.005 150.4 332.657 151.07 332.629 151.865C332.462 156.657 333.927 157.08 337.912 154.587C338.526 154.203 339.342 154.363 339.737 154.969L346.562 165.436C347.263 166.511 348.934 166.022 348.944 164.737L349.081 146.115C349.083 145.894 349.141 145.677 349.25 145.485L364.463 118.696C364.892 117.942 365.925 117.813 366.526 118.438L395.688 148.827C396.635 149.814 398.267 148.85 397.86 147.544L381.211 94.1247C381.104 93.7823 381.144 93.411 381.321 93.0991L392.174 73.9883C392.255 73.846 392.309 73.6834 392.331 73.5213C395.439 51.0579 391.949 48.2516 374.824 63.7851C374.724 63.8754 374.635 63.9846 374.568 64.1011Z" fill="#386667" stroke="white"/>
<path fill-rule="evenodd" clip-rule="evenodd" d="M304.794 170.975C309.151 164.153 317.967 159.475 325.523 160.266C332.71 161.018 336.391 166.47 334.74 173.055C339.161 175.757 340.54 181.263 337.67 187.221C336.344 189.976 334.284 192.463 331.813 194.495C335.443 197.67 336.544 202.37 334.168 207.304C332.266 211.255 328.485 214.626 323.874 216.915C323.869 219.054 323.615 221.328 323.089 223.699C319.875 238.183 307.73 250.835 295.961 251.956C291.557 252.376 287.83 251.122 285.058 248.628C280.648 251.811 275.283 253.595 270.462 253.09C265.086 252.527 261.709 249.258 261.075 244.812C258.238 244.597 255.888 243.258 254.241 240.475C250.099 233.476 250.939 227.457 254.104 221.027C252.227 218.085 252.096 214.038 254.157 209.757C256.298 205.311 260.347 201.564 264.954 199.3C265.16 198.528 265.451 197.746 265.831 196.957C269.028 190.319 277.527 185.317 286.358 184.336C286.457 184.104 286.563 183.871 286.676 183.638C289.911 176.92 297.501 171.798 304.794 170.975Z" fill="#386667"/>
<path d="M475.568 64.1011L463.93 84.3123C463.751 84.6227 463.452 84.8453 463.103 84.9272L407.974 97.8824C406.602 98.2048 406.658 100.176 408.046 100.42L450.531 107.898C451.414 108.054 451.876 109.036 451.434 109.815L435.673 137.568C435.581 137.73 435.455 137.871 435.304 137.98L420.135 148.921C419.076 149.685 419.683 151.358 420.986 151.265L432.211 150.457C433.005 150.4 433.657 151.07 433.629 151.865C433.462 156.657 434.927 157.08 438.912 154.587C439.526 154.203 440.342 154.363 440.737 154.969L447.562 165.436C448.263 166.511 449.934 166.022 449.943 164.737L450.081 146.115C450.083 145.894 450.141 145.677 450.25 145.485L465.463 118.696C465.892 117.942 466.925 117.813 467.526 118.438L496.688 148.827C497.635 149.814 499.267 148.85 498.86 147.544L482.211 94.1247C482.104 93.7823 482.144 93.411 482.321 93.0991L493.174 73.9883C493.255 73.846 493.309 73.6834 493.331 73.5213C496.439 51.0579 492.949 48.2516 475.824 63.7851C475.724 63.8754 475.635 63.9846 475.568 64.1011Z" fill="#386667" stroke="white"/>
<path fill-rule="evenodd" clip-rule="evenodd" d="M405.794 170.975C410.151 164.153 418.967 159.475 426.523 160.266C433.71 161.018 437.391 166.47 435.74 173.055C440.161 175.757 441.54 181.263 438.67 187.221C437.344 189.976 435.284 192.463 432.813 194.495C436.443 197.67 437.544 202.37 435.168 207.304C433.266 211.255 429.485 214.626 424.874 216.915C424.869 219.054 424.615 221.328 424.089 223.699C420.875 238.183 408.73 250.835 396.961 251.956C392.557 252.376 388.83 251.122 386.058 248.628C381.648 251.811 376.283 253.595 371.462 253.09C366.086 252.527 362.709 249.258 362.075 244.812C359.238 244.597 356.888 243.258 355.241 240.475C351.099 233.476 351.939 227.457 355.104 221.027C353.227 218.085 353.096 214.038 355.157 209.757C357.298 205.311 361.347 201.564 365.954 199.3C366.16 198.528 366.451 197.746 366.831 196.957C370.028 190.319 378.527 185.317 387.358 184.336C387.457 184.104 387.563 183.871 387.676 183.638C390.911 176.92 398.501 171.798 405.794 170.975Z" fill="#386667"/>
<path d="M576.568 64.1011L564.93 84.3123C564.751 84.6227 564.452 84.8453 564.103 84.9272L508.974 97.8824C507.602 98.2048 507.658 100.176 509.046 100.42L551.531 107.898C552.414 108.054 552.876 109.036 552.434 109.815L536.673 137.568C536.581 137.73 536.455 137.871 536.304 137.98L521.135 148.921C520.076 149.685 520.683 151.358 521.986 151.265L533.211 150.457C534.005 150.4 534.657 151.07 534.629 151.865C534.462 156.657 535.927 157.08 539.912 154.587C540.526 154.203 541.342 154.363 541.737 154.969L548.562 165.436C549.263 166.511 550.934 166.022 550.944 164.737L551.081 146.115C551.083 145.894 551.141 145.677 551.25 145.485L566.463 118.696C566.892 117.942 567.925 117.813 568.526 118.438L597.688 148.827C598.635 149.814 600.267 148.85 599.86 147.544L583.211 94.1247C583.104 93.7823 583.144 93.411 583.321 93.0991L594.174 73.9883C594.255 73.846 594.309 73.6834 594.331 73.5213C597.439 51.0579 593.949 48.2516 576.824 63.7851C576.724 63.8754 576.635 63.9846 576.568 64.1011Z" fill="#386667" stroke="white"/>
<path fill-rule="evenodd" clip-rule="evenodd" d="M506.794 170.975C511.151 164.153 519.967 159.475 527.523 160.266C534.71 161.018 538.391 166.47 536.74 173.055C541.161 175.757 542.54 181.263 539.67 187.221C538.344 189.976 536.284 192.463 533.813 194.495C537.443 197.67 538.544 202.37 536.168 207.304C534.266 211.255 530.485 214.626 525.874 216.915C525.869 219.054 525.615 221.328 525.089 223.699C521.875 238.183 509.73 250.835 497.961 251.956C493.557 252.376 489.83 251.122 487.058 248.628C482.648 251.811 477.283 253.595 472.462 253.09C467.086 252.527 463.709 249.258 463.075 244.812C460.238 244.597 457.888 243.258 456.241 240.475C452.099 233.476 452.939 227.457 456.104 221.027C454.227 218.085 454.096 214.038 456.157 209.757C458.298 205.311 462.347 201.564 466.954 199.3C467.16 198.528 467.451 197.746 467.831 196.957C471.028 190.319 479.527 185.317 488.358 184.336C488.457 184.104 488.563 183.871 488.676 183.638C491.911 176.92 499.501 171.798 506.794 170.975Z" fill="#386667"/>
<path fill-rule="evenodd" clip-rule="evenodd" d="M59.0661 112.481C53.4459 106.97 49.1063 98.4452 45.3727 83.996C48.6743 84.6344 51.7715 85.1743 54.6851 85.6823C75.5315 89.3164 86.9823 91.3125 96.6867 116.041C102.344 106.433 110.065 103.992 122.714 99.9918C123.718 99.6745 124.752 99.3474 125.819 99.0061C127.892 98.3431 130.131 99.4328 130.86 101.483L130.976 101.809C131.353 102.872 130.774 104.038 129.697 104.373C126.194 105.46 123.129 106.296 120.386 107.044C110.547 109.729 104.843 111.285 97.894 119.26C98.0556 119.71 98.2167 120.167 98.3774 120.631C110.157 112.667 121.569 110.75 131.665 112.911C127.196 117.815 124.389 124.903 124.389 132.785C124.389 140.95 127.402 148.263 132.153 153.179C127.338 157.971 124.389 164.414 124.389 171.499C124.389 179.511 128.16 186.702 134.136 191.613C133.548 193.751 133.234 195.992 133.234 198.301C133.234 208.73 139.622 217.767 148.949 222.198C135.9 244.038 117.675 256.819 91.3473 243.716C45.3727 264.562 26.3548 222.87 13.9519 177.455C12.1069 170.699 11.6029 163.644 12.3003 156.777C14.1594 155.418 15.8502 152.736 16.3185 150.897C16.8283 148.894 16.9929 147.005 16.9929 144.936C16.9929 144.782 16.992 144.626 16.9911 144.466C16.9793 142.43 16.965 139.971 18.814 138.873C19.7832 138.297 20.9883 138.002 22.2064 137.704C23.8792 137.294 25.5766 136.879 26.7222 135.722C28.4878 133.939 29.7405 130.737 29.7405 128.211C29.7405 125.902 30.7152 123.319 33.3827 123.17C33.7467 123.149 34.1664 123.141 34.611 123.133C35.8189 123.109 37.2108 123.083 38.1715 122.795C38.868 122.587 39.6916 122.485 40.5396 122.381C42.2189 122.174 43.9939 121.955 45.068 120.871C45.9654 119.964 46.8254 118.678 47.3443 117.498C47.6321 116.844 48.1301 116.499 48.6633 116.129C48.8737 115.983 49.0896 115.833 49.3003 115.659C50.85 114.378 53.102 113.666 55.0839 113.666C55.1086 113.666 55.1405 113.666 55.1788 113.667C56.1919 113.669 61.7464 113.681 59.5242 112.683C59.3732 112.616 59.2205 112.548 59.0661 112.481ZM91.6543 125.776L91.6225 125.844C91.5308 125.924 91.439 126.004 91.3473 126.084C91.0573 125.877 90.7677 125.672 90.4788 125.47C90.8675 125.571 91.2593 125.673 91.6543 125.776ZM165.173 147.153C165.415 146.69 165.647 146.218 165.866 145.737C166.109 146.418 166.34 147.103 166.557 147.791C166.103 147.567 165.641 147.354 165.173 147.153Z" fill="#386667"/>
<path d="M103.797 58.3345C106.216 58.606 106.975 61.7347 106.767 63.7353C106.284 68.3738 100.803 71.3155 100.803 75.8331C100.803 79.3894 104.942 82.9455 106.458 86.1307C107.391 88.0902 108.607 97.6524 105.08 97.6524" stroke="#386667" stroke-width="3" stroke-linecap="round"/>
<path d="M14.5589 88.1146C11.7887 88.4256 12.3364 95.4184 12.5155 97.092C12.8399 100.123 14.9866 102.36 14.9866 105.445C14.9866 107.186 15.4563 109.504 14.4639 110.966C13.8105 111.929 13.2758 113.512 13.2758 114.687C13.2758 117.328 13.8524 119.524 14.9866 121.816" stroke="#386667" stroke-width="3" stroke-linecap="round"/>
<path d="M27.9138 76.2026C28.4419 76.2026 27.584 76.6805 27.391 76.8267C26.6173 77.4129 25.9252 78.943 25.799 79.8991C25.4574 82.4875 27.5191 84.4965 28.0088 86.8602C28.6521 89.965 28.2682 91.2657 26.3931 93.7012C25.7444 94.5437 25.1261 97.2619 26.203 97.8058" stroke="#386667" stroke-width="3" stroke-linecap="round"/>
<path fill-rule="evenodd" clip-rule="evenodd" d="M50.5399 56.8175C50.1548 55.411 50.9315 54.1697 52.141 53.6384C53.3341 53.1143 54.9397 53.2991 56.1513 54.8339C56.3042 55.0275 56.508 55.4359 56.7393 56.0472C56.9656 56.6451 57.2043 57.3989 57.4384 58.2505C57.5714 58.7345 57.7025 59.2486 57.8285 59.7814C56.8678 60.0388 55.8807 60.3833 54.8914 60.8165C54.6381 60.9274 54.3945 61.0395 54.1603 61.1528C52.2451 59.9542 51.0316 58.6135 50.5399 56.8175ZM53.3391 61.5753C51.5273 60.3612 50.2914 58.9403 49.7684 57.0301C49.2603 55.1745 50.3137 53.5677 51.8204 52.9059C53.3434 52.2369 55.34 52.5141 56.7794 54.3373C57.0153 54.6362 57.2547 55.1477 57.4874 55.7628C57.7252 56.3912 57.9714 57.1703 58.2097 58.0371C58.3448 58.5288 58.4778 59.0504 58.6057 59.5908C59.6798 59.3519 60.7111 59.2253 61.6637 59.2088C61.8694 58.9835 62.1134 58.8108 62.3933 58.7027C63.4118 58.3094 64.6421 58.8743 65.6097 60.0365C66.2514 60.4118 66.7294 60.9131 66.9974 61.5377C67.2611 62.152 67.2997 62.8345 67.1415 63.551C67.3993 65.3706 66.8562 66.9518 65.6865 67.4035C65.344 67.5357 64.9774 67.5596 64.605 67.4888C63.928 68.133 63.1366 68.7566 62.25 69.3363C62.3419 69.5538 62.4304 69.7678 62.515 69.9774C62.8512 70.8105 63.128 71.5791 63.3202 72.2233C63.5083 72.8538 63.6286 73.4067 63.6228 73.7892C63.5873 76.1213 62.1753 77.5721 60.567 77.9829C58.9758 78.3894 57.168 77.7697 56.4459 75.9852C55.9227 74.6923 55.8267 73.3731 56.0601 71.9791C52.5956 72.622 50.6114 71.1749 49.6678 68.9762C48.59 66.4647 49.236 63.8256 53.3391 61.5753ZM59.2428 70.9556C58.404 71.3229 57.6259 71.597 56.9053 71.7879C56.6195 73.1848 56.6877 74.4537 57.1837 75.6793C57.7293 77.0276 59.0938 77.5313 60.3741 77.2043C61.6374 76.8816 62.7964 75.7422 62.8262 73.7799C62.83 73.5326 62.7442 73.0839 62.5572 72.4574C62.3744 71.8447 62.1071 71.1008 61.7769 70.2825C61.7084 70.1127 61.6372 69.9399 61.5637 69.7646C60.8412 70.1951 60.0646 70.5957 59.2428 70.9556Z" fill="#386667"/>
<path fill-rule="evenodd" clip-rule="evenodd" d="M174.56 115.125C175.455 113.98 175.216 112.532 174.305 111.568C173.405 110.617 171.854 110.159 170.148 111.099C169.933 111.217 169.588 111.514 169.14 111.986C168.702 112.449 168.193 113.05 167.65 113.743C167.342 114.137 167.023 114.56 166.703 115.001C167.49 115.615 168.268 116.319 169.013 117.106C169.204 117.308 169.385 117.506 169.558 117.702C171.784 117.348 173.418 116.587 174.56 115.125ZM170.153 118.414C172.288 118.004 173.973 117.179 175.189 115.623C176.37 114.11 176.015 112.216 174.881 111.017C173.735 109.804 171.789 109.277 169.762 110.394C169.429 110.577 169.012 110.955 168.561 111.431C168.101 111.917 167.575 112.539 167.022 113.244C166.709 113.645 166.386 114.074 166.06 114.522C165.162 113.881 164.26 113.36 163.388 112.972C163.285 112.684 163.127 112.429 162.91 112.22C162.122 111.458 160.771 111.497 159.433 112.189C158.698 112.284 158.065 112.559 157.578 113.029C157.099 113.492 156.801 114.106 156.672 114.829C155.736 116.405 155.63 118.075 156.534 118.949C156.799 119.205 157.128 119.371 157.498 119.452C157.875 120.311 158.365 121.195 158.96 122.077C158.791 122.242 158.628 122.404 158.469 122.564C157.839 123.201 157.289 123.801 156.864 124.319C156.449 124.827 156.126 125.289 155.984 125.644C155.122 127.808 155.866 129.698 157.191 130.706C158.501 131.704 160.405 131.841 161.756 130.479C162.735 129.492 163.33 128.314 163.65 126.937C166.597 128.887 168.982 128.331 170.696 126.674C172.653 124.781 173.071 122.095 170.153 118.414ZM161.11 124.748C161.742 125.415 162.354 125.972 162.945 126.43C162.672 127.83 162.122 128.973 161.194 129.908C160.174 130.937 158.723 130.867 157.668 130.064C156.627 129.272 155.996 127.767 156.722 125.947C156.814 125.717 157.065 125.337 157.478 124.833C157.882 124.34 158.414 123.759 159.032 123.134C159.16 123.005 159.292 122.873 159.427 122.74C159.928 123.42 160.49 124.094 161.11 124.748Z" fill="#386667"/>
<path d="M188.125 170.41V160.238H234.672V170.41H188.125ZM188.125 188.644V178.379H234.672V188.644H188.125Z" fill="white"/>
<path d="M123.717 82.0604C123.369 82.0604 123.061 82.1287 122.791 82.2654C122.525 82.3983 122.301 82.5916 122.117 82.8455C121.938 83.0994 121.801 83.4061 121.707 83.7654C121.613 84.1248 121.566 84.5291 121.566 84.9783C121.566 85.5838 121.641 86.1014 121.789 86.5311C121.941 86.9568 122.176 87.283 122.492 87.5096C122.809 87.7322 123.217 87.8436 123.717 87.8436C124.064 87.8436 124.412 87.8045 124.76 87.7264C125.111 87.6483 125.492 87.5369 125.902 87.3924V88.9158C125.523 89.0721 125.15 89.1834 124.783 89.2498C124.416 89.3201 124.004 89.3553 123.547 89.3553C122.664 89.3553 121.938 89.1736 121.367 88.8104C120.801 88.4432 120.381 87.9315 120.107 87.2752C119.834 86.6151 119.697 85.8455 119.697 84.9666C119.697 84.3182 119.785 83.7244 119.961 83.1854C120.137 82.6463 120.395 82.1795 120.734 81.785C121.074 81.3904 121.494 81.0858 121.994 80.8709C122.494 80.6561 123.068 80.5486 123.717 80.5486C124.143 80.5486 124.568 80.6033 124.994 80.7127C125.424 80.8182 125.834 80.9647 126.225 81.1522L125.639 82.6287C125.318 82.4764 124.996 82.3436 124.672 82.2303C124.348 82.117 124.029 82.0604 123.717 82.0604ZM135.266 84.9432C135.266 85.6033 135.184 86.2049 135.02 86.7479C134.856 87.2869 134.606 87.7518 134.27 88.1424C133.938 88.533 133.516 88.8338 133.004 89.0447C132.492 89.2518 131.887 89.3553 131.188 89.3553C130.489 89.3553 129.883 89.2518 129.371 89.0447C128.86 88.8338 128.436 88.533 128.1 88.1424C127.768 87.7518 127.52 87.285 127.356 86.742C127.192 86.199 127.11 85.5955 127.11 84.9315C127.11 84.0447 127.254 83.2733 127.543 82.617C127.836 81.9568 128.285 81.4451 128.891 81.0818C129.496 80.7186 130.266 80.5369 131.199 80.5369C132.129 80.5369 132.893 80.7186 133.49 81.0818C134.092 81.4451 134.537 81.9568 134.826 82.617C135.119 83.2772 135.266 84.0526 135.266 84.9432ZM129.014 84.9432C129.014 85.5408 129.088 86.0565 129.237 86.4901C129.389 86.9197 129.625 87.2518 129.946 87.4861C130.266 87.7166 130.68 87.8318 131.188 87.8318C131.703 87.8318 132.121 87.7166 132.442 87.4861C132.762 87.2518 132.994 86.9197 133.139 86.4901C133.287 86.0565 133.362 85.5408 133.362 84.9432C133.362 84.0447 133.194 83.3377 132.858 82.8221C132.522 82.3065 131.969 82.0486 131.199 82.0486C130.688 82.0486 130.27 82.1658 129.946 82.4002C129.625 82.6307 129.389 82.9627 129.237 83.3963C129.088 83.826 129.014 84.3416 129.014 84.9432ZM139.836 90.7967H136.045V89.8123L137.358 88.5291C137.596 88.2947 137.782 88.0994 137.915 87.9432C138.051 87.7869 138.147 87.6463 138.202 87.5213C138.26 87.3963 138.29 87.2635 138.29 87.1229C138.29 86.9783 138.243 86.867 138.149 86.7889C138.055 86.7108 137.93 86.6717 137.774 86.6717C137.618 86.6717 137.454 86.7127 137.282 86.7947C137.114 86.8729 136.926 87.0037 136.719 87.1873L135.999 86.2967C136.252 86.074 136.538 85.8924 136.854 85.7518C137.17 85.6111 137.541 85.5408 137.967 85.5408C138.483 85.5408 138.899 85.6658 139.215 85.9158C139.536 86.1658 139.696 86.5291 139.696 87.0057C139.696 87.244 139.651 87.4666 139.561 87.6736C139.475 87.8807 139.336 88.0936 139.145 88.3123C138.954 88.5311 138.702 88.783 138.389 89.0682L137.774 89.619H139.836V90.7967Z" fill="#386667"/>
<path d="M43.9307 63.2567C43.641 63.2567 43.3838 63.3136 43.1592 63.4276C42.9378 63.5382 42.7507 63.6994 42.5977 63.9109C42.4479 64.1225 42.334 64.3781 42.2559 64.6776C42.1777 64.977 42.1387 65.3139 42.1387 65.6883C42.1387 66.1929 42.2005 66.6242 42.3242 66.9822C42.4512 67.3371 42.6465 67.6089 42.9102 67.7977C43.1738 67.9832 43.514 68.076 43.9307 68.076C44.2204 68.076 44.5101 68.0434 44.7998 67.9783C45.0928 67.9132 45.4102 67.8205 45.752 67.7V68.9695C45.4362 69.0998 45.1253 69.1925 44.8193 69.2479C44.5133 69.3065 44.1699 69.3358 43.7891 69.3358C43.0534 69.3358 42.4479 69.1844 41.9727 68.8817C41.5007 68.5757 41.1507 68.1492 40.9229 67.6024C40.695 67.0522 40.5811 66.4109 40.5811 65.6785C40.5811 65.1382 40.6543 64.6434 40.8008 64.1942C40.9473 63.7449 41.1621 63.3559 41.4453 63.0272C41.7285 62.6984 42.0785 62.4445 42.4951 62.2654C42.9118 62.0864 43.3903 61.9969 43.9307 61.9969C44.2855 61.9969 44.6403 62.0425 44.9951 62.1336C45.3532 62.2215 45.695 62.3436 46.0205 62.4998L45.5322 63.7303C45.2653 63.6033 44.9967 63.4927 44.7266 63.3983C44.4564 63.3039 44.1911 63.2567 43.9307 63.2567ZM53.5549 65.659C53.5549 66.2091 53.4865 66.7104 53.3498 67.1629C53.2131 67.6121 53.0048 67.9995 52.7248 68.325C52.4481 68.6505 52.0965 68.9012 51.6701 69.077C51.2437 69.2495 50.7391 69.3358 50.1564 69.3358C49.5738 69.3358 49.0692 69.2495 48.6428 69.077C48.2163 68.9012 47.8632 68.6505 47.5832 68.325C47.3065 67.9995 47.0998 67.6105 46.9631 67.158C46.8264 66.7055 46.758 66.2026 46.758 65.6492C46.758 64.9103 46.8785 64.2674 47.1193 63.7205C47.3635 63.1704 47.7378 62.744 48.2424 62.4412C48.7469 62.1385 49.3882 61.9871 50.1662 61.9871C50.941 61.9871 51.5773 62.1385 52.0754 62.4412C52.5767 62.744 52.9478 63.1704 53.1887 63.7205C53.4328 64.2707 53.5549 64.9168 53.5549 65.659ZM48.3449 65.659C48.3449 66.157 48.4068 66.5867 48.5305 66.9481C48.6574 67.3061 48.8544 67.5828 49.1213 67.7781C49.3882 67.9702 49.7333 68.0662 50.1564 68.0662C50.5861 68.0662 50.9344 67.9702 51.2014 67.7781C51.4683 67.5828 51.662 67.3061 51.7824 66.9481C51.9061 66.5867 51.968 66.157 51.968 65.659C51.968 64.9103 51.828 64.3211 51.548 63.8914C51.2681 63.4617 50.8075 63.2469 50.1662 63.2469C49.7398 63.2469 49.3915 63.3445 49.1213 63.5399C48.8544 63.7319 48.6574 64.0086 48.5305 64.3699C48.4068 64.728 48.3449 65.1577 48.3449 65.659ZM57.3637 70.5369H54.2045V69.7166L55.2982 68.6473C55.4968 68.452 55.6514 68.2892 55.7621 68.159C55.876 68.0288 55.9558 67.9116 56.0014 67.8074C56.0502 67.7033 56.0746 67.5926 56.0746 67.4754C56.0746 67.355 56.0355 67.2622 55.9574 67.1971C55.8793 67.132 55.7751 67.0994 55.6449 67.0994C55.5147 67.0994 55.378 67.1336 55.2348 67.202C55.0948 67.2671 54.9385 67.3761 54.766 67.5291L54.1654 66.7869C54.377 66.6014 54.6146 66.45 54.8783 66.3328C55.142 66.2156 55.4512 66.157 55.8061 66.157C56.2357 66.157 56.5824 66.2612 56.8461 66.4695C57.113 66.6779 57.2465 66.9806 57.2465 67.3777C57.2465 67.5763 57.209 67.7619 57.1342 67.9344C57.0626 68.1069 56.947 68.2843 56.7875 68.4666C56.628 68.6489 56.418 68.8589 56.1576 69.0965L55.6449 69.5555H57.3637V70.5369Z" fill="#386667"/>
<path d="M25.9307 106.019C25.641 106.019 25.3838 106.076 25.1592 106.189C24.9378 106.3 24.7507 106.461 24.5977 106.673C24.4479 106.884 24.334 107.14 24.2559 107.439C24.1777 107.739 24.1387 108.076 24.1387 108.45C24.1387 108.955 24.2005 109.386 24.3242 109.744C24.4512 110.099 24.6465 110.371 24.9102 110.56C25.1738 110.745 25.514 110.838 25.9307 110.838C26.2204 110.838 26.5101 110.805 26.7998 110.74C27.0928 110.675 27.4102 110.582 27.752 110.462V111.731C27.4362 111.862 27.1253 111.954 26.8193 112.01C26.5133 112.068 26.1699 112.098 25.7891 112.098C25.0534 112.098 24.4479 111.946 23.9727 111.644C23.5007 111.338 23.1507 110.911 22.9229 110.364C22.695 109.814 22.5811 109.173 22.5811 108.44C22.5811 107.9 22.6543 107.405 22.8008 106.956C22.9473 106.507 23.1621 106.118 23.4453 105.789C23.7285 105.46 24.0785 105.206 24.4951 105.027C24.9118 104.848 25.3903 104.759 25.9307 104.759C26.2855 104.759 26.6403 104.804 26.9951 104.896C27.3532 104.983 27.695 105.105 28.0205 105.262L27.5322 106.492C27.2653 106.365 26.9967 106.255 26.7266 106.16C26.4564 106.066 26.1911 106.019 25.9307 106.019ZM34.925 112H33.4162V108.919H30.5891V112H29.0754V104.861H30.5891V107.659H33.4162V104.861H34.925V112ZM39.3344 112.557H38.724V113.299H37.5619V112.557H35.6918V111.81L37.5717 108.987H38.724V111.741H39.3344V112.557ZM37.5619 111.741V110.94C37.5619 110.804 37.5635 110.659 37.5668 110.506C37.5733 110.353 37.5814 110.197 37.5912 110.037C37.5587 110.128 37.5017 110.257 37.4203 110.423C37.3422 110.589 37.2738 110.717 37.2152 110.809L36.5951 111.741H37.5619Z" fill="#386667"/>
<path d="M288.717 206.06C288.369 206.06 288.061 206.129 287.791 206.265C287.525 206.398 287.301 206.592 287.117 206.846C286.938 207.099 286.801 207.406 286.707 207.765C286.613 208.125 286.566 208.529 286.566 208.978C286.566 209.584 286.641 210.101 286.789 210.531C286.941 210.957 287.176 211.283 287.492 211.51C287.809 211.732 288.217 211.844 288.717 211.844C289.064 211.844 289.412 211.805 289.76 211.726C290.111 211.648 290.492 211.537 290.902 211.392V212.916C290.523 213.072 290.15 213.183 289.783 213.25C289.416 213.32 289.004 213.355 288.547 213.355C287.664 213.355 286.938 213.174 286.367 212.81C285.801 212.443 285.381 211.931 285.107 211.275C284.834 210.615 284.697 209.846 284.697 208.967C284.697 208.318 284.785 207.724 284.961 207.185C285.137 206.646 285.395 206.18 285.734 205.785C286.074 205.39 286.494 205.086 286.994 204.871C287.494 204.656 288.068 204.549 288.717 204.549C289.143 204.549 289.568 204.603 289.994 204.713C290.424 204.818 290.834 204.965 291.225 205.152L290.639 206.629C290.318 206.476 289.996 206.344 289.672 206.23C289.348 206.117 289.029 206.06 288.717 206.06ZM300.266 208.943C300.266 209.603 300.184 210.205 300.02 210.748C299.856 211.287 299.606 211.752 299.27 212.142C298.938 212.533 298.516 212.834 298.004 213.045C297.492 213.252 296.887 213.355 296.188 213.355C295.489 213.355 294.883 213.252 294.371 213.045C293.86 212.834 293.436 212.533 293.1 212.142C292.768 211.752 292.52 211.285 292.356 210.742C292.192 210.199 292.11 209.596 292.11 208.931C292.11 208.045 292.254 207.273 292.543 206.617C292.836 205.957 293.285 205.445 293.891 205.082C294.496 204.719 295.266 204.537 296.199 204.537C297.129 204.537 297.893 204.719 298.49 205.082C299.092 205.445 299.537 205.957 299.826 206.617C300.119 207.277 300.266 208.053 300.266 208.943ZM294.014 208.943C294.014 209.541 294.088 210.056 294.237 210.49C294.389 210.92 294.625 211.252 294.946 211.486C295.266 211.717 295.68 211.832 296.188 211.832C296.703 211.832 297.121 211.717 297.442 211.486C297.762 211.252 297.994 210.92 298.139 210.49C298.287 210.056 298.362 209.541 298.362 208.943C298.362 208.045 298.194 207.338 297.858 206.822C297.522 206.306 296.969 206.049 296.199 206.049C295.688 206.049 295.27 206.166 294.946 206.4C294.625 206.631 294.389 206.963 294.237 207.396C294.088 207.826 294.014 208.342 294.014 208.943ZM304.836 214.797H301.045V213.812L302.358 212.529C302.596 212.295 302.782 212.099 302.915 211.943C303.051 211.787 303.147 211.646 303.202 211.521C303.26 211.396 303.29 211.263 303.29 211.123C303.29 210.978 303.243 210.867 303.149 210.789C303.055 210.711 302.93 210.672 302.774 210.672C302.618 210.672 302.454 210.713 302.282 210.795C302.114 210.873 301.926 211.004 301.719 211.187L300.999 210.297C301.252 210.074 301.538 209.892 301.854 209.752C302.17 209.611 302.541 209.541 302.967 209.541C303.483 209.541 303.899 209.666 304.215 209.916C304.536 210.166 304.696 210.529 304.696 211.006C304.696 211.244 304.651 211.467 304.561 211.674C304.475 211.881 304.336 212.094 304.145 212.312C303.954 212.531 303.702 212.783 303.389 213.068L302.774 213.619H304.836V214.797Z" fill="white"/>
<path d="M389.717 206.06C389.369 206.06 389.061 206.129 388.791 206.265C388.525 206.398 388.301 206.592 388.117 206.846C387.938 207.099 387.801 207.406 387.707 207.765C387.613 208.125 387.566 208.529 387.566 208.978C387.566 209.584 387.641 210.101 387.789 210.531C387.941 210.957 388.176 211.283 388.492 211.51C388.809 211.732 389.217 211.844 389.717 211.844C390.064 211.844 390.412 211.805 390.76 211.726C391.111 211.648 391.492 211.537 391.902 211.392V212.916C391.523 213.072 391.15 213.183 390.783 213.25C390.416 213.32 390.004 213.355 389.547 213.355C388.664 213.355 387.938 213.174 387.367 212.81C386.801 212.443 386.381 211.931 386.107 211.275C385.834 210.615 385.697 209.846 385.697 208.967C385.697 208.318 385.785 207.724 385.961 207.185C386.137 206.646 386.395 206.18 386.734 205.785C387.074 205.39 387.494 205.086 387.994 204.871C388.494 204.656 389.068 204.549 389.717 204.549C390.143 204.549 390.568 204.603 390.994 204.713C391.424 204.818 391.834 204.965 392.225 205.152L391.639 206.629C391.318 206.476 390.996 206.344 390.672 206.23C390.348 206.117 390.029 206.06 389.717 206.06ZM401.266 208.943C401.266 209.603 401.184 210.205 401.02 210.748C400.856 211.287 400.606 211.752 400.27 212.142C399.938 212.533 399.516 212.834 399.004 213.045C398.492 213.252 397.887 213.355 397.188 213.355C396.489 213.355 395.883 213.252 395.371 213.045C394.86 212.834 394.436 212.533 394.1 212.142C393.768 211.752 393.52 211.285 393.356 210.742C393.192 210.199 393.11 209.596 393.11 208.931C393.11 208.045 393.254 207.273 393.543 206.617C393.836 205.957 394.285 205.445 394.891 205.082C395.496 204.719 396.266 204.537 397.199 204.537C398.129 204.537 398.893 204.719 399.49 205.082C400.092 205.445 400.537 205.957 400.826 206.617C401.119 207.277 401.266 208.053 401.266 208.943ZM395.014 208.943C395.014 209.541 395.088 210.056 395.237 210.49C395.389 210.92 395.625 211.252 395.946 211.486C396.266 211.717 396.68 211.832 397.188 211.832C397.703 211.832 398.121 211.717 398.442 211.486C398.762 211.252 398.994 210.92 399.139 210.49C399.287 210.056 399.362 209.541 399.362 208.943C399.362 208.045 399.194 207.338 398.858 206.822C398.522 206.306 397.969 206.049 397.199 206.049C396.688 206.049 396.27 206.166 395.946 206.4C395.625 206.631 395.389 206.963 395.237 207.396C395.088 207.826 395.014 208.342 395.014 208.943ZM405.836 214.797H402.045V213.812L403.358 212.529C403.596 212.295 403.782 212.099 403.915 211.943C404.051 211.787 404.147 211.646 404.202 211.521C404.26 211.396 404.29 211.263 404.29 211.123C404.29 210.978 404.243 210.867 404.149 210.789C404.055 210.711 403.93 210.672 403.774 210.672C403.618 210.672 403.454 210.713 403.282 210.795C403.114 210.873 402.926 211.004 402.719 211.187L401.999 210.297C402.252 210.074 402.538 209.892 402.854 209.752C403.17 209.611 403.541 209.541 403.967 209.541C404.483 209.541 404.899 209.666 405.215 209.916C405.536 210.166 405.696 210.529 405.696 211.006C405.696 211.244 405.651 211.467 405.561 211.674C405.475 211.881 405.336 212.094 405.145 212.312C404.954 212.531 404.702 212.783 404.389 213.068L403.774 213.619H405.836V214.797Z" fill="white"/>
<path d="M493.717 206.06C493.369 206.06 493.061 206.129 492.791 206.265C492.525 206.398 492.301 206.592 492.117 206.846C491.938 207.099 491.801 207.406 491.707 207.765C491.613 208.125 491.566 208.529 491.566 208.978C491.566 209.584 491.641 210.101 491.789 210.531C491.941 210.957 492.176 211.283 492.492 211.51C492.809 211.732 493.217 211.844 493.717 211.844C494.064 211.844 494.412 211.805 494.76 211.726C495.111 211.648 495.492 211.537 495.902 211.392V212.916C495.523 213.072 495.15 213.183 494.783 213.25C494.416 213.32 494.004 213.355 493.547 213.355C492.664 213.355 491.938 213.174 491.367 212.81C490.801 212.443 490.381 211.931 490.107 211.275C489.834 210.615 489.697 209.846 489.697 208.967C489.697 208.318 489.785 207.724 489.961 207.185C490.137 206.646 490.395 206.18 490.734 205.785C491.074 205.39 491.494 205.086 491.994 204.871C492.494 204.656 493.068 204.549 493.717 204.549C494.143 204.549 494.568 204.603 494.994 204.713C495.424 204.818 495.834 204.965 496.225 205.152L495.639 206.629C495.318 206.476 494.996 206.344 494.672 206.23C494.348 206.117 494.029 206.06 493.717 206.06ZM505.266 208.943C505.266 209.603 505.184 210.205 505.02 210.748C504.856 211.287 504.606 211.752 504.27 212.142C503.938 212.533 503.516 212.834 503.004 213.045C502.492 213.252 501.887 213.355 501.188 213.355C500.489 213.355 499.883 213.252 499.371 213.045C498.86 212.834 498.436 212.533 498.1 212.142C497.768 211.752 497.52 211.285 497.356 210.742C497.192 210.199 497.11 209.596 497.11 208.931C497.11 208.045 497.254 207.273 497.543 206.617C497.836 205.957 498.285 205.445 498.891 205.082C499.496 204.719 500.266 204.537 501.199 204.537C502.129 204.537 502.893 204.719 503.49 205.082C504.092 205.445 504.537 205.957 504.826 206.617C505.119 207.277 505.266 208.053 505.266 208.943ZM499.014 208.943C499.014 209.541 499.088 210.056 499.237 210.49C499.389 210.92 499.625 211.252 499.946 211.486C500.266 211.717 500.68 211.832 501.188 211.832C501.703 211.832 502.121 211.717 502.442 211.486C502.762 211.252 502.994 210.92 503.139 210.49C503.287 210.056 503.362 209.541 503.362 208.943C503.362 208.045 503.194 207.338 502.858 206.822C502.522 206.306 501.969 206.049 501.199 206.049C500.688 206.049 500.27 206.166 499.946 206.4C499.625 206.631 499.389 206.963 499.237 207.396C499.088 207.826 499.014 208.342 499.014 208.943ZM509.836 214.797H506.045V213.812L507.358 212.529C507.596 212.295 507.782 212.099 507.915 211.943C508.051 211.787 508.147 211.646 508.202 211.521C508.26 211.396 508.29 211.263 508.29 211.123C508.29 210.978 508.243 210.867 508.149 210.789C508.055 210.711 507.93 210.672 507.774 210.672C507.618 210.672 507.454 210.713 507.282 210.795C507.114 210.873 506.926 211.004 506.719 211.187L505.999 210.297C506.252 210.074 506.538 209.892 506.854 209.752C507.17 209.611 507.541 209.541 507.967 209.541C508.483 209.541 508.899 209.666 509.215 209.916C509.536 210.166 509.696 210.529 509.696 211.006C509.696 211.244 509.651 211.467 509.561 211.674C509.475 211.881 509.336 212.094 509.145 212.312C508.954 212.531 508.702 212.783 508.389 213.068L507.774 213.619H509.836V214.797Z" fill="white"/>
</g>
<defs>
<radialGradient id="paint0_radial_233_855" cx="0" cy="0" r="1" gradientUnits="userSpaceOnUse" gradientTransform="translate(104.983 181.76) rotate(-14.9069) scale(485.879 1280.77)">
<stop stop-color="#517B83"/>
<stop offset="1" stop-color="white" stop-opacity="0"/>
</radialGradient>
<clipPath id="clip0_233_855">
<rect width="644" height="266" fill="white"/>
</clipPath>
</defs>
</svg>
