<svg width="892" height="240" viewBox="0 0 892 240" fill="none" xmlns="http://www.w3.org/2000/svg">
<path d="M10.5557 49.3389H4.06055V52.3184H9.74707V54.5684H4.06055V60H1.37109V47.0625H10.5557V49.3389ZM20.1621 51.6328C20.9707 52.6465 21.375 53.8447 21.375 55.2275C21.375 56.6338 20.9707 57.8379 20.1621 58.8398C19.3535 59.8359 18.126 60.334 16.4795 60.334C14.833 60.334 13.6055 59.8359 12.7969 58.8398C11.9883 57.8379 11.584 56.6338 11.584 55.2275C11.584 53.8447 11.9883 52.6465 12.7969 51.6328C13.6055 50.6191 14.833 50.1123 16.4795 50.1123C18.126 50.1123 19.3535 50.6191 20.1621 51.6328ZM16.4707 52.2305C15.7383 52.2305 15.1729 52.4912 14.7744 53.0127C14.3818 53.5283 14.1855 54.2666 14.1855 55.2275C14.1855 56.1885 14.3818 56.9297 14.7744 57.4512C15.1729 57.9727 15.7383 58.2334 16.4707 58.2334C17.2031 58.2334 17.7656 57.9727 18.1582 57.4512C18.5508 56.9297 18.7471 56.1885 18.7471 55.2275C18.7471 54.2666 18.5508 53.5283 18.1582 53.0127C17.7656 52.4912 17.2031 52.2305 16.4707 52.2305ZM31.166 51.6328C31.9746 52.6465 32.3789 53.8447 32.3789 55.2275C32.3789 56.6338 31.9746 57.8379 31.166 58.8398C30.3574 59.8359 29.1299 60.334 27.4834 60.334C25.8369 60.334 24.6094 59.8359 23.8008 58.8398C22.9922 57.8379 22.5879 56.6338 22.5879 55.2275C22.5879 53.8447 22.9922 52.6465 23.8008 51.6328C24.6094 50.6191 25.8369 50.1123 27.4834 50.1123C29.1299 50.1123 30.3574 50.6191 31.166 51.6328ZM27.4746 52.2305C26.7422 52.2305 26.1768 52.4912 25.7783 53.0127C25.3857 53.5283 25.1895 54.2666 25.1895 55.2275C25.1895 56.1885 25.3857 56.9297 25.7783 57.4512C26.1768 57.9727 26.7422 58.2334 27.4746 58.2334C28.207 58.2334 28.7695 57.9727 29.1621 57.4512C29.5547 56.9297 29.751 56.1885 29.751 55.2275C29.751 54.2666 29.5547 53.5283 29.1621 53.0127C28.7695 52.4912 28.207 52.2305 27.4746 52.2305ZM42.8994 47.0625V60H40.4648V58.6729C40.1074 59.2412 39.7002 59.6543 39.2432 59.9121C38.7861 60.1699 38.2178 60.2988 37.5381 60.2988C36.4189 60.2988 35.4756 59.8477 34.708 58.9453C33.9463 58.0371 33.5654 56.874 33.5654 55.4561C33.5654 53.8213 33.9404 52.5352 34.6904 51.5977C35.4463 50.6602 36.4541 50.1914 37.7139 50.1914C38.2939 50.1914 38.8096 50.3203 39.2607 50.5781C39.7119 50.8301 40.0781 51.1816 40.3594 51.6328V47.0625H42.8994ZM36.1494 55.2715C36.1494 56.1562 36.3252 56.8623 36.6768 57.3896C37.0225 57.9229 37.5498 58.1895 38.2588 58.1895C38.9678 58.1895 39.5068 57.9258 39.876 57.3984C40.2451 56.8711 40.4297 56.1885 40.4297 55.3506C40.4297 54.1787 40.1338 53.3408 39.542 52.8369C39.1787 52.5322 38.7568 52.3799 38.2764 52.3799C37.5439 52.3799 37.0049 52.6582 36.6592 53.2148C36.3193 53.7656 36.1494 54.4512 36.1494 55.2715ZM57.4629 60L55.96 53.0215L54.4395 60H51.8379L49.1484 50.4199H51.8379L53.332 57.293L54.7119 50.4199H57.252L58.7109 57.3193L60.2051 50.4199H62.8154L60.0381 60H57.4629ZM64.5645 51.457C65.2266 50.6133 66.3633 50.1914 67.9746 50.1914C69.0234 50.1914 69.9551 50.3994 70.7695 50.8154C71.584 51.2314 71.9912 52.0166 71.9912 53.1709V57.5654C71.9912 57.8701 71.9971 58.2393 72.0088 58.6729C72.0264 59.001 72.0762 59.2236 72.1582 59.3408C72.2402 59.458 72.3633 59.5547 72.5273 59.6309V60H69.8027C69.7266 59.8066 69.6738 59.625 69.6445 59.4551C69.6152 59.2852 69.5918 59.0918 69.5742 58.875C69.2285 59.25 68.8301 59.5693 68.3789 59.833C67.8398 60.1436 67.2305 60.2988 66.5508 60.2988C65.6836 60.2988 64.9658 60.0527 64.3975 59.5605C63.835 59.0625 63.5537 58.3594 63.5537 57.4512C63.5537 56.2734 64.0078 55.4209 64.916 54.8936C65.4141 54.6064 66.1465 54.4014 67.1133 54.2783L67.9658 54.1729C68.4287 54.1143 68.7598 54.041 68.959 53.9531C69.3164 53.8008 69.4951 53.5635 69.4951 53.2412C69.4951 52.8486 69.3574 52.5791 69.082 52.4326C68.8125 52.2803 68.4141 52.2041 67.8867 52.2041C67.2949 52.2041 66.876 52.3506 66.6299 52.6436C66.4541 52.8604 66.3369 53.1533 66.2783 53.5225H63.8613C63.9141 52.6846 64.1484 51.9961 64.5645 51.457ZM66.4277 58.1895C66.6621 58.3828 66.9492 58.4795 67.2891 58.4795C67.8281 58.4795 68.3232 58.3213 68.7744 58.0049C69.2314 57.6885 69.4688 57.1113 69.4863 56.2734V55.3418C69.3281 55.4414 69.167 55.5234 69.0029 55.5879C68.8447 55.6465 68.625 55.7021 68.3438 55.7549L67.7812 55.8604C67.2539 55.9541 66.876 56.0684 66.6475 56.2031C66.2607 56.4316 66.0674 56.7861 66.0674 57.2666C66.0674 57.6943 66.1875 58.002 66.4277 58.1895ZM80.8242 50.8594C81.5742 51.3398 82.0049 52.166 82.1162 53.3379H79.6113C79.5762 53.0156 79.4854 52.7607 79.3389 52.5732C79.0635 52.2334 78.5947 52.0635 77.9326 52.0635C77.3877 52.0635 76.998 52.1484 76.7637 52.3184C76.5352 52.4883 76.4209 52.6875 76.4209 52.916C76.4209 53.2031 76.5439 53.4111 76.79 53.54C77.0361 53.6748 77.9062 53.9062 79.4004 54.2344C80.3965 54.4688 81.1436 54.8232 81.6416 55.2979C82.1338 55.7783 82.3799 56.3789 82.3799 57.0996C82.3799 58.0488 82.0254 58.8252 81.3164 59.4287C80.6133 60.0264 79.5234 60.3252 78.0469 60.3252C76.541 60.3252 75.4277 60.0088 74.707 59.376C73.9922 58.7373 73.6348 57.9258 73.6348 56.9414H76.1748C76.2275 57.3867 76.3418 57.7031 76.5176 57.8906C76.8281 58.2246 77.4023 58.3916 78.2402 58.3916C78.7324 58.3916 79.1221 58.3184 79.4092 58.1719C79.7021 58.0254 79.8486 57.8057 79.8486 57.5127C79.8486 57.2314 79.7314 57.0176 79.4971 56.8711C79.2627 56.7246 78.3926 56.4727 76.8867 56.1152C75.8027 55.8457 75.0381 55.5088 74.5928 55.1045C74.1475 54.7061 73.9248 54.1318 73.9248 53.3818C73.9248 52.4971 74.2705 51.7383 74.9619 51.1055C75.6592 50.4668 76.6377 50.1475 77.8975 50.1475C79.0928 50.1475 80.0684 50.3848 80.8242 50.8594ZM88.6289 58.2158V60.0879L87.4424 60.1318C86.2588 60.1729 85.4502 59.9678 85.0166 59.5166C84.7354 59.2295 84.5947 58.7871 84.5947 58.1895V52.292H83.2588V50.5078H84.5947V47.8359H87.0732V50.5078H88.6289V52.292H87.0732V57.3545C87.0732 57.7471 87.123 57.9932 87.2227 58.0928C87.3223 58.1865 87.627 58.2334 88.1367 58.2334C88.2129 58.2334 88.292 58.2334 88.374 58.2334C88.4619 58.2275 88.5469 58.2217 88.6289 58.2158ZM98.4375 57.1875C98.373 57.7559 98.0771 58.333 97.5498 58.9189C96.7295 59.8506 95.5811 60.3164 94.1045 60.3164C92.8857 60.3164 91.8105 59.9238 90.8789 59.1387C89.9473 58.3535 89.4814 57.0762 89.4814 55.3066C89.4814 53.6484 89.9004 52.377 90.7383 51.4922C91.582 50.6074 92.6748 50.165 94.0166 50.165C94.8135 50.165 95.5312 50.3145 96.1699 50.6133C96.8086 50.9121 97.3359 51.3838 97.752 52.0283C98.127 52.5967 98.3701 53.2559 98.4814 54.0059C98.5459 54.4453 98.5723 55.0781 98.5605 55.9043H92.0039C92.0391 56.8652 92.3408 57.5391 92.9092 57.9258C93.2549 58.166 93.6709 58.2861 94.1572 58.2861C94.6729 58.2861 95.0918 58.1396 95.4141 57.8467C95.5898 57.6885 95.7451 57.4688 95.8799 57.1875H98.4375ZM95.959 54.252C95.918 53.5898 95.7158 53.0889 95.3525 52.749C94.9951 52.4033 94.5498 52.2305 94.0166 52.2305C93.4365 52.2305 92.9854 52.4121 92.6631 52.7754C92.3467 53.1387 92.1475 53.6309 92.0654 54.252H95.959ZM103.79 57.3809V60H101.127V57.3809H103.79ZM101.127 53.417V50.7979H103.79V53.417H101.127ZM113.959 54.4189C112.84 54.0908 112.049 53.6338 111.586 53.0479C111.129 52.4619 110.9 51.7559 110.9 50.9297C110.9 50.3848 110.988 49.8896 111.164 49.4443C111.346 48.999 111.598 48.6152 111.92 48.293C112.336 47.877 112.799 47.5898 113.309 47.4316C113.619 47.332 114.073 47.2588 114.671 47.2119V46.043H115.506V47.2295C116.461 47.3057 117.211 47.54 117.756 47.9326C118.746 48.5596 119.259 49.5762 119.294 50.9824H116.982C116.936 50.4609 116.848 50.0801 116.719 49.8398C116.496 49.4238 116.092 49.1953 115.506 49.1543V52.5029C116.9 52.9834 117.838 53.4082 118.318 53.7773C119.109 54.3926 119.505 55.2598 119.505 56.3789C119.505 57.8555 118.963 58.9277 117.879 59.5957C117.217 60.0059 116.432 60.2461 115.523 60.3164V62.083H114.671V60.334C113.517 60.2051 112.655 59.9531 112.087 59.5781C111.085 58.9043 110.593 57.7559 110.61 56.1328H112.983C113.065 56.8711 113.18 57.3662 113.326 57.6182C113.555 58.0107 114.003 58.2656 114.671 58.3828V54.6299L113.959 54.4189ZM115.506 54.9199V58.3564C115.969 58.2979 116.306 58.1924 116.517 58.04C116.886 57.7705 117.07 57.3047 117.07 56.6426C117.07 56.1387 116.897 55.7402 116.552 55.4473C116.347 55.2773 115.998 55.1016 115.506 54.9199ZM114.671 52.2568V49.1719C114.161 49.1836 113.783 49.3213 113.537 49.585C113.291 49.8428 113.168 50.1973 113.168 50.6484C113.168 51.1406 113.353 51.5303 113.722 51.8174C113.927 51.9756 114.243 52.1221 114.671 52.2568ZM129.524 55.2979V57.2578H128.083V60H125.631V57.2578H120.586V55.0693L125.271 47.335H128.083V55.2979H129.524ZM122.44 55.2979H125.631V49.7959L122.44 55.2979ZM135.088 60.3164C133.465 60.3164 132.325 59.748 131.669 58.6113C131.019 57.4746 130.693 55.8545 130.693 53.751C130.693 51.6475 131.019 50.0244 131.669 48.8818C132.325 47.7393 133.465 47.168 135.088 47.168C136.711 47.168 137.851 47.7393 138.507 48.8818C139.157 50.0244 139.482 51.6475 139.482 53.751C139.482 55.8545 139.154 57.4746 138.498 58.6113C137.848 59.748 136.711 60.3164 135.088 60.3164ZM136.556 57.1084C136.784 56.335 136.898 55.2158 136.898 53.751C136.898 52.2158 136.781 51.0791 136.547 50.3408C136.318 49.6025 135.832 49.2334 135.088 49.2334C134.344 49.2334 133.852 49.6025 133.611 50.3408C133.371 51.0791 133.251 52.2158 133.251 53.751C133.251 55.2158 133.371 56.3379 133.611 57.1172C133.852 57.8906 134.344 58.2773 135.088 58.2773C135.832 58.2773 136.321 57.8877 136.556 57.1084ZM141.724 59.2002C140.991 58.4502 140.625 57.5391 140.625 56.4668C140.625 55.752 140.786 55.1045 141.108 54.5244C141.437 53.9443 141.914 53.5078 142.541 53.2148C141.926 52.8047 141.524 52.3623 141.337 51.8877C141.155 51.4072 141.064 50.959 141.064 50.543C141.064 49.6172 141.413 48.8291 142.11 48.1787C142.808 47.5225 143.792 47.1943 145.063 47.1943C146.335 47.1943 147.319 47.5225 148.017 48.1787C148.714 48.8291 149.062 49.6172 149.062 50.543C149.062 50.959 148.969 51.4072 148.781 51.8877C148.6 52.3623 148.201 52.7754 147.586 53.127C148.213 53.4785 148.685 53.9443 149.001 54.5244C149.317 55.1045 149.476 55.752 149.476 56.4668C149.476 57.5391 149.077 58.4531 148.28 59.209C147.489 59.959 146.382 60.334 144.958 60.334C143.534 60.334 142.456 59.9561 141.724 59.2002ZM143.227 56.2998C143.227 56.9268 143.388 57.4131 143.71 57.7588C144.038 58.1045 144.489 58.2773 145.063 58.2773C145.638 58.2773 146.086 58.1045 146.408 57.7588C146.736 57.4131 146.9 56.9268 146.9 56.2998C146.9 55.6494 146.733 55.1572 146.399 54.8232C146.071 54.4834 145.626 54.3135 145.063 54.3135C144.501 54.3135 144.053 54.4834 143.719 54.8232C143.391 55.1572 143.227 55.6494 143.227 56.2998ZM143.886 51.958C144.167 52.251 144.56 52.3975 145.063 52.3975C145.573 52.3975 145.966 52.251 146.241 51.958C146.522 51.665 146.663 51.2871 146.663 50.8242C146.663 50.3203 146.522 49.9277 146.241 49.6465C145.966 49.3594 145.573 49.2158 145.063 49.2158C144.56 49.2158 144.164 49.3594 143.877 49.6465C143.596 49.9277 143.455 50.3203 143.455 50.8242C143.455 51.2871 143.599 51.665 143.886 51.958ZM156.542 60.2549C155.751 60.2549 155.115 60.0967 154.635 59.7803C154.348 59.5928 154.037 59.2646 153.703 58.7959V60H151.251V47.0625H153.747V51.668C154.063 51.2227 154.412 50.8828 154.793 50.6484C155.244 50.3555 155.818 50.209 156.516 50.209C157.775 50.209 158.76 50.6631 159.469 51.5713C160.184 52.4795 160.541 53.6514 160.541 55.0869C160.541 56.5752 160.189 57.8086 159.486 58.7871C158.783 59.7656 157.802 60.2549 156.542 60.2549ZM157.913 55.3506C157.913 54.6709 157.825 54.1084 157.649 53.6631C157.315 52.8193 156.7 52.3975 155.804 52.3975C154.896 52.3975 154.271 52.8105 153.932 53.6367C153.756 54.0762 153.668 54.6445 153.668 55.3418C153.668 56.1621 153.85 56.8418 154.213 57.3809C154.576 57.9199 155.13 58.1895 155.874 58.1895C156.519 58.1895 157.02 57.9287 157.377 57.4072C157.734 56.8857 157.913 56.2002 157.913 55.3506ZM166.852 52.2744C166.002 52.2744 165.419 52.6348 165.103 53.3555C164.938 53.7363 164.856 54.2227 164.856 54.8145V60H162.36V50.4375H164.777V51.835C165.1 51.3428 165.404 50.9883 165.691 50.7715C166.207 50.3848 166.86 50.1914 167.651 50.1914C168.642 50.1914 169.45 50.4521 170.077 50.9736C170.71 51.4893 171.026 52.3477 171.026 53.5488V60H168.46V54.1729C168.46 53.6689 168.393 53.2822 168.258 53.0127C168.012 52.5205 167.543 52.2744 166.852 52.2744Z" fill="#386667"/>
<path d="M563.53 126V113.04H564.754V119.754L571.396 113.04H572.782L567.67 118.206L573.682 126H572.188L566.788 118.962L564.754 120.996V126H563.53ZM579.28 120.762V121.878H574.726V120.762H579.28ZM585.436 116.568H582.16V115.812C582.64 115.776 583.072 115.728 583.456 115.668C583.852 115.608 584.194 115.494 584.482 115.326C584.782 115.158 585.028 114.918 585.22 114.606C585.424 114.282 585.574 113.85 585.67 113.31H586.588V126H585.436V116.568ZM591.244 117.468C591.244 116.844 591.34 116.28 591.532 115.776C591.724 115.26 592 114.822 592.36 114.462C592.72 114.09 593.152 113.808 593.656 113.616C594.172 113.412 594.742 113.31 595.366 113.31C596.002 113.31 596.56 113.406 597.04 113.598C597.532 113.778 597.94 114.024 598.264 114.336C598.6 114.648 598.852 115.02 599.02 115.452C599.188 115.884 599.272 116.34 599.272 116.82C599.272 117.384 599.176 117.882 598.984 118.314C598.804 118.746 598.558 119.13 598.246 119.466C597.946 119.802 597.598 120.102 597.202 120.366C596.818 120.63 596.422 120.882 596.014 121.122C595.606 121.35 595.204 121.572 594.808 121.788C594.412 122.004 594.058 122.232 593.746 122.472C593.542 122.628 593.344 122.796 593.152 122.976C592.96 123.144 592.786 123.33 592.63 123.534C592.474 123.738 592.348 123.966 592.252 124.218C592.156 124.458 592.102 124.728 592.09 125.028H599.164V126H590.866C590.878 125.388 590.944 124.836 591.064 124.344C591.184 123.852 591.448 123.372 591.856 122.904C592.3 122.4 592.756 121.968 593.224 121.608C593.704 121.248 594.172 120.93 594.628 120.654C595.084 120.366 595.516 120.108 595.924 119.88C596.332 119.64 596.692 119.382 597.004 119.106C597.316 118.83 597.562 118.518 597.742 118.17C597.922 117.822 598.012 117.396 598.012 116.892C598.012 116.484 597.94 116.118 597.796 115.794C597.652 115.47 597.454 115.194 597.202 114.966C596.95 114.738 596.656 114.57 596.32 114.462C595.984 114.342 595.618 114.282 595.222 114.282C594.802 114.282 594.418 114.372 594.07 114.552C593.734 114.72 593.44 114.948 593.188 115.236C592.948 115.524 592.762 115.86 592.63 116.244C592.498 116.628 592.444 117.036 592.468 117.468H591.244ZM607.516 121.374C607.516 121.902 607.588 122.406 607.732 122.886C607.876 123.354 608.08 123.768 608.344 124.128C608.62 124.476 608.95 124.758 609.334 124.974C609.73 125.178 610.174 125.28 610.666 125.28C611.218 125.28 611.698 125.172 612.106 124.956C612.526 124.728 612.868 124.422 613.132 124.038C613.396 123.654 613.588 123.21 613.708 122.706C613.828 122.19 613.876 121.638 613.852 121.05C613.852 120.462 613.768 119.946 613.6 119.502C613.444 119.046 613.222 118.662 612.934 118.35C612.646 118.038 612.31 117.804 611.926 117.648C611.542 117.48 611.122 117.396 610.666 117.396C610.162 117.396 609.712 117.498 609.316 117.702C608.92 117.906 608.59 118.188 608.326 118.548C608.062 118.896 607.858 119.316 607.714 119.808C607.582 120.288 607.516 120.81 607.516 121.374ZM607.516 129.672H606.436V116.676H607.516V118.314H607.552C607.708 118.014 607.906 117.744 608.146 117.504C608.398 117.264 608.668 117.066 608.956 116.91C609.256 116.754 609.562 116.634 609.874 116.55C610.186 116.466 610.492 116.424 610.792 116.424C611.548 116.424 612.19 116.55 612.718 116.802C613.246 117.054 613.678 117.402 614.014 117.846C614.362 118.278 614.614 118.794 614.77 119.394C614.926 119.994 615.004 120.636 615.004 121.32C615.004 121.968 614.92 122.592 614.752 123.192C614.584 123.792 614.326 124.32 613.978 124.776C613.642 125.22 613.21 125.58 612.682 125.856C612.166 126.12 611.554 126.252 610.846 126.252C610.186 126.252 609.55 126.108 608.938 125.82C608.338 125.52 607.864 125.082 607.516 124.506V129.672ZM623.632 116.676H624.712V126H623.632V124.704C623.488 124.872 623.326 125.046 623.146 125.226C622.966 125.406 622.756 125.574 622.516 125.73C622.288 125.874 622.018 125.994 621.706 126.09C621.394 126.198 621.034 126.252 620.626 126.252C620.002 126.252 619.48 126.168 619.06 126C618.64 125.82 618.298 125.574 618.034 125.262C617.782 124.95 617.596 124.59 617.476 124.182C617.368 123.762 617.314 123.306 617.314 122.814V116.676H618.394V122.796C618.394 123.6 618.58 124.218 618.952 124.65C619.324 125.07 619.936 125.28 620.788 125.28C621.232 125.28 621.628 125.196 621.976 125.028C622.336 124.848 622.636 124.602 622.876 124.29C623.116 123.978 623.302 123.606 623.434 123.174C623.566 122.742 623.632 122.268 623.632 121.752V116.676ZM628.522 121.302C628.522 121.866 628.588 122.394 628.72 122.886C628.864 123.366 629.068 123.786 629.332 124.146C629.596 124.494 629.926 124.77 630.322 124.974C630.718 125.178 631.168 125.28 631.672 125.28C632.128 125.28 632.548 125.202 632.932 125.046C633.316 124.878 633.652 124.638 633.94 124.326C634.228 124.014 634.45 123.636 634.606 123.192C634.774 122.736 634.858 122.214 634.858 121.626C634.882 121.038 634.834 120.492 634.714 119.988C634.594 119.472 634.402 119.022 634.138 118.638C633.874 118.254 633.532 117.954 633.112 117.738C632.704 117.51 632.224 117.396 631.672 117.396C631.18 117.396 630.736 117.504 630.34 117.72C629.956 117.924 629.626 118.206 629.35 118.566C629.086 118.914 628.882 119.328 628.738 119.808C628.594 120.276 628.522 120.774 628.522 121.302ZM628.522 126H627.442V113.04H628.522V118.17C628.87 117.594 629.344 117.162 629.944 116.874C630.556 116.574 631.192 116.424 631.852 116.424C632.56 116.424 633.172 116.562 633.688 116.838C634.216 117.102 634.648 117.462 634.984 117.918C635.332 118.362 635.59 118.884 635.758 119.484C635.926 120.084 636.01 120.708 636.01 121.356C636.01 122.04 635.932 122.682 635.776 123.282C635.62 123.882 635.368 124.404 635.02 124.848C634.684 125.28 634.252 125.622 633.724 125.874C633.196 126.126 632.554 126.252 631.798 126.252C631.498 126.252 631.192 126.21 630.88 126.126C630.568 126.042 630.262 125.922 629.962 125.766C629.674 125.61 629.404 125.418 629.152 125.19C628.912 124.95 628.714 124.674 628.558 124.362H628.522V126ZM638.481 126V113.04H639.561V126H638.481ZM642.155 126V116.676H643.235V126H642.155ZM642.101 114.642V113.04H643.289V114.642H642.101ZM652.59 119.61C652.398 118.914 652.068 118.374 651.6 117.99C651.132 117.594 650.538 117.396 649.818 117.396C649.266 117.396 648.792 117.51 648.396 117.738C648 117.966 647.676 118.272 647.424 118.656C647.172 119.028 646.986 119.454 646.866 119.934C646.746 120.402 646.686 120.876 646.686 121.356C646.686 121.848 646.74 122.328 646.848 122.796C646.968 123.264 647.154 123.684 647.406 124.056C647.658 124.428 647.982 124.728 648.378 124.956C648.774 125.172 649.254 125.28 649.818 125.28C650.622 125.28 651.264 125.058 651.744 124.614C652.236 124.17 652.548 123.558 652.68 122.778H653.832C653.736 123.294 653.58 123.768 653.364 124.2C653.16 124.62 652.89 124.986 652.554 125.298C652.23 125.598 651.84 125.832 651.384 126C650.928 126.168 650.406 126.252 649.818 126.252C649.074 126.252 648.432 126.126 647.892 125.874C647.352 125.622 646.908 125.28 646.56 124.848C646.212 124.404 645.954 123.882 645.786 123.282C645.618 122.682 645.534 122.04 645.534 121.356C645.534 120.708 645.624 120.09 645.804 119.502C645.996 118.902 646.272 118.374 646.632 117.918C646.992 117.462 647.436 117.102 647.964 116.838C648.504 116.562 649.122 116.424 649.818 116.424C650.898 116.424 651.768 116.682 652.428 117.198C653.1 117.714 653.52 118.518 653.688 119.61H652.59ZM661.625 123.084C661.793 123.888 662.093 124.458 662.525 124.794C662.969 125.118 663.599 125.28 664.415 125.28C664.811 125.28 665.153 125.232 665.441 125.136C665.729 125.04 665.963 124.914 666.143 124.758C666.335 124.59 666.479 124.404 666.575 124.2C666.671 123.996 666.719 123.78 666.719 123.552C666.719 123.096 666.569 122.76 666.269 122.544C665.981 122.316 665.615 122.142 665.171 122.022C664.727 121.89 664.247 121.782 663.731 121.698C663.215 121.602 662.735 121.464 662.291 121.284C661.847 121.104 661.475 120.846 661.175 120.51C660.887 120.174 660.743 119.7 660.743 119.088C660.743 118.308 661.025 117.672 661.589 117.18C662.165 116.676 662.975 116.424 664.019 116.424C665.027 116.424 665.843 116.652 666.467 117.108C667.103 117.552 667.487 118.302 667.619 119.358H666.521C666.425 118.638 666.149 118.134 665.693 117.846C665.249 117.546 664.685 117.396 664.001 117.396C663.317 117.396 662.795 117.546 662.435 117.846C662.075 118.134 661.895 118.518 661.895 118.998C661.895 119.418 662.039 119.742 662.327 119.97C662.627 120.186 662.999 120.366 663.443 120.51C663.887 120.642 664.367 120.762 664.883 120.87C665.399 120.978 665.879 121.134 666.323 121.338C666.767 121.53 667.133 121.794 667.421 122.13C667.721 122.466 667.871 122.934 667.871 123.534C667.871 123.978 667.775 124.374 667.583 124.722C667.391 125.058 667.127 125.34 666.791 125.568C666.455 125.796 666.053 125.964 665.585 126.072C665.129 126.192 664.625 126.252 664.073 126.252C663.521 126.252 663.029 126.168 662.597 126C662.177 125.844 661.817 125.622 661.517 125.334C661.217 125.046 660.983 124.71 660.815 124.326C660.647 123.942 660.551 123.528 660.527 123.084H661.625ZM676.601 119.61C676.409 118.914 676.079 118.374 675.611 117.99C675.143 117.594 674.549 117.396 673.829 117.396C673.277 117.396 672.803 117.51 672.407 117.738C672.011 117.966 671.687 118.272 671.435 118.656C671.183 119.028 670.997 119.454 670.877 119.934C670.757 120.402 670.697 120.876 670.697 121.356C670.697 121.848 670.751 122.328 670.859 122.796C670.979 123.264 671.165 123.684 671.417 124.056C671.669 124.428 671.993 124.728 672.389 124.956C672.785 125.172 673.265 125.28 673.829 125.28C674.633 125.28 675.275 125.058 675.755 124.614C676.247 124.17 676.559 123.558 676.691 122.778H677.843C677.747 123.294 677.591 123.768 677.375 124.2C677.171 124.62 676.901 124.986 676.565 125.298C676.241 125.598 675.851 125.832 675.395 126C674.939 126.168 674.417 126.252 673.829 126.252C673.085 126.252 672.443 126.126 671.903 125.874C671.363 125.622 670.919 125.28 670.571 124.848C670.223 124.404 669.965 123.882 669.797 123.282C669.629 122.682 669.545 122.04 669.545 121.356C669.545 120.708 669.635 120.09 669.815 119.502C670.007 118.902 670.283 118.374 670.643 117.918C671.003 117.462 671.447 117.102 671.975 116.838C672.515 116.562 673.133 116.424 673.829 116.424C674.909 116.424 675.779 116.682 676.439 117.198C677.111 117.714 677.531 118.518 677.699 119.61H676.601ZM679.997 126V113.04H681.077V117.972C681.509 117.516 681.953 117.144 682.409 116.856C682.877 116.568 683.435 116.424 684.083 116.424C684.659 116.424 685.193 116.526 685.685 116.73C686.177 116.922 686.591 117.264 686.927 117.756C687.155 118.092 687.287 118.44 687.323 118.8C687.371 119.148 687.395 119.514 687.395 119.898V126H686.315V119.916C686.315 119.076 686.129 118.446 685.757 118.026C685.385 117.606 684.767 117.396 683.903 117.396C683.567 117.396 683.261 117.45 682.985 117.558C682.709 117.654 682.457 117.786 682.229 117.954C682.013 118.122 681.827 118.314 681.671 118.53C681.515 118.746 681.395 118.974 681.311 119.214C681.203 119.514 681.137 119.802 681.113 120.078C681.089 120.354 681.077 120.654 681.077 120.978V126H679.997ZM693.707 126.252C693.107 126.24 692.543 126.132 692.015 125.928C691.499 125.724 691.043 125.418 690.647 125.01C690.263 124.602 689.957 124.092 689.729 123.48C689.501 122.868 689.387 122.154 689.387 121.338C689.387 120.654 689.477 120.018 689.657 119.43C689.837 118.83 690.107 118.308 690.467 117.864C690.827 117.42 691.277 117.072 691.817 116.82C692.357 116.556 692.987 116.424 693.707 116.424C694.439 116.424 695.075 116.556 695.615 116.82C696.155 117.072 696.605 117.42 696.965 117.864C697.325 118.296 697.589 118.812 697.757 119.412C697.937 120.012 698.027 120.654 698.027 121.338C698.027 122.082 697.925 122.754 697.721 123.354C697.517 123.954 697.223 124.47 696.839 124.902C696.467 125.334 696.011 125.67 695.471 125.91C694.943 126.138 694.355 126.252 693.707 126.252ZM696.875 121.338C696.875 120.786 696.815 120.27 696.695 119.79C696.575 119.31 696.389 118.896 696.137 118.548C695.885 118.188 695.561 117.906 695.165 117.702C694.769 117.498 694.283 117.396 693.707 117.396C693.143 117.396 692.657 117.51 692.249 117.738C691.853 117.954 691.529 118.248 691.277 118.62C691.025 118.98 690.839 119.4 690.719 119.88C690.599 120.348 690.539 120.834 690.539 121.338C690.539 121.914 690.605 122.448 690.737 122.94C690.881 123.42 691.085 123.834 691.349 124.182C691.613 124.53 691.943 124.8 692.339 124.992C692.735 125.184 693.191 125.28 693.707 125.28C694.271 125.28 694.751 125.172 695.147 124.956C695.555 124.728 695.885 124.428 696.137 124.056C696.389 123.684 696.575 123.264 696.695 122.796C696.815 122.328 696.875 121.842 696.875 121.338ZM703.709 126.252C703.109 126.24 702.545 126.132 702.017 125.928C701.501 125.724 701.045 125.418 700.649 125.01C700.265 124.602 699.959 124.092 699.731 123.48C699.503 122.868 699.389 122.154 699.389 121.338C699.389 120.654 699.479 120.018 699.659 119.43C699.839 118.83 700.109 118.308 700.469 117.864C700.829 117.42 701.279 117.072 701.819 116.82C702.359 116.556 702.989 116.424 703.709 116.424C704.441 116.424 705.077 116.556 705.617 116.82C706.157 117.072 706.607 117.42 706.967 117.864C707.327 118.296 707.591 118.812 707.759 119.412C707.939 120.012 708.029 120.654 708.029 121.338C708.029 122.082 707.927 122.754 707.723 123.354C707.519 123.954 707.225 124.47 706.841 124.902C706.469 125.334 706.013 125.67 705.473 125.91C704.945 126.138 704.357 126.252 703.709 126.252ZM706.877 121.338C706.877 120.786 706.817 120.27 706.697 119.79C706.577 119.31 706.391 118.896 706.139 118.548C705.887 118.188 705.563 117.906 705.167 117.702C704.771 117.498 704.285 117.396 703.709 117.396C703.145 117.396 702.659 117.51 702.251 117.738C701.855 117.954 701.531 118.248 701.279 118.62C701.027 118.98 700.841 119.4 700.721 119.88C700.601 120.348 700.541 120.834 700.541 121.338C700.541 121.914 700.607 122.448 700.739 122.94C700.883 123.42 701.087 123.834 701.351 124.182C701.615 124.53 701.945 124.8 702.341 124.992C702.737 125.184 703.193 125.28 703.709 125.28C704.273 125.28 704.753 125.172 705.149 124.956C705.557 124.728 705.887 124.428 706.139 124.056C706.391 123.684 706.577 123.264 706.697 122.796C706.817 122.328 706.877 121.842 706.877 121.338ZM710.165 126V113.04H711.245V126H710.165ZM714.623 123.084C714.791 123.888 715.091 124.458 715.523 124.794C715.967 125.118 716.597 125.28 717.413 125.28C717.809 125.28 718.151 125.232 718.439 125.136C718.727 125.04 718.961 124.914 719.141 124.758C719.333 124.59 719.477 124.404 719.573 124.2C719.669 123.996 719.717 123.78 719.717 123.552C719.717 123.096 719.567 122.76 719.267 122.544C718.979 122.316 718.613 122.142 718.169 122.022C717.725 121.89 717.245 121.782 716.729 121.698C716.213 121.602 715.733 121.464 715.289 121.284C714.845 121.104 714.473 120.846 714.173 120.51C713.885 120.174 713.741 119.7 713.741 119.088C713.741 118.308 714.023 117.672 714.587 117.18C715.163 116.676 715.973 116.424 717.017 116.424C718.025 116.424 718.841 116.652 719.465 117.108C720.101 117.552 720.485 118.302 720.617 119.358H719.519C719.423 118.638 719.147 118.134 718.691 117.846C718.247 117.546 717.683 117.396 716.999 117.396C716.315 117.396 715.793 117.546 715.433 117.846C715.073 118.134 714.893 118.518 714.893 118.998C714.893 119.418 715.037 119.742 715.325 119.97C715.625 120.186 715.997 120.366 716.441 120.51C716.885 120.642 717.365 120.762 717.881 120.87C718.397 120.978 718.877 121.134 719.321 121.338C719.765 121.53 720.131 121.794 720.419 122.13C720.719 122.466 720.869 122.934 720.869 123.534C720.869 123.978 720.773 124.374 720.581 124.722C720.389 125.058 720.125 125.34 719.789 125.568C719.453 125.796 719.051 125.964 718.583 126.072C718.127 126.192 717.623 126.252 717.071 126.252C716.519 126.252 716.027 126.168 715.595 126C715.175 125.844 714.815 125.622 714.515 125.334C714.215 125.046 713.981 124.71 713.813 124.326C713.645 123.942 713.549 123.528 713.525 123.084H714.623ZM734.105 121.104C733.649 121.296 733.187 121.422 732.719 121.482C732.251 121.542 731.783 121.59 731.315 121.626C730.487 121.686 729.839 121.872 729.371 122.184C728.915 122.496 728.687 122.97 728.687 123.606C728.687 123.894 728.741 124.146 728.849 124.362C728.969 124.566 729.119 124.74 729.299 124.884C729.491 125.016 729.707 125.118 729.947 125.19C730.199 125.25 730.451 125.28 730.703 125.28C731.135 125.28 731.555 125.226 731.963 125.118C732.371 125.01 732.731 124.848 733.043 124.632C733.367 124.404 733.625 124.122 733.817 123.786C734.009 123.438 734.105 123.03 734.105 122.562V121.104ZM732.287 120.564C732.491 120.54 732.731 120.504 733.007 120.456C733.295 120.408 733.529 120.342 733.709 120.258C733.889 120.174 733.997 120.036 734.033 119.844C734.081 119.64 734.105 119.454 734.105 119.286C734.105 118.734 733.925 118.284 733.565 117.936C733.217 117.576 732.623 117.396 731.783 117.396C731.411 117.396 731.069 117.432 730.757 117.504C730.445 117.564 730.169 117.678 729.929 117.846C729.701 118.002 729.509 118.218 729.353 118.494C729.209 118.758 729.113 119.094 729.065 119.502H727.967C728.003 118.95 728.129 118.482 728.345 118.098C728.561 117.702 728.837 117.384 729.173 117.144C729.521 116.892 729.917 116.712 730.361 116.604C730.817 116.484 731.297 116.424 731.801 116.424C732.269 116.424 732.707 116.478 733.115 116.586C733.535 116.682 733.895 116.844 734.195 117.072C734.507 117.288 734.747 117.582 734.915 117.954C735.095 118.326 735.185 118.782 735.185 119.322V124.398C735.185 124.818 735.257 125.088 735.401 125.208C735.557 125.316 735.863 125.286 736.319 125.118V125.964C736.235 125.988 736.109 126.024 735.941 126.072C735.785 126.12 735.629 126.144 735.473 126.144C735.305 126.144 735.143 126.126 734.987 126.09C734.807 126.066 734.663 126.012 734.555 125.928C734.447 125.832 734.357 125.724 734.285 125.604C734.225 125.472 734.183 125.334 734.159 125.19C734.135 125.034 734.123 124.872 734.123 124.704C733.667 125.208 733.145 125.592 732.557 125.856C731.969 126.12 731.333 126.252 730.649 126.252C730.241 126.252 729.845 126.198 729.461 126.09C729.089 125.982 728.759 125.814 728.471 125.586C728.183 125.358 727.955 125.082 727.787 124.758C727.619 124.422 727.535 124.026 727.535 123.57C727.535 121.986 728.621 121.05 730.793 120.762L732.287 120.564ZM739.085 126H738.005V116.676H739.085V117.972C739.517 117.516 739.961 117.144 740.417 116.856C740.885 116.568 741.443 116.424 742.091 116.424C742.667 116.424 743.201 116.526 743.693 116.73C744.185 116.922 744.599 117.264 744.935 117.756C745.163 118.092 745.295 118.44 745.331 118.8C745.379 119.148 745.403 119.514 745.403 119.898V126H744.323V119.916C744.323 119.076 744.137 118.446 743.765 118.026C743.393 117.606 742.775 117.396 741.911 117.396C741.575 117.396 741.269 117.45 740.993 117.558C740.717 117.654 740.465 117.786 740.237 117.954C740.021 118.122 739.835 118.314 739.679 118.53C739.523 118.746 739.403 118.974 739.319 119.214C739.211 119.514 739.145 119.802 739.121 120.078C739.097 120.354 739.085 120.654 739.085 120.978V126ZM749.087 126H748.007V116.676H749.087V117.972C749.519 117.516 749.963 117.144 750.419 116.856C750.887 116.568 751.445 116.424 752.093 116.424C752.669 116.424 753.203 116.526 753.695 116.73C754.187 116.922 754.601 117.264 754.937 117.756C755.165 118.092 755.297 118.44 755.333 118.8C755.381 119.148 755.405 119.514 755.405 119.898V126H754.325V119.916C754.325 119.076 754.139 118.446 753.767 118.026C753.395 117.606 752.777 117.396 751.913 117.396C751.577 117.396 751.271 117.45 750.995 117.558C750.719 117.654 750.467 117.786 750.239 117.954C750.023 118.122 749.837 118.314 749.681 118.53C749.525 118.746 749.405 118.974 749.321 119.214C749.213 119.514 749.147 119.802 749.123 120.078C749.099 120.354 749.087 120.654 749.087 120.978V126ZM764.327 116.676H765.407V126H764.327V124.704C764.183 124.872 764.021 125.046 763.841 125.226C763.661 125.406 763.451 125.574 763.211 125.73C762.983 125.874 762.713 125.994 762.401 126.09C762.089 126.198 761.729 126.252 761.321 126.252C760.697 126.252 760.175 126.168 759.755 126C759.335 125.82 758.993 125.574 758.729 125.262C758.477 124.95 758.291 124.59 758.171 124.182C758.063 123.762 758.009 123.306 758.009 122.814V116.676H759.089V122.796C759.089 123.6 759.275 124.218 759.647 124.65C760.019 125.07 760.631 125.28 761.483 125.28C761.927 125.28 762.323 125.196 762.671 125.028C763.031 124.848 763.331 124.602 763.571 124.29C763.811 123.978 763.997 123.606 764.129 123.174C764.261 122.742 764.327 122.268 764.327 121.752V116.676ZM774.113 121.104C773.657 121.296 773.195 121.422 772.727 121.482C772.259 121.542 771.791 121.59 771.323 121.626C770.495 121.686 769.847 121.872 769.379 122.184C768.923 122.496 768.695 122.97 768.695 123.606C768.695 123.894 768.749 124.146 768.857 124.362C768.977 124.566 769.127 124.74 769.307 124.884C769.499 125.016 769.715 125.118 769.955 125.19C770.207 125.25 770.459 125.28 770.711 125.28C771.143 125.28 771.563 125.226 771.971 125.118C772.379 125.01 772.739 124.848 773.051 124.632C773.375 124.404 773.633 124.122 773.825 123.786C774.017 123.438 774.113 123.03 774.113 122.562V121.104ZM772.295 120.564C772.499 120.54 772.739 120.504 773.015 120.456C773.303 120.408 773.537 120.342 773.717 120.258C773.897 120.174 774.005 120.036 774.041 119.844C774.089 119.64 774.113 119.454 774.113 119.286C774.113 118.734 773.933 118.284 773.573 117.936C773.225 117.576 772.631 117.396 771.791 117.396C771.419 117.396 771.077 117.432 770.765 117.504C770.453 117.564 770.177 117.678 769.937 117.846C769.709 118.002 769.517 118.218 769.361 118.494C769.217 118.758 769.121 119.094 769.073 119.502H767.975C768.011 118.95 768.137 118.482 768.353 118.098C768.569 117.702 768.845 117.384 769.181 117.144C769.529 116.892 769.925 116.712 770.369 116.604C770.825 116.484 771.305 116.424 771.809 116.424C772.277 116.424 772.715 116.478 773.123 116.586C773.543 116.682 773.903 116.844 774.203 117.072C774.515 117.288 774.755 117.582 774.923 117.954C775.103 118.326 775.193 118.782 775.193 119.322V124.398C775.193 124.818 775.265 125.088 775.409 125.208C775.565 125.316 775.871 125.286 776.327 125.118V125.964C776.243 125.988 776.117 126.024 775.949 126.072C775.793 126.12 775.637 126.144 775.481 126.144C775.313 126.144 775.151 126.126 774.995 126.09C774.815 126.066 774.671 126.012 774.563 125.928C774.455 125.832 774.365 125.724 774.293 125.604C774.233 125.472 774.191 125.334 774.167 125.19C774.143 125.034 774.131 124.872 774.131 124.704C773.675 125.208 773.153 125.592 772.565 125.856C771.977 126.12 771.341 126.252 770.657 126.252C770.249 126.252 769.853 126.198 769.469 126.09C769.097 125.982 768.767 125.814 768.479 125.586C768.191 125.358 767.963 125.082 767.795 124.758C767.627 124.422 767.543 124.026 767.543 123.57C767.543 121.986 768.629 121.05 770.801 120.762L772.295 120.564ZM778.175 126V113.04H779.255V126H778.175ZM793.763 120.69C793.763 120.234 793.697 119.808 793.565 119.412C793.445 119.004 793.259 118.656 793.007 118.368C792.767 118.068 792.461 117.834 792.089 117.666C791.717 117.486 791.291 117.396 790.811 117.396C790.331 117.396 789.905 117.486 789.533 117.666C789.173 117.846 788.861 118.086 788.597 118.386C788.345 118.686 788.141 119.034 787.985 119.43C787.829 119.826 787.727 120.246 787.679 120.69H793.763ZM787.679 121.59C787.679 122.094 787.745 122.574 787.877 123.03C788.009 123.474 788.201 123.864 788.453 124.2C788.717 124.524 789.047 124.788 789.443 124.992C789.839 125.184 790.295 125.28 790.811 125.28C791.519 125.28 792.125 125.094 792.629 124.722C793.133 124.35 793.469 123.822 793.637 123.138H794.843C794.711 123.582 794.537 123.996 794.321 124.38C794.105 124.752 793.835 125.082 793.511 125.37C793.187 125.646 792.803 125.862 792.359 126.018C791.915 126.174 791.399 126.252 790.811 126.252C790.067 126.252 789.425 126.126 788.885 125.874C788.345 125.622 787.901 125.28 787.553 124.848C787.205 124.404 786.947 123.888 786.779 123.3C786.611 122.7 786.527 122.058 786.527 121.374C786.527 120.69 786.623 120.048 786.815 119.448C787.019 118.848 787.301 118.326 787.661 117.882C788.033 117.426 788.483 117.072 789.011 116.82C789.539 116.556 790.139 116.424 790.811 116.424C792.095 116.424 793.103 116.868 793.835 117.756C794.567 118.632 794.927 119.91 794.915 121.59H787.679ZM800.255 121.968L797.357 126H796.043L799.625 121.176L796.331 116.676H797.663L800.237 120.384L802.883 116.676H804.251L800.885 121.176L804.377 126H803.081L800.255 121.968ZM807.221 121.374C807.221 121.902 807.293 122.406 807.437 122.886C807.581 123.354 807.785 123.768 808.049 124.128C808.325 124.476 808.655 124.758 809.039 124.974C809.435 125.178 809.879 125.28 810.371 125.28C810.923 125.28 811.403 125.172 811.811 124.956C812.231 124.728 812.573 124.422 812.837 124.038C813.101 123.654 813.293 123.21 813.413 122.706C813.533 122.19 813.581 121.638 813.557 121.05C813.557 120.462 813.473 119.946 813.305 119.502C813.149 119.046 812.927 118.662 812.639 118.35C812.351 118.038 812.015 117.804 811.631 117.648C811.247 117.48 810.827 117.396 810.371 117.396C809.867 117.396 809.417 117.498 809.021 117.702C808.625 117.906 808.295 118.188 808.031 118.548C807.767 118.896 807.563 119.316 807.419 119.808C807.287 120.288 807.221 120.81 807.221 121.374ZM807.221 129.672H806.141V116.676H807.221V118.314H807.257C807.413 118.014 807.611 117.744 807.851 117.504C808.103 117.264 808.373 117.066 808.661 116.91C808.961 116.754 809.267 116.634 809.579 116.55C809.891 116.466 810.197 116.424 810.497 116.424C811.253 116.424 811.895 116.55 812.423 116.802C812.951 117.054 813.383 117.402 813.719 117.846C814.067 118.278 814.319 118.794 814.475 119.394C814.631 119.994 814.709 120.636 814.709 121.32C814.709 121.968 814.625 122.592 814.457 123.192C814.289 123.792 814.031 124.32 813.683 124.776C813.347 125.22 812.915 125.58 812.387 125.856C811.871 126.12 811.259 126.252 810.551 126.252C809.891 126.252 809.255 126.108 808.643 125.82C808.043 125.52 807.569 125.082 807.221 124.506V129.672ZM823.769 120.69C823.769 120.234 823.703 119.808 823.571 119.412C823.451 119.004 823.265 118.656 823.013 118.368C822.773 118.068 822.467 117.834 822.095 117.666C821.723 117.486 821.297 117.396 820.817 117.396C820.337 117.396 819.911 117.486 819.539 117.666C819.179 117.846 818.867 118.086 818.603 118.386C818.351 118.686 818.147 119.034 817.991 119.43C817.835 119.826 817.733 120.246 817.685 120.69H823.769ZM817.685 121.59C817.685 122.094 817.751 122.574 817.883 123.03C818.015 123.474 818.207 123.864 818.459 124.2C818.723 124.524 819.053 124.788 819.449 124.992C819.845 125.184 820.301 125.28 820.817 125.28C821.525 125.28 822.131 125.094 822.635 124.722C823.139 124.35 823.475 123.822 823.643 123.138H824.849C824.717 123.582 824.543 123.996 824.327 124.38C824.111 124.752 823.841 125.082 823.517 125.37C823.193 125.646 822.809 125.862 822.365 126.018C821.921 126.174 821.405 126.252 820.817 126.252C820.073 126.252 819.431 126.126 818.891 125.874C818.351 125.622 817.907 125.28 817.559 124.848C817.211 124.404 816.953 123.888 816.785 123.3C816.617 122.7 816.533 122.058 816.533 121.374C816.533 120.69 816.629 120.048 816.821 119.448C817.025 118.848 817.307 118.326 817.667 117.882C818.039 117.426 818.489 117.072 819.017 116.82C819.545 116.556 820.145 116.424 820.817 116.424C822.101 116.424 823.109 116.868 823.841 117.756C824.573 118.632 824.933 119.91 824.921 121.59H817.685ZM828.101 126H827.021V116.676H828.101V117.972C828.533 117.516 828.977 117.144 829.433 116.856C829.901 116.568 830.459 116.424 831.107 116.424C831.683 116.424 832.217 116.526 832.709 116.73C833.201 116.922 833.615 117.264 833.951 117.756C834.179 118.092 834.311 118.44 834.347 118.8C834.395 119.148 834.419 119.514 834.419 119.898V126H833.339V119.916C833.339 119.076 833.153 118.446 832.781 118.026C832.409 117.606 831.791 117.396 830.927 117.396C830.591 117.396 830.285 117.45 830.009 117.558C829.733 117.654 829.481 117.786 829.253 117.954C829.037 118.122 828.851 118.314 828.695 118.53C828.539 118.746 828.419 118.974 828.335 119.214C828.227 119.514 828.161 119.802 828.137 120.078C828.113 120.354 828.101 120.654 828.101 120.978V126ZM844.223 121.302C844.223 120.774 844.151 120.276 844.007 119.808C843.863 119.328 843.653 118.914 843.377 118.566C843.113 118.206 842.783 117.924 842.387 117.72C842.003 117.504 841.565 117.396 841.073 117.396C840.509 117.396 840.023 117.51 839.615 117.738C839.207 117.954 838.871 118.254 838.607 118.638C838.343 119.022 838.151 119.472 838.031 119.988C837.911 120.492 837.863 121.038 837.887 121.626C837.887 122.214 837.965 122.736 838.121 123.192C838.289 123.636 838.517 124.014 838.805 124.326C839.093 124.638 839.429 124.878 839.813 125.046C840.197 125.202 840.617 125.28 841.073 125.28C841.577 125.28 842.027 125.178 842.423 124.974C842.819 124.77 843.149 124.494 843.413 124.146C843.677 123.786 843.875 123.366 844.007 122.886C844.151 122.394 844.223 121.866 844.223 121.302ZM844.223 113.04H845.303V126H844.223V124.362H844.187C844.031 124.674 843.827 124.95 843.575 125.19C843.335 125.418 843.065 125.61 842.765 125.766C842.477 125.922 842.177 126.042 841.865 126.126C841.553 126.21 841.247 126.252 840.947 126.252C840.191 126.252 839.549 126.126 839.021 125.874C838.493 125.622 838.055 125.28 837.707 124.848C837.371 124.404 837.125 123.882 836.969 123.282C836.813 122.682 836.735 122.04 836.735 121.356C836.735 120.708 836.819 120.084 836.987 119.484C837.155 118.884 837.407 118.362 837.743 117.918C838.091 117.462 838.523 117.102 839.039 116.838C839.567 116.562 840.185 116.424 840.893 116.424C841.553 116.424 842.183 116.574 842.783 116.874C843.395 117.162 843.875 117.594 844.223 118.17V113.04ZM847.872 126V116.676H848.952V126H847.872ZM847.818 114.642V113.04H849.006V114.642H847.818ZM854.976 126.036C854.844 126.06 854.67 126.102 854.454 126.162C854.238 126.222 853.998 126.252 853.734 126.252C853.194 126.252 852.78 126.12 852.492 125.856C852.216 125.58 852.078 125.094 852.078 124.398V117.576H850.764V116.676H852.078V114.084H853.158V116.676H854.904V117.576H853.158V123.966C853.158 124.194 853.164 124.392 853.176 124.56C853.188 124.728 853.224 124.866 853.284 124.974C853.344 125.082 853.434 125.16 853.554 125.208C853.686 125.256 853.866 125.28 854.094 125.28C854.238 125.28 854.382 125.268 854.526 125.244C854.682 125.22 854.832 125.19 854.976 125.154V126.036ZM863.028 116.676H864.108V126H863.028V124.704C862.884 124.872 862.722 125.046 862.542 125.226C862.362 125.406 862.152 125.574 861.912 125.73C861.684 125.874 861.414 125.994 861.102 126.09C860.79 126.198 860.43 126.252 860.022 126.252C859.398 126.252 858.876 126.168 858.456 126C858.036 125.82 857.694 125.574 857.43 125.262C857.178 124.95 856.992 124.59 856.872 124.182C856.764 123.762 856.71 123.306 856.71 122.814V116.676H857.79V122.796C857.79 123.6 857.976 124.218 858.348 124.65C858.72 125.07 859.332 125.28 860.184 125.28C860.628 125.28 861.024 125.196 861.372 125.028C861.732 124.848 862.032 124.602 862.272 124.29C862.512 123.978 862.698 123.606 862.83 123.174C862.962 122.742 863.028 122.268 863.028 121.752V116.676ZM867.846 126H866.766V116.676H867.846V118.422H867.882C868.182 117.678 868.566 117.162 869.034 116.874C869.514 116.574 870.144 116.424 870.924 116.424V117.594C870.312 117.582 869.808 117.678 869.412 117.882C869.016 118.086 868.698 118.362 868.458 118.71C868.23 119.058 868.068 119.472 867.972 119.952C867.888 120.42 867.846 120.912 867.846 121.428V126ZM879.14 120.69C879.14 120.234 879.074 119.808 878.942 119.412C878.822 119.004 878.636 118.656 878.384 118.368C878.144 118.068 877.838 117.834 877.466 117.666C877.094 117.486 876.668 117.396 876.188 117.396C875.708 117.396 875.282 117.486 874.91 117.666C874.55 117.846 874.238 118.086 873.974 118.386C873.722 118.686 873.518 119.034 873.362 119.43C873.206 119.826 873.104 120.246 873.056 120.69H879.14ZM873.056 121.59C873.056 122.094 873.122 122.574 873.254 123.03C873.386 123.474 873.578 123.864 873.83 124.2C874.094 124.524 874.424 124.788 874.82 124.992C875.216 125.184 875.672 125.28 876.188 125.28C876.896 125.28 877.502 125.094 878.006 124.722C878.51 124.35 878.846 123.822 879.014 123.138H880.22C880.088 123.582 879.914 123.996 879.698 124.38C879.482 124.752 879.212 125.082 878.888 125.37C878.564 125.646 878.18 125.862 877.736 126.018C877.292 126.174 876.776 126.252 876.188 126.252C875.444 126.252 874.802 126.126 874.262 125.874C873.722 125.622 873.278 125.28 872.93 124.848C872.582 124.404 872.324 123.888 872.156 123.3C871.988 122.7 871.904 122.058 871.904 121.374C871.904 120.69 872 120.048 872.192 119.448C872.396 118.848 872.678 118.326 873.038 117.882C873.41 117.426 873.86 117.072 874.388 116.82C874.916 116.556 875.516 116.424 876.188 116.424C877.472 116.424 878.48 116.868 879.212 117.756C879.944 118.632 880.304 119.91 880.292 121.59H873.056ZM882.932 126V124.416H884.246V126H882.932ZM882.932 118.728V117.144H884.246V118.728H882.932ZM566.59 135.282C566.254 135.282 565.936 135.336 565.636 135.444C565.348 135.552 565.09 135.708 564.862 135.912C564.646 136.104 564.472 136.338 564.34 136.614C564.22 136.89 564.16 137.196 564.16 137.532C564.16 137.928 564.22 138.258 564.34 138.522C564.472 138.786 564.646 139.008 564.862 139.188C565.09 139.356 565.348 139.494 565.636 139.602C565.936 139.71 566.254 139.812 566.59 139.908V135.282ZM567.436 146.37C567.808 146.37 568.156 146.304 568.48 146.172C568.816 146.04 569.11 145.86 569.362 145.632C569.614 145.404 569.812 145.134 569.956 144.822C570.1 144.498 570.172 144.144 570.172 143.76C570.172 143.316 570.1 142.95 569.956 142.662C569.812 142.362 569.614 142.122 569.362 141.942C569.122 141.75 568.834 141.6 568.498 141.492C568.174 141.384 567.82 141.288 567.436 141.204V146.37ZM567.436 148.71H566.608V147.342C565.588 147.282 564.742 147 564.07 146.496C563.41 145.992 562.972 145.236 562.756 144.228C562.732 144.072 562.714 143.922 562.702 143.778C562.69 143.634 562.678 143.49 562.666 143.346H563.836C563.836 143.754 563.902 144.138 564.034 144.498C564.166 144.846 564.352 145.158 564.592 145.434C564.844 145.698 565.138 145.914 565.474 146.082C565.81 146.25 566.182 146.346 566.59 146.37V141.024C566.098 140.904 565.63 140.766 565.186 140.61C564.754 140.442 564.376 140.232 564.052 139.98C563.728 139.716 563.47 139.392 563.278 139.008C563.098 138.624 563.008 138.15 563.008 137.586C563.008 137.082 563.104 136.626 563.296 136.218C563.488 135.81 563.746 135.462 564.07 135.174C564.406 134.886 564.79 134.67 565.222 134.526C565.654 134.37 566.116 134.298 566.608 134.31V133.212H567.436V134.31C567.928 134.31 568.384 134.382 568.804 134.526C569.224 134.658 569.59 134.862 569.902 135.138C570.214 135.402 570.46 135.732 570.64 136.128C570.82 136.524 570.922 136.974 570.946 137.478H569.776C569.776 137.154 569.71 136.86 569.578 136.596C569.458 136.32 569.29 136.086 569.074 135.894C568.87 135.702 568.624 135.552 568.336 135.444C568.06 135.336 567.76 135.282 567.436 135.282V140.07C568.024 140.214 568.558 140.37 569.038 140.538C569.518 140.706 569.926 140.928 570.262 141.204C570.598 141.48 570.856 141.84 571.036 142.284C571.228 142.716 571.324 143.274 571.324 143.958C571.324 144.486 571.21 144.96 570.982 145.38C570.754 145.788 570.454 146.136 570.082 146.424C569.722 146.712 569.308 146.934 568.84 147.09C568.372 147.246 567.904 147.33 567.436 147.342V148.71ZM579.868 137.424C579.736 136.776 579.472 136.26 579.076 135.876C578.68 135.48 578.14 135.282 577.456 135.282C576.676 135.282 576.058 135.468 575.602 135.84C575.158 136.212 574.816 136.686 574.576 137.262C574.336 137.826 574.174 138.444 574.09 139.116C574.006 139.788 573.94 140.424 573.892 141.024C574.072 140.784 574.258 140.544 574.45 140.304C574.654 140.064 574.882 139.854 575.134 139.674C575.386 139.482 575.68 139.332 576.016 139.224C576.352 139.104 576.754 139.044 577.222 139.044C578.506 139.044 579.496 139.41 580.192 140.142C580.9 140.862 581.254 141.858 581.254 143.13C581.254 144.414 580.9 145.422 580.192 146.154C579.484 146.886 578.482 147.252 577.186 147.252C576.55 147.252 575.962 147.15 575.422 146.946C574.882 146.73 574.414 146.382 574.018 145.902C573.622 145.422 573.31 144.798 573.082 144.03C572.854 143.25 572.74 142.302 572.74 141.186C572.74 140.43 572.806 139.65 572.938 138.846C573.07 138.03 573.304 137.286 573.64 136.614C573.988 135.942 574.456 135.39 575.044 134.958C575.644 134.526 576.412 134.31 577.348 134.31C578.356 134.31 579.196 134.574 579.868 135.102C580.54 135.63 580.936 136.404 581.056 137.424H579.868ZM577.186 140.016C576.742 140.016 576.34 140.1 575.98 140.268C575.632 140.436 575.332 140.664 575.08 140.952C574.84 141.24 574.654 141.576 574.522 141.96C574.39 142.332 574.324 142.734 574.324 143.166C574.324 143.526 574.372 143.892 574.468 144.264C574.576 144.624 574.744 144.954 574.972 145.254C575.212 145.554 575.512 145.8 575.872 145.992C576.232 146.184 576.676 146.28 577.204 146.28C577.744 146.28 578.194 146.19 578.554 146.01C578.926 145.818 579.226 145.572 579.454 145.272C579.682 144.96 579.844 144.618 579.94 144.246C580.048 143.862 580.102 143.478 580.102 143.094C580.102 142.11 579.862 141.354 579.382 140.826C578.914 140.286 578.182 140.016 577.186 140.016ZM589.87 137.424C589.738 136.776 589.474 136.26 589.078 135.876C588.682 135.48 588.142 135.282 587.458 135.282C586.678 135.282 586.06 135.468 585.604 135.84C585.16 136.212 584.818 136.686 584.578 137.262C584.338 137.826 584.176 138.444 584.092 139.116C584.008 139.788 583.942 140.424 583.894 141.024C584.074 140.784 584.26 140.544 584.452 140.304C584.656 140.064 584.884 139.854 585.136 139.674C585.388 139.482 585.682 139.332 586.018 139.224C586.354 139.104 586.756 139.044 587.224 139.044C588.508 139.044 589.498 139.41 590.194 140.142C590.902 140.862 591.256 141.858 591.256 143.13C591.256 144.414 590.902 145.422 590.194 146.154C589.486 146.886 588.484 147.252 587.188 147.252C586.552 147.252 585.964 147.15 585.424 146.946C584.884 146.73 584.416 146.382 584.02 145.902C583.624 145.422 583.312 144.798 583.084 144.03C582.856 143.25 582.742 142.302 582.742 141.186C582.742 140.43 582.808 139.65 582.94 138.846C583.072 138.03 583.306 137.286 583.642 136.614C583.99 135.942 584.458 135.39 585.046 134.958C585.646 134.526 586.414 134.31 587.35 134.31C588.358 134.31 589.198 134.574 589.87 135.102C590.542 135.63 590.938 136.404 591.058 137.424H589.87ZM587.188 140.016C586.744 140.016 586.342 140.1 585.982 140.268C585.634 140.436 585.334 140.664 585.082 140.952C584.842 141.24 584.656 141.576 584.524 141.96C584.392 142.332 584.326 142.734 584.326 143.166C584.326 143.526 584.374 143.892 584.47 144.264C584.578 144.624 584.746 144.954 584.974 145.254C585.214 145.554 585.514 145.8 585.874 145.992C586.234 146.184 586.678 146.28 587.206 146.28C587.746 146.28 588.196 146.19 588.556 146.01C588.928 145.818 589.228 145.572 589.456 145.272C589.684 144.96 589.846 144.618 589.942 144.246C590.05 143.862 590.104 143.478 590.104 143.094C590.104 142.11 589.864 141.354 589.384 140.826C588.916 140.286 588.184 140.016 587.188 140.016ZM599.872 137.424C599.74 136.776 599.476 136.26 599.08 135.876C598.684 135.48 598.144 135.282 597.46 135.282C596.68 135.282 596.062 135.468 595.606 135.84C595.162 136.212 594.82 136.686 594.58 137.262C594.34 137.826 594.178 138.444 594.094 139.116C594.01 139.788 593.944 140.424 593.896 141.024C594.076 140.784 594.262 140.544 594.454 140.304C594.658 140.064 594.886 139.854 595.138 139.674C595.39 139.482 595.684 139.332 596.02 139.224C596.356 139.104 596.758 139.044 597.226 139.044C598.51 139.044 599.5 139.41 600.196 140.142C600.904 140.862 601.258 141.858 601.258 143.13C601.258 144.414 600.904 145.422 600.196 146.154C599.488 146.886 598.486 147.252 597.19 147.252C596.554 147.252 595.966 147.15 595.426 146.946C594.886 146.73 594.418 146.382 594.022 145.902C593.626 145.422 593.314 144.798 593.086 144.03C592.858 143.25 592.744 142.302 592.744 141.186C592.744 140.43 592.81 139.65 592.942 138.846C593.074 138.03 593.308 137.286 593.644 136.614C593.992 135.942 594.46 135.39 595.048 134.958C595.648 134.526 596.416 134.31 597.352 134.31C598.36 134.31 599.2 134.574 599.872 135.102C600.544 135.63 600.94 136.404 601.06 137.424H599.872ZM597.19 140.016C596.746 140.016 596.344 140.1 595.984 140.268C595.636 140.436 595.336 140.664 595.084 140.952C594.844 141.24 594.658 141.576 594.526 141.96C594.394 142.332 594.328 142.734 594.328 143.166C594.328 143.526 594.376 143.892 594.472 144.264C594.58 144.624 594.748 144.954 594.976 145.254C595.216 145.554 595.516 145.8 595.876 145.992C596.236 146.184 596.68 146.28 597.208 146.28C597.748 146.28 598.198 146.19 598.558 146.01C598.93 145.818 599.23 145.572 599.458 145.272C599.686 144.96 599.848 144.618 599.944 144.246C600.052 143.862 600.106 143.478 600.106 143.094C600.106 142.11 599.866 141.354 599.386 140.826C598.918 140.286 598.186 140.016 597.19 140.016ZM603.844 147V145.416H605.158V147H603.844ZM609.142 144.21C609.274 144.894 609.538 145.41 609.934 145.758C610.342 146.106 610.9 146.28 611.608 146.28C612.364 146.28 612.964 146.094 613.408 145.722C613.864 145.35 614.212 144.882 614.452 144.318C614.704 143.754 614.872 143.148 614.956 142.5C615.052 141.84 615.112 141.222 615.136 140.646L615.1 140.61C614.716 141.258 614.236 141.75 613.66 142.086C613.096 142.422 612.436 142.59 611.68 142.59C611.08 142.59 610.54 142.494 610.06 142.302C609.58 142.11 609.166 141.834 608.818 141.474C608.482 141.114 608.218 140.682 608.026 140.178C607.846 139.674 607.756 139.116 607.756 138.504C607.756 137.904 607.84 137.352 608.008 136.848C608.176 136.332 608.428 135.888 608.764 135.516C609.1 135.132 609.52 134.838 610.024 134.634C610.54 134.418 611.146 134.31 611.842 134.31C612.694 134.31 613.402 134.478 613.966 134.814C614.542 135.15 614.998 135.606 615.334 136.182C615.682 136.758 615.928 137.436 616.072 138.216C616.216 138.996 616.288 139.83 616.288 140.718C616.288 141.798 616.174 142.746 615.946 143.562C615.718 144.366 615.394 145.044 614.974 145.596C614.566 146.148 614.08 146.562 613.516 146.838C612.952 147.114 612.334 147.252 611.662 147.252C611.17 147.252 610.708 147.192 610.276 147.072C609.844 146.952 609.466 146.766 609.142 146.514C608.818 146.262 608.554 145.944 608.35 145.56C608.146 145.176 608.02 144.726 607.972 144.21H609.142ZM611.842 135.282C610.87 135.306 610.138 135.606 609.646 136.182C609.154 136.758 608.908 137.544 608.908 138.54C608.908 139.512 609.16 140.268 609.664 140.808C610.18 141.348 610.906 141.618 611.842 141.618C612.286 141.618 612.682 141.534 613.03 141.366C613.39 141.198 613.69 140.97 613.93 140.682C614.182 140.394 614.368 140.064 614.488 139.692C614.62 139.308 614.686 138.9 614.686 138.468C614.686 137.532 614.434 136.776 613.93 136.2C613.426 135.612 612.73 135.306 611.842 135.282ZM624.531 142.302C624.531 142.866 624.597 143.394 624.729 143.886C624.873 144.366 625.077 144.786 625.341 145.146C625.605 145.494 625.935 145.77 626.331 145.974C626.727 146.178 627.177 146.28 627.681 146.28C628.137 146.28 628.557 146.202 628.941 146.046C629.325 145.878 629.661 145.638 629.949 145.326C630.237 145.014 630.459 144.636 630.615 144.192C630.783 143.736 630.867 143.214 630.867 142.626C630.891 142.038 630.843 141.492 630.723 140.988C630.603 140.472 630.411 140.022 630.147 139.638C629.883 139.254 629.541 138.954 629.121 138.738C628.713 138.51 628.233 138.396 627.681 138.396C627.189 138.396 626.745 138.504 626.349 138.72C625.965 138.924 625.635 139.206 625.359 139.566C625.095 139.914 624.891 140.328 624.747 140.808C624.603 141.276 624.531 141.774 624.531 142.302ZM624.531 147H623.451V134.04H624.531V139.17C624.879 138.594 625.353 138.162 625.953 137.874C626.565 137.574 627.201 137.424 627.861 137.424C628.569 137.424 629.181 137.562 629.697 137.838C630.225 138.102 630.657 138.462 630.993 138.918C631.341 139.362 631.599 139.884 631.767 140.484C631.935 141.084 632.019 141.708 632.019 142.356C632.019 143.04 631.941 143.682 631.785 144.282C631.629 144.882 631.377 145.404 631.029 145.848C630.693 146.28 630.261 146.622 629.733 146.874C629.205 147.126 628.563 147.252 627.807 147.252C627.507 147.252 627.201 147.21 626.889 147.126C626.577 147.042 626.271 146.922 625.971 146.766C625.683 146.61 625.413 146.418 625.161 146.19C624.921 145.95 624.723 145.674 624.567 145.362H624.531V147ZM635.409 147H634.329V137.676H635.409V138.972C635.841 138.516 636.285 138.144 636.741 137.856C637.209 137.568 637.767 137.424 638.415 137.424C638.991 137.424 639.525 137.526 640.017 137.73C640.509 137.922 640.923 138.264 641.259 138.756C641.487 139.092 641.619 139.44 641.655 139.8C641.703 140.148 641.727 140.514 641.727 140.898V147H640.647V140.916C640.647 140.076 640.461 139.446 640.089 139.026C639.717 138.606 639.099 138.396 638.235 138.396C637.899 138.396 637.593 138.45 637.317 138.558C637.041 138.654 636.789 138.786 636.561 138.954C636.345 139.122 636.159 139.314 636.003 139.53C635.847 139.746 635.727 139.974 635.643 140.214C635.535 140.514 635.469 140.802 635.445 141.078C635.421 141.354 635.409 141.654 635.409 141.978V147Z" fill="black"/>
<circle cx="378" cy="120" r="117" stroke="#D9D9D9" stroke-width="6"/>
<line x1="494" y1="121.5" x2="539" y2="121.5" stroke="#D9D9D9" stroke-width="5"/>
<circle cx="544" cy="120" r="10" fill="#D9D9D9"/>
<circle cx="378" cy="120" r="99.34" transform="rotate(-90 378 120)" fill="#386667" stroke="#D9D9D9" stroke-width="1.32"/>
<mask id="path-7-inside-1_183_4097" fill="white">
<path d="M378 20C399.118 20 419.694 26.6855 436.779 39.0983C453.863 51.5111 466.58 69.0139 473.106 89.0983C479.631 109.183 479.631 130.817 473.106 150.902C466.58 170.986 453.863 188.489 436.779 200.902L378 120L378 20Z"/>
</mask>
<path d="M378 20C399.118 20 419.694 26.6855 436.779 39.0983C453.863 51.5111 466.58 69.0139 473.106 89.0983C479.631 109.183 479.631 130.817 473.106 150.902C466.58 170.986 453.863 188.489 436.779 200.902L378 120L378 20Z" fill="#D9D9D9" stroke="#D9D9D9" stroke-width="2.64" mask="url(#path-7-inside-1_183_4097)"/>
<path d="M306 96L252.5 53.5H193.5" stroke="#386667" stroke-width="5" stroke-linejoin="round"/>
<circle cx="190" cy="54" r="10" fill="#386667"/>
</svg>
